<svg xmlns="http://www.w3.org/2000/svg" xmlns:xlink="http://www.w3.org/1999/xlink" id="Capa_1" x="0px" y="0px" viewBox="0 0 40 40" style="enable-background:new 0 0 40 40;" xml:space="preserve">
<style type="text/css">
	.st0{fill:#7BAA39;}
	.st1{fill:#7BAA39;stroke:#7BAA39;stroke-width:0.5898;stroke-miterlimit:10;}
	.st2{fill:#7BAA39;stroke:#7BAA39;stroke-width:0.5;stroke-miterlimit:10;}
	.st3{fill:#7BAA39;stroke:#7BAA39;stroke-miterlimit:10;}
	.st4{fill:#FFFFFF;}
	.st5{fill:#7BAA39;stroke:#7BAA39;stroke-width:0.9877;stroke-miterlimit:10;}
	.st6{fill:#698E21;}
	.st7{fill:#7BAA39;stroke:#7BAA39;stroke-width:1.9097;stroke-miterlimit:10;}
	.st8{fill:#7BAA39;stroke:#7BAA39;stroke-width:0.6979;stroke-miterlimit:10;}
	.st9{fill:#7BAA39;stroke:#7BAA39;stroke-width:0.5544;stroke-miterlimit:10;}
	.st10{fill:#7BAA39;stroke:#7BAA39;stroke-width:0.7505;stroke-miterlimit:10;}
	.st11{fill:#7BAA39;stroke:#7BAA39;stroke-width:0.1953;stroke-miterlimit:10;}
</style>
<path class="st0" d="M-27.9-148c-10.2,0-18.5,8.3-18.5,18.5s8.3,18.5,18.5,18.5c10.2,0,18.5-8.3,18.5-18.5S-17.7-148-27.9-148z   M-27.9-115.6c-7.7,0-13.9-6.2-13.9-13.9c0-7.7,6.2-13.9,13.9-13.9c7.7,0,13.9,6.2,13.9,13.9C-14-121.8-20.2-115.6-27.9-115.6z   M-17.9-127.9c0,1.3-1,2.3-2.3,2.3h-9.3c-1.3,0-2.3-1-2.3-2.3v-9.3c0-1.3,1-2.3,2.3-2.3c1.3,0,2.3,1,2.3,2.3v6.9h6.9  C-19-130.2-17.9-129.2-17.9-127.9z"></path>
<rect x="-14" y="-217" class="st0" width="40" height="40"></rect>
<g>
	<g>
		<path class="st0" d="M7.6-83.5c-1.1,0-2.1-0.2-3-0.6c-0.8-0.4-1.5-1-2.1-1.6c-0.5-0.7-0.9-1.5-1.2-2.3C1.1-88.9,1-89.9,1-90.8    c0-0.9,0.1-1.9,0.4-2.7c0.3-0.9,0.7-1.7,1.2-2.3c0.5-0.7,1.2-1.2,2.1-1.6c0.8-0.4,1.8-0.6,3-0.6c1.1,0,2.1,0.2,2.9,0.6    c0.8,0.4,1.5,1,2.1,1.6c0.6,0.7,1,1.5,1.2,2.3c0.3,0.9,0.4,1.8,0.4,2.7c0,0.9-0.1,1.8-0.4,2.7c-0.3,0.9-0.7,1.6-1.2,2.3    c-0.6,0.7-1.2,1.2-2.1,1.6C9.7-83.7,8.7-83.5,7.6-83.5z M7.6-86.8c0.8,0,1.4-0.4,1.8-1.1c0.4-0.7,0.6-1.7,0.6-2.9    c0-1.2-0.2-2.2-0.6-2.9c-0.4-0.7-1-1.1-1.8-1.1s-1.4,0.4-1.8,1.1C5.4-93,5.2-92,5.2-90.8c0,1.2,0.2,2.2,0.6,2.9    C6.2-87.1,6.8-86.8,7.6-86.8z M23.4-97.8c0.8-0.1,1.6-0.2,2.4-0.2c0.7,0,1.5,0.1,2.4,0.2L11.5-73.4c-0.8,0.1-1.6,0.2-2.3,0.2    c-0.8,0-1.6-0.1-2.4-0.2L23.4-97.8z M27.4-73c-1.1,0-2.1-0.2-3-0.6c-0.8-0.4-1.5-1-2.1-1.6c-0.5-0.7-0.9-1.5-1.2-2.3    c-0.3-0.9-0.4-1.8-0.4-2.7c0-0.9,0.1-1.9,0.4-2.7c0.3-0.9,0.7-1.7,1.2-2.3c0.5-0.7,1.2-1.2,2.1-1.6c0.8-0.4,1.8-0.6,3-0.6    c1.1,0,2.1,0.2,2.9,0.6c0.8,0.4,1.5,1,2.1,1.6c0.6,0.7,1,1.5,1.2,2.3c0.3,0.9,0.4,1.8,0.4,2.7c0,0.9-0.1,1.8-0.4,2.7    c-0.3,0.9-0.7,1.6-1.2,2.3c-0.6,0.7-1.2,1.2-2.1,1.6C29.5-73.2,28.5-73,27.4-73z M27.4-76.2c0.8,0,1.4-0.4,1.8-1.1    c0.4-0.7,0.6-1.7,0.6-2.9c0-1.2-0.2-2.2-0.6-2.9c-0.4-0.7-1-1.1-1.8-1.1s-1.4,0.4-1.8,1.1c-0.4,0.7-0.6,1.7-0.6,2.9    c0,1.2,0.2,2.2,0.6,2.9C25.9-76.6,26.5-76.2,27.4-76.2z"></path>
	</g>
</g>
<path class="st0" d="M-11.8-99.8h-6.1v-3c0-1.3-1.1-2.4-2.4-2.4s-2.4,1.1-2.4,2.4v3h-10.9v-3c0-1.3-1.1-2.4-2.4-2.4  c-1.3,0-2.4,1.1-2.4,2.4v3h-6.1c-1,0-1.8,0.8-1.8,1.8v26.3c0,1,0.8,1.8,1.8,1.8h32.7c1,0,1.8-0.8,1.8-1.8V-98  C-10-99-10.8-99.8-11.8-99.8z M-29.4-91.7v4.8h-5.8v-4.8H-29.4z M-27-91.7h5.8v4.8H-27V-91.7z M-37.6-91.7v4.8h-5.1v-4.8H-37.6z   M-37.6-84.4v3.6h-5.1v-3.6H-37.6z M-35.1-84.4h5.8v3.6h-5.8V-84.4z M-29.4-78.4v4.9h-5.8v-4.9H-29.4z M-27-78.4h5.8v4.9H-27V-78.4z   M-27-80.8v-3.6h5.8v3.6H-27z M-18.8-84.4h5.1v3.6h-5.1V-84.4z M-18.8-86.9v-4.8h5.1v4.8H-18.8z M-42.7-78.4h5.1v4.9h-5.1V-78.4z   M-18.8-73.5v-4.9h5.1v4.9H-18.8z"></path>
<g>
	<path class="st1" d="M-5.1-85.2v-1.9h4.4v1.9H-5.1z"></path>
</g>
<path class="st2" d="M55.9-117.3h-2.1c-0.6,0-1.1-0.5-1.1-1.1c0-0.6,0.5-1.1,1.1-1.1h2.1c0.6,0,1.1,0.5,1.1,1.1  C57-117.8,56.5-117.3,55.9-117.3z M87-140.8v25.7c0,2.4-1.9,4.3-4.3,4.3H59.1c-2.4,0-4.3-1.9-4.3-4.3h1.1c1.8,0,3.2-1.4,3.2-3.2  c0-1.8-1.4-3.2-3.2-3.2h-1.1v-12.9h1.1c1.8,0,3.2-1.4,3.2-3.2c0-1.8-1.4-3.2-3.2-3.2h-1.1c0-2.4,1.9-4.3,4.3-4.3h23.6  C85.1-145.1,87-143.2,87-140.8z M84.9-140.8c0-1.2-1-2.1-2.1-2.1H63.4v30h19.3c1.2,0,2.1-1,2.1-2.1V-140.8z M53.8-136.6h2.1  c0.6,0,1.1-0.5,1.1-1.1c0-0.6-0.5-1.1-1.1-1.1h-2.1c-0.6,0-1.1,0.5-1.1,1.1C52.7-137,53.2-136.6,53.8-136.6z M81.6-140.8h-15  c-0.6,0-1.1,0.5-1.1,1.1c0,0.6,0.5,1.1,1.1,1.1h15c0.6,0,1.1-0.5,1.1-1.1C82.7-140.4,82.2-140.8,81.6-140.8z M81.6-136.6h-15  c-0.6,0-1.1,0.5-1.1,1.1c0,0.6,0.5,1.1,1.1,1.1h15c0.6,0,1.1-0.5,1.1-1.1C82.7-136.1,82.2-136.6,81.6-136.6z M81.6-132.3h-15  c-0.6,0-1.1,0.5-1.1,1.1c0,0.6,0.5,1.1,1.1,1.1h15c0.6,0,1.1-0.5,1.1-1.1C82.7-131.8,82.2-132.3,81.6-132.3z M81.6-128h-15  c-0.6,0-1.1,0.5-1.1,1.1c0,0.6,0.5,1.1,1.1,1.1h15c0.6,0,1.1-0.5,1.1-1.1C82.7-127.5,82.2-128,81.6-128z M81.6-123.7h-15  c-0.6,0-1.1,0.5-1.1,1.1c0,0.6,0.5,1.1,1.1,1.1h15c0.6,0,1.1-0.5,1.1-1.1C82.7-123.2,82.2-123.7,81.6-123.7z M75.2-119.4h-8.6  c-0.6,0-1.1,0.5-1.1,1.1c0,0.6,0.5,1.1,1.1,1.1h8.6c0.6,0,1.1-0.5,1.1-1.1C76.3-118.9,75.8-119.4,75.2-119.4z"></path>
<g>
	<path class="st3" d="M113.4-126.2c0-1.2,3.5-2.1,4.8-3.5c1.1-1.2,2.1-2.4,1.9-4.9c-0.2-3.1-2.1-12.3-2.1-12.3h-10.6   c0,0-1.9,9.2-2.1,12.3c-0.1,2.6,0.8,3.8,1.9,4.9c1.4,1.4,4.8,2.4,4.8,3.5c0,1.2,0.1,4.1,0.1,4.1h0v11.5h-4.8v0.6h10.6v-0.6h-4.8   v-11.5C113.4-122.1,113.4-125.1,113.4-126.2z"></path>
	<g>
		<path class="st4" d="M109.2-138.3c-0.3,3.6,0,7.5,2.4,9.4c-2.6-1.2-4.3-1.9-3.8-9.4H107l1.1-8h9.5l1.1,8H109.2z"></path>
	</g>
</g>
<g>
	<path class="st0" d="M53.9-76.5c-1.4,0-2.7,1.4-2.7,3s1.3,3.1,2.7,3.1c1.4,0,2.6-1.5,2.6-3.1S55.3-76.5,53.9-76.5z"></path>
	<path class="st0" d="M63.6-100.6h22.9c1.4,0,2.5-1.2,2.5-2.8c0-1.6-1.1-2.9-2.5-2.9H63.6c-1.4,0-2.5,1.3-2.5,2.9   C61.1-101.8,62.2-100.6,63.6-100.6z"></path>
	<path class="st0" d="M53.9-106.5c-1.4,0-2.7,1.5-2.7,3.1c0,1.7,1.3,3,2.7,3c1.4,0,2.6-1.4,2.6-3C56.5-105.1,55.3-106.5,53.9-106.5z   "></path>
	<path class="st0" d="M86.5-91.3H63.6c-1.4,0-2.5,1.3-2.5,2.9s1.1,2.9,2.5,2.9h22.9c1.4,0,2.5-1.3,2.5-2.9S87.9-91.3,86.5-91.3z"></path>
	<path class="st0" d="M86.5-76.3H63.6c-1.4,0-2.5,1.3-2.5,2.9c0,1.6,1.1,2.9,2.5,2.9h22.9c1.4,0,2.5-1.3,2.5-2.9   C89-75,87.9-76.3,86.5-76.3z"></path>
</g>
<path class="st5" d="M33.5-120.7c0,0.8-0.7,1.5-1.6,1.5H-3.9c-0.9,0-1.6-0.7-1.6-1.5c0-0.8,0.7-1.5,1.6-1.5h35.8  C32.8-122.2,33.5-121.5,33.5-120.7z M16.1-140.4c-0.1-1-0.9-1.8-1.9-1.8c-1,0-1.8,0.8-1.9,1.8c0.6-0.1,1.2-0.1,1.9-0.1  C14.9-140.6,15.5-140.5,16.1-140.4z M30.9-124.5H-2.4c0.7-8.6,7.9-15.4,16.7-15.4C23-139.9,30.2-133.1,30.9-124.5z M12.3-138.4  c0,0-9.3,2-12.1,12.4c2.5,0,3.5,0,3.5,0S5.7-134.7,12.3-138.4z"></path>
<polygon class="st6" points="56.8,-85 54.4,-86.3 52,-85 52.5,-87.7 50.5,-89.5 53.2,-89.9 54.4,-92.3 55.6,-89.9 58.2,-89.5   56.3,-87.7 "></polygon>
<g>
	<path class="st0" d="M113.7-103.3c-7.4,0-13.5,6-13.5,13.5c0,7.4,6,13.5,13.5,13.5c7.4,0,13.5-6,13.5-13.5   C127.2-97.3,121.2-103.3,113.7-103.3z M123.6-92.3c0,0.1,0.1,0.3,0.1,0.4c0,0.2,0.1,0.4,0.1,0.6c0,0.1,0,0.2,0.1,0.4   c0,0.3,0.1,0.7,0.1,1c0,0.3,0,0.7-0.1,1c0,0.1,0,0.2-0.1,0.4c0,0.2-0.1,0.4-0.1,0.6c0,0.1-0.1,0.3-0.1,0.4c0,0.2-0.1,0.4-0.1,0.5   c0,0.2-0.1,0.3-0.2,0.5c-0.1,0.2-0.1,0.3-0.2,0.5c-0.1,0.2-0.1,0.3-0.2,0.5c-0.1,0.1-0.1,0.3-0.2,0.4c-0.1,0.2-0.2,0.3-0.3,0.5   c-0.1,0.1-0.1,0.2-0.2,0.4c-0.1,0.2-0.2,0.3-0.4,0.5c-0.1,0.1-0.1,0.2-0.2,0.3c-0.1,0.2-0.3,0.3-0.4,0.5c-0.1,0.1-0.1,0.2-0.2,0.2   c-0.2,0.2-0.3,0.3-0.5,0.4c-0.1,0.1-0.1,0.1-0.2,0.2c-0.2,0.1-0.4,0.3-0.5,0.4c-0.1,0.1-0.1,0.1-0.2,0.2c-0.2,0.1-0.4,0.2-0.6,0.4   c-0.1,0-0.2,0.1-0.2,0.1c-0.2,0.1-0.4,0.2-0.6,0.3c-0.1,0-0.2,0.1-0.2,0.1c-0.2,0.1-0.4,0.2-0.7,0.2c-0.1,0-0.2,0.1-0.3,0.1   c-0.2,0.1-0.5,0.1-0.7,0.2c-0.1,0-0.2,0.1-0.3,0.1c-0.2,0-0.5,0.1-0.7,0.1c-0.1,0-0.2,0-0.3,0c-0.2,0-0.4,0-0.7,0   c-0.1,0-0.2,0-0.3,0v0c0,0,0,0-0.1,0c-5.6,0-10.1-4.5-10.1-10.1c0-5.6,4.5-10.1,10.1-10.1c0,0,0,0,0.1,0v0c0.1,0,0.2,0,0.3,0   c0.2,0,0.5,0,0.7,0c0.1,0,0.2,0,0.3,0c0.2,0,0.5,0.1,0.7,0.1c0.1,0,0.2,0,0.2,0.1c0.2,0.1,0.5,0.1,0.7,0.2c0.1,0,0.1,0.1,0.2,0.1   c0.2,0.1,0.5,0.2,0.7,0.3c0.1,0,0.1,0.1,0.2,0.1c0.2,0.1,0.5,0.2,0.7,0.3c0.1,0,0.1,0.1,0.2,0.1c0.2,0.1,0.4,0.2,0.6,0.4   c0.1,0,0.1,0.1,0.2,0.2c0.2,0.1,0.4,0.3,0.6,0.4c0.1,0.1,0.1,0.1,0.2,0.2c0.2,0.2,0.3,0.3,0.5,0.5c0.1,0.1,0.1,0.2,0.2,0.2   c0.1,0.2,0.3,0.3,0.4,0.5c0.1,0.1,0.1,0.2,0.2,0.3c0.1,0.2,0.3,0.3,0.4,0.5c0.1,0.1,0.1,0.2,0.2,0.3c0.1,0.2,0.2,0.3,0.3,0.5   c0.1,0.1,0.1,0.3,0.2,0.4c0.1,0.2,0.2,0.3,0.2,0.5c0.1,0.2,0.1,0.3,0.2,0.5c0.1,0.2,0.1,0.3,0.2,0.5   C123.5-92.7,123.5-92.5,123.6-92.3z M123.3-89.9c0,5.3-4.3,9.5-9.5,9.5c-5.3,0-9.5-4.3-9.5-9.5c0-5.3,4.3-9.5,9.5-9.5   C119-99.4,123.3-95.1,123.3-89.9z M132-100.4v22.3c0,0.6-0.4,1.1-0.9,1.2v0c-0.1,0-0.2,0-0.3,0c-0.7,0-1.3-0.6-1.2-1.3   c0.2-2.1,1.5-6.7,0.8-8.5c-0.4-1-1.7-2.9-1.7-6c0-5.8,1.4-7.9,2.3-8.4c0,0,0,0,0,0C131.5-101.2,132-100.9,132-100.4z M98.6-101   c0.3,1.8,0.5,5.2,0.5,6.9c0,2.1-0.4,2.1-1.7,2.6l0.5,13.4c0,0.7-0.5,1.3-1.2,1.3c-0.1,0-0.1,0-0.2,0v0c-0.6-0.1-1-0.6-1-1.3   L96-91.4c-1.3-0.5-1.7-0.5-1.7-2.6c0-1.7,0.3-5.2,0.5-6.9h0.3l0.1,7.6h0.6L96-101h0.3l0.1,7.6h0.1h0.1H97l0.1-7.6h0.3l0.1,7.6h0.6   l0.1-7.6H98.6z"></path>
</g>
<g>
	<path d="M53.3-151.8c0-0.4,0-0.9,0-1.2h0c-0.1,0.3-0.2,0.7-0.4,1.1l-0.5,1.4h-0.3l-0.5-1.3c-0.1-0.4-0.2-0.8-0.3-1.1h0   c0,0.3,0,0.8-0.1,1.2l-0.1,1.2h-0.3l0.2-2.8h0.5L52-152c0.1,0.3,0.2,0.7,0.3,0.9h0c0.1-0.3,0.2-0.6,0.3-0.9l0.5-1.4h0.5l0.2,2.8   h-0.4L53.3-151.8z"></path>
	<path d="M56.1-151.6c0,0.7-0.5,1.1-1,1.1c-0.5,0-1-0.4-1-1c0-0.7,0.4-1.1,1-1.1C55.7-152.6,56.1-152.2,56.1-151.6z M54.5-151.5   c0,0.4,0.3,0.8,0.6,0.8c0.4,0,0.6-0.3,0.6-0.8c0-0.3-0.2-0.8-0.6-0.8C54.7-152.3,54.5-151.9,54.5-151.5z"></path>
	<path d="M56.6-152c0-0.2,0-0.4,0-0.5h0.3l0,0.3h0c0.1-0.2,0.3-0.4,0.6-0.4c0.3,0,0.5,0.2,0.6,0.4h0c0.1-0.1,0.1-0.2,0.2-0.3   c0.1-0.1,0.3-0.1,0.4-0.1c0.3,0,0.7,0.2,0.7,0.9v1.2h-0.4v-1.1c0-0.4-0.1-0.6-0.4-0.6c-0.2,0-0.4,0.2-0.4,0.3c0,0.1,0,0.1,0,0.2   v1.2h-0.4v-1.2c0-0.3-0.1-0.6-0.4-0.6c-0.2,0-0.4,0.2-0.5,0.4c0,0.1,0,0.1,0,0.2v1.2h-0.4V-152z"></path>
	<path d="M60.3-151.5c0,0.5,0.3,0.7,0.7,0.7c0.3,0,0.4,0,0.6-0.1l0.1,0.3c-0.1,0.1-0.3,0.1-0.7,0.1c-0.6,0-1-0.4-1-1   c0-0.6,0.4-1.1,0.9-1.1c0.7,0,0.8,0.6,0.8,0.9c0,0.1,0,0.1,0,0.2H60.3z M61.3-151.7c0-0.2-0.1-0.6-0.5-0.6c-0.4,0-0.5,0.3-0.6,0.6   H61.3z"></path>
	<path d="M62.2-152c0-0.2,0-0.4,0-0.5h0.3l0,0.3h0c0.1-0.2,0.3-0.4,0.7-0.4c0.3,0,0.7,0.2,0.7,0.9v1.2h-0.4v-1.2   c0-0.3-0.1-0.6-0.5-0.6c-0.2,0-0.4,0.2-0.5,0.4c0,0,0,0.1,0,0.2v1.2h-0.4V-152z"></path>
	<path d="M64.9-153.1v0.6h0.5v0.3h-0.5v1.1c0,0.2,0.1,0.4,0.3,0.4c0.1,0,0.2,0,0.2,0l0,0.3c-0.1,0-0.2,0.1-0.3,0.1   c-0.2,0-0.3-0.1-0.4-0.2c-0.1-0.1-0.1-0.3-0.1-0.5v-1.1h-0.3v-0.3h0.3v-0.5L64.9-153.1z"></path>
	<path d="M67.6-151.6c0,0.7-0.5,1.1-1,1.1c-0.5,0-1-0.4-1-1c0-0.7,0.4-1.1,1-1.1C67.2-152.6,67.6-152.2,67.6-151.6z M66-151.5   c0,0.4,0.3,0.8,0.6,0.8c0.4,0,0.6-0.3,0.6-0.8c0-0.3-0.2-0.8-0.6-0.8C66.2-152.3,66-151.9,66-151.5z"></path>
	<path d="M68-150.9c0.1,0.1,0.3,0.1,0.5,0.1c0.3,0,0.4-0.1,0.4-0.3c0-0.2-0.1-0.3-0.4-0.4c-0.4-0.1-0.5-0.3-0.5-0.6   c0-0.3,0.3-0.6,0.7-0.6c0.2,0,0.4,0.1,0.5,0.1l-0.1,0.3c-0.1,0-0.2-0.1-0.4-0.1c-0.2,0-0.3,0.1-0.3,0.3c0,0.2,0.1,0.2,0.4,0.3   c0.3,0.1,0.5,0.3,0.5,0.6c0,0.4-0.3,0.6-0.8,0.6c-0.2,0-0.4-0.1-0.6-0.1L68-150.9z"></path>
	<path d="M70.6-150.5c0-0.1,0-0.3,0-0.5v-2.4H71v1.3h0c0.1-0.2,0.4-0.4,0.7-0.4c0.5,0,0.9,0.4,0.8,1c0,0.7-0.5,1.1-0.9,1.1   c-0.3,0-0.5-0.1-0.7-0.4h0l0,0.3H70.6z M71-151.3c0,0,0,0.1,0,0.1c0.1,0.3,0.3,0.4,0.5,0.4c0.4,0,0.6-0.3,0.6-0.8   c0-0.4-0.2-0.7-0.6-0.7c-0.2,0-0.5,0.2-0.6,0.4c0,0,0,0.1,0,0.1V-151.3z"></path>
	<path d="M74.8-151.6c0,0.7-0.5,1.1-1,1.1c-0.5,0-1-0.4-1-1c0-0.7,0.4-1.1,1-1.1C74.4-152.6,74.8-152.2,74.8-151.6z M73.2-151.5   c0,0.4,0.3,0.8,0.6,0.8c0.4,0,0.6-0.3,0.6-0.8c0-0.3-0.2-0.8-0.6-0.8C73.4-152.3,73.2-151.9,73.2-151.5z"></path>
	<path d="M77-153.5v2.4c0,0.2,0,0.4,0,0.5h-0.3l0-0.3h0c-0.1,0.2-0.4,0.4-0.7,0.4c-0.5,0-0.9-0.4-0.9-1c0-0.7,0.4-1.1,0.9-1.1   c0.3,0,0.5,0.1,0.6,0.3h0v-1.2H77z M76.7-151.7c0,0,0-0.1,0-0.2c-0.1-0.2-0.3-0.4-0.5-0.4c-0.4,0-0.6,0.3-0.6,0.8   c0,0.4,0.2,0.7,0.6,0.7c0.2,0,0.5-0.2,0.5-0.4c0-0.1,0-0.1,0-0.2V-151.7z"></path>
	<path d="M77.5-150.8c0-0.2,0.1-0.3,0.2-0.3c0.1,0,0.2,0.1,0.2,0.3c0,0.1-0.1,0.3-0.2,0.3C77.6-150.5,77.5-150.6,77.5-150.8z"></path>
</g>
<rect x="147.7" y="-154.8" style="fill:none;" width="36.3" height="2.8"></rect>
<text transform="matrix(1 0 0 1 147.667 -152.7036)" style="font-family:'MyriadPro-Regular'; font-size:3px;">Regalate gastronomía. </text>
<g>
	<rect x="158.1" y="-134.7" class="st7" width="20.9" height="0.9"></rect>
	<rect x="158.1" y="-129.7" class="st7" width="20.9" height="0.9"></rect>
	<path class="st7" d="M179.5-147.1H157c-2.8,0-5.2,1.9-5.2,4.2v18.1c0,2.3,2.3,4.2,5.2,4.2h1.7l6.2,9.6l0.1,0.1l6.3-9.7h8.2   c2.8,0,5.1-1.9,5.1-4.2v-18.1C184.6-145.2,182.3-147.1,179.5-147.1z M179.5-121.4h-8.7l-5.8,9l-5.7-8.9l0-0.1H157   c-2.3,0-4.2-1.5-4.2-3.3v-18.1c0-1.8,1.9-3.3,4.2-3.3h22.4c2.3,0,4.2,1.5,4.2,3.3v18.1C183.7-122.9,181.8-121.4,179.5-121.4z"></path>
</g>
<polygon class="st2" points="170.8,-137 168.4,-138.3 166,-137 166.5,-139.7 164.5,-141.5 167.2,-141.9 168.4,-144.3 169.6,-141.9   172.2,-141.5 170.3,-139.7 "></polygon>
<g>
	<path class="st0" d="M205.7-128v9c-0.6,0.1-1.8,0.3-3.3,0.3c-1.5,0-2.8-0.2-3.3-0.2v-9c0-0.1,0.1-2.8,3.3-2.8   C205.7-130.8,205.7-128.1,205.7-128z M200.4-142.6c0,0,0,0.5,0,1.2h0.5v-4.2h0.8v4.2h2.7c0-0.7,0-1.2,0-1.2h0v-3.4h0.2v-1.6h-0.2   v-0.6h-2.7v0.6h-0.2v1.6h-0.8v-1.6h0.2v-0.6h-0.5v0.6h-0.2v1.6h0.2V-142.6z M206.9-136.3c0.8,1,1,2,1,4.1v21.8   c0,0.8-2.5,1.4-5.5,1.4c-3,0-5.5-0.6-5.5-1.4v-21.8c0-2.1,0.2-3.1,1-4.1c1-1.3,2.4-1.9,2.4-2.9c0-0.3,0-0.8,0-1.3h0.6v1.2   c0,0,0,1.4-1,2.3l-0.1,0.1c-1.2,1.1-2.2,2-2.2,4.6v21.9l0.8,0.3v-22.2c0-2.3,0.7-2.9,1.9-4.1l0.1-0.1c1.2-1.2,1.3-2.8,1.3-2.9v-1.2   h2.7c0,0.5,0,1,0,1.3C204.5-138.2,205.9-137.6,206.9-136.3z M206.2-128.1c0,0,0-3.3-3.8-3.3c-3.8,0-3.8,3.3-3.8,3.3v9.6   c0,0,1.6,0.3,3.8,0.3c2.2,0,3.8-0.3,3.8-0.3V-128.1z"></path>
</g>
<g>
	<path class="st8" d="M218.9-120.6c0-0.8,2.4-1.5,3.4-2.5c0.8-0.8,1.5-1.7,1.4-3.4c-0.1-2.1-1.4-8.6-1.4-8.6h-7.4   c0,0-1.3,6.4-1.4,8.6c-0.1,1.8,0.6,2.6,1.4,3.4c0.9,1,3.4,1.6,3.4,2.5c0,0.8,0,2.9,0,2.9h0v8.1h-3.3v0.4h7.4v-0.4h-3.4v-8.1   C218.9-117.8,218.9-119.8,218.9-120.6z"></path>
	<g>
		<path class="st4" d="M215.9-129.1c-0.2,2.5,0,5.3,1.7,6.5c-1.8-0.8-3-1.3-2.6-6.5h-0.5l0.8-5.6h6.6l0.7,5.6H215.9z"></path>
	</g>
</g>
<path class="st9" d="M150.6-89l1.4-0.4v6.2L150.6-89z M154.5-96.4h7.9l20-4.9L182-103c-0.3-1.2-1.5-2-2.7-1.7l-28.5,7  c-1.2,0.3-2,1.5-1.7,2.7l0.4,1.7l2.7-0.7v-0.2C152.3-95.3,153.3-96.4,154.5-96.4z M152.8-87.4h33.9v10.2c0,1.2-1,2.3-2.3,2.3h-29.4  c-1.2,0-2.3-1-2.3-2.3V-87.4z M160.7-83.7c0,0,0.1-0.1,0.1-0.1c-0.1,0-0.3,0-0.4,0.1C160.5-83.8,160.6-83.8,160.7-83.7z M160.2-83.7  c0,0-0.1,0-0.1,0c0,0.1-0.1,0.2-0.1,0.3c0,0-0.4,0.7,0,0.5c0.2-0.1,0.3-0.2,0.4-0.3c0.1-0.1,0.2-0.2,0.3-0.3  C160.5-83.6,160.3-83.6,160.2-83.7z M161-84.1c0.5-0.6,1-1.1,1.5-1.7h-1.3c0.1,0.1,0.1,0.2,0,0.4c-0.3,0.5-0.6,0.9-0.9,1.4  C160.5-84,160.8-84,161-84.1z M160.9-83.7c0.2,0.1,0.4,0.1,0.6,0.2c0.1-0.2,0.2-0.3,0.3-0.5c0,0,0,0-0.1,0c-0.2,0-0.4,0.1-0.6,0.1  C161.1-83.8,161-83.8,160.9-83.7z M161.9-84.2c0-0.1,0.1-0.1,0.1-0.2c0.2-0.4,0.3-0.8,0.5-1.1c-0.4,0.5-0.8,0.9-1.2,1.4  C161.5-84.1,161.7-84.2,161.9-84.2z M162.3-84c0,0.1,0,0.3,0,0.4c0.1-0.1,0.2-0.3,0.3-0.5C162.5-84.1,162.4-84.1,162.3-84  C162.3-84,162.3-84,162.3-84z M161.9-83.3c0,0,0.1,0,0.1,0.1c0.6,0.3,1.2,0.7,2,0.7c0.3,0,1.1,0.1,0.8-0.4c-0.1-0.1-0.1-0.3-0.1-0.4  c0-0.3,0.2-0.7,0.2-1c-0.2,0-0.5,0-0.7,0.1c-0.2,0.1-0.3,0.1-0.5,0.2c-0.1,0-0.1,0-0.1-0.1c0,0,0,0,0,0c-0.1,0-0.2,0-0.4,0  c-0.1,0.1-0.2,0.2-0.3,0.2c-0.1,0-0.1,0-0.1-0.1c0,0,0,0,0-0.1c0,0,0,0,0,0c-0.1,0.3-0.2,0.6-0.5,0.7c-0.1,0-0.1,0-0.1-0.1  c0-0.1,0-0.1,0-0.2c0,0.1-0.1,0.1-0.2,0.2C162-83.4,161.9-83.3,161.9-83.3z M163.6-84.4c0-0.2,0.1-0.3,0.2-0.5  c-0.1,0.1-0.3,0.3-0.4,0.5C163.5-84.4,163.6-84.4,163.6-84.4z M165-84.5c0-0.2-0.1-0.1-0.2,0c0,0-0.1,0-0.1,0  C164.8-84.5,164.9-84.5,165-84.5z M178.2-76.8h6.5V-80h-6.5V-76.8z M175.5-85.8h-12.7c-0.1,0.2-0.2,0.4-0.2,0.6c0,0,0,0,0.1-0.1  c0.1-0.1,0.2,0,0.2,0.1c-0.1,0.3-0.2,0.6-0.3,0.9c0,0,0,0,0,0.1c0.1,0,0.2,0,0.3,0c0.1-0.2,0.1-0.4,0.2-0.6c0-0.1,0.2,0,0.2,0  c0,0.2,0,0.3,0,0.5c0,0,0.1,0,0.1,0c0.1-0.1,0.2-0.3,0.3-0.4c0.1-0.2,0.3-0.3,0.5-0.4c0.1,0,0.1,0,0.1,0.1c0,0.2-0.2,0.4-0.2,0.7  c0.1,0,0.2,0,0.4,0c0.3-0.1,0.5-0.3,0.7-0.4c0,0,0.1,0,0.1,0c0.1,0.1,0.1,0.2,0.1,0.3c0.4,0,0.7,0,1.1-0.1c0.7,0,1.3-0.1,2-0.1  c0.6,0,1.2-0.1,1.8,0c0.1,0,0.1,0.2,0,0.2c-0.7-0.1-1.5,0-2.3,0c-0.7,0-1.3,0-2,0.1c-0.2,0-0.4,0-0.6,0c0,0.1,0,0.2-0.1,0.3  c-0.1,0.2-0.1,0.4-0.2,0.6c0,0.2,0.1,0.4,0.1,0.6c0.1,0.3,0,0.4-0.2,0.5h10.7V-85.8z M155-82.4h8.7c-0.1,0-0.1,0-0.2,0  c-0.6-0.1-1.1-0.4-1.6-0.7c0,0-0.1,0-0.1-0.1c-0.1,0.2-0.2,0.3-0.4,0.3c-0.1,0-0.1,0-0.1-0.1c0-0.1,0.1-0.3,0.1-0.4  c-0.2-0.1-0.4-0.2-0.6-0.2c-0.3,0.4-0.7,0.9-1.2,0.8c0,0-0.1-0.1-0.1-0.1c0-0.3,0.2-0.7,0.3-0.9c0,0-0.1,0-0.1,0  c-0.7,0.1-1.3,0.1-2,0.1c-0.5,0-1,0-1.6,0c-0.2,0-0.5,0-0.6-0.2c0,0,0-0.1,0-0.1c0.4-0.2,0.8-0.2,1.3-0.2c0.6,0,1.2,0,1.8,0.1  c0.3,0,0.7,0.1,1,0.1c0.1,0,0.2,0,0.3,0c0,0,0-0.1,0.1-0.1c0.2-0.3,0.4-0.6,0.6-0.9c0.1-0.1,0.5-0.8,0.1-0.6c-0.1,0-0.2-0.1-0.1-0.2  H155V-82.4z M156.7-83.9c-0.1,0-0.3,0-0.4,0c0,0-0.3,0.1-0.4,0.1c0.2,0,0.3,0,0.5,0c0.6,0,1.3,0,1.9,0c0.1,0,0.3,0,0.4,0  C158.1-83.9,157.4-83.9,156.7-83.9z M184.5-95.8h-29.4c-1.2,0-2.3,1-2.3,2.3v1.8h33.9v-1.8C186.7-94.8,185.7-95.8,184.5-95.8z   M183.5-96.2l-0.2-0.9l-3.9,1L183.5-96.2z"></path>
<g>
	<g>
		<path class="st0" d="M224.6-72.9c0.9,0.9,1,2.4,0.1,3.2c-0.9,0.9-2.3,0.8-3.2-0.1l-9.6-10.5c-0.7,0-1.4-0.2-2.2-0.5l3.5-3.5    l2.3,2.3L224.6-72.9z M204.4-84.5l4.3-4.3l-4.4-4.4c-3.5-3.5-6.9-6.9-9-9c-0.3-0.3-0.7-0.4-1.1-0.4c-0.3,0-0.7,0.3-0.8,1    c-0.3,2.9,1.8,8,9.5,15.6C203.5-85.4,204-84.9,204.4-84.5z M212.4-96.5l0.6-0.6c0,0,0,0,0,0L212.4-96.5z M228.5-97.5    c-0.5-0.5-1.2-0.6-1.5-0.3l-6.8,6.8c-0.3,0.3-1,0.3-1.4-0.2c-0.4-0.4-0.5-1.1-0.2-1.4l6.8-6.8c0.3-0.3,0.2-1-0.3-1.5    c-0.5-0.5-1.2-0.6-1.5-0.3l-6.8,6.8c-0.3,0.3-1,0.3-1.4-0.2c-0.4-0.4-0.5-1.1-0.2-1.4l6.8-6.8c0.3-0.3,0.2-1-0.3-1.5    c-0.5-0.5-1.2-0.6-1.5-0.3l-7.4,7.4c-2.4,2.4-1.6,4.1-0.3,5.6l-19,19c-0.9,0.9-1,2.4-0.1,3.2c0.9,0.9,2.3,0.8,3.2-0.1l19-19    c1.5,1.4,3.2,2.1,5.6-0.3l7.4-7.4C229.1-96.3,229-97,228.5-97.5z"></path>
	</g>
</g>
<rect x="246.7" y="-152.8" style="fill:none;" width="29.3" height="2.8"></rect>
<text transform="matrix(1 0 0 1 246.667 -150.7036)" style="font-family:'MyriadPro-Regular'; font-size:3px;">Ofertas gastronómicos. </text>
<path class="st10" d="M285.1-130l-18.4-16.4c-0.7-0.6-2-1.1-2.9-1.1l-13.3,0.3c-0.9,0-1.7,0.8-1.7,1.7l-0.3,13.3  c0,0.9,0.5,2.2,1.1,2.9l16.4,18.4c0.6,0.7,1.6,0.7,2.3,0.1l17-17C285.8-128.4,285.8-129.4,285.1-130z M257.5-138.5c-1,1-2.5,1-3.5,0  c-1-1-1-2.5,0-3.5c1-1,2.5-1,3.5,0C258.5-141,258.5-139.4,257.5-138.5z M275.3-127.6h-15.2v-2.8h15.2L275.3-127.6L275.3-127.6z"></path>
<path class="st0" d="M327.1-131.8l0.7,20.7c0,1.1-0.8,2-1.8,2c0,0-0.1,0-0.1,0c0,0-0.1,0-0.1,0v0c-0.9-0.1-1.6-1-1.6-2l0.7-20.7  c-2-0.8-4.1-2.2-4.1-5.5c0-4.1,2.7-9.2,4.9-9.6v0c0,0,0.1,0,0.1,0c0,0,0,0,0,0c0,0,0.1,0,0.1,0c2.2,0,5.2,5.4,5.2,9.6  C331.2-134,329.1-132.6,327.1-131.8z M295.6-146.6C295.6-146.6,295.6-146.5,295.6-146.6c-1.5,0.8-3.6,4-3.6,12.9  c0,4.8,2,7.7,2.6,9.3c1,2.8-0.9,9.8-1.3,13.1c-0.1,1.1,0.8,2,1.8,2c0.2,0,0.3,0,0.5-0.1v0c0.8-0.2,1.4-1,1.4-1.9v-34.3  C297-146.3,296.3-146.8,295.6-146.6z M312.5-146.5l-0.1,11.7h-1l-0.2-11.7h-0.5l-0.2,11.7h-0.6h-0.2h-0.2l-0.2-11.7h-0.5l-0.2,11.7  h-1l-0.1-11.7h-0.5c-0.4,2.7-0.8,8-0.8,10.7c0,3.3,0.7,3.3,2.6,4.1l-0.7,20.7c0,1,0.7,1.8,1.5,1.9v0c0.1,0,0.2,0,0.3,0  c1,0,1.8-0.9,1.8-2l-0.7-20.7c2-0.8,2.6-0.7,2.6-4.1c0-2.7-0.4-7.9-0.8-10.7H312.5z"></path>
<path class="st0" d="M248.7-84.8H286v11.2c0,1.4-1.1,2.5-2.5,2.5h-32.3c-1.4,0-2.5-1.1-2.5-2.5V-84.8z M257.4-80.7  c0,0,0.1-0.1,0.1-0.1c-0.2,0-0.3,0-0.5,0.1C257.2-80.8,257.3-80.8,257.4-80.7z M256.7-80.7c0,0-0.1,0-0.1,0  c-0.1,0.1-0.1,0.2-0.2,0.3c0,0-0.4,0.8,0,0.6c0.2-0.1,0.3-0.2,0.5-0.4c0.1-0.1,0.2-0.2,0.3-0.4C257.1-80.6,256.9-80.6,256.7-80.7z   M257.7-81.1c0.5-0.6,1.1-1.3,1.6-1.9h-1.4c0.1,0.1,0.1,0.2,0,0.4c-0.3,0.5-0.7,1-1,1.5C257.1-81,257.4-81.1,257.7-81.1z   M257.6-80.7c0.2,0.1,0.4,0.1,0.6,0.2c0.1-0.2,0.2-0.4,0.3-0.6c0,0,0,0-0.1,0c-0.2,0-0.4,0.1-0.7,0.1  C257.7-80.8,257.7-80.7,257.6-80.7z M258.7-81.2c0-0.1,0.1-0.1,0.1-0.2c0.2-0.4,0.4-0.8,0.6-1.3c-0.4,0.5-0.9,1-1.3,1.5  C258.2-81.2,258.4-81.2,258.7-81.2z M259.2-81.1c0,0.2,0,0.3,0,0.5c0.2-0.1,0.3-0.3,0.3-0.5C259.4-81.1,259.3-81.1,259.2-81.1  C259.2-81.1,259.2-81.1,259.2-81.1z M258.7-80.3c0,0,0.1,0,0.1,0.1c0.7,0.4,1.3,0.7,2.2,0.8c0.3,0,1.2,0.1,0.9-0.4  c-0.1-0.1-0.1-0.3-0.1-0.4c0-0.4,0.2-0.7,0.3-1.1c-0.3,0-0.5,0-0.8,0.1c-0.2,0.1-0.4,0.2-0.6,0.2c-0.1,0-0.1,0-0.1-0.1c0,0,0,0,0,0  c-0.1,0-0.3,0-0.4,0c-0.1,0.1-0.2,0.2-0.3,0.2c-0.1,0-0.1,0-0.1-0.1c0,0,0,0,0-0.1c0,0,0,0,0,0c-0.1,0.3-0.3,0.6-0.6,0.8  c-0.1,0-0.1,0-0.2-0.1c0-0.1,0-0.1,0-0.2c-0.1,0.1-0.1,0.2-0.2,0.2C258.7-80.3,258.7-80.3,258.7-80.3z M260.6-81.4  c0-0.2,0.1-0.3,0.2-0.5c-0.2,0.1-0.3,0.3-0.4,0.5C260.4-81.4,260.5-81.4,260.6-81.4z M262.1-81.6c0-0.2-0.1-0.1-0.2,0  c0,0-0.1,0-0.1,0.1C261.8-81.6,261.9-81.6,262.1-81.6z M276.7-73.1h7.2v-3.6h-7.2V-73.1z M273.6-83h-14c-0.1,0.2-0.2,0.4-0.3,0.6  c0,0,0-0.1,0.1-0.1c0.1-0.1,0.2,0,0.2,0.1c-0.1,0.3-0.2,0.7-0.4,1c0,0,0,0,0,0.1c0.1,0,0.2,0,0.3,0c0.1-0.2,0.1-0.5,0.2-0.6  c0.1-0.1,0.2,0,0.2,0.1c0,0.2,0,0.4,0,0.5c0,0,0.1,0,0.1,0c0.1-0.1,0.2-0.3,0.3-0.4c0.1-0.2,0.3-0.3,0.5-0.4c0.1,0,0.2,0,0.2,0.1  c0,0.3-0.2,0.5-0.2,0.7c0.1,0,0.3,0,0.4,0c0.3-0.1,0.5-0.3,0.8-0.4c0,0,0.1,0,0.1,0c0.1,0.1,0.1,0.2,0.1,0.3c0.4,0,0.8-0.1,1.2-0.1  c0.7,0,1.5-0.1,2.2-0.1c0.6,0,1.3-0.1,2,0c0.1,0,0.1,0.2-0.1,0.2c-0.8-0.1-1.7,0-2.5,0c-0.7,0-1.5,0-2.2,0.1c-0.2,0-0.4,0-0.6,0  c0,0.1,0,0.2-0.1,0.3c-0.1,0.2-0.1,0.5-0.2,0.7c0,0.2,0.1,0.4,0.2,0.6c0.1,0.3,0,0.5-0.3,0.6h11.8V-83z M251.1-79.2h9.5  c-0.1,0-0.1,0-0.2,0c-0.6-0.1-1.2-0.5-1.7-0.7c0,0-0.1,0-0.1-0.1c-0.1,0.2-0.3,0.3-0.4,0.4c-0.1,0-0.1,0-0.1-0.1  c0-0.1,0.1-0.3,0.1-0.4c-0.2-0.1-0.5-0.2-0.7-0.2c-0.3,0.4-0.8,1-1.3,0.9c0,0-0.1-0.1-0.1-0.1c0-0.4,0.2-0.7,0.4-1c0,0-0.1,0-0.1,0  c-0.7,0.1-1.4,0.1-2.2,0.1c-0.6,0-1.1,0-1.7,0c-0.2,0-0.5,0-0.7-0.2c0,0,0-0.1,0-0.1c0.4-0.2,0.9-0.2,1.4-0.2c0.7,0,1.3,0,2,0.1  c0.4,0,0.7,0.1,1.1,0.1c0.1,0,0.2,0,0.3,0c0,0,0.1-0.1,0.1-0.1c0.2-0.3,0.5-0.7,0.7-1c0.1-0.1,0.6-0.8,0.2-0.7  c-0.1,0-0.2-0.1-0.1-0.2h-6.3V-79.2z M252.9-80.9c-0.1,0-0.3,0-0.4,0c0,0-0.4,0.1-0.4,0.1c0.2,0,0.3,0,0.5,0c0.7,0.1,1.4,0,2.1,0  c0.2,0,0.3,0,0.5,0C254.4-80.9,253.7-80.9,252.9-80.9z M283.5-94h-32.3c-1.4,0-2.5,1.1-2.5,2.5v1.9H286v-1.9  C286-92.9,284.9-94,283.5-94z"></path>
<path class="st10" d="M267-95.1c-11.8-6.5-3.3-14.5,0-9.1C270.3-109.6,278.8-101.6,267-95.1z"></path>
<g>
	<g>
		<path class="st0" d="M326.6-71.9c0.9,0.9,1,2.4,0.1,3.2c-0.9,0.9-2.3,0.8-3.2-0.1l-9.6-10.5c-0.7,0-1.4-0.2-2.2-0.5l3.5-3.5    l2.3,2.3L326.6-71.9z M306.4-83.5l4.3-4.3l-4.4-4.4c-3.5-3.5-6.9-6.9-9-9c-0.3-0.3-0.7-0.4-1.1-0.4c-0.3,0-0.7,0.3-0.8,1    c-0.3,2.9,1.8,8,9.5,15.6C305.5-84.4,306-83.9,306.4-83.5z M314.4-95.5L315-96c0,0,0,0,0,0L314.4-95.5z M330.5-96.5    c-0.5-0.5-1.2-0.6-1.5-0.3l-6.8,6.8c-0.3,0.3-1,0.3-1.4-0.2c-0.4-0.4-0.5-1.1-0.2-1.4l6.8-6.8c0.3-0.3,0.2-1-0.3-1.5    c-0.5-0.5-1.2-0.6-1.5-0.3l-6.8,6.8c-0.3,0.3-1,0.3-1.4-0.2c-0.4-0.4-0.5-1.1-0.2-1.4l6.8-6.8c0.3-0.3,0.2-1-0.3-1.5    c-0.5-0.5-1.2-0.6-1.5-0.3L315-96c-2.4,2.4-1.6,4.1-0.3,5.6l-19,19c-0.9,0.9-1,2.4-0.1,3.2c0.9,0.9,2.3,0.8,3.2-0.1l19-19    c1.5,1.4,3.2,2.1,5.6-0.3l7.4-7.4C331.1-95.3,331-96,330.5-96.5z"></path>
	</g>
</g>
<polygon class="st2" points="313.8,-97 311.4,-98.3 309,-97 309.5,-99.7 307.5,-101.5 310.2,-101.9 311.4,-104.3 312.6,-101.9   315.2,-101.5 313.3,-99.7 "></polygon>
<rect x="-42.3" y="-55.4" style="fill:none;" width="28.3" height="3.8"></rect>
<text transform="matrix(1 0 0 1 -42.334 -52.583)" style="font-family:'MyriadPro-Regular'; font-size:4px;">Hoteles. </text>
<g>
	<path class="st0" d="M-13.6-33.4h-5.2v-2.6c0-1.1-0.9-2.1-2.1-2.1s-2.1,0.9-2.1,2.1v2.6h-9.4v-2.6c0-1.1-0.9-2.1-2.1-2.1   c-1.1,0-2.1,0.9-2.1,2.1v2.6h-5.2c-0.9,0-1.6,0.7-1.6,1.6v22.6c0,0.9,0.7,1.6,1.6,1.6h28.1c0.9,0,1.6-0.7,1.6-1.6v-22.6   C-12-32.7-12.7-33.4-13.6-33.4z M-28.7-26.4v4.2h-4.9v-4.2H-28.7z M-26.6-26.4h4.9v4.2h-4.9V-26.4z M-35.7-26.4v4.2h-4.4v-4.2   H-35.7z M-35.7-20.1v3.1h-4.4v-3.1H-35.7z M-33.6-20.1h4.9v3.1h-4.9V-20.1z M-28.7-14.9v4.2h-4.9v-4.2H-28.7z M-26.6-14.9h4.9v4.2   h-4.9V-14.9z M-26.6-17v-3.1h4.9v3.1H-26.6z M-19.5-20.1h4.4v3.1h-4.4V-20.1z M-19.5-22.2v-4.2h4.4v4.2H-19.5z M-40.1-14.9h4.4v4.2   h-4.4V-14.9z M-19.5-10.7v-4.2h4.4v4.2H-19.5z"></path>
	<polygon class="st11" points="-23.1,-22.6 -24,-23.1 -25,-22.6 -24.8,-23.6 -25.5,-24.4 -24.5,-24.5 -24,-25.4 -23.6,-24.5    -22.5,-24.4 -23.3,-23.6  "></polygon>
	<polygon class="st11" points="-30,-17.5 -30.9,-17.9 -31.8,-17.4 -31.7,-18.5 -32.4,-19.2 -31.4,-19.4 -30.9,-20.3 -30.4,-19.4    -29.4,-19.2 -30.2,-18.5  "></polygon>
</g>
<g>
	<g>
		<g>
			<path class="st0" d="M36-9c0,0.6-0.5,1.1-1.1,1.1H5.1C4.5-7.9,4-8.4,4-9v-2c0-0.6,0.5-1.1,1.1-1.1h29.8c0.6,0,1.1,0.5,1.1,1.1V-9     z"></path>
		</g>
		<g>
			<g>
				<path class="st0" d="M22.6-32.2c0,0.1-0.1,0.2-0.2,0.2h-4.7c-0.1,0-0.2-0.1-0.2-0.2v-3.3c0-0.1,0.1-0.2,0.2-0.2h4.7      c0.1,0,0.2,0.1,0.2,0.2V-32.2z"></path>
			</g>
			<g>
				<path class="st0" d="M22.6-27.1c0,0.1-0.1,0.2-0.2,0.2h-4.7c-0.1,0-0.2-0.1-0.2-0.2v-3.3c0-0.1,0.1-0.2,0.2-0.2h4.7      c0.1,0,0.2,0.1,0.2,0.2V-27.1z"></path>
			</g>
			<g>
				<path class="st0" d="M22.6-22.1c0,0.1-0.1,0.2-0.2,0.2h-4.7c-0.1,0-0.2-0.1-0.2-0.2v-3.3c0-0.1,0.1-0.2,0.2-0.2h4.7      c0.1,0,0.2,0.1,0.2,0.2V-22.1z"></path>
			</g>
			<g>
				<path class="st0" d="M30.7-32.2c0,0.1-0.1,0.2-0.2,0.2h-4.7c-0.1,0-0.2-0.1-0.2-0.2v-3.3c0-0.1,0.1-0.2,0.2-0.2h4.7      c0.1,0,0.2,0.1,0.2,0.2V-32.2z"></path>
			</g>
			<g>
				<path class="st0" d="M30.7-27.1c0,0.1-0.1,0.2-0.2,0.2h-4.7c-0.1,0-0.2-0.1-0.2-0.2v-3.3c0-0.1,0.1-0.2,0.2-0.2h4.7      c0.1,0,0.2,0.1,0.2,0.2V-27.1z"></path>
			</g>
			<g>
				<path class="st0" d="M30.7-22.1c0,0.1-0.1,0.2-0.2,0.2h-4.7c-0.1,0-0.2-0.1-0.2-0.2v-3.3c0-0.1,0.1-0.2,0.2-0.2h4.7      c0.1,0,0.2,0.1,0.2,0.2V-22.1z"></path>
			</g>
			<g>
				<path class="st0" d="M14.5-32.2c0,0.1-0.1,0.2-0.2,0.2H9.6c-0.1,0-0.2-0.1-0.2-0.2v-3.3c0-0.1,0.1-0.2,0.2-0.2h4.7      c0.1,0,0.2,0.1,0.2,0.2V-32.2z"></path>
			</g>
			<g>
				<path class="st0" d="M14.5-27.1c0,0.1-0.1,0.2-0.2,0.2H9.6c-0.1,0-0.2-0.1-0.2-0.2v-3.3c0-0.1,0.1-0.2,0.2-0.2h4.7      c0.1,0,0.2,0.1,0.2,0.2V-27.1z"></path>
			</g>
			<g>
				<path class="st0" d="M14.5-22.1c0,0.1-0.1,0.2-0.2,0.2H9.6c-0.1,0-0.2-0.1-0.2-0.2v-3.3c0-0.1,0.1-0.2,0.2-0.2h4.7      c0.1,0,0.2,0.1,0.2,0.2V-22.1z"></path>
			</g>
		</g>
		<g>
			<path class="st0" d="M19.9-46.8c0-0.1,0.1-0.1,0.1,0c0.2,0.4,0.5,0.8,0.7,1.3c0,0.1,0.1,0.1,0.2,0.2c0.5,0.1,1,0.2,1.5,0.2     c0.1,0,0.1,0.1,0,0.1c-0.4,0.3-0.7,0.6-1.1,1c-0.1,0.1-0.1,0.2-0.1,0.3c0.1,0.5,0.2,0.9,0.2,1.4c0,0.1,0,0.1-0.1,0.1     c-0.4-0.2-0.9-0.5-1.3-0.7c-0.1,0-0.2,0-0.3,0c-0.4,0.2-0.9,0.4-1.3,0.7c-0.1,0-0.1,0-0.1-0.1c0.1-0.5,0.1-0.9,0.2-1.4     c0-0.1,0-0.2-0.1-0.3c-0.4-0.3-0.7-0.6-1.1-1c-0.1-0.1,0-0.1,0-0.1c0.5-0.1,1-0.2,1.5-0.2c0.1,0,0.2-0.1,0.2-0.2     C19.5-46,19.7-46.4,19.9-46.8"></path>
		</g>
		<g>
			<path class="st0" d="M25.1-45.3c0-0.1,0.1-0.1,0.1,0c0.2,0.4,0.3,0.7,0.5,1.1c0,0.1,0.1,0.1,0.2,0.1c0.4,0.1,0.8,0.2,1.2,0.3     c0.1,0,0.1,0.1,0,0.1c-0.3,0.3-0.6,0.5-1,0.8c-0.1,0-0.1,0.1-0.1,0.2c0,0.4,0.1,0.8,0.1,1.2c0,0.1,0,0.1-0.1,0.1     c-0.3-0.2-0.7-0.4-1-0.6c-0.1,0-0.2,0-0.2,0c-0.4,0.2-0.7,0.3-1.1,0.5c-0.1,0-0.1,0-0.1-0.1c0.1-0.4,0.2-0.8,0.3-1.2     c0-0.1,0-0.2-0.1-0.2c-0.3-0.3-0.6-0.6-0.9-0.9C23-44,23-44,23.1-44c0.4,0,0.8-0.1,1.3-0.1c0.1,0,0.2-0.1,0.2-0.1     C24.7-44.6,24.9-45,25.1-45.3"></path>
		</g>
		<g>
			<path class="st0" d="M14.5-45.3c0-0.1,0.1-0.1,0.1,0c0.2,0.3,0.4,0.7,0.6,1c0,0.1,0.1,0.1,0.2,0.1c0.4,0,0.8,0.1,1.3,0.1     c0.1,0,0.1,0.1,0,0.1c-0.3,0.3-0.6,0.6-0.9,0.9c-0.1,0.1-0.1,0.1-0.1,0.2c0.1,0.4,0.2,0.8,0.3,1.2c0,0.1,0,0.1-0.1,0.1     c-0.4-0.2-0.7-0.3-1.1-0.5c-0.1,0-0.2,0-0.2,0c-0.4,0.2-0.7,0.4-1.1,0.6c-0.1,0-0.1,0-0.1-0.1c0-0.4,0.1-0.8,0.1-1.2     c0-0.1,0-0.2-0.1-0.2c-0.3-0.3-0.6-0.5-1-0.8c-0.1,0,0-0.1,0-0.1c0.4-0.1,0.8-0.2,1.2-0.3c0.1,0,0.2-0.1,0.2-0.1     C14.1-44.6,14.3-45,14.5-45.3"></path>
		</g>
		<g>
			<path class="st0" d="M29.4-42.1C29.5-42.2,29.5-42.2,29.4-42.1c0.2,0.3,0.3,0.5,0.4,0.8c0,0,0.1,0.1,0.1,0.1     c0.3,0.1,0.6,0.2,0.8,0.2c0,0,0.1,0,0,0.1c-0.2,0.2-0.5,0.3-0.7,0.5c0,0-0.1,0.1-0.1,0.1c0,0.3,0,0.6,0,0.8c0,0,0,0.1-0.1,0     c-0.2-0.2-0.5-0.3-0.7-0.5c0,0-0.1,0-0.2,0c-0.3,0.1-0.5,0.2-0.8,0.3c0,0-0.1,0-0.1-0.1c0.1-0.3,0.2-0.5,0.2-0.8c0,0,0-0.1,0-0.2     c-0.2-0.2-0.4-0.4-0.6-0.6c0,0,0-0.1,0-0.1c0.3,0,0.6,0,0.9,0c0.1,0,0.1,0,0.1-0.1C29.1-41.7,29.3-41.9,29.4-42.1"></path>
		</g>
		<g>
			<path class="st0" d="M10.5-42.1C10.5-42.1,10.6-42.1,10.5-42.1c0.2,0.2,0.4,0.5,0.6,0.7c0,0,0.1,0.1,0.1,0.1c0.3,0,0.6,0,0.9,0     c0.1,0,0.1,0,0,0.1c-0.2,0.2-0.4,0.4-0.6,0.6c0,0,0,0.1,0,0.2c0.1,0.3,0.2,0.5,0.2,0.8c0,0,0,0.1-0.1,0.1     c-0.3-0.1-0.5-0.2-0.8-0.3c0,0-0.1,0-0.2,0c-0.2,0.2-0.5,0.3-0.7,0.5c0,0-0.1,0-0.1,0c0-0.3,0-0.6,0-0.8c0,0,0-0.1-0.1-0.1     c-0.2-0.2-0.5-0.3-0.7-0.5c0,0,0-0.1,0-0.1c0.3-0.1,0.6-0.2,0.8-0.2c0,0,0.1-0.1,0.1-0.1C10.3-41.5,10.4-41.8,10.5-42.1"></path>
		</g>
		<g>
			<g>
				<path class="st3" d="M12.8-40.5c0,0-0.1,0.1,0,0.2c0.1,0.2,0.1,0.4,0.2,0.7H27c0.1-0.2,0.1-0.5,0.2-0.7c0-0.1,0-0.2,0-0.2      c0,0-0.1-0.1-0.1-0.1H13C12.9-40.6,12.9-40.5,12.8-40.5z"></path>
			</g>
			<g>
				<g>
					<path class="st3" d="M8.1-9.7h23.8c1.1,0,2-0.9,2-2h-1c0,0.5-0.4,0.9-0.9,0.9H8.1c-0.5,0-0.9-0.4-0.9-0.9h-1       C6.2-10.6,7-9.7,8.1-9.7z"></path>
				</g>
				<g>
					<path class="st3" d="M7.2-13.3v-25.4c0-0.5,0.4-0.9,0.9-0.9h0.6c0-0.1,0-0.3,0-0.4c0-0.1,0-0.1-0.1-0.2       c-0.2-0.1-0.4-0.3-0.6-0.4l0,0c-1.1,0-1.9,0.9-1.9,2v25.4H7.2z"></path>
				</g>
				<g>
					<path class="st3" d="M31.9-39.6c0.5,0,0.9,0.4,0.9,0.9v25.4h1v-25.4c0-1.1-0.9-2-1.9-2l0,0c-0.2,0.1-0.3,0.2-0.5,0.4       c-0.1,0-0.1,0.1-0.1,0.2c0,0.2,0,0.3,0,0.5H31.9z"></path>
				</g>
			</g>
		</g>
		<g>
			<path class="st0" d="M25.2-13v-6.8c0-0.3-0.2-0.5-0.5-0.5h-9.4c-0.3,0-0.5,0.2-0.5,0.5v6.8H25.2z"></path>
		</g>
	</g>
</g>
<path class="st0" d="M-27.7-46c-2.4,0-4.3,1.9-4.3,4.3c0,0.9,0.3,1.8,0.8,2.5l0.1,0.2l3.1,4.3c0.1,0.1,0.2,0.1,0.3,0.1  c0.1,0,0.2-0.1,0.3-0.1l3-4.3l0.2-0.2c0.5-0.7,0.8-1.6,0.8-2.5C-23.4-44.1-25.3-46-27.7-46z M-27.7-40.3c-0.8,0-1.4-0.6-1.4-1.4  c0-0.8,0.6-1.4,1.4-1.4c0.8,0,1.4,0.6,1.4,1.4C-26.3-40.9-26.9-40.3-27.7-40.3z"></path>
<g>
	<g>
		<g>
			<g>
				<path class="st0" d="M-30.4,10.3c-6.3,0-11.5,5.1-11.5,11.5s5.1,11.5,11.5,11.5c6.3,0,11.5-5.1,11.5-11.5S-24,10.3-30.4,10.3z       M-22,19.7c0,0.1,0.1,0.2,0.1,0.4c0,0.2,0.1,0.4,0.1,0.5c0,0.1,0,0.2,0,0.3c0,0.3,0,0.6,0,0.9c0,0.3,0,0.6,0,0.9      c0,0.1,0,0.2,0,0.3c0,0.2,0,0.4-0.1,0.5c0,0.1-0.1,0.2-0.1,0.4c0,0.2-0.1,0.3-0.1,0.5c0,0.1-0.1,0.3-0.1,0.4      c0,0.1-0.1,0.3-0.1,0.4c-0.1,0.1-0.1,0.3-0.2,0.4c-0.1,0.1-0.1,0.2-0.2,0.4c-0.1,0.1-0.2,0.3-0.2,0.4c-0.1,0.1-0.1,0.2-0.2,0.3      c-0.1,0.1-0.2,0.3-0.3,0.4c-0.1,0.1-0.1,0.2-0.2,0.3c-0.1,0.1-0.2,0.3-0.4,0.4c-0.1,0.1-0.1,0.1-0.2,0.2      c-0.1,0.1-0.3,0.3-0.4,0.4c-0.1,0.1-0.1,0.1-0.2,0.2c-0.1,0.1-0.3,0.2-0.5,0.4c-0.1,0-0.1,0.1-0.2,0.1c-0.2,0.1-0.3,0.2-0.5,0.3      c-0.1,0-0.1,0.1-0.2,0.1c-0.2,0.1-0.4,0.2-0.5,0.3c-0.1,0-0.1,0.1-0.2,0.1c-0.2,0.1-0.4,0.1-0.6,0.2c-0.1,0-0.1,0.1-0.2,0.1      c-0.2,0.1-0.4,0.1-0.6,0.2c-0.1,0-0.2,0-0.2,0.1c-0.2,0-0.4,0.1-0.6,0.1c-0.1,0-0.2,0-0.3,0c-0.2,0-0.4,0-0.6,0      c-0.1,0-0.2,0-0.3,0v0c0,0,0,0-0.1,0c-4.8,0-8.6-3.9-8.6-8.6c0-4.8,3.9-8.6,8.6-8.6c0,0,0,0,0.1,0v0c0.1,0,0.2,0,0.2,0      c0.2,0,0.4,0,0.6,0c0.1,0,0.1,0,0.2,0c0.2,0,0.4,0.1,0.6,0.1c0.1,0,0.1,0,0.2,0.1c0.2,0,0.4,0.1,0.6,0.2c0.1,0,0.1,0,0.2,0.1      c0.2,0.1,0.4,0.1,0.6,0.2c0.1,0,0.1,0.1,0.2,0.1c0.2,0.1,0.4,0.2,0.6,0.3c0.1,0,0.1,0.1,0.2,0.1c0.2,0.1,0.4,0.2,0.5,0.3      c0.1,0,0.1,0.1,0.2,0.1c0.2,0.1,0.3,0.2,0.5,0.4c0.1,0.1,0.1,0.1,0.2,0.2c0.1,0.1,0.3,0.3,0.4,0.4c0.1,0.1,0.1,0.1,0.2,0.2      c0.1,0.1,0.3,0.3,0.4,0.4c0.1,0.1,0.1,0.2,0.2,0.2c0.1,0.1,0.2,0.3,0.3,0.4c0.1,0.1,0.1,0.2,0.2,0.3c0.1,0.1,0.2,0.3,0.3,0.4      c0.1,0.1,0.1,0.2,0.2,0.4c0.1,0.1,0.1,0.3,0.2,0.4c0.1,0.1,0.1,0.3,0.1,0.4c0,0.1,0.1,0.3,0.1,0.4C-22.1,19.4-22.1,19.6-22,19.7      z M-22.3,21.8c0,4.5-3.6,8.1-8.1,8.1c-4.5,0-8.1-3.6-8.1-8.1c0-4.5,3.6-8.1,8.1-8.1C-25.9,13.7-22.3,17.4-22.3,21.8z       M-43.3,12.4c0.2,1.5,0.5,4.4,0.5,5.9c0,1.8-0.4,1.8-1.5,2.2l0.4,11.4c0,0.6-0.5,1.1-1,1.1c0,0-0.1,0-0.1,0v0      c-0.5-0.1-0.9-0.5-0.9-1.1l0.4-11.4c-1.1-0.4-1.5-0.4-1.5-2.2c0-1.5,0.2-4.4,0.5-5.9h0.3l0.1,6.5h0.5l0.1-6.5h0.2l0.1,6.5h0.1      h0.1h0.3l0.1-6.5h0.3l0.1,6.5h0.5l0-6.5H-43.3z"></path>
			</g>
		</g>
	</g>
</g>
<g>
	<g>
		<path class="st0" d="M-13.4,21.4c0-0.7,2.2-1.3,3.1-2.3c0.7-0.8,1.3-1.5,1.3-3.2c-0.1-2-1.3-7.9-1.3-7.9h-6.8c0,0-1.2,5.9-1.3,7.9    c-0.1,1.6,0.5,2.4,1.3,3.2c0.9,0.9,3.1,1.5,3.1,2.3c0,0.7,0,2.6,0,2.6h0v7.4h-3.1v0.4h6.8v-0.4h-3.1V24    C-13.4,24-13.4,22.1-13.4,21.4z"></path>
		<path class="st0" d="M-16.1,13.6c-0.2,2.3,0,4.9,1.5,6c-1.6-0.7-2.8-1.2-2.4-6h-0.5l0.7-5.2h6.1l0.7,5.2H-16.1z"></path>
	</g>
</g>
<g>
	<g>
		<path class="st0" d="M13.4,18.7c0.1-0.1,0.2-0.3,0.2-0.4l-0.3-2c0-0.1,0-0.3,0.1-0.4l1.4-1.4c0.1-0.1,0.2-0.3,0.1-0.4    c-0.1-0.2-0.2-0.3-0.3-0.3l-2-0.3c-0.1,0-0.3-0.1-0.3-0.2l-0.9-1.8c-0.1-0.1-0.2-0.2-0.4-0.2c-0.2,0-0.3,0.1-0.4,0.2l-0.9,1.8    c-0.1,0.1-0.2,0.2-0.3,0.2l-2,0.3c-0.2,0-0.3,0.1-0.3,0.3c-0.1,0.2,0,0.3,0.1,0.4l1.4,1.4c0.1,0.1,0.1,0.2,0.1,0.4l-0.3,2    c0,0.2,0,0.3,0.2,0.4c0.1,0.1,0.3,0.1,0.5,0l1.8-0.9c0.1-0.1,0.3-0.1,0.4,0l1.8,0.9C13.1,18.8,13.2,18.7,13.4,18.7z"></path>
		<path class="st0" d="M22.7,18.7c0.1-0.1,0.2-0.3,0.2-0.4l-0.3-2c0-0.1,0-0.3,0.1-0.4l1.4-1.4c0.1-0.1,0.2-0.3,0.1-0.4    c-0.1-0.2-0.2-0.3-0.3-0.3l-2-0.3c-0.1,0-0.3-0.1-0.3-0.2l-0.9-1.8c-0.1-0.1-0.2-0.2-0.4-0.2c-0.2,0-0.3,0.1-0.4,0.2L19,13.2    c-0.1,0.1-0.2,0.2-0.3,0.2l-2,0.3c-0.2,0-0.3,0.1-0.3,0.3c-0.1,0.2,0,0.3,0.1,0.4l1.4,1.4c0.1,0.1,0.1,0.2,0.1,0.4l-0.3,2    c0,0.2,0,0.3,0.2,0.4c0.1,0.1,0.3,0.1,0.5,0l1.8-0.9c0.1-0.1,0.3-0.1,0.4,0l1.8,0.9C22.4,18.8,22.6,18.7,22.7,18.7z"></path>
		<path class="st0" d="M19.2,23.1l-2-0.3c-0.1,0-0.3-0.1-0.3-0.2L16,20.8c-0.1-0.1-0.2-0.2-0.4-0.2c-0.2,0-0.3,0.1-0.4,0.2l-0.9,1.8    c-0.1,0.1-0.2,0.2-0.3,0.2l-2,0.3c-0.2,0-0.3,0.1-0.3,0.3c-0.1,0.2,0,0.3,0.1,0.4l1.4,1.4c0.1,0.1,0.1,0.2,0.1,0.4l-0.3,2    c0,0.2,0,0.3,0.2,0.4c0.1,0.1,0.3,0.1,0.5,0l1.8-0.9c0.1-0.1,0.3-0.1,0.4,0l1.8,0.9c0.1,0.1,0.3,0.1,0.5,0    c0.1-0.1,0.2-0.3,0.2-0.4l-0.3-2c0-0.1,0-0.3,0.1-0.4l1.4-1.4c0.1-0.1,0.2-0.3,0.1-0.4C19.5,23.2,19.3,23.1,19.2,23.1z"></path>
		<path class="st0" d="M28.5,23.1l-2-0.3c-0.1,0-0.3-0.1-0.3-0.2l-0.9-1.8c-0.1-0.1-0.2-0.2-0.4-0.2c-0.2,0-0.3,0.1-0.4,0.2    l-0.9,1.8c-0.1,0.1-0.2,0.2-0.3,0.2l-2,0.3c-0.2,0-0.3,0.1-0.3,0.3c-0.1,0.2,0,0.3,0.1,0.4l1.4,1.4c0.1,0.1,0.1,0.2,0.1,0.4    l-0.3,2c0,0.2,0,0.3,0.2,0.4c0.1,0.1,0.3,0.1,0.5,0l1.8-0.9c0.1-0.1,0.3-0.1,0.4,0l1.8,0.9c0.1,0.1,0.3,0.1,0.5,0    c0.1-0.1,0.2-0.3,0.2-0.4l-0.3-2c0-0.1,0-0.3,0.1-0.4l1.4-1.4c0.1-0.1,0.2-0.3,0.1-0.4C28.8,23.2,28.7,23.1,28.5,23.1z"></path>
		<path class="st0" d="M33.2,13.8l-2-0.3c-0.1,0-0.3-0.1-0.3-0.2L30,11.5c-0.1-0.1-0.2-0.2-0.4-0.2c-0.2,0-0.3,0.1-0.4,0.2l-0.9,1.8    c-0.1,0.1-0.2,0.2-0.3,0.2l-2,0.3c-0.2,0-0.3,0.1-0.3,0.3c0,0.2,0,0.3,0.1,0.4l1.4,1.4c0.1,0.1,0.1,0.2,0.1,0.4l-0.3,2    c0,0.2,0,0.3,0.2,0.4c0.1,0.1,0.3,0.1,0.5,0l1.8-0.9c0.1-0.1,0.3-0.1,0.4,0l1.8,0.9c0.1,0.1,0.3,0.1,0.5,0    c0.1-0.1,0.2-0.3,0.2-0.4l-0.3-2c0-0.1,0-0.3,0.1-0.4l1.4-1.4c0.1-0.1,0.2-0.3,0.1-0.4C33.5,13.9,33.4,13.8,33.2,13.8z"></path>
		<path class="st0" d="M35.4,5.3H5.2c-2,0-3.6,1.6-3.6,3.6v21.4c0,2,1.6,3.7,3.6,3.7h30.1c2,0,3.6-1.7,3.6-3.7V9    C39,6.9,37.4,5.3,35.4,5.3z M35.8,30.3c0,0.3-0.2,0.5-0.5,0.5H5.2c-0.3,0-0.5-0.2-0.5-0.5V8.9c0-0.3,0.2-0.5,0.5-0.5h30.2    c0.3,0,0.5,0.2,0.5,0.5V30.3z"></path>
	</g>
</g>
</svg>