<svg xmlns="http://www.w3.org/2000/svg" xmlns:xlink="http://www.w3.org/1999/xlink" id="Capa_1" x="0px" y="0px" viewBox="0 0 40 40" style="enable-background:new 0 0 40 40;" xml:space="preserve">
<style type="text/css">
	.st0{fill:#7BAA39;}
	.st1{fill:#7BAA39;stroke:#7BAA39;stroke-width:0.5898;stroke-miterlimit:10;}
	.st2{fill:#7BAA39;stroke:#7BAA39;stroke-width:0.5;stroke-miterlimit:10;}
	.st3{fill:#7BAA39;stroke:#7BAA39;stroke-miterlimit:10;}
	.st4{fill:#FFFFFF;}
	.st5{fill:#7BAA39;stroke:#7BAA39;stroke-width:0.9877;stroke-miterlimit:10;}
	.st6{fill:#698E21;}
	.st7{fill:#7BAA39;stroke:#7BAA39;stroke-width:1.9097;stroke-miterlimit:10;}
	.st8{fill:#7BAA39;stroke:#7BAA39;stroke-width:0.6979;stroke-miterlimit:10;}
	.st9{fill:#7BAA39;stroke:#7BAA39;stroke-width:0.5544;stroke-miterlimit:10;}
	.st10{fill:#7BAA39;stroke:#7BAA39;stroke-width:0.7505;stroke-miterlimit:10;}
	.st11{fill:#7BAA39;stroke:#7BAA39;stroke-width:0.1953;stroke-miterlimit:10;}
	.st12{fill:#AFDB6A;}
</style>
<path class="st0" d="M20.1-148c-10.2,0-18.5,8.3-18.5,18.5S9.9-111,20.1-111c10.2,0,18.5-8.3,18.5-18.5S30.3-148,20.1-148z   M20.1-115.6c-7.7,0-13.9-6.2-13.9-13.9c0-7.7,6.2-13.9,13.9-13.9c7.7,0,13.9,6.2,13.9,13.9C34-121.8,27.8-115.6,20.1-115.6z   M30.1-127.9c0,1.3-1,2.3-2.3,2.3h-9.3c-1.3,0-2.3-1-2.3-2.3v-9.3c0-1.3,1-2.3,2.3-2.3c1.3,0,2.3,1,2.3,2.3v6.9h6.9  C29-130.2,30.1-129.2,30.1-127.9z"></path>
<rect x="34" y="-217" class="st0" width="40" height="40"></rect>
<g>
	<g>
		<path class="st0" d="M55.6-83.5c-1.1,0-2.1-0.2-3-0.6c-0.8-0.4-1.5-1-2.1-1.6c-0.5-0.7-0.9-1.5-1.2-2.3c-0.3-0.9-0.4-1.8-0.4-2.7    c0-0.9,0.1-1.9,0.4-2.7c0.3-0.9,0.7-1.7,1.2-2.3c0.5-0.7,1.2-1.2,2.1-1.6c0.8-0.4,1.8-0.6,3-0.6c1.1,0,2.1,0.2,2.9,0.6    c0.8,0.4,1.5,1,2.1,1.6c0.6,0.7,1,1.5,1.2,2.3c0.3,0.9,0.4,1.8,0.4,2.7c0,0.9-0.1,1.8-0.4,2.7c-0.3,0.9-0.7,1.6-1.2,2.3    c-0.6,0.7-1.2,1.2-2.1,1.6C57.7-83.7,56.7-83.5,55.6-83.5z M55.6-86.8c0.8,0,1.4-0.4,1.8-1.1c0.4-0.7,0.6-1.7,0.6-2.9    c0-1.2-0.2-2.2-0.6-2.9c-0.4-0.7-1-1.1-1.8-1.1s-1.4,0.4-1.8,1.1c-0.4,0.7-0.6,1.7-0.6,2.9c0,1.2,0.2,2.2,0.6,2.9    C54.2-87.1,54.8-86.8,55.6-86.8z M71.4-97.8c0.8-0.1,1.6-0.2,2.4-0.2c0.7,0,1.5,0.1,2.4,0.2L59.5-73.4c-0.8,0.1-1.6,0.2-2.3,0.2    c-0.8,0-1.6-0.1-2.4-0.2L71.4-97.8z M75.4-73c-1.1,0-2.1-0.2-3-0.6c-0.8-0.4-1.5-1-2.1-1.6c-0.5-0.7-0.9-1.5-1.2-2.3    c-0.3-0.9-0.4-1.8-0.4-2.7c0-0.9,0.1-1.9,0.4-2.7c0.3-0.9,0.7-1.7,1.2-2.3c0.5-0.7,1.2-1.2,2.1-1.6c0.8-0.4,1.8-0.6,3-0.6    c1.1,0,2.1,0.2,2.9,0.6c0.8,0.4,1.5,1,2.1,1.6s1,1.5,1.2,2.3c0.3,0.9,0.4,1.8,0.4,2.7c0,0.9-0.1,1.8-0.4,2.7    c-0.3,0.9-0.7,1.6-1.2,2.3c-0.6,0.7-1.2,1.2-2.1,1.6C77.5-73.2,76.5-73,75.4-73z M75.4-76.2c0.8,0,1.4-0.4,1.8-1.1    c0.4-0.7,0.6-1.7,0.6-2.9c0-1.2-0.2-2.2-0.6-2.9c-0.4-0.7-1-1.1-1.8-1.1s-1.4,0.4-1.8,1.1c-0.4,0.7-0.6,1.7-0.6,2.9    c0,1.2,0.2,2.2,0.6,2.9C73.9-76.6,74.5-76.2,75.4-76.2z"></path>
	</g>
</g>
<path class="st0" d="M36.2-99.8h-6.1v-3c0-1.3-1.1-2.4-2.4-2.4s-2.4,1.1-2.4,2.4v3H14.4v-3c0-1.3-1.1-2.4-2.4-2.4  c-1.3,0-2.4,1.1-2.4,2.4v3H3.5c-1,0-1.8,0.8-1.8,1.8v26.3c0,1,0.8,1.8,1.8,1.8h32.7c1,0,1.8-0.8,1.8-1.8V-98  C38-99,37.2-99.8,36.2-99.8z M18.6-91.7v4.8h-5.8v-4.8H18.6z M21-91.7h5.8v4.8H21V-91.7z M10.4-91.7v4.8H5.3v-4.8H10.4z M10.4-84.4  v3.6H5.3v-3.6H10.4z M12.9-84.4h5.8v3.6h-5.8V-84.4z M18.6-78.4v4.9h-5.8v-4.9H18.6z M21-78.4h5.8v4.9H21V-78.4z M21-80.8v-3.6h5.8  v3.6H21z M29.2-84.4h5.1v3.6h-5.1V-84.4z M29.2-86.9v-4.8h5.1v4.8H29.2z M5.3-78.4h5.1v4.9H5.3V-78.4z M29.2-73.5v-4.9h5.1v4.9H29.2  z"></path>
<g>
	<path class="st1" d="M42.9-85.2v-1.9h4.4v1.9H42.9z"></path>
</g>
<path class="st2" d="M103.9-117.3h-2.1c-0.6,0-1.1-0.5-1.1-1.1c0-0.6,0.5-1.1,1.1-1.1h2.1c0.6,0,1.1,0.5,1.1,1.1  C105-117.8,104.5-117.3,103.9-117.3z M135-140.8v25.7c0,2.4-1.9,4.3-4.3,4.3h-23.6c-2.4,0-4.3-1.9-4.3-4.3h1.1  c1.8,0,3.2-1.4,3.2-3.2c0-1.8-1.4-3.2-3.2-3.2h-1.1v-12.9h1.1c1.8,0,3.2-1.4,3.2-3.2c0-1.8-1.4-3.2-3.2-3.2h-1.1  c0-2.4,1.9-4.3,4.3-4.3h23.6C133.1-145.1,135-143.2,135-140.8z M132.9-140.8c0-1.2-1-2.1-2.1-2.1h-19.3v30h19.3c1.2,0,2.1-1,2.1-2.1  V-140.8z M101.8-136.6h2.1c0.6,0,1.1-0.5,1.1-1.1c0-0.6-0.5-1.1-1.1-1.1h-2.1c-0.6,0-1.1,0.5-1.1,1.1  C100.7-137,101.2-136.6,101.8-136.6z M129.6-140.8h-15c-0.6,0-1.1,0.5-1.1,1.1c0,0.6,0.5,1.1,1.1,1.1h15c0.6,0,1.1-0.5,1.1-1.1  C130.7-140.4,130.2-140.8,129.6-140.8z M129.6-136.6h-15c-0.6,0-1.1,0.5-1.1,1.1c0,0.6,0.5,1.1,1.1,1.1h15c0.6,0,1.1-0.5,1.1-1.1  C130.7-136.1,130.2-136.6,129.6-136.6z M129.6-132.3h-15c-0.6,0-1.1,0.5-1.1,1.1c0,0.6,0.5,1.1,1.1,1.1h15c0.6,0,1.1-0.5,1.1-1.1  C130.7-131.8,130.2-132.3,129.6-132.3z M129.6-128h-15c-0.6,0-1.1,0.5-1.1,1.1c0,0.6,0.5,1.1,1.1,1.1h15c0.6,0,1.1-0.5,1.1-1.1  C130.7-127.5,130.2-128,129.6-128z M129.6-123.7h-15c-0.6,0-1.1,0.5-1.1,1.1c0,0.6,0.5,1.1,1.1,1.1h15c0.6,0,1.1-0.5,1.1-1.1  C130.7-123.2,130.2-123.7,129.6-123.7z M123.2-119.4h-8.6c-0.6,0-1.1,0.5-1.1,1.1c0,0.6,0.5,1.1,1.1,1.1h8.6c0.6,0,1.1-0.5,1.1-1.1  C124.3-118.9,123.8-119.4,123.2-119.4z"></path>
<g>
	<path class="st3" d="M161.4-126.2c0-1.2,3.5-2.1,4.8-3.5c1.1-1.2,2.1-2.4,1.9-4.9c-0.2-3.1-2.1-12.3-2.1-12.3h-10.6   c0,0-1.9,9.2-2.1,12.3c-0.1,2.6,0.8,3.8,1.9,4.9c1.4,1.4,4.8,2.4,4.8,3.5c0,1.2,0.1,4.1,0.1,4.1h0v11.5h-4.8v0.6h10.6v-0.6h-4.8   v-11.5C161.4-122.1,161.4-125.1,161.4-126.2z"></path>
	<g>
		<path class="st4" d="M157.2-138.3c-0.3,3.6,0,7.5,2.4,9.4c-2.6-1.2-4.3-1.9-3.8-9.4H155l1.1-8h9.5l1.1,8H157.2z"></path>
	</g>
</g>
<g>
	<path class="st0" d="M101.9-76.5c-1.4,0-2.7,1.4-2.7,3s1.3,3.1,2.7,3.1c1.4,0,2.6-1.5,2.6-3.1S103.3-76.5,101.9-76.5z"></path>
	<path class="st0" d="M111.6-100.6h22.9c1.4,0,2.5-1.2,2.5-2.8c0-1.6-1.1-2.9-2.5-2.9h-22.9c-1.4,0-2.5,1.3-2.5,2.9   C109.1-101.8,110.2-100.6,111.6-100.6z"></path>
	<path class="st0" d="M101.9-106.5c-1.4,0-2.7,1.5-2.7,3.1c0,1.7,1.3,3,2.7,3c1.4,0,2.6-1.4,2.6-3   C104.5-105.1,103.3-106.5,101.9-106.5z"></path>
	<path class="st0" d="M134.5-91.3h-22.9c-1.4,0-2.5,1.3-2.5,2.9s1.1,2.9,2.5,2.9h22.9c1.4,0,2.5-1.3,2.5-2.9S135.9-91.3,134.5-91.3z   "></path>
	<path class="st0" d="M134.5-76.3h-22.9c-1.4,0-2.5,1.3-2.5,2.9c0,1.6,1.1,2.9,2.5,2.9h22.9c1.4,0,2.5-1.3,2.5-2.9   C137-75,135.9-76.3,134.5-76.3z"></path>
</g>
<path class="st5" d="M81.5-120.7c0,0.8-0.7,1.5-1.6,1.5H44.1c-0.9,0-1.6-0.7-1.6-1.5c0-0.8,0.7-1.5,1.6-1.5h35.8  C80.8-122.2,81.5-121.5,81.5-120.7z M64.1-140.4c-0.1-1-0.9-1.8-1.9-1.8c-1,0-1.8,0.8-1.9,1.8c0.6-0.1,1.2-0.1,1.9-0.1  C62.9-140.6,63.5-140.5,64.1-140.4z M78.9-124.5H45.6c0.7-8.6,7.9-15.4,16.7-15.4C71-139.9,78.2-133.1,78.9-124.5z M60.3-138.4  c0,0-9.3,2-12.1,12.4c2.5,0,3.5,0,3.5,0S53.7-134.7,60.3-138.4z"></path>
<polygon class="st6" points="104.8,-85 102.4,-86.3 100,-85 100.5,-87.7 98.5,-89.5 101.2,-89.9 102.4,-92.3 103.6,-89.9   106.2,-89.5 104.3,-87.7 "></polygon>
<g>
	<path class="st0" d="M161.7-103.3c-7.4,0-13.5,6-13.5,13.5c0,7.4,6,13.5,13.5,13.5c7.4,0,13.5-6,13.5-13.5   C175.2-97.3,169.2-103.3,161.7-103.3z M171.6-92.3c0,0.1,0.1,0.3,0.1,0.4c0,0.2,0.1,0.4,0.1,0.6c0,0.1,0,0.2,0.1,0.4   c0,0.3,0.1,0.7,0.1,1c0,0.3,0,0.7-0.1,1c0,0.1,0,0.2-0.1,0.4c0,0.2-0.1,0.4-0.1,0.6c0,0.1-0.1,0.3-0.1,0.4c0,0.2-0.1,0.4-0.1,0.5   c0,0.2-0.1,0.3-0.2,0.5c-0.1,0.2-0.1,0.3-0.2,0.5c-0.1,0.2-0.1,0.3-0.2,0.5c-0.1,0.1-0.1,0.3-0.2,0.4c-0.1,0.2-0.2,0.3-0.3,0.5   c-0.1,0.1-0.1,0.2-0.2,0.4c-0.1,0.2-0.2,0.3-0.4,0.5c-0.1,0.1-0.1,0.2-0.2,0.3c-0.1,0.2-0.3,0.3-0.4,0.5c-0.1,0.1-0.1,0.2-0.2,0.2   c-0.2,0.2-0.3,0.3-0.5,0.4c-0.1,0.1-0.1,0.1-0.2,0.2c-0.2,0.1-0.4,0.3-0.5,0.4c-0.1,0.1-0.1,0.1-0.2,0.2c-0.2,0.1-0.4,0.2-0.6,0.4   c-0.1,0-0.2,0.1-0.2,0.1c-0.2,0.1-0.4,0.2-0.6,0.3c-0.1,0-0.2,0.1-0.2,0.1c-0.2,0.1-0.4,0.2-0.7,0.2c-0.1,0-0.2,0.1-0.3,0.1   c-0.2,0.1-0.5,0.1-0.7,0.2c-0.1,0-0.2,0.1-0.3,0.1c-0.2,0-0.5,0.1-0.7,0.1c-0.1,0-0.2,0-0.3,0c-0.2,0-0.4,0-0.7,0   c-0.1,0-0.2,0-0.3,0v0c0,0,0,0-0.1,0c-5.6,0-10.1-4.5-10.1-10.1c0-5.6,4.5-10.1,10.1-10.1c0,0,0,0,0.1,0v0c0.1,0,0.2,0,0.3,0   c0.2,0,0.5,0,0.7,0c0.1,0,0.2,0,0.3,0c0.2,0,0.5,0.1,0.7,0.1c0.1,0,0.2,0,0.2,0.1c0.2,0.1,0.5,0.1,0.7,0.2c0.1,0,0.1,0.1,0.2,0.1   c0.2,0.1,0.5,0.2,0.7,0.3c0.1,0,0.1,0.1,0.2,0.1c0.2,0.1,0.5,0.2,0.7,0.3c0.1,0,0.1,0.1,0.2,0.1c0.2,0.1,0.4,0.2,0.6,0.4   c0.1,0,0.1,0.1,0.2,0.2c0.2,0.1,0.4,0.3,0.6,0.4c0.1,0.1,0.1,0.1,0.2,0.2c0.2,0.2,0.3,0.3,0.5,0.5c0.1,0.1,0.1,0.2,0.2,0.2   c0.1,0.2,0.3,0.3,0.4,0.5c0.1,0.1,0.1,0.2,0.2,0.3c0.1,0.2,0.3,0.3,0.4,0.5c0.1,0.1,0.1,0.2,0.2,0.3c0.1,0.2,0.2,0.3,0.3,0.5   c0.1,0.1,0.1,0.3,0.2,0.4c0.1,0.2,0.2,0.3,0.2,0.5c0.1,0.2,0.1,0.3,0.2,0.5c0.1,0.2,0.1,0.3,0.2,0.5   C171.5-92.7,171.5-92.5,171.6-92.3z M171.3-89.9c0,5.3-4.3,9.5-9.5,9.5c-5.3,0-9.5-4.3-9.5-9.5c0-5.3,4.3-9.5,9.5-9.5   C167-99.4,171.3-95.1,171.3-89.9z M180-100.4v22.3c0,0.6-0.4,1.1-0.9,1.2v0c-0.1,0-0.2,0-0.3,0c-0.7,0-1.3-0.6-1.2-1.3   c0.2-2.1,1.5-6.7,0.8-8.5c-0.4-1-1.7-2.9-1.7-6c0-5.8,1.4-7.9,2.3-8.4c0,0,0,0,0,0C179.5-101.2,180-100.9,180-100.4z M146.6-101   c0.3,1.8,0.5,5.2,0.5,6.9c0,2.1-0.4,2.1-1.7,2.6l0.5,13.4c0,0.7-0.5,1.3-1.2,1.3c-0.1,0-0.1,0-0.2,0v0c-0.6-0.1-1-0.6-1-1.3   l0.5-13.4c-1.3-0.5-1.7-0.5-1.7-2.6c0-1.7,0.3-5.2,0.5-6.9h0.3l0.1,7.6h0.6l0.2-7.6h0.3l0.1,7.6h0.1h0.1h0.4l0.1-7.6h0.3l0.1,7.6   h0.6l0.1-7.6H146.6z"></path>
</g>
<g>
	<path d="M101.3-151.8c0-0.4,0-0.9,0-1.2h0c-0.1,0.3-0.2,0.7-0.4,1.1l-0.5,1.4h-0.3l-0.5-1.3c-0.1-0.4-0.2-0.8-0.3-1.1h0   c0,0.3,0,0.8-0.1,1.2l-0.1,1.2h-0.3l0.2-2.8h0.5l0.5,1.4c0.1,0.3,0.2,0.7,0.3,0.9h0c0.1-0.3,0.2-0.6,0.3-0.9l0.5-1.4h0.5l0.2,2.8   h-0.4L101.3-151.8z"></path>
	<path d="M104.1-151.6c0,0.7-0.5,1.1-1,1.1c-0.5,0-1-0.4-1-1c0-0.7,0.4-1.1,1-1.1C103.7-152.6,104.1-152.2,104.1-151.6z    M102.5-151.5c0,0.4,0.3,0.8,0.6,0.8c0.3,0,0.6-0.3,0.6-0.8c0-0.3-0.2-0.8-0.6-0.8C102.7-152.3,102.5-151.9,102.5-151.5z"></path>
	<path d="M104.6-152c0-0.2,0-0.4,0-0.5h0.3l0,0.3h0c0.1-0.2,0.3-0.4,0.6-0.4c0.3,0,0.5,0.2,0.6,0.4h0c0.1-0.1,0.1-0.2,0.2-0.3   c0.1-0.1,0.3-0.1,0.4-0.1c0.3,0,0.7,0.2,0.7,0.9v1.2h-0.4v-1.1c0-0.4-0.1-0.6-0.4-0.6c-0.2,0-0.4,0.2-0.4,0.3c0,0.1,0,0.1,0,0.2   v1.2h-0.4v-1.2c0-0.3-0.1-0.6-0.4-0.6c-0.2,0-0.4,0.2-0.5,0.4c0,0.1,0,0.1,0,0.2v1.2h-0.4V-152z"></path>
	<path d="M108.3-151.5c0,0.5,0.3,0.7,0.7,0.7c0.3,0,0.4,0,0.6-0.1l0.1,0.3c-0.1,0.1-0.3,0.1-0.7,0.1c-0.6,0-1-0.4-1-1   c0-0.6,0.4-1.1,0.9-1.1c0.7,0,0.8,0.6,0.8,0.9c0,0.1,0,0.1,0,0.2H108.3z M109.3-151.7c0-0.2-0.1-0.6-0.5-0.6   c-0.4,0-0.5,0.3-0.6,0.6H109.3z"></path>
	<path d="M110.2-152c0-0.2,0-0.4,0-0.5h0.3l0,0.3h0c0.1-0.2,0.3-0.4,0.7-0.4c0.3,0,0.7,0.2,0.7,0.9v1.2h-0.4v-1.2   c0-0.3-0.1-0.6-0.5-0.6c-0.2,0-0.4,0.2-0.5,0.4c0,0,0,0.1,0,0.2v1.2h-0.4V-152z"></path>
	<path d="M112.9-153.1v0.6h0.5v0.3h-0.5v1.1c0,0.2,0.1,0.4,0.3,0.4c0.1,0,0.2,0,0.2,0l0,0.3c-0.1,0-0.2,0.1-0.3,0.1   c-0.2,0-0.3-0.1-0.4-0.2c-0.1-0.1-0.1-0.3-0.1-0.5v-1.1h-0.3v-0.3h0.3v-0.5L112.9-153.1z"></path>
	<path d="M115.6-151.6c0,0.7-0.5,1.1-1,1.1c-0.5,0-1-0.4-1-1c0-0.7,0.4-1.1,1-1.1C115.2-152.6,115.6-152.2,115.6-151.6z M114-151.5   c0,0.4,0.3,0.8,0.6,0.8c0.4,0,0.6-0.3,0.6-0.8c0-0.3-0.2-0.8-0.6-0.8C114.2-152.3,114-151.9,114-151.5z"></path>
	<path d="M116-150.9c0.1,0.1,0.3,0.1,0.5,0.1c0.3,0,0.4-0.1,0.4-0.3c0-0.2-0.1-0.3-0.4-0.4c-0.4-0.1-0.5-0.3-0.5-0.6   c0-0.3,0.3-0.6,0.7-0.6c0.2,0,0.4,0.1,0.5,0.1l-0.1,0.3c-0.1,0-0.2-0.1-0.4-0.1c-0.2,0-0.3,0.1-0.3,0.3c0,0.2,0.1,0.2,0.4,0.3   c0.3,0.1,0.5,0.3,0.5,0.6c0,0.4-0.3,0.6-0.8,0.6c-0.2,0-0.4-0.1-0.6-0.1L116-150.9z"></path>
	<path d="M118.6-150.5c0-0.1,0-0.3,0-0.5v-2.4h0.4v1.3h0c0.1-0.2,0.4-0.4,0.7-0.4c0.5,0,0.9,0.4,0.8,1c0,0.7-0.5,1.1-0.9,1.1   c-0.3,0-0.5-0.1-0.7-0.4h0l0,0.3H118.6z M119-151.3c0,0,0,0.1,0,0.1c0.1,0.3,0.3,0.4,0.5,0.4c0.4,0,0.6-0.3,0.6-0.8   c0-0.4-0.2-0.7-0.6-0.7c-0.2,0-0.5,0.2-0.6,0.4c0,0,0,0.1,0,0.1V-151.3z"></path>
	<path d="M122.8-151.6c0,0.7-0.5,1.1-1,1.1c-0.5,0-1-0.4-1-1c0-0.7,0.4-1.1,1-1.1C122.4-152.6,122.8-152.2,122.8-151.6z    M121.2-151.5c0,0.4,0.3,0.8,0.6,0.8c0.4,0,0.6-0.3,0.6-0.8c0-0.3-0.2-0.8-0.6-0.8C121.4-152.3,121.2-151.9,121.2-151.5z"></path>
	<path d="M125-153.5v2.4c0,0.2,0,0.4,0,0.5h-0.3l0-0.3h0c-0.1,0.2-0.4,0.4-0.7,0.4c-0.5,0-0.9-0.4-0.9-1c0-0.7,0.4-1.1,0.9-1.1   c0.3,0,0.5,0.1,0.6,0.3h0v-1.2H125z M124.7-151.7c0,0,0-0.1,0-0.2c-0.1-0.2-0.3-0.4-0.5-0.4c-0.4,0-0.6,0.3-0.6,0.8   c0,0.4,0.2,0.7,0.6,0.7c0.2,0,0.5-0.2,0.5-0.4c0-0.1,0-0.1,0-0.2V-151.7z"></path>
	<path d="M125.5-150.8c0-0.2,0.1-0.3,0.2-0.3c0.1,0,0.2,0.1,0.2,0.3c0,0.1-0.1,0.3-0.2,0.3C125.6-150.5,125.5-150.6,125.5-150.8z"></path>
</g>
<rect x="195.7" y="-154.8" style="fill:none;" width="36.3" height="2.8"></rect>
<text transform="matrix(1 0 0 1 195.667 -152.7036)" style="font-family:'MyriadPro-Regular'; font-size:3px;">Regalate gastronomía. </text>
<g>
	<rect x="206.1" y="-134.7" class="st7" width="20.9" height="0.9"></rect>
	<rect x="206.1" y="-129.7" class="st7" width="20.9" height="0.9"></rect>
	<path class="st7" d="M227.5-147.1H205c-2.8,0-5.2,1.9-5.2,4.2v18.1c0,2.3,2.3,4.2,5.2,4.2h1.7l6.2,9.6l0.1,0.1l6.3-9.7h8.2   c2.8,0,5.1-1.9,5.1-4.2v-18.1C232.6-145.2,230.3-147.1,227.5-147.1z M227.5-121.4h-8.7l-5.8,9l-5.7-8.9l0-0.1H205   c-2.3,0-4.2-1.5-4.2-3.3v-18.1c0-1.8,1.9-3.3,4.2-3.3h22.4c2.3,0,4.2,1.5,4.2,3.3v18.1C231.7-122.9,229.8-121.4,227.5-121.4z"></path>
</g>
<polygon class="st2" points="218.8,-137 216.4,-138.3 214,-137 214.5,-139.7 212.5,-141.5 215.2,-141.9 216.4,-144.3 217.6,-141.9   220.2,-141.5 218.3,-139.7 "></polygon>
<g>
	<path class="st0" d="M253.7-128v9c-0.6,0.1-1.8,0.3-3.3,0.3c-1.5,0-2.8-0.2-3.3-0.2v-9c0-0.1,0.1-2.8,3.3-2.8   C253.7-130.8,253.7-128.1,253.7-128z M248.4-142.6c0,0,0,0.5,0,1.2h0.5v-4.2h0.8v4.2h2.7c0-0.7,0-1.2,0-1.2h0v-3.4h0.2v-1.6h-0.2   v-0.6h-2.7v0.6h-0.2v1.6h-0.8v-1.6h0.2v-0.6h-0.5v0.6h-0.2v1.6h0.2V-142.6z M254.9-136.3c0.8,1,1,2,1,4.1v21.8   c0,0.8-2.5,1.4-5.5,1.4c-3,0-5.5-0.6-5.5-1.4v-21.8c0-2.1,0.2-3.1,1-4.1c1-1.3,2.4-1.9,2.4-2.9c0-0.3,0-0.8,0-1.3h0.6v1.2   c0,0,0,1.4-1,2.3l-0.1,0.1c-1.2,1.1-2.2,2-2.2,4.6v21.9l0.8,0.3v-22.2c0-2.3,0.7-2.9,1.9-4.1l0.1-0.1c1.2-1.2,1.3-2.8,1.3-2.9v-1.2   h2.7c0,0.5,0,1,0,1.3C252.5-138.2,253.9-137.6,254.9-136.3z M254.2-128.1c0,0,0-3.3-3.8-3.3c-3.8,0-3.8,3.3-3.8,3.3v9.6   c0,0,1.6,0.3,3.8,0.3c2.2,0,3.8-0.3,3.8-0.3V-128.1z"></path>
</g>
<g>
	<path class="st8" d="M266.9-120.6c0-0.8,2.4-1.5,3.4-2.5c0.8-0.8,1.5-1.7,1.4-3.4c-0.1-2.1-1.4-8.6-1.4-8.6h-7.4   c0,0-1.3,6.4-1.4,8.6c-0.1,1.8,0.6,2.6,1.4,3.4c0.9,1,3.4,1.6,3.4,2.5c0,0.8,0,2.9,0,2.9h0v8.1h-3.3v0.4h7.4v-0.4h-3.4v-8.1   C266.9-117.8,266.9-119.8,266.9-120.6z"></path>
	<g>
		<path class="st4" d="M263.9-129.1c-0.2,2.5,0,5.3,1.7,6.5c-1.8-0.8-3-1.3-2.6-6.5h-0.5l0.8-5.6h6.6l0.7,5.6H263.9z"></path>
	</g>
</g>
<path class="st9" d="M198.6-89l1.4-0.4v6.2L198.6-89z M202.5-96.4h7.9l20-4.9L230-103c-0.3-1.2-1.5-2-2.7-1.7l-28.5,7  c-1.2,0.3-2,1.5-1.7,2.7l0.4,1.7l2.7-0.7v-0.2C200.3-95.3,201.3-96.4,202.5-96.4z M200.8-87.4h33.9v10.2c0,1.2-1,2.3-2.3,2.3h-29.4  c-1.2,0-2.3-1-2.3-2.3V-87.4z M208.7-83.7c0,0,0.1-0.1,0.1-0.1c-0.1,0-0.3,0-0.4,0.1C208.5-83.8,208.6-83.8,208.7-83.7z M208.2-83.7  c0,0-0.1,0-0.1,0c0,0.1-0.1,0.2-0.1,0.3c0,0-0.4,0.7,0,0.5c0.2-0.1,0.3-0.2,0.4-0.3c0.1-0.1,0.2-0.2,0.3-0.3  C208.5-83.6,208.3-83.6,208.2-83.7z M209-84.1c0.5-0.6,1-1.1,1.5-1.7h-1.3c0.1,0.1,0.1,0.2,0,0.4c-0.3,0.5-0.6,0.9-0.9,1.4  C208.5-84,208.8-84,209-84.1z M208.9-83.7c0.2,0.1,0.4,0.1,0.6,0.2c0.1-0.2,0.2-0.3,0.3-0.5c0,0,0,0-0.1,0c-0.2,0-0.4,0.1-0.6,0.1  C209.1-83.8,209-83.8,208.9-83.7z M209.9-84.2c0-0.1,0.1-0.1,0.1-0.2c0.2-0.4,0.3-0.8,0.5-1.1c-0.4,0.5-0.8,0.9-1.2,1.4  C209.5-84.1,209.7-84.2,209.9-84.2z M210.3-84c0,0.1,0,0.3,0,0.4c0.1-0.1,0.2-0.3,0.3-0.5C210.5-84.1,210.4-84.1,210.3-84  C210.3-84,210.3-84,210.3-84z M209.9-83.3c0,0,0.1,0,0.1,0.1c0.6,0.3,1.2,0.7,2,0.7c0.3,0,1.1,0.1,0.8-0.4c-0.1-0.1-0.1-0.3-0.1-0.4  c0-0.3,0.2-0.7,0.2-1c-0.2,0-0.5,0-0.7,0.1c-0.2,0.1-0.3,0.1-0.5,0.2c-0.1,0-0.1,0-0.1-0.1c0,0,0,0,0,0c-0.1,0-0.2,0-0.4,0  c-0.1,0.1-0.2,0.2-0.3,0.2c-0.1,0-0.1,0-0.1-0.1c0,0,0,0,0-0.1c0,0,0,0,0,0c-0.1,0.3-0.2,0.6-0.5,0.7c-0.1,0-0.1,0-0.1-0.1  c0-0.1,0-0.1,0-0.2c0,0.1-0.1,0.1-0.2,0.2C210-83.4,209.9-83.3,209.9-83.3z M211.6-84.4c0-0.2,0.1-0.3,0.2-0.5  c-0.1,0.1-0.3,0.3-0.4,0.5C211.5-84.4,211.6-84.4,211.6-84.4z M213-84.5c0-0.2-0.1-0.1-0.2,0c0,0-0.1,0-0.1,0  C212.8-84.5,212.9-84.5,213-84.5z M226.2-76.8h6.5V-80h-6.5V-76.8z M223.5-85.8h-12.7c-0.1,0.2-0.2,0.4-0.2,0.6c0,0,0,0,0.1-0.1  c0.1-0.1,0.2,0,0.2,0.1c-0.1,0.3-0.2,0.6-0.3,0.9c0,0,0,0,0,0.1c0.1,0,0.2,0,0.3,0c0.1-0.2,0.1-0.4,0.2-0.6c0-0.1,0.2,0,0.2,0  c0,0.2,0,0.3,0,0.5c0,0,0.1,0,0.1,0c0.1-0.1,0.2-0.3,0.3-0.4c0.1-0.2,0.3-0.3,0.5-0.4c0.1,0,0.1,0,0.1,0.1c0,0.2-0.2,0.4-0.2,0.7  c0.1,0,0.2,0,0.4,0c0.3-0.1,0.5-0.3,0.7-0.4c0,0,0.1,0,0.1,0c0.1,0.1,0.1,0.2,0.1,0.3c0.4,0,0.7,0,1.1-0.1c0.7,0,1.3-0.1,2-0.1  c0.6,0,1.2-0.1,1.8,0c0.1,0,0.1,0.2,0,0.2c-0.7-0.1-1.5,0-2.3,0c-0.7,0-1.3,0-2,0.1c-0.2,0-0.4,0-0.6,0c0,0.1,0,0.2-0.1,0.3  c-0.1,0.2-0.1,0.4-0.2,0.6c0,0.2,0.1,0.4,0.1,0.6c0.1,0.3,0,0.4-0.2,0.5h10.7V-85.8z M203-82.4h8.7c-0.1,0-0.1,0-0.2,0  c-0.6-0.1-1.1-0.4-1.6-0.7c0,0-0.1,0-0.1-0.1c-0.1,0.2-0.2,0.3-0.4,0.3c-0.1,0-0.1,0-0.1-0.1c0-0.1,0.1-0.3,0.1-0.4  c-0.2-0.1-0.4-0.2-0.6-0.2c-0.3,0.4-0.7,0.9-1.2,0.8c0,0-0.1-0.1-0.1-0.1c0-0.3,0.2-0.7,0.3-0.9c0,0-0.1,0-0.1,0  c-0.7,0.1-1.3,0.1-2,0.1c-0.5,0-1,0-1.6,0c-0.2,0-0.5,0-0.6-0.2c0,0,0-0.1,0-0.1c0.4-0.2,0.8-0.2,1.3-0.2c0.6,0,1.2,0,1.8,0.1  c0.3,0,0.7,0.1,1,0.1c0.1,0,0.2,0,0.3,0c0,0,0-0.1,0.1-0.1c0.2-0.3,0.4-0.6,0.6-0.9c0.1-0.1,0.5-0.8,0.1-0.6c-0.1,0-0.2-0.1-0.1-0.2  H203V-82.4z M204.7-83.9c-0.1,0-0.3,0-0.4,0c0,0-0.3,0.1-0.4,0.1c0.2,0,0.3,0,0.5,0c0.6,0,1.3,0,1.9,0c0.1,0,0.3,0,0.4,0  C206.1-83.9,205.4-83.9,204.7-83.9z M232.5-95.8h-29.4c-1.2,0-2.3,1-2.3,2.3v1.8h33.9v-1.8C234.7-94.8,233.7-95.8,232.5-95.8z   M231.5-96.2l-0.2-0.9l-3.9,1L231.5-96.2z"></path>
<g>
	<g>
		<path class="st0" d="M272.6-72.9c0.9,0.9,1,2.4,0.1,3.2c-0.9,0.9-2.3,0.8-3.2-0.1l-9.6-10.5c-0.7,0-1.4-0.2-2.2-0.5l3.5-3.5    l2.3,2.3L272.6-72.9z M252.4-84.5l4.3-4.3l-4.4-4.4c-3.5-3.5-6.9-6.9-9-9c-0.3-0.3-0.7-0.4-1.1-0.4c-0.3,0-0.7,0.3-0.8,1    c-0.3,2.9,1.8,8,9.5,15.6C251.5-85.4,252-84.9,252.4-84.5z M260.4-96.5l0.6-0.6c0,0,0,0,0,0L260.4-96.5z M276.5-97.5    c-0.5-0.5-1.2-0.6-1.5-0.3l-6.8,6.8c-0.3,0.3-1,0.3-1.4-0.2c-0.4-0.4-0.5-1.1-0.2-1.4l6.8-6.8c0.3-0.3,0.2-1-0.3-1.5    c-0.5-0.5-1.2-0.6-1.5-0.3l-6.8,6.8c-0.3,0.3-1,0.3-1.4-0.2c-0.4-0.4-0.5-1.1-0.2-1.4l6.8-6.8c0.3-0.3,0.2-1-0.3-1.5    c-0.5-0.5-1.2-0.6-1.5-0.3l-7.4,7.4c-2.4,2.4-1.6,4.1-0.3,5.6l-19,19c-0.9,0.9-1,2.4-0.1,3.2c0.9,0.9,2.3,0.8,3.2-0.1l19-19    c1.5,1.4,3.2,2.1,5.6-0.3l7.4-7.4C277.1-96.3,277-97,276.5-97.5z"></path>
	</g>
</g>
<rect x="294.7" y="-152.8" style="fill:none;" width="29.3" height="2.8"></rect>
<text transform="matrix(1 0 0 1 294.667 -150.7036)" style="font-family:'MyriadPro-Regular'; font-size:3px;">Ofertas gastronómicos. </text>
<path class="st10" d="M333.1-130l-18.4-16.4c-0.7-0.6-2-1.1-2.9-1.1l-13.3,0.3c-0.9,0-1.7,0.8-1.7,1.7l-0.3,13.3  c0,0.9,0.5,2.2,1.1,2.9l16.4,18.4c0.6,0.7,1.6,0.7,2.3,0.1l17-17C333.8-128.4,333.8-129.4,333.1-130z M305.5-138.5c-1,1-2.5,1-3.5,0  c-1-1-1-2.5,0-3.5c1-1,2.5-1,3.5,0C306.5-141,306.5-139.4,305.5-138.5z M323.3-127.6h-15.2v-2.8h15.2L323.3-127.6L323.3-127.6z"></path>
<path class="st0" d="M375.1-131.8l0.7,20.7c0,1.1-0.8,2-1.8,2c0,0-0.1,0-0.1,0c0,0-0.1,0-0.1,0v0c-0.9-0.1-1.6-1-1.6-2l0.7-20.7  c-2-0.8-4.1-2.2-4.1-5.5c0-4.1,2.7-9.2,4.9-9.6v0c0,0,0.1,0,0.1,0c0,0,0,0,0,0c0,0,0.1,0,0.1,0c2.2,0,5.2,5.4,5.2,9.6  C379.2-134,377.1-132.6,375.1-131.8z M343.6-146.6C343.6-146.6,343.6-146.5,343.6-146.6c-1.5,0.8-3.6,4-3.6,12.9  c0,4.8,2,7.7,2.6,9.3c1,2.8-0.9,9.8-1.3,13.1c-0.1,1.1,0.8,2,1.8,2c0.2,0,0.3,0,0.5-0.1v0c0.8-0.2,1.4-1,1.4-1.9v-34.3  C345-146.3,344.3-146.8,343.6-146.6z M360.5-146.5l-0.1,11.7h-1l-0.2-11.7h-0.5l-0.2,11.7h-0.6h-0.2h-0.2l-0.2-11.7h-0.5l-0.2,11.7  h-1l-0.1-11.7h-0.5c-0.4,2.7-0.8,8-0.8,10.7c0,3.3,0.7,3.3,2.6,4.1l-0.7,20.7c0,1,0.7,1.8,1.5,1.9v0c0.1,0,0.2,0,0.3,0  c1,0,1.8-0.9,1.8-2l-0.7-20.7c2-0.8,2.6-0.7,2.6-4.1c0-2.7-0.4-7.9-0.8-10.7H360.5z"></path>
<path class="st0" d="M296.7-84.8H334v11.2c0,1.4-1.1,2.5-2.5,2.5h-32.3c-1.4,0-2.5-1.1-2.5-2.5V-84.8z M305.4-80.7  c0,0,0.1-0.1,0.1-0.1c-0.2,0-0.3,0-0.5,0.1C305.2-80.8,305.3-80.8,305.4-80.7z M304.7-80.7c0,0-0.1,0-0.1,0  c-0.1,0.1-0.1,0.2-0.2,0.3c0,0-0.4,0.8,0,0.6c0.2-0.1,0.3-0.2,0.5-0.4c0.1-0.1,0.2-0.2,0.3-0.4C305.1-80.6,304.9-80.6,304.7-80.7z   M305.7-81.1c0.5-0.6,1.1-1.3,1.6-1.9h-1.4c0.1,0.1,0.1,0.2,0,0.4c-0.3,0.5-0.7,1-1,1.5C305.1-81,305.4-81.1,305.7-81.1z   M305.6-80.7c0.2,0.1,0.4,0.1,0.6,0.2c0.1-0.2,0.2-0.4,0.3-0.6c0,0,0,0-0.1,0c-0.2,0-0.4,0.1-0.7,0.1  C305.7-80.8,305.7-80.7,305.6-80.7z M306.7-81.2c0-0.1,0.1-0.1,0.1-0.2c0.2-0.4,0.4-0.8,0.6-1.3c-0.4,0.5-0.9,1-1.3,1.5  C306.2-81.2,306.4-81.2,306.7-81.2z M307.2-81.1c0,0.2,0,0.3,0,0.5c0.2-0.1,0.3-0.3,0.3-0.5C307.4-81.1,307.3-81.1,307.2-81.1  C307.2-81.1,307.2-81.1,307.2-81.1z M306.7-80.3c0,0,0.1,0,0.1,0.1c0.7,0.4,1.3,0.7,2.2,0.8c0.3,0,1.2,0.1,0.9-0.4  c-0.1-0.1-0.1-0.3-0.1-0.4c0-0.4,0.2-0.7,0.3-1.1c-0.3,0-0.5,0-0.8,0.1c-0.2,0.1-0.4,0.2-0.6,0.2c-0.1,0-0.1,0-0.1-0.1c0,0,0,0,0,0  c-0.1,0-0.3,0-0.4,0c-0.1,0.1-0.2,0.2-0.3,0.2c-0.1,0-0.1,0-0.1-0.1c0,0,0,0,0-0.1c0,0,0,0,0,0c-0.1,0.3-0.3,0.6-0.6,0.8  c-0.1,0-0.1,0-0.2-0.1c0-0.1,0-0.1,0-0.2c-0.1,0.1-0.1,0.2-0.2,0.2C306.7-80.3,306.7-80.3,306.7-80.3z M308.6-81.4  c0-0.2,0.1-0.3,0.2-0.5c-0.2,0.1-0.3,0.3-0.4,0.5C308.4-81.4,308.5-81.4,308.6-81.4z M310.1-81.6c0-0.2-0.1-0.1-0.2,0  c0,0-0.1,0-0.1,0.1C309.8-81.6,309.9-81.6,310.1-81.6z M324.7-73.1h7.2v-3.6h-7.2V-73.1z M321.6-83h-14c-0.1,0.2-0.2,0.4-0.3,0.6  c0,0,0-0.1,0.1-0.1c0.1-0.1,0.2,0,0.2,0.1c-0.1,0.3-0.2,0.7-0.4,1c0,0,0,0,0,0.1c0.1,0,0.2,0,0.3,0c0.1-0.2,0.1-0.5,0.2-0.6  c0.1-0.1,0.2,0,0.2,0.1c0,0.2,0,0.4,0,0.5c0,0,0.1,0,0.1,0c0.1-0.1,0.2-0.3,0.3-0.4c0.1-0.2,0.3-0.3,0.5-0.4c0.1,0,0.2,0,0.2,0.1  c0,0.3-0.2,0.5-0.2,0.7c0.1,0,0.3,0,0.4,0c0.3-0.1,0.5-0.3,0.8-0.4c0,0,0.1,0,0.1,0c0.1,0.1,0.1,0.2,0.1,0.3c0.4,0,0.8-0.1,1.2-0.1  c0.7,0,1.5-0.1,2.2-0.1c0.6,0,1.3-0.1,2,0c0.1,0,0.1,0.2-0.1,0.2c-0.8-0.1-1.7,0-2.5,0c-0.7,0-1.5,0-2.2,0.1c-0.2,0-0.4,0-0.6,0  c0,0.1,0,0.2-0.1,0.3c-0.1,0.2-0.1,0.5-0.2,0.7c0,0.2,0.1,0.4,0.2,0.6c0.1,0.3,0,0.5-0.3,0.6h11.8V-83z M299.1-79.2h9.5  c-0.1,0-0.1,0-0.2,0c-0.6-0.1-1.2-0.5-1.7-0.7c0,0-0.1,0-0.1-0.1c-0.1,0.2-0.3,0.3-0.4,0.4c-0.1,0-0.1,0-0.1-0.1  c0-0.1,0.1-0.3,0.1-0.4c-0.2-0.1-0.5-0.2-0.7-0.2c-0.3,0.4-0.8,1-1.3,0.9c0,0-0.1-0.1-0.1-0.1c0-0.4,0.2-0.7,0.4-1c0,0-0.1,0-0.1,0  c-0.7,0.1-1.4,0.1-2.2,0.1c-0.6,0-1.1,0-1.7,0c-0.2,0-0.5,0-0.7-0.2c0,0,0-0.1,0-0.1c0.4-0.2,0.9-0.2,1.4-0.2c0.7,0,1.3,0,2,0.1  c0.4,0,0.7,0.1,1.1,0.1c0.1,0,0.2,0,0.3,0c0,0,0.1-0.1,0.1-0.1c0.2-0.3,0.5-0.7,0.7-1c0.1-0.1,0.6-0.8,0.2-0.7  c-0.1,0-0.2-0.1-0.1-0.2h-6.3V-79.2z M300.9-80.9c-0.1,0-0.3,0-0.4,0c0,0-0.4,0.1-0.4,0.1c0.2,0,0.3,0,0.5,0c0.7,0.1,1.4,0,2.1,0  c0.2,0,0.3,0,0.5,0C302.4-80.9,301.7-80.9,300.9-80.9z M331.5-94h-32.3c-1.4,0-2.5,1.1-2.5,2.5v1.9H334v-1.9  C334-92.9,332.9-94,331.5-94z"></path>
<path class="st10" d="M315-95.1c-11.8-6.5-3.3-14.5,0-9.1C318.3-109.6,326.8-101.6,315-95.1z"></path>
<g>
	<g>
		<path class="st0" d="M374.6-71.9c0.9,0.9,1,2.4,0.1,3.2c-0.9,0.9-2.3,0.8-3.2-0.1l-9.6-10.5c-0.7,0-1.4-0.2-2.2-0.5l3.5-3.5    l2.3,2.3L374.6-71.9z M354.4-83.5l4.3-4.3l-4.4-4.4c-3.5-3.5-6.9-6.9-9-9c-0.3-0.3-0.7-0.4-1.1-0.4c-0.3,0-0.7,0.3-0.8,1    c-0.3,2.9,1.8,8,9.5,15.6C353.5-84.4,354-83.9,354.4-83.5z M362.4-95.5L363-96c0,0,0,0,0,0L362.4-95.5z M378.5-96.5    c-0.5-0.5-1.2-0.6-1.5-0.3l-6.8,6.8c-0.3,0.3-1,0.3-1.4-0.2c-0.4-0.4-0.5-1.1-0.2-1.4l6.8-6.8c0.3-0.3,0.2-1-0.3-1.5    c-0.5-0.5-1.2-0.6-1.5-0.3l-6.8,6.8c-0.3,0.3-1,0.3-1.4-0.2c-0.4-0.4-0.5-1.1-0.2-1.4l6.8-6.8c0.3-0.3,0.2-1-0.3-1.5    c-0.5-0.5-1.2-0.6-1.5-0.3L363-96c-2.4,2.4-1.6,4.1-0.3,5.6l-19,19c-0.9,0.9-1,2.4-0.1,3.2c0.9,0.9,2.3,0.8,3.2-0.1l19-19    c1.5,1.4,3.2,2.1,5.6-0.3l7.4-7.4C379.1-95.3,379-96,378.5-96.5z"></path>
	</g>
</g>
<polygon class="st2" points="361.8,-97 359.4,-98.3 357,-97 357.5,-99.7 355.5,-101.5 358.2,-101.9 359.4,-104.3 360.6,-101.9   363.2,-101.5 361.3,-99.7 "></polygon>
<rect x="5.7" y="-55.4" style="fill:none;" width="28.3" height="3.8"></rect>
<text transform="matrix(1 0 0 1 5.666 -52.583)" style="font-family:'MyriadPro-Regular'; font-size:4px;">Hoteles. </text>
<g>
	<path class="st0" d="M34.4-33.4h-5.2v-2.6c0-1.1-0.9-2.1-2.1-2.1s-2.1,0.9-2.1,2.1v2.6h-9.4v-2.6c0-1.1-0.9-2.1-2.1-2.1   c-1.1,0-2.1,0.9-2.1,2.1v2.6H6.3c-0.9,0-1.6,0.7-1.6,1.6v22.6c0,0.9,0.7,1.6,1.6,1.6h28.1c0.9,0,1.6-0.7,1.6-1.6v-22.6   C36-32.7,35.3-33.4,34.4-33.4z M19.3-26.4v4.2h-4.9v-4.2H19.3z M21.4-26.4h4.9v4.2h-4.9V-26.4z M12.3-26.4v4.2H7.9v-4.2H12.3z    M12.3-20.1v3.1H7.9v-3.1H12.3z M14.4-20.1h4.9v3.1h-4.9V-20.1z M19.3-14.9v4.2h-4.9v-4.2H19.3z M21.4-14.9h4.9v4.2h-4.9V-14.9z    M21.4-17v-3.1h4.9v3.1H21.4z M28.5-20.1h4.4v3.1h-4.4V-20.1z M28.5-22.2v-4.2h4.4v4.2H28.5z M7.9-14.9h4.4v4.2H7.9V-14.9z    M28.5-10.7v-4.2h4.4v4.2H28.5z"></path>
	<polygon class="st11" points="24.9,-22.6 24,-23.1 23,-22.6 23.2,-23.6 22.5,-24.4 23.5,-24.5 24,-25.4 24.4,-24.5 25.5,-24.4    24.7,-23.6  "></polygon>
	<polygon class="st11" points="18,-17.5 17.1,-17.9 16.2,-17.4 16.3,-18.5 15.6,-19.2 16.6,-19.4 17.1,-20.3 17.6,-19.4 18.6,-19.2    17.8,-18.5  "></polygon>
</g>
<g>
	<g>
		<g>
			<path class="st0" d="M84-9c0,0.6-0.5,1.1-1.1,1.1H53.1C52.5-7.9,52-8.4,52-9v-2c0-0.6,0.5-1.1,1.1-1.1h29.8     c0.6,0,1.1,0.5,1.1,1.1V-9z"></path>
		</g>
		<g>
			<g>
				<path class="st0" d="M70.6-32.2c0,0.1-0.1,0.2-0.2,0.2h-4.7c-0.1,0-0.2-0.1-0.2-0.2v-3.3c0-0.1,0.1-0.2,0.2-0.2h4.7      c0.1,0,0.2,0.1,0.2,0.2V-32.2z"></path>
			</g>
			<g>
				<path class="st0" d="M70.6-27.1c0,0.1-0.1,0.2-0.2,0.2h-4.7c-0.1,0-0.2-0.1-0.2-0.2v-3.3c0-0.1,0.1-0.2,0.2-0.2h4.7      c0.1,0,0.2,0.1,0.2,0.2V-27.1z"></path>
			</g>
			<g>
				<path class="st0" d="M70.6-22.1c0,0.1-0.1,0.2-0.2,0.2h-4.7c-0.1,0-0.2-0.1-0.2-0.2v-3.3c0-0.1,0.1-0.2,0.2-0.2h4.7      c0.1,0,0.2,0.1,0.2,0.2V-22.1z"></path>
			</g>
			<g>
				<path class="st0" d="M78.7-32.2c0,0.1-0.1,0.2-0.2,0.2h-4.7c-0.1,0-0.2-0.1-0.2-0.2v-3.3c0-0.1,0.1-0.2,0.2-0.2h4.7      c0.1,0,0.2,0.1,0.2,0.2V-32.2z"></path>
			</g>
			<g>
				<path class="st0" d="M78.7-27.1c0,0.1-0.1,0.2-0.2,0.2h-4.7c-0.1,0-0.2-0.1-0.2-0.2v-3.3c0-0.1,0.1-0.2,0.2-0.2h4.7      c0.1,0,0.2,0.1,0.2,0.2V-27.1z"></path>
			</g>
			<g>
				<path class="st0" d="M78.7-22.1c0,0.1-0.1,0.2-0.2,0.2h-4.7c-0.1,0-0.2-0.1-0.2-0.2v-3.3c0-0.1,0.1-0.2,0.2-0.2h4.7      c0.1,0,0.2,0.1,0.2,0.2V-22.1z"></path>
			</g>
			<g>
				<path class="st0" d="M62.5-32.2c0,0.1-0.1,0.2-0.2,0.2h-4.7c-0.1,0-0.2-0.1-0.2-0.2v-3.3c0-0.1,0.1-0.2,0.2-0.2h4.7      c0.1,0,0.2,0.1,0.2,0.2V-32.2z"></path>
			</g>
			<g>
				<path class="st0" d="M62.5-27.1c0,0.1-0.1,0.2-0.2,0.2h-4.7c-0.1,0-0.2-0.1-0.2-0.2v-3.3c0-0.1,0.1-0.2,0.2-0.2h4.7      c0.1,0,0.2,0.1,0.2,0.2V-27.1z"></path>
			</g>
			<g>
				<path class="st0" d="M62.5-22.1c0,0.1-0.1,0.2-0.2,0.2h-4.7c-0.1,0-0.2-0.1-0.2-0.2v-3.3c0-0.1,0.1-0.2,0.2-0.2h4.7      c0.1,0,0.2,0.1,0.2,0.2V-22.1z"></path>
			</g>
		</g>
		<g>
			<path class="st0" d="M67.9-46.8c0-0.1,0.1-0.1,0.1,0c0.2,0.4,0.5,0.8,0.7,1.3c0,0.1,0.1,0.1,0.2,0.2c0.5,0.1,1,0.2,1.5,0.2     c0.1,0,0.1,0.1,0,0.1c-0.4,0.3-0.7,0.6-1.1,1c-0.1,0.1-0.1,0.2-0.1,0.3c0.1,0.5,0.2,0.9,0.2,1.4c0,0.1,0,0.1-0.1,0.1     c-0.4-0.2-0.9-0.5-1.3-0.7c-0.1,0-0.2,0-0.3,0c-0.4,0.2-0.9,0.4-1.3,0.7c-0.1,0-0.1,0-0.1-0.1c0.1-0.5,0.1-0.9,0.2-1.4     c0-0.1,0-0.2-0.1-0.3c-0.4-0.3-0.7-0.6-1.1-1c-0.1-0.1,0-0.1,0-0.1c0.5-0.1,1-0.2,1.5-0.2c0.1,0,0.2-0.1,0.2-0.2     C67.5-46,67.7-46.4,67.9-46.8"></path>
		</g>
		<g>
			<path class="st0" d="M73.1-45.3c0-0.1,0.1-0.1,0.1,0c0.2,0.4,0.3,0.7,0.5,1.1c0,0.1,0.1,0.1,0.2,0.1c0.4,0.1,0.8,0.2,1.2,0.3     c0.1,0,0.1,0.1,0,0.1c-0.3,0.3-0.6,0.5-1,0.8c-0.1,0-0.1,0.1-0.1,0.2c0,0.4,0.1,0.8,0.1,1.2c0,0.1,0,0.1-0.1,0.1     c-0.3-0.2-0.7-0.4-1-0.6c-0.1,0-0.2,0-0.2,0c-0.4,0.2-0.7,0.3-1.1,0.5c-0.1,0-0.1,0-0.1-0.1c0.1-0.4,0.2-0.8,0.3-1.2     c0-0.1,0-0.2-0.1-0.2c-0.3-0.3-0.6-0.6-0.9-0.9C71-44,71-44,71.1-44c0.4,0,0.8-0.1,1.3-0.1c0.1,0,0.2-0.1,0.2-0.1     C72.7-44.6,72.9-45,73.1-45.3"></path>
		</g>
		<g>
			<path class="st0" d="M62.5-45.3c0-0.1,0.1-0.1,0.1,0c0.2,0.3,0.4,0.7,0.6,1c0,0.1,0.1,0.1,0.2,0.1c0.4,0,0.8,0.1,1.3,0.1     c0.1,0,0.1,0.1,0,0.1c-0.3,0.3-0.6,0.6-0.9,0.9c-0.1,0.1-0.1,0.1-0.1,0.2c0.1,0.4,0.2,0.8,0.3,1.2c0,0.1,0,0.1-0.1,0.1     c-0.4-0.2-0.7-0.3-1.1-0.5c-0.1,0-0.2,0-0.2,0c-0.4,0.2-0.7,0.4-1.1,0.6c-0.1,0-0.1,0-0.1-0.1c0-0.4,0.1-0.8,0.1-1.2     c0-0.1,0-0.2-0.1-0.2c-0.3-0.3-0.6-0.5-1-0.8c-0.1,0,0-0.1,0-0.1c0.4-0.1,0.8-0.2,1.2-0.3c0.1,0,0.2-0.1,0.2-0.1     C62.1-44.6,62.3-45,62.5-45.3"></path>
		</g>
		<g>
			<path class="st0" d="M77.4-42.1C77.5-42.2,77.5-42.2,77.4-42.1c0.2,0.3,0.3,0.5,0.4,0.8c0,0,0.1,0.1,0.1,0.1     c0.3,0.1,0.6,0.2,0.8,0.2c0,0,0.1,0,0,0.1c-0.2,0.2-0.5,0.3-0.7,0.5c0,0-0.1,0.1-0.1,0.1c0,0.3,0,0.6,0,0.8c0,0,0,0.1-0.1,0     c-0.2-0.2-0.5-0.3-0.7-0.5c0,0-0.1,0-0.2,0c-0.3,0.1-0.5,0.2-0.8,0.3c0,0-0.1,0-0.1-0.1c0.1-0.3,0.2-0.5,0.2-0.8c0,0,0-0.1,0-0.2     c-0.2-0.2-0.4-0.4-0.6-0.6c0,0,0-0.1,0-0.1c0.3,0,0.6,0,0.9,0c0.1,0,0.1,0,0.1-0.1C77.1-41.7,77.3-41.9,77.4-42.1"></path>
		</g>
		<g>
			<path class="st0" d="M58.5-42.1C58.5-42.1,58.6-42.1,58.5-42.1c0.2,0.2,0.4,0.5,0.6,0.7c0,0,0.1,0.1,0.1,0.1c0.3,0,0.6,0,0.9,0     c0.1,0,0.1,0,0,0.1c-0.2,0.2-0.4,0.4-0.6,0.6c0,0,0,0.1,0,0.2c0.1,0.3,0.2,0.5,0.2,0.8c0,0,0,0.1-0.1,0.1     c-0.3-0.1-0.5-0.2-0.8-0.3c0,0-0.1,0-0.2,0c-0.2,0.2-0.5,0.3-0.7,0.5c0,0-0.1,0-0.1,0c0-0.3,0-0.6,0-0.8c0,0,0-0.1-0.1-0.1     c-0.2-0.2-0.5-0.3-0.7-0.5c0,0,0-0.1,0-0.1c0.3-0.1,0.6-0.2,0.8-0.2c0,0,0.1-0.1,0.1-0.1C58.3-41.5,58.4-41.8,58.5-42.1"></path>
		</g>
		<g>
			<g>
				<path class="st3" d="M60.8-40.5c0,0-0.1,0.1,0,0.2c0.1,0.2,0.1,0.4,0.2,0.7H75c0.1-0.2,0.1-0.5,0.2-0.7c0-0.1,0-0.2,0-0.2      c0,0-0.1-0.1-0.1-0.1H61C60.9-40.6,60.9-40.5,60.8-40.5z"></path>
			</g>
			<g>
				<g>
					<path class="st3" d="M56.1-9.7h23.8c1.1,0,2-0.9,2-2h-1c0,0.5-0.4,0.9-0.9,0.9H56.1c-0.5,0-0.9-0.4-0.9-0.9h-1       C54.2-10.6,55-9.7,56.1-9.7z"></path>
				</g>
				<g>
					<path class="st3" d="M55.2-13.3v-25.4c0-0.5,0.4-0.9,0.9-0.9h0.6c0-0.1,0-0.3,0-0.4c0-0.1,0-0.1-0.1-0.2       c-0.2-0.1-0.4-0.3-0.6-0.4l0,0c-1.1,0-1.9,0.9-1.9,2v25.4H55.2z"></path>
				</g>
				<g>
					<path class="st3" d="M79.9-39.6c0.5,0,0.9,0.4,0.9,0.9v25.4h1v-25.4c0-1.1-0.9-2-1.9-2l0,0c-0.2,0.1-0.3,0.2-0.5,0.4       c-0.1,0-0.1,0.1-0.1,0.2c0,0.2,0,0.3,0,0.5H79.9z"></path>
				</g>
			</g>
		</g>
		<g>
			<path class="st0" d="M73.2-13v-6.8c0-0.3-0.2-0.5-0.5-0.5h-9.4c-0.3,0-0.5,0.2-0.5,0.5v6.8H73.2z"></path>
		</g>
	</g>
</g>
<path class="st0" d="M20.3-46c-2.4,0-4.3,1.9-4.3,4.3c0,0.9,0.3,1.8,0.8,2.5l0.1,0.2l3.1,4.3c0.1,0.1,0.2,0.1,0.3,0.1  c0.1,0,0.2-0.1,0.3-0.1l3-4.3l0.2-0.2c0.5-0.7,0.8-1.6,0.8-2.5C24.6-44.1,22.7-46,20.3-46z M20.3-40.3c-0.8,0-1.4-0.6-1.4-1.4  c0-0.8,0.6-1.4,1.4-1.4c0.8,0,1.4,0.6,1.4,1.4C21.7-40.9,21.1-40.3,20.3-40.3z"></path>
<g>
	<g>
		<path class="st0" d="M61.4,18.7c0.1-0.1,0.2-0.3,0.2-0.4l-0.3-2c0-0.1,0-0.3,0.1-0.4l1.4-1.4c0.1-0.1,0.2-0.3,0.1-0.4    c-0.1-0.2-0.2-0.3-0.3-0.3l-2-0.3c-0.1,0-0.3-0.1-0.3-0.2l-0.9-1.8c-0.1-0.1-0.2-0.2-0.4-0.2c-0.2,0-0.3,0.1-0.4,0.2l-0.9,1.8    c-0.1,0.1-0.2,0.2-0.3,0.2l-2,0.3c-0.2,0-0.3,0.1-0.3,0.3c-0.1,0.2,0,0.3,0.1,0.4l1.4,1.4c0.1,0.1,0.1,0.2,0.1,0.4l-0.3,2    c0,0.2,0,0.3,0.2,0.4c0.1,0.1,0.3,0.1,0.5,0l1.8-0.9c0.1-0.1,0.3-0.1,0.4,0l1.8,0.9C61.1,18.8,61.2,18.7,61.4,18.7z"></path>
		<path class="st0" d="M70.7,18.7c0.1-0.1,0.2-0.3,0.2-0.4l-0.3-2c0-0.1,0-0.3,0.1-0.4l1.4-1.4c0.1-0.1,0.2-0.3,0.1-0.4    c-0.1-0.2-0.2-0.3-0.3-0.3l-2-0.3c-0.1,0-0.3-0.1-0.3-0.2l-0.9-1.8c-0.1-0.1-0.2-0.2-0.4-0.2c-0.2,0-0.3,0.1-0.4,0.2L67,13.2    c-0.1,0.1-0.2,0.2-0.3,0.2l-2,0.3c-0.2,0-0.3,0.1-0.3,0.3c-0.1,0.2,0,0.3,0.1,0.4l1.4,1.4c0.1,0.1,0.1,0.2,0.1,0.4l-0.3,2    c0,0.2,0,0.3,0.2,0.4c0.1,0.1,0.3,0.1,0.5,0l1.8-0.9c0.1-0.1,0.3-0.1,0.4,0l1.8,0.9C70.4,18.8,70.6,18.7,70.7,18.7z"></path>
		<path class="st0" d="M67.2,23.1l-2-0.3c-0.1,0-0.3-0.1-0.3-0.2L64,20.8c-0.1-0.1-0.2-0.2-0.4-0.2c-0.2,0-0.3,0.1-0.4,0.2l-0.9,1.8    c-0.1,0.1-0.2,0.2-0.3,0.2l-2,0.3c-0.2,0-0.3,0.1-0.3,0.3c-0.1,0.2,0,0.3,0.1,0.4l1.4,1.4c0.1,0.1,0.1,0.2,0.1,0.4l-0.3,2    c0,0.2,0,0.3,0.2,0.4c0.1,0.1,0.3,0.1,0.5,0l1.8-0.9c0.1-0.1,0.3-0.1,0.4,0l1.8,0.9c0.1,0.1,0.3,0.1,0.5,0    c0.1-0.1,0.2-0.3,0.2-0.4l-0.3-2c0-0.1,0-0.3,0.1-0.4l1.4-1.4c0.1-0.1,0.2-0.3,0.1-0.4C67.5,23.2,67.3,23.1,67.2,23.1z"></path>
		<path class="st0" d="M76.5,23.1l-2-0.3c-0.1,0-0.3-0.1-0.3-0.2l-0.9-1.8c-0.1-0.1-0.2-0.2-0.4-0.2c-0.2,0-0.3,0.1-0.4,0.2    l-0.9,1.8c-0.1,0.1-0.2,0.2-0.3,0.2l-2,0.3c-0.2,0-0.3,0.1-0.3,0.3c-0.1,0.2,0,0.3,0.1,0.4l1.4,1.4c0.1,0.1,0.1,0.2,0.1,0.4    l-0.3,2c0,0.2,0,0.3,0.2,0.4c0.1,0.1,0.3,0.1,0.5,0l1.8-0.9c0.1-0.1,0.3-0.1,0.4,0l1.8,0.9c0.1,0.1,0.3,0.1,0.5,0    c0.1-0.1,0.2-0.3,0.2-0.4l-0.3-2c0-0.1,0-0.3,0.1-0.4l1.4-1.4c0.1-0.1,0.2-0.3,0.1-0.4C76.8,23.2,76.7,23.1,76.5,23.1z"></path>
		<path class="st0" d="M81.2,13.8l-2-0.3c-0.1,0-0.3-0.1-0.3-0.2L78,11.5c-0.1-0.1-0.2-0.2-0.4-0.2c-0.2,0-0.3,0.1-0.4,0.2l-0.9,1.8    c-0.1,0.1-0.2,0.2-0.3,0.2l-2,0.3c-0.2,0-0.3,0.1-0.3,0.3c0,0.2,0,0.3,0.1,0.4l1.4,1.4c0.1,0.1,0.1,0.2,0.1,0.4l-0.3,2    c0,0.2,0,0.3,0.2,0.4c0.1,0.1,0.3,0.1,0.5,0l1.8-0.9c0.1-0.1,0.3-0.1,0.4,0l1.8,0.9c0.1,0.1,0.3,0.1,0.5,0    c0.1-0.1,0.2-0.3,0.2-0.4l-0.3-2c0-0.1,0-0.3,0.1-0.4l1.4-1.4c0.1-0.1,0.2-0.3,0.1-0.4C81.5,13.9,81.4,13.8,81.2,13.8z"></path>
		<path class="st0" d="M83.4,5.3H53.2c-2,0-3.6,1.6-3.6,3.6v21.4c0,2,1.6,3.7,3.6,3.7h30.1c2,0,3.6-1.7,3.6-3.7V9    C87,6.9,85.4,5.3,83.4,5.3z M83.8,30.3c0,0.3-0.2,0.5-0.5,0.5H53.2c-0.3,0-0.5-0.2-0.5-0.5V8.9c0-0.3,0.2-0.5,0.5-0.5h30.2    c0.3,0,0.5,0.2,0.5,0.5V30.3z"></path>
	</g>
</g>
<g>
	<g>
		<path class="st0" d="M25.7,31.4h-1V2.5c0-0.3,0.2-0.5,0.5-0.5h0c0.3,0,0.5,0.2,0.5,0.5V31.4z"></path>
		<path class="st0" d="M25.2,2.8l-8,10.1c0,0,0.8,1.6,1.9,1.6c1.1,0,6.1,0,6.1,0s5,0,6.1,0c1.1,0,1.9-1.6,1.9-1.6L25.2,2.8z"></path>
		<path class="st12" d="M25.2,2.8c0,0-5.3,11.7-4.2,11.7c1.1,0,4.2,0,4.2,0s3.1,0,4.2,0C30.4,14.5,25.2,2.8,25.2,2.8z"></path>
		<path class="st0" d="M25.2,2.8c0,0,7.1,9.2,7.8,10.1c0.5,0.6,1.1,1.2,1.7,1.2c1.7,0.1,4.3-2.4,4.3-2.4c0,0,0-1.9-2.1-3    C32.1,6.1,25.2,2.8,25.2,2.8z"></path>
		<path class="st12" d="M25.2,2.8c0,0-7.1,9.2-7.8,10.1c-0.5,0.6-1.1,1.2-1.7,1.2c-1.7,0.1-4.3-2.4-4.3-2.4c0,0,0-1.9,2.1-3    C18.2,6.1,25.2,2.8,25.2,2.8z"></path>
		<path class="st12" d="M25.2,2.8c0,0,10.5,11.2,11.1,10.9c1.4-0.7,2.7-2,2.7-2C39,11.7,25.2,2.8,25.2,2.8z"></path>
		<path class="st0" d="M25.2,2.8c0,0-10.8,11.1-11.4,10.7c-1.3-0.7-2.4-1.8-2.4-1.8C11.3,11.7,25.2,2.8,25.2,2.8z"></path>
	</g>
</g>
<g>
	<g>
		<path class="st0" d="M10.6,26.9l-1.7,4.3C8.8,31.6,9,32,9.5,32h0c0.2,0,0.5-0.2,0.6-0.4l1.3-3.4c0.1-0.2,0.3-0.4,0.6-0.4h11    c0.3,0,0.5,0.2,0.6,0.4l1.3,3.4c0.1,0.2,0.3,0.4,0.6,0.4h0c0.4,0,0.7-0.4,0.6-0.8l-1.7-4.3c-0.1-0.2-0.3-0.4-0.6-0.4h-0.9h-2.4    l-1.8-4.3c-0.1-0.2-0.3-0.3-0.5-0.3h-7.8l-2.1-5.2c-0.1-0.2-0.3-0.4-0.6-0.4h0c-0.4,0-0.7,0.4-0.6,0.8l3.6,9    C10.8,26.4,10.7,26.6,10.6,26.9z M18,23.7l1,2.5c0.1,0.2-0.1,0.4-0.2,0.4h-6.5c-0.1,0-0.2-0.1-0.2-0.2l-1-2.5    c-0.1-0.2,0.1-0.4,0.2-0.4h6.5C17.9,23.5,18,23.6,18,23.7z"></path>
		<path class="st12" d="M7.4,17.3l-4.7,1.9l4,9.8l12.2,0.4l0.4,0.3l4.2-1.5l-0.3-0.6c-0.1-0.2-0.3-0.4-0.5-0.4l-11.4-0.1L7.4,17.3z"></path>
		<path class="st0" d="M6.7,29l12.2,0.4l0.4,0.3l4.2-1.5l-0.3-0.6c-0.1-0.2-0.3-0.4-0.5-0.4l-11.4-0.1L6.7,29z"></path>
		<path class="st0" d="M5.6,28.8l-1.7,4.3c-0.2,0.4,0.1,0.8,0.6,0.8h0c0.2,0,0.5-0.2,0.6-0.4l1.3-3.4c0.1-0.2,0.3-0.4,0.6-0.4h11    c0.3,0,0.5,0.2,0.6,0.4l1.3,3.4c0.1,0.2,0.3,0.4,0.6,0.4h0c0.4,0,0.7-0.4,0.6-0.8l-1.7-4.3c-0.1-0.2-0.3-0.4-0.6-0.4h-0.9h-2.4    l-1.8-4.3c-0.1-0.2-0.3-0.3-0.5-0.3H5.2l-2.1-5.2c-0.1-0.2-0.3-0.4-0.6-0.4h0c-0.4,0-0.7,0.4-0.6,0.8l3.6,9    C5.7,28.3,5.7,28.6,5.6,28.8z M13,25.6l1,2.5c0.1,0.2-0.1,0.4-0.2,0.4H7.3c-0.1,0-0.2-0.1-0.2-0.2l-1-2.5    c-0.1-0.2,0.1-0.4,0.2-0.4h6.5C12.8,25.4,12.9,25.5,13,25.6z"></path>
	</g>
</g>
</svg>