<svg xmlns="http://www.w3.org/2000/svg" xmlns:xlink="http://www.w3.org/1999/xlink" id="Capa_1" x="0px" y="0px" viewBox="0 0 40 40" style="enable-background:new 0 0 40 40;" xml:space="preserve">
<style type="text/css">
	.st0{fill:#7BAA39;}
	.st1{fill:#7BAA39;stroke:#7BAA39;stroke-width:0.5898;stroke-miterlimit:10;}
	.st2{fill:#7BAA39;stroke:#7BAA39;stroke-width:0.5;stroke-miterlimit:10;}
	.st3{fill:#7BAA39;stroke:#7BAA39;stroke-miterlimit:10;}
	.st4{fill:#FFFFFF;}
	.st5{fill:#7BAA39;stroke:#7BAA39;stroke-width:0.9877;stroke-miterlimit:10;}
	.st6{fill:#698E21;}
	.st7{fill:#7BAA39;stroke:#7BAA39;stroke-width:1.9097;stroke-miterlimit:10;}
	.st8{fill:#7BAA39;stroke:#7BAA39;stroke-width:0.6979;stroke-miterlimit:10;}
	.st9{fill:#7BAA39;stroke:#7BAA39;stroke-width:0.5544;stroke-miterlimit:10;}
	.st10{fill:#7BAA39;stroke:#7BAA39;stroke-width:0.7505;stroke-miterlimit:10;}
	.st11{fill:#7BAA39;stroke:#7BAA39;stroke-width:0.1953;stroke-miterlimit:10;}
</style>
<path class="st0" d="M20.1-101C9.9-101,1.6-92.7,1.6-82.5S9.9-64,20.1-64c10.2,0,18.5-8.3,18.5-18.5S30.3-101,20.1-101z M20.1-68.6  c-7.7,0-13.9-6.2-13.9-13.9s6.2-13.9,13.9-13.9c7.7,0,13.9,6.2,13.9,13.9S27.8-68.6,20.1-68.6z M30.1-80.9c0,1.3-1,2.3-2.3,2.3h-9.3  c-1.3,0-2.3-1-2.3-2.3v-9.3c0-1.3,1-2.3,2.3-2.3c1.3,0,2.3,1,2.3,2.3v6.9h6.9C29-83.2,30.1-82.2,30.1-80.9z"></path>
<rect x="34" y="-170" class="st0" width="40" height="40"></rect>
<g>
	<g>
		<path class="st0" d="M55.6-36.5c-1.1,0-2.1-0.2-3-0.6c-0.8-0.4-1.5-1-2.1-1.6c-0.5-0.7-0.9-1.5-1.2-2.3c-0.3-0.9-0.4-1.8-0.4-2.7    c0-0.9,0.1-1.9,0.4-2.7c0.3-0.9,0.7-1.7,1.2-2.3c0.5-0.7,1.2-1.2,2.1-1.6c0.8-0.4,1.8-0.6,3-0.6c1.1,0,2.1,0.2,2.9,0.6    c0.8,0.4,1.5,1,2.1,1.6c0.6,0.7,1,1.5,1.2,2.3c0.3,0.9,0.4,1.8,0.4,2.7c0,0.9-0.1,1.8-0.4,2.7c-0.3,0.9-0.7,1.6-1.2,2.3    c-0.6,0.7-1.2,1.2-2.1,1.6C57.7-36.7,56.7-36.5,55.6-36.5z M55.6-39.8c0.8,0,1.4-0.4,1.8-1.1c0.4-0.7,0.6-1.7,0.6-2.9    c0-1.2-0.2-2.2-0.6-2.9c-0.4-0.7-1-1.1-1.8-1.1s-1.4,0.4-1.8,1.1c-0.4,0.7-0.6,1.7-0.6,2.9c0,1.2,0.2,2.2,0.6,2.9    C54.2-40.1,54.8-39.8,55.6-39.8z M71.4-50.8c0.8-0.1,1.6-0.2,2.4-0.2c0.7,0,1.5,0.1,2.4,0.2L59.5-26.4c-0.8,0.1-1.6,0.2-2.3,0.2    c-0.8,0-1.6-0.1-2.4-0.2L71.4-50.8z M75.4-26c-1.1,0-2.1-0.2-3-0.6c-0.8-0.4-1.5-1-2.1-1.6c-0.5-0.7-0.9-1.5-1.2-2.3    c-0.3-0.9-0.4-1.8-0.4-2.7c0-0.9,0.1-1.9,0.4-2.7c0.3-0.9,0.7-1.7,1.2-2.3c0.5-0.7,1.2-1.2,2.1-1.6c0.8-0.4,1.8-0.6,3-0.6    c1.1,0,2.1,0.2,2.9,0.6c0.8,0.4,1.5,1,2.1,1.6s1,1.5,1.2,2.3c0.3,0.9,0.4,1.8,0.4,2.7c0,0.9-0.1,1.8-0.4,2.7    c-0.3,0.9-0.7,1.6-1.2,2.3c-0.6,0.7-1.2,1.2-2.1,1.6C77.5-26.2,76.5-26,75.4-26z M75.4-29.2c0.8,0,1.4-0.4,1.8-1.1    c0.4-0.7,0.6-1.7,0.6-2.9c0-1.2-0.2-2.2-0.6-2.9c-0.4-0.7-1-1.1-1.8-1.1s-1.4,0.4-1.8,1.1c-0.4,0.7-0.6,1.7-0.6,2.9    c0,1.2,0.2,2.2,0.6,2.9C73.9-29.6,74.5-29.2,75.4-29.2z"></path>
	</g>
</g>
<path class="st0" d="M36.2-52.8h-6.1v-3c0-1.3-1.1-2.4-2.4-2.4s-2.4,1.1-2.4,2.4v3H14.4v-3c0-1.3-1.1-2.4-2.4-2.4  c-1.3,0-2.4,1.1-2.4,2.4v3H3.5c-1,0-1.8,0.8-1.8,1.8v26.3c0,1,0.8,1.8,1.8,1.8h32.7c1,0,1.8-0.8,1.8-1.8V-51  C38-52,37.2-52.8,36.2-52.8z M18.6-44.7v4.8h-5.8v-4.8H18.6z M21-44.7h5.8v4.8H21V-44.7z M10.4-44.7v4.8H5.3v-4.8H10.4z M10.4-37.4  v3.6H5.3v-3.6H10.4z M12.9-37.4h5.8v3.6h-5.8V-37.4z M18.6-31.4v4.9h-5.8v-4.9H18.6z M21-31.4h5.8v4.9H21V-31.4z M21-33.8v-3.6h5.8  v3.6H21z M29.2-37.4h5.1v3.6h-5.1V-37.4z M29.2-39.9v-4.8h5.1v4.8H29.2z M5.3-31.4h5.1v4.9H5.3V-31.4z M29.2-26.5v-4.9h5.1v4.9H29.2  z"></path>
<g>
	<path class="st1" d="M42.9-38.2v-1.9h4.4v1.9H42.9z"></path>
</g>
<path class="st2" d="M103.9-70.3h-2.1c-0.6,0-1.1-0.5-1.1-1.1c0-0.6,0.5-1.1,1.1-1.1h2.1c0.6,0,1.1,0.5,1.1,1.1  C105-70.8,104.5-70.3,103.9-70.3z M135-93.8v25.7c0,2.4-1.9,4.3-4.3,4.3h-23.6c-2.4,0-4.3-1.9-4.3-4.3h1.1c1.8,0,3.2-1.4,3.2-3.2  c0-1.8-1.4-3.2-3.2-3.2h-1.1v-12.9h1.1c1.8,0,3.2-1.4,3.2-3.2c0-1.8-1.4-3.2-3.2-3.2h-1.1c0-2.4,1.9-4.3,4.3-4.3h23.6  C133.1-98.1,135-96.2,135-93.8z M132.9-93.8c0-1.2-1-2.1-2.1-2.1h-19.3v30h19.3c1.2,0,2.1-1,2.1-2.1V-93.8z M101.8-89.6h2.1  c0.6,0,1.1-0.5,1.1-1.1c0-0.6-0.5-1.1-1.1-1.1h-2.1c-0.6,0-1.1,0.5-1.1,1.1C100.7-90,101.2-89.6,101.8-89.6z M129.6-93.8h-15  c-0.6,0-1.1,0.5-1.1,1.1c0,0.6,0.5,1.1,1.1,1.1h15c0.6,0,1.1-0.5,1.1-1.1C130.7-93.4,130.2-93.8,129.6-93.8z M129.6-89.6h-15  c-0.6,0-1.1,0.5-1.1,1.1c0,0.6,0.5,1.1,1.1,1.1h15c0.6,0,1.1-0.5,1.1-1.1C130.7-89.1,130.2-89.6,129.6-89.6z M129.6-85.3h-15  c-0.6,0-1.1,0.5-1.1,1.1c0,0.6,0.5,1.1,1.1,1.1h15c0.6,0,1.1-0.5,1.1-1.1C130.7-84.8,130.2-85.3,129.6-85.3z M129.6-81h-15  c-0.6,0-1.1,0.5-1.1,1.1c0,0.6,0.5,1.1,1.1,1.1h15c0.6,0,1.1-0.5,1.1-1.1C130.7-80.5,130.2-81,129.6-81z M129.6-76.7h-15  c-0.6,0-1.1,0.5-1.1,1.1c0,0.6,0.5,1.1,1.1,1.1h15c0.6,0,1.1-0.5,1.1-1.1C130.7-76.2,130.2-76.7,129.6-76.7z M123.2-72.4h-8.6  c-0.6,0-1.1,0.5-1.1,1.1c0,0.6,0.5,1.1,1.1,1.1h8.6c0.6,0,1.1-0.5,1.1-1.1C124.3-71.9,123.8-72.4,123.2-72.4z"></path>
<g>
	<path class="st3" d="M161.4-79.2c0-1.2,3.5-2.1,4.8-3.5c1.1-1.2,2.1-2.4,1.9-4.9c-0.2-3.1-2.1-12.3-2.1-12.3h-10.6   c0,0-1.9,9.2-2.1,12.3c-0.1,2.6,0.8,3.8,1.9,4.9c1.4,1.4,4.8,2.4,4.8,3.5c0,1.2,0.1,4.1,0.1,4.1h0v11.5h-4.8v0.6h10.6v-0.6h-4.8   v-11.5C161.4-75.1,161.4-78.1,161.4-79.2z"></path>
	<g>
		<path class="st4" d="M157.2-91.3c-0.3,3.6,0,7.5,2.4,9.4c-2.6-1.2-4.3-1.9-3.8-9.4H155l1.1-8h9.5l1.1,8H157.2z"></path>
	</g>
</g>
<g>
	<path class="st0" d="M101.9-29.5c-1.4,0-2.7,1.4-2.7,3c0,1.7,1.3,3.1,2.7,3.1c1.4,0,2.6-1.5,2.6-3.1   C104.5-28.1,103.3-29.5,101.9-29.5z"></path>
	<path class="st0" d="M111.6-53.6h22.9c1.4,0,2.5-1.2,2.5-2.8c0-1.6-1.1-2.9-2.5-2.9h-22.9c-1.4,0-2.5,1.3-2.5,2.9   C109.1-54.8,110.2-53.6,111.6-53.6z"></path>
	<path class="st0" d="M101.9-59.5c-1.4,0-2.7,1.5-2.7,3.1c0,1.7,1.3,3,2.7,3c1.4,0,2.6-1.4,2.6-3C104.5-58.1,103.3-59.5,101.9-59.5z   "></path>
	<path class="st0" d="M134.5-44.3h-22.9c-1.4,0-2.5,1.3-2.5,2.9c0,1.6,1.1,2.9,2.5,2.9h22.9c1.4,0,2.5-1.3,2.5-2.9   C137-43,135.9-44.3,134.5-44.3z"></path>
	<path class="st0" d="M134.5-29.3h-22.9c-1.4,0-2.5,1.3-2.5,2.9c0,1.6,1.1,2.9,2.5,2.9h22.9c1.4,0,2.5-1.3,2.5-2.9   C137-28,135.9-29.3,134.5-29.3z"></path>
</g>
<path class="st5" d="M81.5-73.7c0,0.8-0.7,1.5-1.6,1.5H44.1c-0.9,0-1.6-0.7-1.6-1.5c0-0.8,0.7-1.5,1.6-1.5h35.8  C80.8-75.2,81.5-74.5,81.5-73.7z M64.1-93.4c-0.1-1-0.9-1.8-1.9-1.8c-1,0-1.8,0.8-1.9,1.8c0.6-0.1,1.2-0.1,1.9-0.1  C62.9-93.6,63.5-93.5,64.1-93.4z M78.9-77.5H45.6c0.7-8.6,7.9-15.4,16.7-15.4C71-92.9,78.2-86.1,78.9-77.5z M60.3-91.4  c0,0-9.3,2-12.1,12.4c2.5,0,3.5,0,3.5,0S53.7-87.7,60.3-91.4z"></path>
<polygon class="st6" points="104.8,-38 102.4,-39.3 100,-38 100.5,-40.7 98.5,-42.5 101.2,-42.9 102.4,-45.3 103.6,-42.9   106.2,-42.5 104.3,-40.7 "></polygon>
<g>
	<path class="st0" d="M161.7-56.3c-7.4,0-13.5,6-13.5,13.5s6,13.5,13.5,13.5c7.4,0,13.5-6,13.5-13.5S169.2-56.3,161.7-56.3z    M171.6-45.3c0,0.1,0.1,0.3,0.1,0.4c0,0.2,0.1,0.4,0.1,0.6c0,0.1,0,0.2,0.1,0.4c0,0.3,0.1,0.7,0.1,1c0,0.3,0,0.7-0.1,1   c0,0.1,0,0.2-0.1,0.4c0,0.2-0.1,0.4-0.1,0.6c0,0.1-0.1,0.3-0.1,0.4c0,0.2-0.1,0.4-0.1,0.5c0,0.2-0.1,0.3-0.2,0.5   c-0.1,0.2-0.1,0.3-0.2,0.5c-0.1,0.2-0.1,0.3-0.2,0.5c-0.1,0.1-0.1,0.3-0.2,0.4c-0.1,0.2-0.2,0.3-0.3,0.5c-0.1,0.1-0.1,0.2-0.2,0.4   c-0.1,0.2-0.2,0.3-0.4,0.5c-0.1,0.1-0.1,0.2-0.2,0.3c-0.1,0.2-0.3,0.3-0.4,0.5c-0.1,0.1-0.1,0.2-0.2,0.2c-0.2,0.2-0.3,0.3-0.5,0.4   c-0.1,0.1-0.1,0.1-0.2,0.2c-0.2,0.1-0.4,0.3-0.5,0.4c-0.1,0.1-0.1,0.1-0.2,0.2c-0.2,0.1-0.4,0.2-0.6,0.4c-0.1,0-0.2,0.1-0.2,0.1   c-0.2,0.1-0.4,0.2-0.6,0.3c-0.1,0-0.2,0.1-0.2,0.1c-0.2,0.1-0.4,0.2-0.7,0.2c-0.1,0-0.2,0.1-0.3,0.1c-0.2,0.1-0.5,0.1-0.7,0.2   c-0.1,0-0.2,0.1-0.3,0.1c-0.2,0-0.5,0.1-0.7,0.1c-0.1,0-0.2,0-0.3,0c-0.2,0-0.4,0-0.7,0c-0.1,0-0.2,0-0.3,0v0c0,0,0,0-0.1,0   c-5.6,0-10.1-4.5-10.1-10.1c0-5.6,4.5-10.1,10.1-10.1c0,0,0,0,0.1,0v0c0.1,0,0.2,0,0.3,0c0.2,0,0.5,0,0.7,0c0.1,0,0.2,0,0.3,0   c0.2,0,0.5,0.1,0.7,0.1c0.1,0,0.2,0,0.2,0.1c0.2,0.1,0.5,0.1,0.7,0.2c0.1,0,0.1,0.1,0.2,0.1c0.2,0.1,0.5,0.2,0.7,0.3   c0.1,0,0.1,0.1,0.2,0.1c0.2,0.1,0.5,0.2,0.7,0.3c0.1,0,0.1,0.1,0.2,0.1c0.2,0.1,0.4,0.2,0.6,0.4c0.1,0,0.1,0.1,0.2,0.2   c0.2,0.1,0.4,0.3,0.6,0.4c0.1,0.1,0.1,0.1,0.2,0.2c0.2,0.2,0.3,0.3,0.5,0.5c0.1,0.1,0.1,0.2,0.2,0.2c0.1,0.2,0.3,0.3,0.4,0.5   c0.1,0.1,0.1,0.2,0.2,0.3c0.1,0.2,0.3,0.3,0.4,0.5c0.1,0.1,0.1,0.2,0.2,0.3c0.1,0.2,0.2,0.3,0.3,0.5c0.1,0.1,0.1,0.3,0.2,0.4   c0.1,0.2,0.2,0.3,0.2,0.5c0.1,0.2,0.1,0.3,0.2,0.5c0.1,0.2,0.1,0.3,0.2,0.5C171.5-45.7,171.5-45.5,171.6-45.3z M171.3-42.9   c0,5.3-4.3,9.5-9.5,9.5c-5.3,0-9.5-4.3-9.5-9.5c0-5.3,4.3-9.5,9.5-9.5C167-52.4,171.3-48.1,171.3-42.9z M180-53.4v22.3   c0,0.6-0.4,1.1-0.9,1.2v0c-0.1,0-0.2,0-0.3,0c-0.7,0-1.3-0.6-1.2-1.3c0.2-2.1,1.5-6.7,0.8-8.5c-0.4-1-1.7-2.9-1.7-6   c0-5.8,1.4-7.9,2.3-8.4c0,0,0,0,0,0C179.5-54.2,180-53.9,180-53.4z M146.6-54c0.3,1.8,0.5,5.2,0.5,6.9c0,2.1-0.4,2.1-1.7,2.6   l0.5,13.4c0,0.7-0.5,1.3-1.2,1.3c-0.1,0-0.1,0-0.2,0v0c-0.6-0.1-1-0.6-1-1.3l0.5-13.4c-1.3-0.5-1.7-0.5-1.7-2.6   c0-1.7,0.3-5.2,0.5-6.9h0.3l0.1,7.6h0.6L144-54h0.3l0.1,7.6h0.1h0.1h0.4l0.1-7.6h0.3l0.1,7.6h0.6l0.1-7.6H146.6z"></path>
</g>
<g>
	<path d="M101.3-104.8c0-0.4,0-0.9,0-1.2h0c-0.1,0.3-0.2,0.7-0.4,1.1l-0.5,1.4h-0.3l-0.5-1.3c-0.1-0.4-0.2-0.8-0.3-1.1h0   c0,0.3,0,0.8-0.1,1.2l-0.1,1.2h-0.3l0.2-2.8h0.5l0.5,1.4c0.1,0.3,0.2,0.7,0.3,0.9h0c0.1-0.3,0.2-0.6,0.3-0.9l0.5-1.4h0.5l0.2,2.8   h-0.4L101.3-104.8z"></path>
	<path d="M104.1-104.6c0,0.7-0.5,1.1-1,1.1c-0.5,0-1-0.4-1-1c0-0.7,0.4-1.1,1-1.1C103.7-105.6,104.1-105.2,104.1-104.6z    M102.5-104.5c0,0.4,0.3,0.8,0.6,0.8c0.3,0,0.6-0.3,0.6-0.8c0-0.3-0.2-0.8-0.6-0.8C102.7-105.3,102.5-104.9,102.5-104.5z"></path>
	<path d="M104.6-105c0-0.2,0-0.4,0-0.5h0.3l0,0.3h0c0.1-0.2,0.3-0.4,0.6-0.4c0.3,0,0.5,0.2,0.6,0.4h0c0.1-0.1,0.1-0.2,0.2-0.3   c0.1-0.1,0.3-0.1,0.4-0.1c0.3,0,0.7,0.2,0.7,0.9v1.2h-0.4v-1.1c0-0.4-0.1-0.6-0.4-0.6c-0.2,0-0.4,0.2-0.4,0.3c0,0.1,0,0.1,0,0.2   v1.2h-0.4v-1.2c0-0.3-0.1-0.6-0.4-0.6c-0.2,0-0.4,0.2-0.5,0.4c0,0.1,0,0.1,0,0.2v1.2h-0.4V-105z"></path>
	<path d="M108.3-104.5c0,0.5,0.3,0.7,0.7,0.7c0.3,0,0.4,0,0.6-0.1l0.1,0.3c-0.1,0.1-0.3,0.1-0.7,0.1c-0.6,0-1-0.4-1-1   c0-0.6,0.4-1.1,0.9-1.1c0.7,0,0.8,0.6,0.8,0.9c0,0.1,0,0.1,0,0.2H108.3z M109.3-104.7c0-0.2-0.1-0.6-0.5-0.6   c-0.4,0-0.5,0.3-0.6,0.6H109.3z"></path>
	<path d="M110.2-105c0-0.2,0-0.4,0-0.5h0.3l0,0.3h0c0.1-0.2,0.3-0.4,0.7-0.4c0.3,0,0.7,0.2,0.7,0.9v1.2h-0.4v-1.2   c0-0.3-0.1-0.6-0.5-0.6c-0.2,0-0.4,0.2-0.5,0.4c0,0,0,0.1,0,0.2v1.2h-0.4V-105z"></path>
	<path d="M112.9-106.1v0.6h0.5v0.3h-0.5v1.1c0,0.2,0.1,0.4,0.3,0.4c0.1,0,0.2,0,0.2,0l0,0.3c-0.1,0-0.2,0.1-0.3,0.1   c-0.2,0-0.3-0.1-0.4-0.2c-0.1-0.1-0.1-0.3-0.1-0.5v-1.1h-0.3v-0.3h0.3v-0.5L112.9-106.1z"></path>
	<path d="M115.6-104.6c0,0.7-0.5,1.1-1,1.1c-0.5,0-1-0.4-1-1c0-0.7,0.4-1.1,1-1.1C115.2-105.6,115.6-105.2,115.6-104.6z M114-104.5   c0,0.4,0.3,0.8,0.6,0.8c0.4,0,0.6-0.3,0.6-0.8c0-0.3-0.2-0.8-0.6-0.8C114.2-105.3,114-104.9,114-104.5z"></path>
	<path d="M116-103.9c0.1,0.1,0.3,0.1,0.5,0.1c0.3,0,0.4-0.1,0.4-0.3c0-0.2-0.1-0.3-0.4-0.4c-0.4-0.1-0.5-0.3-0.5-0.6   c0-0.3,0.3-0.6,0.7-0.6c0.2,0,0.4,0.1,0.5,0.1l-0.1,0.3c-0.1,0-0.2-0.1-0.4-0.1c-0.2,0-0.3,0.1-0.3,0.3c0,0.2,0.1,0.2,0.4,0.3   c0.3,0.1,0.5,0.3,0.5,0.6c0,0.4-0.3,0.6-0.8,0.6c-0.2,0-0.4-0.1-0.6-0.1L116-103.9z"></path>
	<path d="M118.6-103.5c0-0.1,0-0.3,0-0.5v-2.4h0.4v1.3h0c0.1-0.2,0.4-0.4,0.7-0.4c0.5,0,0.9,0.4,0.8,1c0,0.7-0.5,1.1-0.9,1.1   c-0.3,0-0.5-0.1-0.7-0.4h0l0,0.3H118.6z M119-104.3c0,0,0,0.1,0,0.1c0.1,0.3,0.3,0.4,0.5,0.4c0.4,0,0.6-0.3,0.6-0.8   c0-0.4-0.2-0.7-0.6-0.7c-0.2,0-0.5,0.2-0.6,0.4c0,0,0,0.1,0,0.1V-104.3z"></path>
	<path d="M122.8-104.6c0,0.7-0.5,1.1-1,1.1c-0.5,0-1-0.4-1-1c0-0.7,0.4-1.1,1-1.1C122.4-105.6,122.8-105.2,122.8-104.6z    M121.2-104.5c0,0.4,0.3,0.8,0.6,0.8c0.4,0,0.6-0.3,0.6-0.8c0-0.3-0.2-0.8-0.6-0.8C121.4-105.3,121.2-104.9,121.2-104.5z"></path>
	<path d="M125-106.5v2.4c0,0.2,0,0.4,0,0.5h-0.3l0-0.3h0c-0.1,0.2-0.4,0.4-0.7,0.4c-0.5,0-0.9-0.4-0.9-1c0-0.7,0.4-1.1,0.9-1.1   c0.3,0,0.5,0.1,0.6,0.3h0v-1.2H125z M124.7-104.7c0,0,0-0.1,0-0.2c-0.1-0.2-0.3-0.4-0.5-0.4c-0.4,0-0.6,0.3-0.6,0.8   c0,0.4,0.2,0.7,0.6,0.7c0.2,0,0.5-0.2,0.5-0.4c0-0.1,0-0.1,0-0.2V-104.7z"></path>
	<path d="M125.5-103.8c0-0.2,0.1-0.3,0.2-0.3c0.1,0,0.2,0.1,0.2,0.3c0,0.1-0.1,0.3-0.2,0.3C125.6-103.5,125.5-103.6,125.5-103.8z"></path>
</g>
<rect x="195.7" y="-107.8" style="fill:none;" width="36.3" height="2.8"></rect>
<text transform="matrix(1 0 0 1 195.667 -105.7036)" style="font-family:'MyriadPro-Regular'; font-size:3px;">Regalate gastronomía. </text>
<g>
	<rect x="206.1" y="-87.7" class="st7" width="20.9" height="0.9"></rect>
	<rect x="206.1" y="-82.7" class="st7" width="20.9" height="0.9"></rect>
	<path class="st7" d="M227.5-100.1H205c-2.8,0-5.2,1.9-5.2,4.2v18.1c0,2.3,2.3,4.2,5.2,4.2h1.7l6.2,9.6l0.1,0.1l6.3-9.7h8.2   c2.8,0,5.1-1.9,5.1-4.2v-18.1C232.6-98.2,230.3-100.1,227.5-100.1z M227.5-74.4h-8.7l-5.8,9l-5.7-8.9l0-0.1H205   c-2.3,0-4.2-1.5-4.2-3.3v-18.1c0-1.8,1.9-3.3,4.2-3.3h22.4c2.3,0,4.2,1.5,4.2,3.3v18.1C231.7-75.9,229.8-74.4,227.5-74.4z"></path>
</g>
<polygon class="st2" points="218.8,-90 216.4,-91.3 214,-90 214.5,-92.7 212.5,-94.5 215.2,-94.9 216.4,-97.3 217.6,-94.9   220.2,-94.5 218.3,-92.7 "></polygon>
<g>
	<path class="st0" d="M253.7-81v9c-0.6,0.1-1.8,0.3-3.3,0.3c-1.5,0-2.8-0.2-3.3-0.2v-9c0-0.1,0.1-2.8,3.3-2.8   C253.7-83.8,253.7-81.1,253.7-81z M248.4-95.6c0,0,0,0.5,0,1.2h0.5v-4.2h0.8v4.2h2.7c0-0.7,0-1.2,0-1.2h0V-99h0.2v-1.6h-0.2v-0.6   h-2.7v0.6h-0.2v1.6h-0.8v-1.6h0.2v-0.6h-0.5v0.6h-0.2v1.6h0.2V-95.6z M254.9-89.3c0.8,1,1,2,1,4.1v21.8c0,0.8-2.5,1.4-5.5,1.4   c-3,0-5.5-0.6-5.5-1.4v-21.8c0-2.1,0.2-3.1,1-4.1c1-1.3,2.4-1.9,2.4-2.9c0-0.3,0-0.8,0-1.3h0.6v1.2c0,0,0,1.4-1,2.3l-0.1,0.1   c-1.2,1.1-2.2,2-2.2,4.6v21.9l0.8,0.3v-22.2c0-2.3,0.7-2.9,1.9-4.1l0.1-0.1c1.2-1.2,1.3-2.8,1.3-2.9v-1.2h2.7c0,0.5,0,1,0,1.3   C252.5-91.2,253.9-90.6,254.9-89.3z M254.2-81.1c0,0,0-3.3-3.8-3.3c-3.8,0-3.8,3.3-3.8,3.3v9.6c0,0,1.6,0.3,3.8,0.3   c2.2,0,3.8-0.3,3.8-0.3V-81.1z"></path>
</g>
<g>
	<path class="st8" d="M266.9-73.6c0-0.8,2.4-1.5,3.4-2.5c0.8-0.8,1.5-1.7,1.4-3.4c-0.1-2.1-1.4-8.6-1.4-8.6h-7.4   c0,0-1.3,6.4-1.4,8.6c-0.1,1.8,0.6,2.6,1.4,3.4c0.9,1,3.4,1.6,3.4,2.5c0,0.8,0,2.9,0,2.9h0v8.1h-3.3v0.4h7.4v-0.4h-3.4v-8.1   C266.9-70.8,266.9-72.8,266.9-73.6z"></path>
	<g>
		<path class="st4" d="M263.9-82.1c-0.2,2.5,0,5.3,1.7,6.5c-1.8-0.8-3-1.3-2.6-6.5h-0.5l0.8-5.6h6.6l0.7,5.6H263.9z"></path>
	</g>
</g>
<path class="st9" d="M198.6-42l1.4-0.4v6.2L198.6-42z M202.5-49.4h7.9l20-4.9L230-56c-0.3-1.2-1.5-2-2.7-1.7l-28.5,7  c-1.2,0.3-2,1.5-1.7,2.7l0.4,1.7l2.7-0.7v-0.2C200.3-48.3,201.3-49.4,202.5-49.4z M200.8-40.4h33.9v10.2c0,1.2-1,2.3-2.3,2.3h-29.4  c-1.2,0-2.3-1-2.3-2.3V-40.4z M208.7-36.7c0,0,0.1-0.1,0.1-0.1c-0.1,0-0.3,0-0.4,0.1C208.5-36.8,208.6-36.8,208.7-36.7z M208.2-36.7  c0,0-0.1,0-0.1,0c0,0.1-0.1,0.2-0.1,0.3c0,0-0.4,0.7,0,0.5c0.2-0.1,0.3-0.2,0.4-0.3c0.1-0.1,0.2-0.2,0.3-0.3  C208.5-36.6,208.3-36.6,208.2-36.7z M209-37.1c0.5-0.6,1-1.1,1.5-1.7h-1.3c0.1,0.1,0.1,0.2,0,0.4c-0.3,0.5-0.6,0.9-0.9,1.4  C208.5-37,208.8-37,209-37.1z M208.9-36.7c0.2,0.1,0.4,0.1,0.6,0.2c0.1-0.2,0.2-0.3,0.3-0.5c0,0,0,0-0.1,0c-0.2,0-0.4,0.1-0.6,0.1  C209.1-36.8,209-36.8,208.9-36.7z M209.9-37.2c0-0.1,0.1-0.1,0.1-0.2c0.2-0.4,0.3-0.8,0.5-1.1c-0.4,0.5-0.8,0.9-1.2,1.4  C209.5-37.1,209.7-37.2,209.9-37.2z M210.3-37c0,0.1,0,0.3,0,0.4c0.1-0.1,0.2-0.3,0.3-0.5C210.5-37.1,210.4-37.1,210.3-37  C210.3-37,210.3-37,210.3-37z M209.9-36.3c0,0,0.1,0,0.1,0.1c0.6,0.3,1.2,0.7,2,0.7c0.3,0,1.1,0.1,0.8-0.4c-0.1-0.1-0.1-0.3-0.1-0.4  c0-0.3,0.2-0.7,0.2-1c-0.2,0-0.5,0-0.7,0.1c-0.2,0.1-0.3,0.1-0.5,0.2c-0.1,0-0.1,0-0.1-0.1c0,0,0,0,0,0c-0.1,0-0.2,0-0.4,0  c-0.1,0.1-0.2,0.2-0.3,0.2c-0.1,0-0.1,0-0.1-0.1c0,0,0,0,0-0.1c0,0,0,0,0,0c-0.1,0.3-0.2,0.6-0.5,0.7c-0.1,0-0.1,0-0.1-0.1  c0-0.1,0-0.1,0-0.2c0,0.1-0.1,0.1-0.2,0.2C210-36.4,209.9-36.3,209.9-36.3z M211.6-37.4c0-0.2,0.1-0.3,0.2-0.5  c-0.1,0.1-0.3,0.3-0.4,0.5C211.5-37.4,211.6-37.4,211.6-37.4z M213-37.5c0-0.2-0.1-0.1-0.2,0c0,0-0.1,0-0.1,0  C212.8-37.5,212.9-37.5,213-37.5z M226.2-29.8h6.5V-33h-6.5V-29.8z M223.5-38.8h-12.7c-0.1,0.2-0.2,0.4-0.2,0.6c0,0,0,0,0.1-0.1  c0.1-0.1,0.2,0,0.2,0.1c-0.1,0.3-0.2,0.6-0.3,0.9c0,0,0,0,0,0.1c0.1,0,0.2,0,0.3,0c0.1-0.2,0.1-0.4,0.2-0.6c0-0.1,0.2,0,0.2,0  c0,0.2,0,0.3,0,0.5c0,0,0.1,0,0.1,0c0.1-0.1,0.2-0.3,0.3-0.4c0.1-0.2,0.3-0.3,0.5-0.4c0.1,0,0.1,0,0.1,0.1c0,0.2-0.2,0.4-0.2,0.7  c0.1,0,0.2,0,0.4,0c0.3-0.1,0.5-0.3,0.7-0.4c0,0,0.1,0,0.1,0c0.1,0.1,0.1,0.2,0.1,0.3c0.4,0,0.7,0,1.1-0.1c0.7,0,1.3-0.1,2-0.1  c0.6,0,1.2-0.1,1.8,0c0.1,0,0.1,0.2,0,0.2c-0.7-0.1-1.5,0-2.3,0c-0.7,0-1.3,0-2,0.1c-0.2,0-0.4,0-0.6,0c0,0.1,0,0.2-0.1,0.3  c-0.1,0.2-0.1,0.4-0.2,0.6c0,0.2,0.1,0.4,0.1,0.6c0.1,0.3,0,0.4-0.2,0.5h10.7V-38.8z M203-35.4h8.7c-0.1,0-0.1,0-0.2,0  c-0.6-0.1-1.1-0.4-1.6-0.7c0,0-0.1,0-0.1-0.1c-0.1,0.2-0.2,0.3-0.4,0.3c-0.1,0-0.1,0-0.1-0.1c0-0.1,0.1-0.3,0.1-0.4  c-0.2-0.1-0.4-0.2-0.6-0.2c-0.3,0.4-0.7,0.9-1.2,0.8c0,0-0.1-0.1-0.1-0.1c0-0.3,0.2-0.7,0.3-0.9c0,0-0.1,0-0.1,0  c-0.7,0.1-1.3,0.1-2,0.1c-0.5,0-1,0-1.6,0c-0.2,0-0.5,0-0.6-0.2c0,0,0-0.1,0-0.1c0.4-0.2,0.8-0.2,1.3-0.2c0.6,0,1.2,0,1.8,0.1  c0.3,0,0.7,0.1,1,0.1c0.1,0,0.2,0,0.3,0c0,0,0-0.1,0.1-0.1c0.2-0.3,0.4-0.6,0.6-0.9c0.1-0.1,0.5-0.8,0.1-0.6c-0.1,0-0.2-0.1-0.1-0.2  H203V-35.4z M204.7-36.9c-0.1,0-0.3,0-0.4,0c0,0-0.3,0.1-0.4,0.1c0.2,0,0.3,0,0.5,0c0.6,0,1.3,0,1.9,0c0.1,0,0.3,0,0.4,0  C206.1-36.9,205.4-36.9,204.7-36.9z M232.5-48.8h-29.4c-1.2,0-2.3,1-2.3,2.3v1.8h33.9v-1.8C234.7-47.8,233.7-48.8,232.5-48.8z   M231.5-49.2l-0.2-0.9l-3.9,1L231.5-49.2z"></path>
<g>
	<g>
		<path class="st0" d="M272.6-25.9c0.9,0.9,1,2.4,0.1,3.2c-0.9,0.9-2.3,0.8-3.2-0.1l-9.6-10.5c-0.7,0-1.4-0.2-2.2-0.5l3.5-3.5    l2.3,2.3L272.6-25.9z M252.4-37.5l4.3-4.3l-4.4-4.4c-3.5-3.5-6.9-6.9-9-9c-0.3-0.3-0.7-0.4-1.1-0.4c-0.3,0-0.7,0.3-0.8,1    c-0.3,2.9,1.8,8,9.5,15.6C251.5-38.4,252-37.9,252.4-37.5z M260.4-49.5l0.6-0.6c0,0,0,0,0,0L260.4-49.5z M276.5-50.5    c-0.5-0.5-1.2-0.6-1.5-0.3l-6.8,6.8c-0.3,0.3-1,0.3-1.4-0.2c-0.4-0.4-0.5-1.1-0.2-1.4l6.8-6.8c0.3-0.3,0.2-1-0.3-1.5    c-0.5-0.5-1.2-0.6-1.5-0.3l-6.8,6.8c-0.3,0.3-1,0.3-1.4-0.2c-0.4-0.4-0.5-1.1-0.2-1.4l6.8-6.8c0.3-0.3,0.2-1-0.3-1.5    c-0.5-0.5-1.2-0.6-1.5-0.3l-7.4,7.4c-2.4,2.4-1.6,4.1-0.3,5.6l-19,19c-0.9,0.9-1,2.4-0.1,3.2c0.9,0.9,2.3,0.8,3.2-0.1l19-19    c1.5,1.4,3.2,2.1,5.6-0.3l7.4-7.4C277.1-49.3,277-50,276.5-50.5z"></path>
	</g>
</g>
<rect x="294.7" y="-105.8" style="fill:none;" width="29.3" height="2.8"></rect>
<text transform="matrix(1 0 0 1 294.667 -103.7036)" style="font-family:'MyriadPro-Regular'; font-size:3px;">Ofertas gastronómicos. </text>
<path class="st10" d="M333.1-83l-18.4-16.4c-0.7-0.6-2-1.1-2.9-1.1l-13.3,0.3c-0.9,0-1.7,0.8-1.7,1.7l-0.3,13.3  c0,0.9,0.5,2.2,1.1,2.9L314-63.9c0.6,0.7,1.6,0.7,2.3,0.1l17-17C333.8-81.4,333.8-82.4,333.1-83z M305.5-91.5c-1,1-2.5,1-3.5,0  c-1-1-1-2.5,0-3.5c1-1,2.5-1,3.5,0C306.5-94,306.5-92.4,305.5-91.5z M323.3-80.6h-15.2v-2.8h15.2L323.3-80.6L323.3-80.6z"></path>
<path class="st0" d="M375.1-84.8l0.7,20.7c0,1.1-0.8,2-1.8,2c0,0-0.1,0-0.1,0c0,0-0.1,0-0.1,0v0c-0.9-0.1-1.6-1-1.6-2l0.7-20.7  c-2-0.8-4.1-2.2-4.1-5.5c0-4.1,2.7-9.2,4.9-9.6v0c0,0,0.1,0,0.1,0c0,0,0,0,0,0c0,0,0.1,0,0.1,0c2.2,0,5.2,5.4,5.2,9.6  C379.2-87,377.1-85.6,375.1-84.8z M343.6-99.6C343.6-99.6,343.6-99.5,343.6-99.6c-1.5,0.8-3.6,4-3.6,12.9c0,4.8,2,7.7,2.6,9.3  c1,2.8-0.9,9.8-1.3,13.1c-0.1,1.1,0.8,2,1.8,2c0.2,0,0.3,0,0.5-0.1v0c0.8-0.2,1.4-1,1.4-1.9v-34.3C345-99.3,344.3-99.8,343.6-99.6z   M360.5-99.5l-0.1,11.7h-1l-0.2-11.7h-0.5l-0.2,11.7h-0.6h-0.2h-0.2l-0.2-11.7h-0.5l-0.2,11.7h-1l-0.1-11.7h-0.5  c-0.4,2.7-0.8,8-0.8,10.7c0,3.3,0.7,3.3,2.6,4.1l-0.7,20.7c0,1,0.7,1.8,1.5,1.9v0c0.1,0,0.2,0,0.3,0c1,0,1.8-0.9,1.8-2l-0.7-20.7  c2-0.8,2.6-0.7,2.6-4.1c0-2.7-0.4-7.9-0.8-10.7H360.5z"></path>
<path class="st0" d="M296.7-37.8H334v11.2c0,1.4-1.1,2.5-2.5,2.5h-32.3c-1.4,0-2.5-1.1-2.5-2.5V-37.8z M305.4-33.7  c0,0,0.1-0.1,0.1-0.1c-0.2,0-0.3,0-0.5,0.1C305.2-33.8,305.3-33.8,305.4-33.7z M304.7-33.7c0,0-0.1,0-0.1,0  c-0.1,0.1-0.1,0.2-0.2,0.3c0,0-0.4,0.8,0,0.6c0.2-0.1,0.3-0.2,0.5-0.4c0.1-0.1,0.2-0.2,0.3-0.4C305.1-33.6,304.9-33.6,304.7-33.7z   M305.7-34.1c0.5-0.6,1.1-1.3,1.6-1.9h-1.4c0.1,0.1,0.1,0.2,0,0.4c-0.3,0.5-0.7,1-1,1.5C305.1-34,305.4-34.1,305.7-34.1z   M305.6-33.7c0.2,0.1,0.4,0.1,0.6,0.2c0.1-0.2,0.2-0.4,0.3-0.6c0,0,0,0-0.1,0c-0.2,0-0.4,0.1-0.7,0.1  C305.7-33.8,305.7-33.7,305.6-33.7z M306.7-34.2c0-0.1,0.1-0.1,0.1-0.2c0.2-0.4,0.4-0.8,0.6-1.3c-0.4,0.5-0.9,1-1.3,1.5  C306.2-34.2,306.4-34.2,306.7-34.2z M307.2-34.1c0,0.2,0,0.3,0,0.5c0.2-0.1,0.3-0.3,0.3-0.5C307.4-34.1,307.3-34.1,307.2-34.1  C307.2-34.1,307.2-34.1,307.2-34.1z M306.7-33.3c0,0,0.1,0,0.1,0.1c0.7,0.4,1.3,0.7,2.2,0.8c0.3,0,1.2,0.1,0.9-0.4  c-0.1-0.1-0.1-0.3-0.1-0.4c0-0.4,0.2-0.7,0.3-1.1c-0.3,0-0.5,0-0.8,0.1c-0.2,0.1-0.4,0.2-0.6,0.2c-0.1,0-0.1,0-0.1-0.1c0,0,0,0,0,0  c-0.1,0-0.3,0-0.4,0c-0.1,0.1-0.2,0.2-0.3,0.2c-0.1,0-0.1,0-0.1-0.1c0,0,0,0,0-0.1c0,0,0,0,0,0c-0.1,0.3-0.3,0.6-0.6,0.8  c-0.1,0-0.1,0-0.2-0.1c0-0.1,0-0.1,0-0.2c-0.1,0.1-0.1,0.2-0.2,0.2C306.7-33.3,306.7-33.3,306.7-33.3z M308.6-34.4  c0-0.2,0.1-0.3,0.2-0.5c-0.2,0.1-0.3,0.3-0.4,0.5C308.4-34.4,308.5-34.4,308.6-34.4z M310.1-34.6c0-0.2-0.1-0.1-0.2,0  c0,0-0.1,0-0.1,0.1C309.8-34.6,309.9-34.6,310.1-34.6z M324.7-26.1h7.2v-3.6h-7.2V-26.1z M321.6-36h-14c-0.1,0.2-0.2,0.4-0.3,0.6  c0,0,0-0.1,0.1-0.1c0.1-0.1,0.2,0,0.2,0.1c-0.1,0.3-0.2,0.7-0.4,1c0,0,0,0,0,0.1c0.1,0,0.2,0,0.3,0c0.1-0.2,0.1-0.5,0.2-0.6  c0.1-0.1,0.2,0,0.2,0.1c0,0.2,0,0.4,0,0.5c0,0,0.1,0,0.1,0c0.1-0.1,0.2-0.3,0.3-0.4c0.1-0.2,0.3-0.3,0.5-0.4c0.1,0,0.2,0,0.2,0.1  c0,0.3-0.2,0.5-0.2,0.7c0.1,0,0.3,0,0.4,0c0.3-0.1,0.5-0.3,0.8-0.4c0,0,0.1,0,0.1,0c0.1,0.1,0.1,0.2,0.1,0.3c0.4,0,0.8-0.1,1.2-0.1  c0.7,0,1.5-0.1,2.2-0.1c0.6,0,1.3-0.1,2,0c0.1,0,0.1,0.2-0.1,0.2c-0.8-0.1-1.7,0-2.5,0c-0.7,0-1.5,0-2.2,0.1c-0.2,0-0.4,0-0.6,0  c0,0.1,0,0.2-0.1,0.3c-0.1,0.2-0.1,0.5-0.2,0.7c0,0.2,0.1,0.4,0.2,0.6c0.1,0.3,0,0.5-0.3,0.6h11.8V-36z M299.1-32.2h9.5  c-0.1,0-0.1,0-0.2,0c-0.6-0.1-1.2-0.5-1.7-0.7c0,0-0.1,0-0.1-0.1c-0.1,0.2-0.3,0.3-0.4,0.4c-0.1,0-0.1,0-0.1-0.1  c0-0.1,0.1-0.3,0.1-0.4c-0.2-0.1-0.5-0.2-0.7-0.2c-0.3,0.4-0.8,1-1.3,0.9c0,0-0.1-0.1-0.1-0.1c0-0.4,0.2-0.7,0.4-1c0,0-0.1,0-0.1,0  c-0.7,0.1-1.4,0.1-2.2,0.1c-0.6,0-1.1,0-1.7,0c-0.2,0-0.5,0-0.7-0.2c0,0,0-0.1,0-0.1c0.4-0.2,0.9-0.2,1.4-0.2c0.7,0,1.3,0,2,0.1  c0.4,0,0.7,0.1,1.1,0.1c0.1,0,0.2,0,0.3,0c0,0,0.1-0.1,0.1-0.1c0.2-0.3,0.5-0.7,0.7-1c0.1-0.1,0.6-0.8,0.2-0.7  c-0.1,0-0.2-0.1-0.1-0.2h-6.3V-32.2z M300.9-33.9c-0.1,0-0.3,0-0.4,0c0,0-0.4,0.1-0.4,0.1c0.2,0,0.3,0,0.5,0c0.7,0.1,1.4,0,2.1,0  c0.2,0,0.3,0,0.5,0C302.4-33.9,301.7-33.9,300.9-33.9z M331.5-47h-32.3c-1.4,0-2.5,1.1-2.5,2.5v1.9H334v-1.9  C334-45.9,332.9-47,331.5-47z"></path>
<path class="st10" d="M315-48.1c-11.8-6.5-3.3-14.5,0-9.1C318.3-62.6,326.8-54.6,315-48.1z"></path>
<g>
	<g>
		<path class="st0" d="M374.6-24.9c0.9,0.9,1,2.4,0.1,3.2c-0.9,0.9-2.3,0.8-3.2-0.1l-9.6-10.5c-0.7,0-1.4-0.2-2.2-0.5l3.5-3.5    l2.3,2.3L374.6-24.9z M354.4-36.5l4.3-4.3l-4.4-4.4c-3.5-3.5-6.9-6.9-9-9c-0.3-0.3-0.7-0.4-1.1-0.4c-0.3,0-0.7,0.3-0.8,1    c-0.3,2.9,1.8,8,9.5,15.6C353.5-37.4,354-36.9,354.4-36.5z M362.4-48.5L363-49c0,0,0,0,0,0L362.4-48.5z M378.5-49.5    c-0.5-0.5-1.2-0.6-1.5-0.3l-6.8,6.8c-0.3,0.3-1,0.3-1.4-0.2c-0.4-0.4-0.5-1.1-0.2-1.4l6.8-6.8c0.3-0.3,0.2-1-0.3-1.5    c-0.5-0.5-1.2-0.6-1.5-0.3l-6.8,6.8c-0.3,0.3-1,0.3-1.4-0.2c-0.4-0.4-0.5-1.1-0.2-1.4l6.8-6.8c0.3-0.3,0.2-1-0.3-1.5    c-0.5-0.5-1.2-0.6-1.5-0.3L363-49c-2.4,2.4-1.6,4.1-0.3,5.6l-19,19c-0.9,0.9-1,2.4-0.1,3.2c0.9,0.9,2.3,0.8,3.2-0.1l19-19    c1.5,1.4,3.2,2.1,5.6-0.3l7.4-7.4C379.1-48.3,379-49,378.5-49.5z"></path>
	</g>
</g>
<polygon class="st2" points="361.8,-50 359.4,-51.3 357,-50 357.5,-52.7 355.5,-54.5 358.2,-54.9 359.4,-57.3 360.6,-54.9   363.2,-54.5 361.3,-52.7 "></polygon>
<rect x="5.7" y="-8.4" style="fill:none;" width="28.3" height="3.8"></rect>
<text transform="matrix(1 0 0 1 5.666 -5.583)" style="font-family:'MyriadPro-Regular'; font-size:4px;">Hoteles. </text>
<g>
	<path class="st0" d="M34.4,13.6h-5.2v-2.6c0-1.1-0.9-2.1-2.1-2.1s-2.1,0.9-2.1,2.1v2.6h-9.4v-2.6c0-1.1-0.9-2.1-2.1-2.1   c-1.1,0-2.1,0.9-2.1,2.1v2.6H6.3c-0.9,0-1.6,0.7-1.6,1.6v22.6c0,0.9,0.7,1.6,1.6,1.6h28.1c0.9,0,1.6-0.7,1.6-1.6V15.2   C36,14.3,35.3,13.6,34.4,13.6z M19.3,20.6v4.2h-4.9v-4.2H19.3z M21.4,20.6h4.9v4.2h-4.9V20.6z M12.3,20.6v4.2H7.9v-4.2H12.3z    M12.3,26.9V30H7.9v-3.1H12.3z M14.4,26.9h4.9V30h-4.9V26.9z M19.3,32.1v4.2h-4.9v-4.2H19.3z M21.4,32.1h4.9v4.2h-4.9V32.1z    M21.4,30v-3.1h4.9V30H21.4z M28.5,26.9h4.4V30h-4.4V26.9z M28.5,24.8v-4.2h4.4v4.2H28.5z M7.9,32.1h4.4v4.2H7.9V32.1z M28.5,36.3   v-4.2h4.4v4.2H28.5z"></path>
	<polygon class="st11" points="24.9,24.4 24,23.9 23,24.4 23.2,23.4 22.5,22.6 23.5,22.5 24,21.6 24.4,22.5 25.5,22.6 24.7,23.4     "></polygon>
	<polygon class="st11" points="18,29.5 17.1,29.1 16.2,29.6 16.3,28.5 15.6,27.8 16.6,27.6 17.1,26.7 17.6,27.6 18.6,27.8    17.8,28.5  "></polygon>
</g>
<g>
	<g>
		<g>
			<path class="st0" d="M84,38c0,0.6-0.5,1.1-1.1,1.1H53.1c-0.6,0-1.1-0.5-1.1-1.1v-2c0-0.6,0.5-1.1,1.1-1.1h29.8     c0.6,0,1.1,0.5,1.1,1.1V38z"></path>
		</g>
		<g>
			<g>
				<path class="st0" d="M70.6,14.8c0,0.1-0.1,0.2-0.2,0.2h-4.7c-0.1,0-0.2-0.1-0.2-0.2v-3.3c0-0.1,0.1-0.2,0.2-0.2h4.7      c0.1,0,0.2,0.1,0.2,0.2V14.8z"></path>
			</g>
			<g>
				<path class="st0" d="M70.6,19.9c0,0.1-0.1,0.2-0.2,0.2h-4.7c-0.1,0-0.2-0.1-0.2-0.2v-3.3c0-0.1,0.1-0.2,0.2-0.2h4.7      c0.1,0,0.2,0.1,0.2,0.2V19.9z"></path>
			</g>
			<g>
				<path class="st0" d="M70.6,24.9c0,0.1-0.1,0.2-0.2,0.2h-4.7c-0.1,0-0.2-0.1-0.2-0.2v-3.3c0-0.1,0.1-0.2,0.2-0.2h4.7      c0.1,0,0.2,0.1,0.2,0.2V24.9z"></path>
			</g>
			<g>
				<path class="st0" d="M78.7,14.8c0,0.1-0.1,0.2-0.2,0.2h-4.7c-0.1,0-0.2-0.1-0.2-0.2v-3.3c0-0.1,0.1-0.2,0.2-0.2h4.7      c0.1,0,0.2,0.1,0.2,0.2V14.8z"></path>
			</g>
			<g>
				<path class="st0" d="M78.7,19.9c0,0.1-0.1,0.2-0.2,0.2h-4.7c-0.1,0-0.2-0.1-0.2-0.2v-3.3c0-0.1,0.1-0.2,0.2-0.2h4.7      c0.1,0,0.2,0.1,0.2,0.2V19.9z"></path>
			</g>
			<g>
				<path class="st0" d="M78.7,24.9c0,0.1-0.1,0.2-0.2,0.2h-4.7c-0.1,0-0.2-0.1-0.2-0.2v-3.3c0-0.1,0.1-0.2,0.2-0.2h4.7      c0.1,0,0.2,0.1,0.2,0.2V24.9z"></path>
			</g>
			<g>
				<path class="st0" d="M62.5,14.8c0,0.1-0.1,0.2-0.2,0.2h-4.7c-0.1,0-0.2-0.1-0.2-0.2v-3.3c0-0.1,0.1-0.2,0.2-0.2h4.7      c0.1,0,0.2,0.1,0.2,0.2V14.8z"></path>
			</g>
			<g>
				<path class="st0" d="M62.5,19.9c0,0.1-0.1,0.2-0.2,0.2h-4.7c-0.1,0-0.2-0.1-0.2-0.2v-3.3c0-0.1,0.1-0.2,0.2-0.2h4.7      c0.1,0,0.2,0.1,0.2,0.2V19.9z"></path>
			</g>
			<g>
				<path class="st0" d="M62.5,24.9c0,0.1-0.1,0.2-0.2,0.2h-4.7c-0.1,0-0.2-0.1-0.2-0.2v-3.3c0-0.1,0.1-0.2,0.2-0.2h4.7      c0.1,0,0.2,0.1,0.2,0.2V24.9z"></path>
			</g>
		</g>
		<g>
			<path class="st0" d="M67.9,0.2c0-0.1,0.1-0.1,0.1,0c0.2,0.4,0.5,0.9,0.7,1.3c0,0.1,0.1,0.1,0.2,0.2c0.5,0.1,1,0.2,1.5,0.2     c0.1,0,0.1,0.1,0,0.1c-0.4,0.3-0.7,0.6-1.1,1c-0.1,0.1-0.1,0.2-0.1,0.3c0.1,0.5,0.2,0.9,0.2,1.4c0,0.1,0,0.1-0.1,0.1     C69,4.4,68.6,4.2,68.1,4c-0.1,0-0.2,0-0.3,0c-0.4,0.2-0.9,0.4-1.3,0.7c-0.1,0-0.1,0-0.1-0.1c0.1-0.5,0.1-0.9,0.2-1.4     c0-0.1,0-0.2-0.1-0.3c-0.4-0.3-0.7-0.6-1.1-1c-0.1-0.1,0-0.1,0-0.1c0.5-0.1,1-0.2,1.5-0.2c0.1,0,0.2-0.1,0.2-0.2     C67.5,1,67.7,0.6,67.9,0.2"></path>
		</g>
		<g>
			<path class="st0" d="M73.1,1.7c0-0.1,0.1-0.1,0.1,0c0.2,0.4,0.3,0.7,0.5,1.1c0,0.1,0.1,0.1,0.2,0.1c0.4,0.1,0.8,0.2,1.2,0.3     c0.1,0,0.1,0.1,0,0.1c-0.3,0.3-0.6,0.5-1,0.8c-0.1,0-0.1,0.1-0.1,0.2c0,0.4,0.1,0.8,0.1,1.2c0,0.1,0,0.1-0.1,0.1     c-0.3-0.2-0.7-0.4-1-0.6c-0.1,0-0.2,0-0.2,0c-0.4,0.2-0.7,0.3-1.1,0.5c-0.1,0-0.1,0-0.1-0.1c0.1-0.4,0.2-0.8,0.3-1.2     c0-0.1,0-0.2-0.1-0.2c-0.3-0.3-0.6-0.6-0.9-0.9C71,3,71,3,71.1,3c0.4,0,0.8-0.1,1.3-0.1c0.1,0,0.2-0.1,0.2-0.1     C72.7,2.4,72.9,2,73.1,1.7"></path>
		</g>
		<g>
			<path class="st0" d="M62.5,1.7c0-0.1,0.1-0.1,0.1,0c0.2,0.3,0.4,0.7,0.6,1c0,0.1,0.1,0.1,0.2,0.1c0.4,0,0.8,0.1,1.3,0.1     c0.1,0,0.1,0.1,0,0.1c-0.3,0.3-0.6,0.6-0.9,0.9c-0.1,0.1-0.1,0.1-0.1,0.2c0.1,0.4,0.2,0.8,0.3,1.2c0,0.1,0,0.1-0.1,0.1     c-0.4-0.2-0.7-0.3-1.1-0.5c-0.1,0-0.2,0-0.2,0c-0.4,0.2-0.7,0.4-1.1,0.6c-0.1,0-0.1,0-0.1-0.1c0-0.4,0.1-0.8,0.1-1.2     c0-0.1,0-0.2-0.1-0.2c-0.3-0.3-0.6-0.5-1-0.8c-0.1,0,0-0.1,0-0.1c0.4-0.1,0.8-0.2,1.2-0.3c0.1,0,0.2-0.1,0.2-0.1     C62.1,2.4,62.3,2,62.5,1.7"></path>
		</g>
		<g>
			<path class="st0" d="M77.4,4.9C77.5,4.8,77.5,4.8,77.4,4.9c0.2,0.3,0.3,0.5,0.4,0.8c0,0,0.1,0.1,0.1,0.1c0.3,0.1,0.6,0.2,0.8,0.2     c0,0,0.1,0,0,0.1c-0.2,0.2-0.5,0.3-0.7,0.5c0,0-0.1,0.1-0.1,0.1c0,0.3,0,0.6,0,0.8c0,0,0,0.1-0.1,0c-0.2-0.2-0.5-0.3-0.7-0.5     c0,0-0.1,0-0.2,0c-0.3,0.1-0.5,0.2-0.8,0.3c0,0-0.1,0-0.1-0.1c0.1-0.3,0.2-0.5,0.2-0.8c0,0,0-0.1,0-0.2c-0.2-0.2-0.4-0.4-0.6-0.6     c0,0,0-0.1,0-0.1c0.3,0,0.6,0,0.9,0c0.1,0,0.1,0,0.1-0.1C77.1,5.3,77.3,5.1,77.4,4.9"></path>
		</g>
		<g>
			<path class="st0" d="M58.5,4.9C58.5,4.9,58.6,4.9,58.5,4.9c0.2,0.2,0.4,0.5,0.6,0.7c0,0,0.1,0.1,0.1,0.1c0.3,0,0.6,0,0.9,0     c0.1,0,0.1,0,0,0.1c-0.2,0.2-0.4,0.4-0.6,0.6c0,0,0,0.1,0,0.2c0.1,0.3,0.2,0.5,0.2,0.8c0,0,0,0.1-0.1,0.1     c-0.3-0.1-0.5-0.2-0.8-0.3c0,0-0.1,0-0.2,0c-0.2,0.2-0.5,0.3-0.7,0.5c0,0-0.1,0-0.1,0c0-0.3,0-0.6,0-0.8c0,0,0-0.1-0.1-0.1     c-0.2-0.2-0.5-0.3-0.7-0.5c0,0,0-0.1,0-0.1c0.3-0.1,0.6-0.2,0.8-0.2c0,0,0.1-0.1,0.1-0.1C58.3,5.5,58.4,5.2,58.5,4.9"></path>
		</g>
		<g>
			<g>
				<path class="st3" d="M60.8,6.5c0,0-0.1,0.1,0,0.2c0.1,0.2,0.1,0.4,0.2,0.7H75c0.1-0.2,0.1-0.5,0.2-0.7c0-0.1,0-0.2,0-0.2      c0,0-0.1-0.1-0.1-0.1H61C60.9,6.4,60.9,6.5,60.8,6.5z"></path>
			</g>
			<g>
				<g>
					<path class="st3" d="M56.1,37.3h23.8c1.1,0,2-0.9,2-2h-1c0,0.5-0.4,0.9-0.9,0.9H56.1c-0.5,0-0.9-0.4-0.9-0.9h-1       C54.2,36.4,55,37.3,56.1,37.3z"></path>
				</g>
				<g>
					<path class="st3" d="M55.2,33.7V8.3c0-0.5,0.4-0.9,0.9-0.9h0.6c0-0.1,0-0.3,0-0.4c0-0.1,0-0.1-0.1-0.2       c-0.2-0.1-0.4-0.3-0.6-0.4l0,0c-1.1,0-1.9,0.9-1.9,2v25.4H55.2z"></path>
				</g>
				<g>
					<path class="st3" d="M79.9,7.4c0.5,0,0.9,0.4,0.9,0.9v25.4h1V8.3c0-1.1-0.9-2-1.9-2l0,0c-0.2,0.1-0.3,0.2-0.5,0.4       c-0.1,0-0.1,0.1-0.1,0.2c0,0.2,0,0.3,0,0.5H79.9z"></path>
				</g>
			</g>
		</g>
		<g>
			<path class="st0" d="M73.2,34v-6.8c0-0.3-0.2-0.5-0.5-0.5h-9.4c-0.3,0-0.5,0.2-0.5,0.5V34H73.2z"></path>
		</g>
	</g>
</g>
<path class="st0" d="M20.3,1C17.9,1,16,2.9,16,5.3c0,0.9,0.3,1.8,0.8,2.5l0.1,0.2l3.1,4.3c0.1,0.1,0.2,0.1,0.3,0.1  c0.1,0,0.2-0.1,0.3-0.1l3-4.3l0.2-0.2c0.5-0.7,0.8-1.6,0.8-2.5C24.6,2.9,22.7,1,20.3,1z M20.3,6.7c-0.8,0-1.4-0.6-1.4-1.4  c0-0.8,0.6-1.4,1.4-1.4c0.8,0,1.4,0.6,1.4,1.4C21.7,6.1,21.1,6.7,20.3,6.7z"></path>
<g>
	<g>
		<g>
			<g>
				<path class="st0" d="M18.6,58.3c-6.3,0-11.5,5.1-11.5,11.5c0,6.3,5.1,11.5,11.5,11.5c6.3,0,11.5-5.1,11.5-11.5      C30.1,63.5,25,58.3,18.6,58.3z M27,67.7c0,0.1,0.1,0.2,0.1,0.4c0,0.2,0.1,0.4,0.1,0.5c0,0.1,0,0.2,0,0.3c0,0.3,0,0.6,0,0.9      c0,0.3,0,0.6,0,0.9c0,0.1,0,0.2,0,0.3c0,0.2,0,0.4-0.1,0.5c0,0.1-0.1,0.2-0.1,0.4c0,0.2-0.1,0.3-0.1,0.5c0,0.1-0.1,0.3-0.1,0.4      c0,0.1-0.1,0.3-0.1,0.4c-0.1,0.1-0.1,0.3-0.2,0.4c-0.1,0.1-0.1,0.2-0.2,0.4c-0.1,0.1-0.2,0.3-0.2,0.4c-0.1,0.1-0.1,0.2-0.2,0.3      c-0.1,0.1-0.2,0.3-0.3,0.4c-0.1,0.1-0.1,0.2-0.2,0.3c-0.1,0.1-0.2,0.3-0.4,0.4c-0.1,0.1-0.1,0.1-0.2,0.2      c-0.1,0.1-0.3,0.3-0.4,0.4c-0.1,0.1-0.1,0.1-0.2,0.2c-0.1,0.1-0.3,0.2-0.5,0.4c-0.1,0-0.1,0.1-0.2,0.1c-0.2,0.1-0.3,0.2-0.5,0.3      c-0.1,0-0.1,0.1-0.2,0.1c-0.2,0.1-0.4,0.2-0.5,0.3c-0.1,0-0.1,0.1-0.2,0.1c-0.2,0.1-0.4,0.1-0.6,0.2c-0.1,0-0.1,0.1-0.2,0.1      c-0.2,0.1-0.4,0.1-0.6,0.2c-0.1,0-0.2,0-0.2,0.1c-0.2,0-0.4,0.1-0.6,0.1c-0.1,0-0.2,0-0.3,0c-0.2,0-0.4,0-0.6,0      c-0.1,0-0.2,0-0.3,0v0c0,0,0,0-0.1,0c-4.8,0-8.6-3.9-8.6-8.6c0-4.8,3.9-8.6,8.6-8.6c0,0,0,0,0.1,0v0c0.1,0,0.2,0,0.2,0      c0.2,0,0.4,0,0.6,0c0.1,0,0.1,0,0.2,0c0.2,0,0.4,0.1,0.6,0.1c0.1,0,0.1,0,0.2,0.1c0.2,0,0.4,0.1,0.6,0.2c0.1,0,0.1,0,0.2,0.1      c0.2,0.1,0.4,0.1,0.6,0.2c0.1,0,0.1,0.1,0.2,0.1c0.2,0.1,0.4,0.2,0.6,0.3c0.1,0,0.1,0.1,0.2,0.1c0.2,0.1,0.4,0.2,0.5,0.3      c0.1,0,0.1,0.1,0.2,0.1c0.2,0.1,0.3,0.2,0.5,0.4c0.1,0.1,0.1,0.1,0.2,0.2c0.1,0.1,0.3,0.3,0.4,0.4c0.1,0.1,0.1,0.1,0.2,0.2      c0.1,0.1,0.3,0.3,0.4,0.4c0.1,0.1,0.1,0.2,0.2,0.2c0.1,0.1,0.2,0.3,0.3,0.4c0.1,0.1,0.1,0.2,0.2,0.3c0.1,0.1,0.2,0.3,0.3,0.4      c0.1,0.1,0.1,0.2,0.2,0.4c0.1,0.1,0.1,0.3,0.2,0.4c0.1,0.1,0.1,0.3,0.1,0.4c0,0.1,0.1,0.3,0.1,0.4C26.9,67.4,26.9,67.6,27,67.7z       M26.7,69.8c0,4.5-3.6,8.1-8.1,8.1c-4.5,0-8.1-3.6-8.1-8.1c0-4.5,3.6-8.1,8.1-8.1C23.1,61.7,26.7,65.4,26.7,69.8z M5.7,60.4      c0.2,1.5,0.5,4.4,0.5,5.9c0,1.8-0.4,1.8-1.5,2.2l0.4,11.4c0,0.6-0.5,1.1-1,1.1c0,0-0.1,0-0.1,0v0c-0.5-0.1-0.9-0.5-0.9-1.1      l0.4-11.4C2.4,68.1,2,68.1,2,66.3c0-1.5,0.2-4.4,0.5-5.9h0.3l0.1,6.5h0.5l0.1-6.5h0.2l0.1,6.5h0.1H4h0.3l0.1-6.5h0.3l0.1,6.5      h0.5l0-6.5H5.7z"></path>
			</g>
		</g>
	</g>
</g>
<g>
	<g>
		<path class="st0" d="M34.6,70.4c0-0.7,2.2-1.3,3.1-2.3c0.7-0.8,1.3-1.5,1.3-3.2c-0.1-2-1.3-7.9-1.3-7.9h-6.8c0,0-1.2,5.9-1.3,7.9    c-0.1,1.6,0.5,2.4,1.3,3.2c0.9,0.9,3.1,1.5,3.1,2.3c0,0.7,0,2.6,0,2.6h0v7.4h-3.1v0.4h6.8v-0.4h-3.1V73    C34.6,73,34.6,71.1,34.6,70.4z"></path>
		<path class="st0" d="M31.9,62.6c-0.2,2.3,0,4.9,1.5,6c-1.6-0.7-2.8-1.2-2.4-6h-0.5l0.7-5.2h6.1l0.7,5.2H31.9z"></path>
	</g>
</g>
<g>
	<g>
		<path class="st0" d="M61.4,65.7c0.1-0.1,0.2-0.3,0.2-0.4l-0.3-2c0-0.1,0-0.3,0.1-0.4l1.4-1.4c0.1-0.1,0.2-0.3,0.1-0.4    c-0.1-0.2-0.2-0.3-0.3-0.3l-2-0.3c-0.1,0-0.3-0.1-0.3-0.2l-0.9-1.8c-0.1-0.1-0.2-0.2-0.4-0.2c-0.2,0-0.3,0.1-0.4,0.2l-0.9,1.8    c-0.1,0.1-0.2,0.2-0.3,0.2l-2,0.3c-0.2,0-0.3,0.1-0.3,0.3c-0.1,0.2,0,0.3,0.1,0.4l1.4,1.4c0.1,0.1,0.1,0.2,0.1,0.4l-0.3,2    c0,0.2,0,0.3,0.2,0.4c0.1,0.1,0.3,0.1,0.5,0l1.8-0.9c0.1-0.1,0.3-0.1,0.4,0l1.8,0.9C61.1,65.8,61.2,65.7,61.4,65.7z"></path>
		<path class="st0" d="M70.7,65.7c0.1-0.1,0.2-0.3,0.2-0.4l-0.3-2c0-0.1,0-0.3,0.1-0.4l1.4-1.4c0.1-0.1,0.2-0.3,0.1-0.4    c-0.1-0.2-0.2-0.3-0.3-0.3l-2-0.3c-0.1,0-0.3-0.1-0.3-0.2l-0.9-1.8c-0.1-0.1-0.2-0.2-0.4-0.2c-0.2,0-0.3,0.1-0.4,0.2L67,60.2    c-0.1,0.1-0.2,0.2-0.3,0.2l-2,0.3c-0.2,0-0.3,0.1-0.3,0.3c-0.1,0.2,0,0.3,0.1,0.4l1.4,1.4c0.1,0.1,0.1,0.2,0.1,0.4l-0.3,2    c0,0.2,0,0.3,0.2,0.4c0.1,0.1,0.3,0.1,0.5,0l1.8-0.9c0.1-0.1,0.3-0.1,0.4,0l1.8,0.9C70.4,65.8,70.6,65.7,70.7,65.7z"></path>
		<path class="st0" d="M67.2,70.1l-2-0.3c-0.1,0-0.3-0.1-0.3-0.2L64,67.8c-0.1-0.1-0.2-0.2-0.4-0.2c-0.2,0-0.3,0.1-0.4,0.2l-0.9,1.8    c-0.1,0.1-0.2,0.2-0.3,0.2l-2,0.3c-0.2,0-0.3,0.1-0.3,0.3c-0.1,0.2,0,0.3,0.1,0.4l1.4,1.4c0.1,0.1,0.1,0.2,0.1,0.4l-0.3,2    c0,0.2,0,0.3,0.2,0.4c0.1,0.1,0.3,0.1,0.5,0l1.8-0.9c0.1-0.1,0.3-0.1,0.4,0l1.8,0.9c0.1,0.1,0.3,0.1,0.5,0    c0.1-0.1,0.2-0.3,0.2-0.4l-0.3-2c0-0.1,0-0.3,0.1-0.4l1.4-1.4c0.1-0.1,0.2-0.3,0.1-0.4C67.5,70.2,67.3,70.1,67.2,70.1z"></path>
		<path class="st0" d="M76.5,70.1l-2-0.3c-0.1,0-0.3-0.1-0.3-0.2l-0.9-1.8c-0.1-0.1-0.2-0.2-0.4-0.2c-0.2,0-0.3,0.1-0.4,0.2    l-0.9,1.8c-0.1,0.1-0.2,0.2-0.3,0.2l-2,0.3c-0.2,0-0.3,0.1-0.3,0.3c-0.1,0.2,0,0.3,0.1,0.4l1.4,1.4c0.1,0.1,0.1,0.2,0.1,0.4    l-0.3,2c0,0.2,0,0.3,0.2,0.4c0.1,0.1,0.3,0.1,0.5,0l1.8-0.9c0.1-0.1,0.3-0.1,0.4,0l1.8,0.9c0.1,0.1,0.3,0.1,0.5,0    c0.1-0.1,0.2-0.3,0.2-0.4l-0.3-2c0-0.1,0-0.3,0.1-0.4l1.4-1.4c0.1-0.1,0.2-0.3,0.1-0.4C76.8,70.2,76.7,70.1,76.5,70.1z"></path>
		<path class="st0" d="M81.2,60.8l-2-0.3c-0.1,0-0.3-0.1-0.3-0.2L78,58.5c-0.1-0.1-0.2-0.2-0.4-0.2c-0.2,0-0.3,0.1-0.4,0.2l-0.9,1.8    c-0.1,0.1-0.2,0.2-0.3,0.2l-2,0.3c-0.2,0-0.3,0.1-0.3,0.3c0,0.2,0,0.3,0.1,0.4l1.4,1.4c0.1,0.1,0.1,0.2,0.1,0.4l-0.3,2    c0,0.2,0,0.3,0.2,0.4c0.1,0.1,0.3,0.1,0.5,0l1.8-0.9c0.1-0.1,0.3-0.1,0.4,0l1.8,0.9c0.1,0.1,0.3,0.1,0.5,0    c0.1-0.1,0.2-0.3,0.2-0.4l-0.3-2c0-0.1,0-0.3,0.1-0.4l1.4-1.4c0.1-0.1,0.2-0.3,0.1-0.4C81.5,60.9,81.4,60.8,81.2,60.8z"></path>
		<path class="st0" d="M83.4,52.3H53.2c-2,0-3.6,1.6-3.6,3.6v21.4c0,2,1.6,3.7,3.6,3.7h30.1c2,0,3.6-1.7,3.6-3.7V56    C87,53.9,85.4,52.3,83.4,52.3z M83.8,77.3c0,0.3-0.2,0.5-0.5,0.5H53.2c-0.3,0-0.5-0.2-0.5-0.5V55.9c0-0.3,0.2-0.5,0.5-0.5h30.2    c0.3,0,0.5,0.2,0.5,0.5V77.3z"></path>
	</g>
</g>
</svg>