<svg xmlns="http://www.w3.org/2000/svg" xmlns:xlink="http://www.w3.org/1999/xlink" id="Capa_1" x="0px" y="0px" viewBox="0 0 40 40" style="enable-background:new 0 0 40 40;" xml:space="preserve">
<style type="text/css">
	.st0{fill:#7BAA39;}
	.st1{fill:#7BAA39;stroke:#7BAA39;stroke-width:0.5;stroke-miterlimit:10;}
	.st2{fill:#4C5B33;}
</style>
<path class="st0" d="M20.1-81C9.9-81,1.6-72.7,1.6-62.5S9.9-44,20.1-44c10.2,0,18.5-8.3,18.5-18.5S30.3-81,20.1-81z M20.1-48.6  c-7.7,0-13.9-6.2-13.9-13.9s6.2-13.9,13.9-13.9c7.7,0,13.9,6.2,13.9,13.9S27.8-48.6,20.1-48.6z M30.1-60.9c0,1.3-1,2.3-2.3,2.3h-9.3  c-1.3,0-2.3-1-2.3-2.3v-9.3c0-1.3,1-2.3,2.3-2.3c1.3,0,2.3,1,2.3,2.3v6.9h6.9C29-63.2,30.1-62.2,30.1-60.9z"></path>
<rect x="42" y="-82" class="st0" width="40" height="40"></rect>
<g>
	<g>
		<path class="st1" d="M13.5-15.5c0.1,0.2-0.1,0.4-0.3,0.5c-0.2,0.1-0.4-0.1-0.5-0.3l-1.5-6.9h-6l-1.9,6.9C3.1-15.1,3-15,2.8-15    c0,0-0.1,0-0.1,0c-0.2-0.1-0.3-0.3-0.3-0.5l2-7.1l-2-7.3c0,0,0,0,0-0.1l-0.2-2.4c0-0.2,0.1-0.4,0.4-0.5c0.2,0,0.4,0.1,0.5,0.4    l0.2,2.4L5.1-23h6.3c0.2,0,0.4,0.1,0.4,0.3L13.5-15.5z M4.3-27C4.1-28,3.9-29,3.7-29.8c0.3-2.3-0.2-2.8-0.5-2.9c0,0,0,0,0,0    l0.2,2.3L4.3-27z M8.4-23.7c-1.1,0-2.4,0.1-2.9,0.4h5.5C10.5-23.6,9.6-23.7,8.4-23.7z M37.8-30l0.2-2.4c0-0.2-0.1-0.4-0.4-0.5    c-0.2,0-0.4,0.1-0.5,0.4l-0.2,2.4L35-23h-6.3c-0.2,0-0.4,0.1-0.4,0.3l-1.6,7.2c-0.1,0.2,0.1,0.4,0.3,0.5c0.2,0.1,0.4-0.1,0.5-0.3    l1.5-6.9h6l1.9,6.9c0.1,0.2,0.2,0.3,0.4,0.3c0,0,0.1,0,0.1,0c0.2-0.1,0.3-0.3,0.3-0.5l-2-7.1L37.8-30C37.8-29.9,37.8-30,37.8-30z     M36.8-30.4l0.2-2.3c0,0,0,0,0,0c-0.3,0.1-0.8,0.5-0.5,2.9C36.3-29,36.1-28,35.8-27L36.8-30.4z M34.7-23.4    c-0.6-0.3-1.9-0.4-2.9-0.4c-1.2,0-2.1,0.1-2.5,0.4H34.7z M24.5-14.9l-3.7-2.3c-0.1,0-0.2-0.1-0.3-0.1l4.3-8.2h-9.6l4.3,8.2    c-0.1,0-0.2,0.1-0.3,0.1l-3.7,2.3c-0.4,0.3-0.5,0.5-0.1,0.5c0.3,0,1-0.2,1.4-0.5l2.4-1.5c0.4-0.3,1.1-0.3,1.5,0l2.4,1.5    c0.4,0.3,1,0.5,1.4,0.5C25-14.5,25-14.7,24.5-14.9z M9.2-26.4h21.7c0.2,0,0.4-0.2,0.4-0.4v0c0-0.2-0.2-0.4-0.4-0.4H9.2    c-0.2,0-0.4,0.2-0.4,0.4v0C8.8-26.6,9-26.4,9.2-26.4z"></path>
	</g>
</g>
<g>
	<g>
		<path class="st0" d="M16.6,21.3c-1,0-1.8-0.2-2.5-0.5c-0.7-0.3-1.3-0.8-1.8-1.4c-0.5-0.6-0.8-1.2-1-2c-0.2-0.7-0.3-1.5-0.3-2.3    c0-0.8,0.1-1.6,0.3-2.3c0.2-0.7,0.6-1.4,1-2c0.5-0.6,1-1,1.8-1.4c0.7-0.3,1.6-0.5,2.5-0.5c1,0,1.8,0.2,2.5,0.5    c0.7,0.4,1.3,0.8,1.8,1.4c0.5,0.6,0.8,1.2,1,2c0.2,0.8,0.3,1.5,0.3,2.3c0,0.8-0.1,1.6-0.3,2.3c-0.2,0.7-0.6,1.4-1,2    c-0.5,0.6-1.1,1-1.8,1.4C18.4,21.1,17.6,21.3,16.6,21.3z M16.6,18.5c0.7,0,1.2-0.3,1.5-0.9c0.3-0.6,0.5-1.4,0.5-2.5    c0-1.1-0.2-1.9-0.5-2.5c-0.3-0.6-0.8-0.9-1.5-0.9c-0.7,0-1.2,0.3-1.5,0.9c-0.3,0.6-0.5,1.4-0.5,2.5c0,1,0.2,1.9,0.5,2.5    C15.4,18.2,15.9,18.5,16.6,18.5z M30,9.2C30.7,9,31.4,9,32.1,9c0.6,0,1.3,0.1,2,0.2L20,29.8c-0.7,0.1-1.3,0.2-2,0.2    c-0.7,0-1.4-0.1-2.1-0.2L30,9.2z M33.4,30.2c-1,0-1.8-0.2-2.5-0.5c-0.7-0.3-1.3-0.8-1.8-1.4c-0.5-0.6-0.8-1.2-1-2    c-0.2-0.7-0.3-1.5-0.3-2.3c0-0.8,0.1-1.6,0.3-2.3c0.2-0.8,0.6-1.4,1-2c0.5-0.6,1-1,1.8-1.4c0.7-0.3,1.6-0.5,2.5-0.5    c1,0,1.8,0.2,2.5,0.5c0.7,0.4,1.3,0.8,1.8,1.4c0.5,0.6,0.8,1.2,1,2c0.2,0.7,0.3,1.5,0.3,2.3c0,0.8-0.1,1.6-0.3,2.3    c-0.2,0.7-0.6,1.4-1,2c-0.5,0.6-1.1,1-1.8,1.4C35.2,30,34.3,30.2,33.4,30.2z M33.4,27.4c0.7,0,1.2-0.3,1.5-0.9    c0.3-0.6,0.5-1.4,0.5-2.5c0-1.1-0.2-1.9-0.5-2.5c-0.3-0.6-0.8-0.9-1.5-0.9s-1.2,0.3-1.5,0.9c-0.3,0.6-0.5,1.4-0.5,2.5    c0,1,0.2,1.9,0.5,2.5C32.1,27.1,32.7,27.4,33.4,27.4z"></path>
	</g>
</g>
<path class="st0" d="M78.2-33.8h-6.1v-3c0-1.3-1.1-2.4-2.4-2.4s-2.4,1.1-2.4,2.4v3H56.4v-3c0-1.3-1.1-2.4-2.4-2.4  c-1.3,0-2.4,1.1-2.4,2.4v3h-6.1c-1,0-1.8,0.8-1.8,1.8v26.3c0,1,0.8,1.8,1.8,1.8h32.7c1,0,1.8-0.8,1.8-1.8V-32  C80-33,79.2-33.8,78.2-33.8z M60.6-25.7v4.8h-5.8v-4.8H60.6z M63-25.7h5.8v4.8H63V-25.7z M52.4-25.7v4.8h-5.1v-4.8H52.4z M52.4-18.4  v3.6h-5.1v-3.6H52.4z M54.9-18.4h5.8v3.6h-5.8V-18.4z M60.6-12.4v4.9h-5.8v-4.9H60.6z M63-12.4h5.8v4.9H63V-12.4z M63-14.8v-3.6h5.8  v3.6H63z M71.2-18.4h5.1v3.6h-5.1V-18.4z M71.2-20.9v-4.8h5.1v4.8H71.2z M47.3-12.4h5.1v4.9h-5.1V-12.4z M71.2-7.5v-4.9h5.1v4.9  H71.2z"></path>
<g>
	<g>
		<path class="st2" d="M61.9-21.2c1,2.2,3.1,8.9,6.4,5.2c3.1-3.5,5.1-8.6,7.2-12.7c0.9-1.7-1.7-3.2-2.6-1.5    c-1.4,2.7-2.9,5.5-4.4,8.2c-0.4,0.7-1.5,3.4-2,3.6c0,0-1.7-3.7-2-4.4C63.7-24.4,61.1-22.9,61.9-21.2L61.9-21.2z"></path>
	</g>
</g>
<g>
	<path class="st1" d="M5.8,19.9v-1.6h3.7v1.6H5.8z"></path>
</g>
</svg>