<svg xmlns="http://www.w3.org/2000/svg" xmlns:xlink="http://www.w3.org/1999/xlink" id="Capa_1" x="0px" y="0px" viewBox="0 0 40 40" style="enable-background:new 0 0 40 40;" xml:space="preserve">
<style type="text/css">
	.st0{fill:#7BAA39;}
	.st1{fill:#7BAA39;stroke:#7BAA39;stroke-width:0.5898;stroke-miterlimit:10;}
	.st2{fill:#7BAA39;stroke:#7BAA39;stroke-width:0.5;stroke-miterlimit:10;}
	.st3{fill:#7BAA39;stroke:#7BAA39;stroke-miterlimit:10;}
	.st4{fill:#FFFFFF;}
	.st5{fill:#698E21;}
	.st6{fill:#7BAA39;stroke:#7BAA39;stroke-width:0.9877;stroke-miterlimit:10;}
</style>
<path class="st0" d="M20.1-41C9.9-41,1.6-32.7,1.6-22.5S9.9-4,20.1-4c10.2,0,18.5-8.3,18.5-18.5S30.3-41,20.1-41z M20.1-8.6  c-7.7,0-13.9-6.2-13.9-13.9s6.2-13.9,13.9-13.9c7.7,0,13.9,6.2,13.9,13.9S27.8-8.6,20.1-8.6z M30.1-20.9c0,1.3-1,2.3-2.3,2.3h-9.3  c-1.3,0-2.3-1-2.3-2.3v-9.3c0-1.3,1-2.3,2.3-2.3c1.3,0,2.3,1,2.3,2.3v6.9h6.9C29-23.2,30.1-22.2,30.1-20.9z"></path>
<rect x="34" y="-110" class="st0" width="40" height="40"></rect>
<g>
	<g>
		<path class="st0" d="M55.6,23.5c-1.1,0-2.1-0.2-3-0.6c-0.8-0.4-1.5-1-2.1-1.6c-0.5-0.7-0.9-1.5-1.2-2.3c-0.3-0.9-0.4-1.8-0.4-2.7    c0-0.9,0.1-1.9,0.4-2.7c0.3-0.9,0.7-1.7,1.2-2.3c0.5-0.7,1.2-1.2,2.1-1.6c0.8-0.4,1.8-0.6,3-0.6c1.1,0,2.1,0.2,2.9,0.6    c0.8,0.4,1.5,1,2.1,1.6c0.6,0.7,1,1.5,1.2,2.3c0.3,0.9,0.4,1.8,0.4,2.7c0,0.9-0.1,1.8-0.4,2.7c-0.3,0.9-0.7,1.6-1.2,2.3    c-0.6,0.7-1.2,1.2-2.1,1.6C57.7,23.3,56.7,23.5,55.6,23.5z M55.6,20.2c0.8,0,1.4-0.4,1.8-1.1c0.4-0.7,0.6-1.7,0.6-2.9    c0-1.2-0.2-2.2-0.6-2.9c-0.4-0.7-1-1.1-1.8-1.1c-0.8,0-1.4,0.4-1.8,1.1c-0.4,0.7-0.6,1.7-0.6,2.9c0,1.2,0.2,2.2,0.6,2.9    C54.2,19.9,54.8,20.2,55.6,20.2z M71.4,9.2C72.2,9.1,73,9,73.8,9c0.7,0,1.5,0.1,2.4,0.2L59.5,33.6c-0.8,0.1-1.6,0.2-2.3,0.2    c-0.8,0-1.6-0.1-2.4-0.2L71.4,9.2z M75.4,34c-1.1,0-2.1-0.2-3-0.6c-0.8-0.4-1.5-1-2.1-1.6c-0.5-0.7-0.9-1.5-1.2-2.3    c-0.3-0.9-0.4-1.8-0.4-2.7c0-0.9,0.1-1.9,0.4-2.7c0.3-0.9,0.7-1.7,1.2-2.3c0.5-0.7,1.2-1.2,2.1-1.6c0.8-0.4,1.8-0.6,3-0.6    c1.1,0,2.1,0.2,2.9,0.6c0.8,0.4,1.5,1,2.1,1.6s1,1.5,1.2,2.3c0.3,0.9,0.4,1.8,0.4,2.7c0,0.9-0.1,1.8-0.4,2.7    c-0.3,0.9-0.7,1.6-1.2,2.3c-0.6,0.7-1.2,1.2-2.1,1.6C77.5,33.8,76.5,34,75.4,34z M75.4,30.8c0.8,0,1.4-0.4,1.8-1.1    c0.4-0.7,0.6-1.7,0.6-2.9c0-1.2-0.2-2.2-0.6-2.9c-0.4-0.7-1-1.1-1.8-1.1s-1.4,0.4-1.8,1.1c-0.4,0.7-0.6,1.7-0.6,2.9    c0,1.2,0.2,2.2,0.6,2.9C73.9,30.4,74.5,30.8,75.4,30.8z"></path>
	</g>
</g>
<path class="st0" d="M36.2,7.2h-6.1v-3c0-1.3-1.1-2.4-2.4-2.4s-2.4,1.1-2.4,2.4v3H14.4v-3c0-1.3-1.1-2.4-2.4-2.4  c-1.3,0-2.4,1.1-2.4,2.4v3H3.5C2.5,7.2,1.7,8,1.7,9v26.3c0,1,0.8,1.8,1.8,1.8h32.7c1,0,1.8-0.8,1.8-1.8V9C38,8,37.2,7.2,36.2,7.2z   M18.6,15.3v4.8h-5.8v-4.8H18.6z M21,15.3h5.8v4.8H21V15.3z M10.4,15.3v4.8H5.3v-4.8H10.4z M10.4,22.6v3.6H5.3v-3.6H10.4z   M12.9,22.6h5.8v3.6h-5.8V22.6z M18.6,28.6v4.9h-5.8v-4.9H18.6z M21,28.6h5.8v4.9H21V28.6z M21,26.2v-3.6h5.8v3.6H21z M29.2,22.6  h5.1v3.6h-5.1V22.6z M29.2,20.1v-4.8h5.1v4.8H29.2z M5.3,28.6h5.1v4.9H5.3V28.6z M29.2,33.5v-4.9h5.1v4.9H29.2z"></path>
<g>
	<path class="st1" d="M42.9,21.8v-1.9h4.4v1.9H42.9z"></path>
</g>
<path class="st2" d="M103.9-10.3h-2.1c-0.6,0-1.1-0.5-1.1-1.1c0-0.6,0.5-1.1,1.1-1.1h2.1c0.6,0,1.1,0.5,1.1,1.1  C105-10.8,104.5-10.3,103.9-10.3z M135-33.8v25.7c0,2.4-1.9,4.3-4.3,4.3h-23.6c-2.4,0-4.3-1.9-4.3-4.3h1.1c1.8,0,3.2-1.4,3.2-3.2  c0-1.8-1.4-3.2-3.2-3.2h-1.1v-12.9h1.1c1.8,0,3.2-1.4,3.2-3.2c0-1.8-1.4-3.2-3.2-3.2h-1.1c0-2.4,1.9-4.3,4.3-4.3h23.6  C133.1-38.1,135-36.2,135-33.8z M132.9-33.8c0-1.2-1-2.1-2.1-2.1h-19.3v30h19.3c1.2,0,2.1-1,2.1-2.1V-33.8z M101.8-29.6h2.1  c0.6,0,1.1-0.5,1.1-1.1c0-0.6-0.5-1.1-1.1-1.1h-2.1c-0.6,0-1.1,0.5-1.1,1.1C100.7-30,101.2-29.6,101.8-29.6z M129.6-33.8h-15  c-0.6,0-1.1,0.5-1.1,1.1c0,0.6,0.5,1.1,1.1,1.1h15c0.6,0,1.1-0.5,1.1-1.1C130.7-33.4,130.2-33.8,129.6-33.8z M129.6-29.6h-15  c-0.6,0-1.1,0.5-1.1,1.1c0,0.6,0.5,1.1,1.1,1.1h15c0.6,0,1.1-0.5,1.1-1.1C130.7-29.1,130.2-29.6,129.6-29.6z M129.6-25.3h-15  c-0.6,0-1.1,0.5-1.1,1.1c0,0.6,0.5,1.1,1.1,1.1h15c0.6,0,1.1-0.5,1.1-1.1C130.7-24.8,130.2-25.3,129.6-25.3z M129.6-21h-15  c-0.6,0-1.1,0.5-1.1,1.1c0,0.6,0.5,1.1,1.1,1.1h15c0.6,0,1.1-0.5,1.1-1.1C130.7-20.5,130.2-21,129.6-21z M129.6-16.7h-15  c-0.6,0-1.1,0.5-1.1,1.1c0,0.6,0.5,1.1,1.1,1.1h15c0.6,0,1.1-0.5,1.1-1.1C130.7-16.2,130.2-16.7,129.6-16.7z M123.2-12.4h-8.6  c-0.6,0-1.1,0.5-1.1,1.1c0,0.6,0.5,1.1,1.1,1.1h8.6c0.6,0,1.1-0.5,1.1-1.1C124.3-11.9,123.8-12.4,123.2-12.4z"></path>
<g>
	<path class="st3" d="M161.4-19.2c0-1.2,3.5-2.1,4.8-3.5c1.1-1.2,2.1-2.4,1.9-4.9c-0.2-3.1-2.1-12.3-2.1-12.3h-10.6   c0,0-1.9,9.2-2.1,12.3c-0.1,2.6,0.8,3.8,1.9,4.9c1.4,1.4,4.8,2.4,4.8,3.5c0,1.2,0.1,4.1,0.1,4.1h0v11.5h-4.8V-3h10.6v-0.6h-4.8   v-11.5C161.4-15.1,161.4-18.1,161.4-19.2z"></path>
	<g>
		<path class="st4" d="M157.2-31.3c-0.3,3.6,0,7.5,2.4,9.4c-2.6-1.2-4.3-1.9-3.8-9.4H155l1.1-8h9.5l1.1,8H157.2z"></path>
	</g>
</g>
<g>
	<path class="st0" d="M102.2,28.2c-1.1,0-2.2,1.1-2.2,2.4s1,2.5,2.2,2.5c1.1,0,2.1-1.2,2.1-2.5S103.3,28.2,102.2,28.2z"></path>
	<path class="st0" d="M102.2,16.3c-1.1,0-2.2,1.1-2.2,2.4s1,2.4,2.2,2.4c1.1,0,2.1-1.1,2.1-2.4S103.3,16.3,102.2,16.3z"></path>
	<path class="st0" d="M109.8,9.1h18.1c1.1,0,2-1,2-2.2c0-1.2-0.9-2.3-2-2.3h-18.1c-1.1,0-2,1-2,2.3C107.8,8.2,108.7,9.1,109.8,9.1z"></path>
	<path class="st0" d="M102.2,4.5c-1.1,0-2.2,1.2-2.2,2.5c0,1.3,1,2.4,2.2,2.4c1.1,0,2.1-1.1,2.1-2.4C104.2,5.6,103.3,4.5,102.2,4.5z   "></path>
	<path class="st0" d="M127.9,16.5h-18.1c-1.1,0-2,1-2,2.3s0.9,2.3,2,2.3h18.1c1.1,0,2-1,2-2.3S129,16.5,127.9,16.5z"></path>
	<path class="st0" d="M127.9,28.3h-18.1c-1.1,0-2,1-2,2.3c0,1.2,0.9,2.3,2,2.3h18.1c1.1,0,2-1,2-2.3C129.9,29.3,129,28.3,127.9,28.3   z"></path>
</g>
<g>
	<g>
		<path class="st5" d="M121.6,16.5c1.2,2.5,3.6,10.3,7.4,6.1c3.7-4,5.9-10,8.4-14.8c1.1-2-2-3.8-3-1.8c-1.7,3.2-3.3,6.4-5.1,9.6    c-0.4,0.8-1.8,4-2.4,4.2c0,0-2-4.4-2.3-5.1C123.7,12.7,120.7,14.5,121.6,16.5L121.6,16.5z"></path>
	</g>
</g>
<path class="st6" d="M81.5-13.7c0,0.8-0.7,1.5-1.6,1.5H44.1c-0.9,0-1.6-0.7-1.6-1.5c0-0.8,0.7-1.5,1.6-1.5h35.8  C80.8-15.2,81.5-14.5,81.5-13.7z M64.1-33.4c-0.1-1-0.9-1.8-1.9-1.8c-1,0-1.8,0.8-1.9,1.8c0.6-0.1,1.2-0.1,1.9-0.1  C62.9-33.6,63.5-33.5,64.1-33.4z M78.9-17.5H45.6c0.7-8.6,7.9-15.4,16.7-15.4C71-32.9,78.2-26.1,78.9-17.5z M60.3-31.4  c0,0-9.3,2-12.1,12.4c2.5,0,3.5,0,3.5,0S53.7-27.7,60.3-31.4z"></path>
</svg>