<svg xmlns="http://www.w3.org/2000/svg" xmlns:xlink="http://www.w3.org/1999/xlink" id="Capa_1" x="0px" y="0px" viewBox="0 0 40 40" style="enable-background:new 0 0 40 40;" xml:space="preserve">
<style type="text/css">
	.st0{fill:#7BAA39;}
	.st1{fill:#7BAA39;stroke:#7BAA39;stroke-width:0.6635;stroke-miterlimit:10;}
	.st2{fill:#4C5B33;}
	.st3{fill:#7BAA39;stroke:#7BAA39;stroke-width:0.5898;stroke-miterlimit:10;}
	.st4{fill:#7BAA39;stroke:#7BAA39;stroke-width:0.5;stroke-miterlimit:10;}
	.st5{fill:#FFFFFF;}
</style>
<path class="st0" d="M-21.9-41c-10.2,0-18.5,8.3-18.5,18.5S-32.1-4-21.9-4c10.2,0,18.5-8.3,18.5-18.5S-11.7-41-21.9-41z M-21.9-8.6  c-7.7,0-13.9-6.2-13.9-13.9s6.2-13.9,13.9-13.9c7.7,0,13.9,6.2,13.9,13.9S-14.2-8.6-21.9-8.6z M-11.9-20.9c0,1.3-1,2.3-2.3,2.3h-9.3  c-1.3,0-2.3-1-2.3-2.3v-9.3c0-1.3,1-2.3,2.3-2.3c1.3,0,2.3,1,2.3,2.3v6.9h6.9C-13-23.2-11.9-22.2-11.9-20.9z"></path>
<rect x="-8" y="-110" class="st0" width="40" height="40"></rect>
<g>
	<g>
		<path class="st1" d="M16.2-12.4c0.1,0.3-0.1,0.6-0.4,0.7c-0.3,0.1-0.6-0.1-0.6-0.4l-2-9.2H5.2l-2.5,9.2c-0.1,0.2-0.3,0.4-0.5,0.4    c0,0-0.1,0-0.1,0c-0.3-0.1-0.5-0.4-0.4-0.7l2.6-9.5l-2.6-9.8c0,0,0-0.1,0-0.1l-0.3-3.2c0-0.3,0.2-0.6,0.5-0.6    c0.3,0,0.6,0.2,0.6,0.5L2.7-32l2.5,9.5h8.3c0.3,0,0.5,0.2,0.5,0.4L16.2-12.4z M4.2-27.9c-0.3-1.3-0.6-2.6-0.8-3.7    c0.4-3.1-0.3-3.8-0.6-3.8c0,0,0,0,0,0l0.3,3L4.2-27.9z M9.5-23.4c-1.4,0-3.1,0.1-3.8,0.5h7.2C12.3-23.2,11.1-23.4,9.5-23.4z     M30.7-11.6l-4.9-3.1c-0.1-0.1-0.2-0.1-0.3-0.1l5.6-11H18.6l5.6,11c-0.1,0-0.2,0.1-0.3,0.2L19-11.6c-0.5,0.3-0.6,0.6-0.2,0.6    c0.5,0,1.3-0.3,1.8-0.6l3.2-2c0.5-0.3,1.4-0.3,2,0l3.2,2c0.5,0.3,1.4,0.6,1.8,0.6C31.3-11,31.2-11.3,30.7-11.6z M10.6-26.9h28.5    c0.3,0,0.6-0.3,0.6-0.6v0c0-0.3-0.3-0.6-0.6-0.6H10.6c-0.3,0-0.6,0.3-0.6,0.6v0C10-27.2,10.3-26.9,10.6-26.9z"></path>
	</g>
</g>
<g>
	<g>
		<path class="st0" d="M13.6,23.5c-1.1,0-2.1-0.2-3-0.6c-0.8-0.4-1.5-1-2.1-1.6c-0.5-0.7-0.9-1.5-1.2-2.3C7.1,18.1,7,17.2,7,16.2    s0.1-1.9,0.4-2.7c0.3-0.9,0.7-1.7,1.2-2.3c0.5-0.7,1.2-1.2,2.1-1.6c0.8-0.4,1.8-0.6,3-0.6c1.1,0,2.1,0.2,2.9,0.6    c0.8,0.4,1.5,1,2.1,1.6c0.6,0.7,1,1.5,1.2,2.3c0.3,0.9,0.4,1.8,0.4,2.7s-0.1,1.8-0.4,2.7c-0.3,0.9-0.7,1.6-1.2,2.3    c-0.6,0.7-1.2,1.2-2.1,1.6C15.7,23.3,14.7,23.5,13.6,23.5z M13.6,20.2c0.8,0,1.4-0.4,1.8-1.1c0.4-0.7,0.6-1.7,0.6-2.9    c0-1.2-0.2-2.2-0.6-2.9c-0.4-0.7-1-1.1-1.8-1.1s-1.4,0.4-1.8,1.1c-0.4,0.7-0.6,1.7-0.6,2.9c0,1.2,0.2,2.2,0.6,2.9    C12.2,19.9,12.8,20.2,13.6,20.2z M29.4,9.2C30.2,9.1,31,9,31.8,9c0.7,0,1.5,0.1,2.4,0.2L17.5,33.6c-0.8,0.1-1.6,0.2-2.3,0.2    c-0.8,0-1.6-0.1-2.4-0.2L29.4,9.2z M33.4,34c-1.1,0-2.1-0.2-3-0.6c-0.8-0.4-1.5-1-2.1-1.6c-0.5-0.7-0.9-1.5-1.2-2.3    c-0.3-0.9-0.4-1.8-0.4-2.7c0-0.9,0.1-1.9,0.4-2.7c0.3-0.9,0.7-1.7,1.2-2.3c0.5-0.7,1.2-1.2,2.1-1.6c0.8-0.4,1.8-0.6,3-0.6    c1.1,0,2.1,0.2,2.9,0.6c0.8,0.4,1.5,1,2.1,1.6c0.6,0.7,1,1.5,1.2,2.3c0.3,0.9,0.4,1.8,0.4,2.7c0,0.9-0.1,1.8-0.4,2.7    c-0.3,0.9-0.7,1.6-1.2,2.3c-0.6,0.7-1.2,1.2-2.1,1.6C35.5,33.8,34.5,34,33.4,34z M33.4,30.8c0.8,0,1.4-0.4,1.8-1.1    c0.4-0.7,0.6-1.7,0.6-2.9c0-1.2-0.2-2.2-0.6-2.9c-0.4-0.7-1-1.1-1.8-1.1c-0.8,0-1.4,0.4-1.8,1.1c-0.4,0.7-0.6,1.7-0.6,2.9    c0,1.2,0.2,2.2,0.6,2.9C31.9,30.4,32.5,30.8,33.4,30.8z"></path>
	</g>
</g>
<path class="st0" d="M-5.8,7.2h-6.1v-3c0-1.3-1.1-2.4-2.4-2.4s-2.4,1.1-2.4,2.4v3h-10.9v-3c0-1.3-1.1-2.4-2.4-2.4  c-1.3,0-2.4,1.1-2.4,2.4v3h-6.1c-1,0-1.8,0.8-1.8,1.8v26.3c0,1,0.8,1.8,1.8,1.8h32.7c1,0,1.8-0.8,1.8-1.8V9C-4,8-4.8,7.2-5.8,7.2z   M-23.4,15.3v4.8h-5.8v-4.8H-23.4z M-21,15.3h5.8v4.8H-21V15.3z M-31.6,15.3v4.8h-5.1v-4.8H-31.6z M-31.6,22.6v3.6h-5.1v-3.6H-31.6z   M-29.1,22.6h5.8v3.6h-5.8V22.6z M-23.4,28.6v4.9h-5.8v-4.9H-23.4z M-21,28.6h5.8v4.9H-21V28.6z M-21,26.2v-3.6h5.8v3.6H-21z   M-12.8,22.6h5.1v3.6h-5.1V22.6z M-12.8,20.1v-4.8h5.1v4.8H-12.8z M-36.7,28.6h5.1v4.9h-5.1V28.6z M-12.8,33.5v-4.9h5.1v4.9H-12.8z"></path>
<g>
	<g>
		<path class="st2" d="M-22.1,19.8c1,2.2,3.1,8.9,6.4,5.2c3.1-3.5,5.1-8.6,7.2-12.7c0.9-1.7-1.7-3.2-2.6-1.5    c-1.4,2.7-2.9,5.5-4.4,8.2c-0.4,0.7-1.5,3.4-2,3.6c0,0-1.7-3.7-2-4.4C-20.3,16.6-22.9,18.1-22.1,19.8L-22.1,19.8z"></path>
	</g>
</g>
<g>
	<path class="st3" d="M0.9,21.8v-1.9h4.4v1.9H0.9z"></path>
</g>
<path class="st4" d="M61.9-10.3h-2.1c-0.6,0-1.1-0.5-1.1-1.1c0-0.6,0.5-1.1,1.1-1.1h2.1c0.6,0,1.1,0.5,1.1,1.1  C63-10.8,62.5-10.3,61.9-10.3z M93-33.8v25.7c0,2.4-1.9,4.3-4.3,4.3H65.1c-2.4,0-4.3-1.9-4.3-4.3h1.1c1.8,0,3.2-1.4,3.2-3.2  c0-1.8-1.4-3.2-3.2-3.2h-1.1v-12.9h1.1c1.8,0,3.2-1.4,3.2-3.2c0-1.8-1.4-3.2-3.2-3.2h-1.1c0-2.4,1.9-4.3,4.3-4.3h23.6  C91.1-38.1,93-36.2,93-33.8z M90.9-33.8c0-1.2-1-2.1-2.1-2.1H69.4v30h19.3c1.2,0,2.1-1,2.1-2.1V-33.8z M59.8-29.6h2.1  c0.6,0,1.1-0.5,1.1-1.1c0-0.6-0.5-1.1-1.1-1.1h-2.1c-0.6,0-1.1,0.5-1.1,1.1C58.7-30,59.2-29.6,59.8-29.6z M87.6-33.8h-15  c-0.6,0-1.1,0.5-1.1,1.1c0,0.6,0.5,1.1,1.1,1.1h15c0.6,0,1.1-0.5,1.1-1.1C88.7-33.4,88.2-33.8,87.6-33.8z M87.6-29.6h-15  c-0.6,0-1.1,0.5-1.1,1.1c0,0.6,0.5,1.1,1.1,1.1h15c0.6,0,1.1-0.5,1.1-1.1C88.7-29.1,88.2-29.6,87.6-29.6z M87.6-25.3h-15  c-0.6,0-1.1,0.5-1.1,1.1c0,0.6,0.5,1.1,1.1,1.1h15c0.6,0,1.1-0.5,1.1-1.1C88.7-24.8,88.2-25.3,87.6-25.3z M87.6-21h-15  c-0.6,0-1.1,0.5-1.1,1.1c0,0.6,0.5,1.1,1.1,1.1h15c0.6,0,1.1-0.5,1.1-1.1C88.7-20.5,88.2-21,87.6-21z M87.6-16.7h-15  c-0.6,0-1.1,0.5-1.1,1.1c0,0.6,0.5,1.1,1.1,1.1h15c0.6,0,1.1-0.5,1.1-1.1C88.7-16.2,88.2-16.7,87.6-16.7z M81.2-12.4h-8.6  c-0.6,0-1.1,0.5-1.1,1.1c0,0.6,0.5,1.1,1.1,1.1h8.6c0.6,0,1.1-0.5,1.1-1.1C82.3-11.9,81.8-12.4,81.2-12.4z"></path>
<g>
	<path class="st4" d="M119.4-20.2c0-1.2,3.5-2.1,4.8-3.5c1.1-1.2,2.1-2.4,1.9-4.9c-0.2-3.1-2.1-12.3-2.1-12.3h-10.6   c0,0-1.9,9.2-2.1,12.3c-0.1,2.6,0.8,3.8,1.9,4.9c1.4,1.4,4.8,2.4,4.8,3.5c0,1.2,0.1,4.1,0.1,4.1h0v11.5h-4.8V-4h10.6v-0.6h-4.8   v-11.5C119.4-16.1,119.4-19.1,119.4-20.2z"></path>
	<g>
		<path class="st5" d="M115.2-32.3c-0.3,3.6,0,7.5,2.4,9.4c-2.6-1.2-4.3-1.9-3.8-9.4H113l1.1-8h9.5l1.1,8H115.2z"></path>
	</g>
</g>
</svg>