<svg xmlns="http://www.w3.org/2000/svg" xmlns:xlink="http://www.w3.org/1999/xlink" id="Capa_1" x="0px" y="0px" viewBox="0 0 40 40" style="enable-background:new 0 0 40 40;" xml:space="preserve">
<style type="text/css">
	.st0{fill:#7BAA39;}
	.st1{fill:#7BAA39;stroke:#7BAA39;stroke-width:0.5;stroke-miterlimit:10;}
	.st2{fill:#4C5B33;}
</style>
<path class="st0" d="M20.1,1C9.9,1,1.6,9.3,1.6,19.5S9.9,38,20.1,38c10.2,0,18.5-8.3,18.5-18.5S30.3,1,20.1,1z M20.1,33.4  c-7.7,0-13.9-6.2-13.9-13.9S12.5,5.6,20.1,5.6c7.7,0,13.9,6.2,13.9,13.9S27.8,33.4,20.1,33.4z M30.1,21.1c0,1.3-1,2.3-2.3,2.3h-9.3  c-1.3,0-2.3-1-2.3-2.3v-9.3c0-1.3,1-2.3,2.3-2.3c1.3,0,2.3,1,2.3,2.3v6.9h6.9C29,18.8,30.1,19.8,30.1,21.1z"></path>
<rect x="42" class="st0" width="40" height="40"></rect>
<g>
	<g>
		<path class="st1" d="M13.5,66.5c0.1,0.2-0.1,0.4-0.3,0.5c-0.2,0.1-0.4-0.1-0.5-0.3l-1.5-6.9h-6l-1.9,6.9C3.1,66.9,3,67,2.8,67    c0,0-0.1,0-0.1,0c-0.2-0.1-0.3-0.3-0.3-0.5l2-7.1l-2-7.3c0,0,0,0,0-0.1l-0.2-2.4c0-0.2,0.1-0.4,0.4-0.5c0.2,0,0.4,0.1,0.5,0.4    l0.2,2.4L5.1,59h6.3c0.2,0,0.4,0.1,0.4,0.3L13.5,66.5z M4.3,55C4.1,54,3.9,53,3.7,52.2c0.3-2.3-0.2-2.8-0.5-2.9c0,0,0,0,0,0    l0.2,2.3L4.3,55z M8.4,58.3c-1.1,0-2.4,0.1-2.9,0.4h5.5C10.5,58.4,9.6,58.3,8.4,58.3z M37.8,52l0.2-2.4c0-0.2-0.1-0.4-0.4-0.5    c-0.2,0-0.4,0.1-0.5,0.4l-0.2,2.4L35,59h-6.3c-0.2,0-0.4,0.1-0.4,0.3l-1.6,7.2c-0.1,0.2,0.1,0.4,0.3,0.5c0.2,0.1,0.4-0.1,0.5-0.3    l1.5-6.9h6l1.9,6.9c0.1,0.2,0.2,0.3,0.4,0.3c0,0,0.1,0,0.1,0c0.2-0.1,0.3-0.3,0.3-0.5l-2-7.1L37.8,52C37.8,52.1,37.8,52,37.8,52z     M36.8,51.6l0.2-2.3c0,0,0,0,0,0c-0.3,0.1-0.8,0.5-0.5,2.9C36.3,53,36.1,54,35.8,55L36.8,51.6z M34.7,58.6    c-0.6-0.3-1.9-0.4-2.9-0.4c-1.2,0-2.1,0.1-2.5,0.4H34.7z M24.5,67.1l-3.7-2.3c-0.1,0-0.2-0.1-0.3-0.1l4.3-8.2h-9.6l4.3,8.2    c-0.1,0-0.2,0.1-0.3,0.1l-3.7,2.3c-0.4,0.3-0.5,0.5-0.1,0.5c0.3,0,1-0.2,1.4-0.5l2.4-1.5c0.4-0.3,1.1-0.3,1.5,0l2.4,1.5    c0.4,0.3,1,0.5,1.4,0.5C25,67.5,25,67.3,24.5,67.1z M9.2,55.6h21.7c0.2,0,0.4-0.2,0.4-0.4v0c0-0.2-0.2-0.4-0.4-0.4H9.2    c-0.2,0-0.4,0.2-0.4,0.4v0C8.8,55.4,9,55.6,9.2,55.6z"></path>
	</g>
</g>
<g>
	<g>
		<path class="st0" d="M16.6,103.3c-1,0-1.8-0.2-2.5-0.5c-0.7-0.3-1.3-0.8-1.8-1.4c-0.5-0.6-0.8-1.2-1-2c-0.2-0.7-0.3-1.5-0.3-2.3    s0.1-1.6,0.3-2.3c0.2-0.7,0.6-1.4,1-2c0.5-0.6,1-1,1.8-1.4c0.7-0.3,1.6-0.5,2.5-0.5c1,0,1.8,0.2,2.5,0.5c0.7,0.4,1.3,0.8,1.8,1.4    c0.5,0.6,0.8,1.2,1,2c0.2,0.8,0.3,1.5,0.3,2.3s-0.1,1.6-0.3,2.3c-0.2,0.7-0.6,1.4-1,2c-0.5,0.6-1.1,1-1.8,1.4    C18.4,103.1,17.6,103.3,16.6,103.3z M16.6,100.5c0.7,0,1.2-0.3,1.5-0.9c0.3-0.6,0.5-1.4,0.5-2.5c0-1.1-0.2-1.9-0.5-2.5    c-0.3-0.6-0.8-0.9-1.5-0.9c-0.7,0-1.2,0.3-1.5,0.9c-0.3,0.6-0.5,1.4-0.5,2.5c0,1,0.2,1.9,0.5,2.5    C15.4,100.2,15.9,100.5,16.6,100.5z M30,91.2c0.7-0.1,1.3-0.2,2-0.2c0.6,0,1.3,0.1,2,0.2L20,111.8c-0.7,0.1-1.3,0.2-2,0.2    c-0.7,0-1.4-0.1-2.1-0.2L30,91.2z M33.4,112.2c-1,0-1.8-0.2-2.5-0.5c-0.7-0.3-1.3-0.8-1.8-1.4c-0.5-0.6-0.8-1.2-1-2    c-0.2-0.7-0.3-1.5-0.3-2.3c0-0.8,0.1-1.6,0.3-2.3c0.2-0.8,0.6-1.4,1-2c0.5-0.6,1-1,1.8-1.4c0.7-0.3,1.6-0.5,2.5-0.5    c1,0,1.8,0.2,2.5,0.5c0.7,0.4,1.3,0.8,1.8,1.4c0.5,0.6,0.8,1.2,1,2c0.2,0.7,0.3,1.5,0.3,2.3c0,0.8-0.1,1.6-0.3,2.3    c-0.2,0.7-0.6,1.4-1,2c-0.5,0.6-1.1,1-1.8,1.4C35.2,112,34.3,112.2,33.4,112.2z M33.4,109.4c0.7,0,1.2-0.3,1.5-0.9    c0.3-0.6,0.5-1.4,0.5-2.5c0-1.1-0.2-1.9-0.5-2.5c-0.3-0.6-0.8-0.9-1.5-0.9s-1.2,0.3-1.5,0.9c-0.3,0.6-0.5,1.4-0.5,2.5    c0,1,0.2,1.9,0.5,2.5C32.1,109.1,32.7,109.4,33.4,109.4z"></path>
	</g>
</g>
<path class="st0" d="M78.2,48.2h-6.1v-3c0-1.3-1.1-2.4-2.4-2.4s-2.4,1.1-2.4,2.4v3H56.4v-3c0-1.3-1.1-2.4-2.4-2.4  c-1.3,0-2.4,1.1-2.4,2.4v3h-6.1c-1,0-1.8,0.8-1.8,1.8v26.3c0,1,0.8,1.8,1.8,1.8h32.7c1,0,1.8-0.8,1.8-1.8V50  C80,49,79.2,48.2,78.2,48.2z M60.6,56.3v4.8h-5.8v-4.8H60.6z M63,56.3h5.8v4.8H63V56.3z M52.4,56.3v4.8h-5.1v-4.8H52.4z M52.4,63.6  v3.6h-5.1v-3.6H52.4z M54.9,63.6h5.8v3.6h-5.8V63.6z M60.6,69.6v4.9h-5.8v-4.9H60.6z M63,69.6h5.8v4.9H63V69.6z M63,67.2v-3.6h5.8  v3.6H63z M71.2,63.6h5.1v3.6h-5.1V63.6z M71.2,61.1v-4.8h5.1v4.8H71.2z M47.3,69.6h5.1v4.9h-5.1V69.6z M71.2,74.5v-4.9h5.1v4.9H71.2  z"></path>
<g>
	<g>
		<path class="st2" d="M61.9,60.8c1,2.2,3.1,8.9,6.4,5.2c3.1-3.5,5.1-8.6,7.2-12.7c0.9-1.7-1.7-3.2-2.6-1.5    c-1.4,2.7-2.9,5.5-4.4,8.2c-0.4,0.7-1.5,3.4-2,3.6c0,0-1.7-3.7-2-4.4C63.7,57.6,61.1,59.1,61.9,60.8L61.9,60.8z"></path>
	</g>
</g>
<g>
	<path class="st1" d="M5.8,101.9v-1.6h3.7v1.6H5.8z"></path>
</g>
</svg>