<svg xmlns="http://www.w3.org/2000/svg" xmlns:xlink="http://www.w3.org/1999/xlink" id="Capa_1" x="0px" y="0px" viewBox="0 0 40 40" style="enable-background:new 0 0 40 40;" xml:space="preserve">
<style type="text/css">
	.st0{fill:#7BAA39;}
	.st1{fill:#7BAA39;stroke:#7BAA39;stroke-width:0.5;stroke-miterlimit:10;}
	.st2{fill:#4C5B33;}
</style>
<path class="st0" d="M-21.9-40c-10.2,0-18.5,8.3-18.5,18.5S-32.1-3-21.9-3c10.2,0,18.5-8.3,18.5-18.5S-11.7-40-21.9-40z M-21.9-7.6  c-7.7,0-13.9-6.2-13.9-13.9s6.2-13.9,13.9-13.9c7.7,0,13.9,6.2,13.9,13.9S-14.2-7.6-21.9-7.6z M-11.9-19.9c0,1.3-1,2.3-2.3,2.3h-9.3  c-1.3,0-2.3-1-2.3-2.3v-9.3c0-1.3,1-2.3,2.3-2.3c1.3,0,2.3,1,2.3,2.3v6.9h6.9C-13-22.2-11.9-21.2-11.9-19.9z"></path>
<rect y="-41" class="st0" width="40" height="40"></rect>
<g>
	<g>
		<path class="st1" d="M-28.5,25.5c0.1,0.2-0.1,0.4-0.3,0.5c-0.2,0.1-0.4-0.1-0.5-0.3l-1.5-6.9h-6l-1.9,6.9    c-0.1,0.2-0.2,0.3-0.4,0.3c0,0-0.1,0-0.1,0c-0.2-0.1-0.3-0.3-0.3-0.5l2-7.1l-2-7.3c0,0,0,0,0-0.1l-0.2-2.4c0-0.2,0.1-0.4,0.4-0.5    c0.2,0,0.4,0.1,0.5,0.4l0.2,2.4l1.9,7.1h6.3c0.2,0,0.4,0.1,0.4,0.3L-28.5,25.5z M-37.7,14c-0.2-0.9-0.4-1.9-0.6-2.8    c0.3-2.3-0.2-2.8-0.5-2.9c0,0,0,0,0,0l0.2,2.3L-37.7,14z M-33.6,17.3c-1.1,0-2.4,0.1-2.9,0.4h5.5C-31.5,17.4-32.4,17.3-33.6,17.3z     M-4.2,11L-4,8.6c0-0.2-0.1-0.4-0.4-0.5c-0.2,0-0.4,0.1-0.5,0.4l-0.2,2.4L-7,18h-6.3c-0.2,0-0.4,0.1-0.4,0.3l-1.6,7.2    c-0.1,0.2,0.1,0.4,0.3,0.5c0.2,0.1,0.4-0.1,0.5-0.3l1.5-6.9h6l1.9,6.9C-5,25.9-4.8,26-4.6,26c0,0,0.1,0,0.1,0    c0.2-0.1,0.3-0.3,0.3-0.5l-2-7.1L-4.2,11C-4.2,11.1-4.2,11-4.2,11z M-5.2,10.6L-5,8.3c0,0,0,0,0,0c-0.3,0.1-0.8,0.5-0.5,2.9    C-5.7,12-5.9,13-6.2,14L-5.2,10.6z M-7.3,17.6c-0.6-0.3-1.9-0.4-2.9-0.4c-1.2,0-2.1,0.1-2.5,0.4H-7.3z M-17.5,26.1l-3.7-2.3    c-0.1,0-0.2-0.1-0.3-0.1l4.3-8.2h-9.6l4.3,8.2c-0.1,0-0.2,0.1-0.3,0.1l-3.7,2.3c-0.4,0.3-0.5,0.5-0.1,0.5c0.3,0,1-0.2,1.4-0.5    l2.4-1.5c0.4-0.3,1.1-0.3,1.5,0l2.4,1.5c0.4,0.3,1,0.5,1.4,0.5C-17,26.5-17,26.3-17.5,26.1z M-32.8,14.6h21.7    c0.2,0,0.4-0.2,0.4-0.4v0c0-0.2-0.2-0.4-0.4-0.4h-21.7c-0.2,0-0.4,0.2-0.4,0.4v0C-33.2,14.4-33,14.6-32.8,14.6z"></path>
	</g>
</g>
<g>
	<g>
		<path class="st0" d="M-25.4,62.3c-1,0-1.8-0.2-2.5-0.5c-0.7-0.3-1.3-0.8-1.8-1.4c-0.5-0.6-0.8-1.2-1-2c-0.2-0.7-0.3-1.5-0.3-2.3    s0.1-1.6,0.3-2.3c0.2-0.7,0.6-1.4,1-2c0.5-0.6,1-1,1.8-1.4c0.7-0.3,1.6-0.5,2.5-0.5c1,0,1.8,0.2,2.5,0.5c0.7,0.4,1.3,0.8,1.8,1.4    c0.5,0.6,0.8,1.2,1,2c0.2,0.8,0.3,1.5,0.3,2.3s-0.1,1.6-0.3,2.3c-0.2,0.7-0.6,1.4-1,2c-0.5,0.6-1.1,1-1.8,1.4    C-23.6,62.1-24.4,62.3-25.4,62.3z M-25.4,59.5c0.7,0,1.2-0.3,1.5-0.9c0.3-0.6,0.5-1.4,0.5-2.5c0-1.1-0.2-1.9-0.5-2.5    c-0.3-0.6-0.8-0.9-1.5-0.9c-0.7,0-1.2,0.3-1.5,0.9c-0.3,0.6-0.5,1.4-0.5,2.5c0,1,0.2,1.9,0.5,2.5C-26.6,59.2-26.1,59.5-25.4,59.5z     M-12,50.2c0.7-0.1,1.3-0.2,2-0.2c0.6,0,1.3,0.1,2,0.2L-22,70.8c-0.7,0.1-1.3,0.2-2,0.2c-0.7,0-1.4-0.1-2.1-0.2L-12,50.2z     M-8.6,71.2c-1,0-1.8-0.2-2.5-0.5c-0.7-0.3-1.3-0.8-1.8-1.4c-0.5-0.6-0.8-1.2-1-2c-0.2-0.7-0.3-1.5-0.3-2.3c0-0.8,0.1-1.6,0.3-2.3    c0.2-0.8,0.6-1.4,1-2c0.5-0.6,1-1,1.8-1.4c0.7-0.3,1.6-0.5,2.5-0.5c1,0,1.8,0.2,2.5,0.5c0.7,0.4,1.3,0.8,1.8,1.4    c0.5,0.6,0.8,1.2,1,2C-3.1,63.5-3,64.2-3,65c0,0.8-0.1,1.6-0.3,2.3c-0.2,0.7-0.6,1.4-1,2c-0.5,0.6-1.1,1-1.8,1.4    C-6.8,71-7.7,71.2-8.6,71.2z M-8.6,68.4c0.7,0,1.2-0.3,1.5-0.9c0.3-0.6,0.5-1.4,0.5-2.5c0-1.1-0.2-1.9-0.5-2.5    c-0.3-0.6-0.8-0.9-1.5-0.9s-1.2,0.3-1.5,0.9c-0.3,0.6-0.5,1.4-0.5,2.5c0,1,0.2,1.9,0.5,2.5C-9.9,68.1-9.3,68.4-8.6,68.4z"></path>
	</g>
</g>
<path class="st0" d="M36.2,7.2h-6.1v-3c0-1.3-1.1-2.4-2.4-2.4s-2.4,1.1-2.4,2.4v3H14.4v-3c0-1.3-1.1-2.4-2.4-2.4  c-1.3,0-2.4,1.1-2.4,2.4v3H3.5C2.5,7.2,1.7,8,1.7,9v26.3c0,1,0.8,1.8,1.8,1.8h32.7c1,0,1.8-0.8,1.8-1.8V9C38,8,37.2,7.2,36.2,7.2z   M18.6,15.3v4.8h-5.8v-4.8H18.6z M21,15.3h5.8v4.8H21V15.3z M10.4,15.3v4.8H5.3v-4.8H10.4z M10.4,22.6v3.6H5.3v-3.6H10.4z   M12.9,22.6h5.8v3.6h-5.8V22.6z M18.6,28.6v4.9h-5.8v-4.9H18.6z M21,28.6h5.8v4.9H21V28.6z M21,26.2v-3.6h5.8v3.6H21z M29.2,22.6  h5.1v3.6h-5.1V22.6z M29.2,20.1v-4.8h5.1v4.8H29.2z M5.3,28.6h5.1v4.9H5.3V28.6z M29.2,33.5v-4.9h5.1v4.9H29.2z"></path>
<g>
	<g>
		<path class="st2" d="M19.9,19.8c1,2.2,3.1,8.9,6.4,5.2c3.1-3.5,5.1-8.6,7.2-12.7c0.9-1.7-1.7-3.2-2.6-1.5    c-1.4,2.7-2.9,5.5-4.4,8.2c-0.4,0.7-1.5,3.4-2,3.6c0,0-1.7-3.7-2-4.4C21.7,16.6,19.1,18.1,19.9,19.8L19.9,19.8z"></path>
	</g>
</g>
<g>
	<path class="st1" d="M-36.2,60.9v-1.6h3.7v1.6H-36.2z"></path>
</g>
</svg>