<svg xmlns="http://www.w3.org/2000/svg" xmlns:xlink="http://www.w3.org/1999/xlink" id="Capa_1" x="0px" y="0px" viewBox="0 0 40 40" style="enable-background:new 0 0 40 40;" xml:space="preserve">
<style type="text/css">
	.st0{fill:#7BAA39;}
	.st1{fill:#7BAA39;stroke:#7BAA39;stroke-width:0.5;stroke-miterlimit:10;}
	.st2{fill:#4C5B33;}
</style>
<path class="st0" d="M20.1-40C9.9-40,1.6-31.7,1.6-21.5S9.9-3,20.1-3c10.2,0,18.5-8.3,18.5-18.5S30.3-40,20.1-40z M20.1-7.6  c-7.7,0-13.9-6.2-13.9-13.9s6.2-13.9,13.9-13.9c7.7,0,13.9,6.2,13.9,13.9S27.8-7.6,20.1-7.6z M30.1-19.9c0,1.3-1,2.3-2.3,2.3h-9.3  c-1.3,0-2.3-1-2.3-2.3v-9.3c0-1.3,1-2.3,2.3-2.3c1.3,0,2.3,1,2.3,2.3v6.9h6.9C29-22.2,30.1-21.2,30.1-19.9z"></path>
<rect x="42" y="-41" class="st0" width="40" height="40"></rect>
<g>
	<g>
		<path class="st1" d="M13.5,25.5c0.1,0.2-0.1,0.4-0.3,0.5c-0.2,0.1-0.4-0.1-0.5-0.3l-1.5-6.9h-6l-1.9,6.9C3.1,25.9,3,26,2.8,26    c0,0-0.1,0-0.1,0c-0.2-0.1-0.3-0.3-0.3-0.5l2-7.1l-2-7.3c0,0,0,0,0-0.1L2.1,8.6c0-0.2,0.1-0.4,0.4-0.5c0.2,0,0.4,0.1,0.5,0.4    l0.2,2.4L5.1,18h6.3c0.2,0,0.4,0.1,0.4,0.3L13.5,25.5z M4.3,14C4.1,13,3.9,12,3.7,11.2C4,8.9,3.5,8.4,3.2,8.3c0,0,0,0,0,0l0.2,2.3    L4.3,14z M8.4,17.3c-1.1,0-2.4,0.1-2.9,0.4h5.5C10.5,17.4,9.6,17.3,8.4,17.3z M37.8,11L38,8.6c0-0.2-0.1-0.4-0.4-0.5    c-0.2,0-0.4,0.1-0.5,0.4l-0.2,2.4L35,18h-6.3c-0.2,0-0.4,0.1-0.4,0.3l-1.6,7.2c-0.1,0.2,0.1,0.4,0.3,0.5c0.2,0.1,0.4-0.1,0.5-0.3    l1.5-6.9h6l1.9,6.9c0.1,0.2,0.2,0.3,0.4,0.3c0,0,0.1,0,0.1,0c0.2-0.1,0.3-0.3,0.3-0.5l-2-7.1L37.8,11C37.8,11.1,37.8,11,37.8,11z     M36.8,10.6L37,8.3c0,0,0,0,0,0c-0.3,0.1-0.8,0.5-0.5,2.9C36.3,12,36.1,13,35.8,14L36.8,10.6z M34.7,17.6    c-0.6-0.3-1.9-0.4-2.9-0.4c-1.2,0-2.1,0.1-2.5,0.4H34.7z M24.5,26.1l-3.7-2.3c-0.1,0-0.2-0.1-0.3-0.1l4.3-8.2h-9.6l4.3,8.2    c-0.1,0-0.2,0.1-0.3,0.1l-3.7,2.3c-0.4,0.3-0.5,0.5-0.1,0.5c0.3,0,1-0.2,1.4-0.5l2.4-1.5c0.4-0.3,1.1-0.3,1.5,0l2.4,1.5    c0.4,0.3,1,0.5,1.4,0.5C25,26.5,25,26.3,24.5,26.1z M9.2,14.6h21.7c0.2,0,0.4-0.2,0.4-0.4v0c0-0.2-0.2-0.4-0.4-0.4H9.2    c-0.2,0-0.4,0.2-0.4,0.4v0C8.8,14.4,9,14.6,9.2,14.6z"></path>
	</g>
</g>
<g>
	<g>
		<path class="st0" d="M16.6,62.3c-1,0-1.8-0.2-2.5-0.5c-0.7-0.3-1.3-0.8-1.8-1.4c-0.5-0.6-0.8-1.2-1-2c-0.2-0.7-0.3-1.5-0.3-2.3    s0.1-1.6,0.3-2.3c0.2-0.7,0.6-1.4,1-2c0.5-0.6,1-1,1.8-1.4c0.7-0.3,1.6-0.5,2.5-0.5c1,0,1.8,0.2,2.5,0.5c0.7,0.4,1.3,0.8,1.8,1.4    c0.5,0.6,0.8,1.2,1,2c0.2,0.8,0.3,1.5,0.3,2.3s-0.1,1.6-0.3,2.3c-0.2,0.7-0.6,1.4-1,2c-0.5,0.6-1.1,1-1.8,1.4    C18.4,62.1,17.6,62.3,16.6,62.3z M16.6,59.5c0.7,0,1.2-0.3,1.5-0.9c0.3-0.6,0.5-1.4,0.5-2.5c0-1.1-0.2-1.9-0.5-2.5    c-0.3-0.6-0.8-0.9-1.5-0.9c-0.7,0-1.2,0.3-1.5,0.9c-0.3,0.6-0.5,1.4-0.5,2.5c0,1,0.2,1.9,0.5,2.5C15.4,59.2,15.9,59.5,16.6,59.5z     M30,50.2c0.7-0.1,1.3-0.2,2-0.2c0.6,0,1.3,0.1,2,0.2L20,70.8c-0.7,0.1-1.3,0.2-2,0.2c-0.7,0-1.4-0.1-2.1-0.2L30,50.2z M33.4,71.2    c-1,0-1.8-0.2-2.5-0.5c-0.7-0.3-1.3-0.8-1.8-1.4c-0.5-0.6-0.8-1.2-1-2c-0.2-0.7-0.3-1.5-0.3-2.3c0-0.8,0.1-1.6,0.3-2.3    c0.2-0.8,0.6-1.4,1-2c0.5-0.6,1-1,1.8-1.4c0.7-0.3,1.6-0.5,2.5-0.5c1,0,1.8,0.2,2.5,0.5c0.7,0.4,1.3,0.8,1.8,1.4    c0.5,0.6,0.8,1.2,1,2c0.2,0.7,0.3,1.5,0.3,2.3c0,0.8-0.1,1.6-0.3,2.3c-0.2,0.7-0.6,1.4-1,2c-0.5,0.6-1.1,1-1.8,1.4    C35.2,71,34.3,71.2,33.4,71.2z M33.4,68.4c0.7,0,1.2-0.3,1.5-0.9c0.3-0.6,0.5-1.4,0.5-2.5c0-1.1-0.2-1.9-0.5-2.5    c-0.3-0.6-0.8-0.9-1.5-0.9s-1.2,0.3-1.5,0.9c-0.3,0.6-0.5,1.4-0.5,2.5c0,1,0.2,1.9,0.5,2.5C32.1,68.1,32.7,68.4,33.4,68.4z"></path>
	</g>
</g>
<path class="st0" d="M78.2,7.2h-6.1v-3c0-1.3-1.1-2.4-2.4-2.4s-2.4,1.1-2.4,2.4v3H56.4v-3c0-1.3-1.1-2.4-2.4-2.4  c-1.3,0-2.4,1.1-2.4,2.4v3h-6.1c-1,0-1.8,0.8-1.8,1.8v26.3c0,1,0.8,1.8,1.8,1.8h32.7c1,0,1.8-0.8,1.8-1.8V9C80,8,79.2,7.2,78.2,7.2z   M60.6,15.3v4.8h-5.8v-4.8H60.6z M63,15.3h5.8v4.8H63V15.3z M52.4,15.3v4.8h-5.1v-4.8H52.4z M52.4,22.6v3.6h-5.1v-3.6H52.4z   M54.9,22.6h5.8v3.6h-5.8V22.6z M60.6,28.6v4.9h-5.8v-4.9H60.6z M63,28.6h5.8v4.9H63V28.6z M63,26.2v-3.6h5.8v3.6H63z M71.2,22.6  h5.1v3.6h-5.1V22.6z M71.2,20.1v-4.8h5.1v4.8H71.2z M47.3,28.6h5.1v4.9h-5.1V28.6z M71.2,33.5v-4.9h5.1v4.9H71.2z"></path>
<g>
	<g>
		<path class="st2" d="M61.9,19.8c1,2.2,3.1,8.9,6.4,5.2c3.1-3.5,5.1-8.6,7.2-12.7c0.9-1.7-1.7-3.2-2.6-1.5    c-1.4,2.7-2.9,5.5-4.4,8.2c-0.4,0.7-1.5,3.4-2,3.6c0,0-1.7-3.7-2-4.4C63.7,16.6,61.1,18.1,61.9,19.8L61.9,19.8z"></path>
	</g>
</g>
<g>
	<path class="st1" d="M5.8,60.9v-1.6h3.7v1.6H5.8z"></path>
</g>
</svg>