<svg xmlns="http://www.w3.org/2000/svg" xmlns:xlink="http://www.w3.org/1999/xlink" id="Capa_1" x="0px" y="0px" viewBox="0 0 40 40" style="enable-background:new 0 0 40 40;" xml:space="preserve">
<style type="text/css">
	.st0{fill:#7BAA39;}
	.st1{fill:#7BAA39;stroke:#7BAA39;stroke-width:0.6635;stroke-miterlimit:10;}
	.st2{fill:#4C5B33;}
	.st3{fill:#7BAA39;stroke:#7BAA39;stroke-width:0.5898;stroke-miterlimit:10;}
	.st4{fill:#7BAA39;stroke:#7BAA39;stroke-width:0.5;stroke-miterlimit:10;}
	.st5{fill:#FFFFFF;}
</style>
<path class="st0" d="M-21.9,1c-10.2,0-18.5,8.3-18.5,18.5S-32.1,38-21.9,38c10.2,0,18.5-8.3,18.5-18.5S-11.7,1-21.9,1z M-21.9,33.4  c-7.7,0-13.9-6.2-13.9-13.9s6.2-13.9,13.9-13.9C-14.2,5.6-8,11.8-8,19.5S-14.2,33.4-21.9,33.4z M-11.9,21.1c0,1.3-1,2.3-2.3,2.3  h-9.3c-1.3,0-2.3-1-2.3-2.3v-9.3c0-1.3,1-2.3,2.3-2.3c1.3,0,2.3,1,2.3,2.3v6.9h6.9C-13,18.8-11.9,19.8-11.9,21.1z"></path>
<rect x="-8" y="-68" class="st0" width="40" height="40"></rect>
<g>
	<g>
		<path class="st1" d="M16.2,29.6c0.1,0.3-0.1,0.6-0.4,0.7c-0.3,0.1-0.6-0.1-0.6-0.4l-2-9.2H5.2l-2.5,9.2c-0.1,0.2-0.3,0.4-0.5,0.4    c0,0-0.1,0-0.1,0c-0.3-0.1-0.5-0.4-0.4-0.7l2.6-9.5l-2.6-9.8c0,0,0-0.1,0-0.1L1.3,6.9c0-0.3,0.2-0.6,0.5-0.6    c0.3,0,0.6,0.2,0.6,0.5L2.7,10l2.5,9.5h8.3c0.3,0,0.5,0.2,0.5,0.4L16.2,29.6z M4.2,14.1c-0.3-1.3-0.6-2.6-0.8-3.7    c0.4-3.1-0.3-3.8-0.6-3.8c0,0,0,0,0,0l0.3,3L4.2,14.1z M9.5,18.6c-1.4,0-3.1,0.1-3.8,0.5h7.2C12.3,18.8,11.1,18.6,9.5,18.6z     M30.7,30.4l-4.9-3.1c-0.1-0.1-0.2-0.1-0.3-0.1l5.6-11H18.6l5.6,11c-0.1,0-0.2,0.1-0.3,0.2L19,30.4c-0.5,0.3-0.6,0.6-0.2,0.6    c0.5,0,1.3-0.3,1.8-0.6l3.2-2c0.5-0.3,1.4-0.3,2,0l3.2,2c0.5,0.3,1.4,0.6,1.8,0.6C31.3,31,31.2,30.7,30.7,30.4z M10.6,15h28.5    c0.3,0,0.6-0.3,0.6-0.6v0c0-0.3-0.3-0.6-0.6-0.6H10.6c-0.3,0-0.6,0.3-0.6,0.6v0C10,14.8,10.3,15,10.6,15z"></path>
	</g>
</g>
<g>
	<g>
		<path class="st0" d="M13.6,65.5c-1.1,0-2.1-0.2-3-0.6c-0.8-0.4-1.5-1-2.1-1.6c-0.5-0.7-0.9-1.5-1.2-2.3C7.1,60.1,7,59.1,7,58.2    c0-0.9,0.1-1.9,0.4-2.7c0.3-0.9,0.7-1.7,1.2-2.3c0.5-0.7,1.2-1.2,2.1-1.6c0.8-0.4,1.8-0.6,3-0.6c1.1,0,2.1,0.2,2.9,0.6    c0.8,0.4,1.5,1,2.1,1.6c0.6,0.7,1,1.5,1.2,2.3c0.3,0.9,0.4,1.8,0.4,2.7c0,0.9-0.1,1.8-0.4,2.7c-0.3,0.9-0.7,1.6-1.2,2.3    c-0.6,0.7-1.2,1.2-2.1,1.6C15.7,65.3,14.7,65.5,13.6,65.5z M13.6,62.2c0.8,0,1.4-0.4,1.8-1.1c0.4-0.7,0.6-1.7,0.6-2.9    c0-1.2-0.2-2.2-0.6-2.9c-0.4-0.7-1-1.1-1.8-1.1s-1.4,0.4-1.8,1.1c-0.4,0.7-0.6,1.7-0.6,2.9c0,1.2,0.2,2.2,0.6,2.9    C12.2,61.9,12.8,62.2,13.6,62.2z M29.4,51.2c0.8-0.1,1.6-0.2,2.4-0.2c0.7,0,1.5,0.1,2.4,0.2L17.5,75.6c-0.8,0.1-1.6,0.2-2.3,0.2    c-0.8,0-1.6-0.1-2.4-0.2L29.4,51.2z M33.4,76c-1.1,0-2.1-0.2-3-0.6c-0.8-0.4-1.5-1-2.1-1.6c-0.5-0.7-0.9-1.5-1.2-2.3    c-0.3-0.9-0.4-1.8-0.4-2.7c0-0.9,0.1-1.9,0.4-2.7c0.3-0.9,0.7-1.7,1.2-2.3c0.5-0.7,1.2-1.2,2.1-1.6c0.8-0.4,1.8-0.6,3-0.6    c1.1,0,2.1,0.2,2.9,0.6c0.8,0.4,1.5,1,2.1,1.6c0.6,0.7,1,1.5,1.2,2.3c0.3,0.9,0.4,1.8,0.4,2.7c0,0.9-0.1,1.8-0.4,2.7    c-0.3,0.9-0.7,1.6-1.2,2.3c-0.6,0.7-1.2,1.2-2.1,1.6C35.5,75.8,34.5,76,33.4,76z M33.4,72.8c0.8,0,1.4-0.4,1.8-1.1    c0.4-0.7,0.6-1.7,0.6-2.9c0-1.2-0.2-2.2-0.6-2.9c-0.4-0.7-1-1.1-1.8-1.1c-0.8,0-1.4,0.4-1.8,1.1c-0.4,0.7-0.6,1.7-0.6,2.9    c0,1.2,0.2,2.2,0.6,2.9C31.9,72.4,32.5,72.8,33.4,72.8z"></path>
	</g>
</g>
<path class="st0" d="M-5.8,49.2h-6.1v-3c0-1.3-1.1-2.4-2.4-2.4s-2.4,1.1-2.4,2.4v3h-10.9v-3c0-1.3-1.1-2.4-2.4-2.4  c-1.3,0-2.4,1.1-2.4,2.4v3h-6.1c-1,0-1.8,0.8-1.8,1.8v26.3c0,1,0.8,1.8,1.8,1.8h32.7c1,0,1.8-0.8,1.8-1.8V51  C-4,50-4.8,49.2-5.8,49.2z M-23.4,57.3v4.8h-5.8v-4.8H-23.4z M-21,57.3h5.8v4.8H-21V57.3z M-31.6,57.3v4.8h-5.1v-4.8H-31.6z   M-31.6,64.6v3.6h-5.1v-3.6H-31.6z M-29.1,64.6h5.8v3.6h-5.8V64.6z M-23.4,70.6v4.9h-5.8v-4.9H-23.4z M-21,70.6h5.8v4.9H-21V70.6z   M-21,68.2v-3.6h5.8v3.6H-21z M-12.8,64.6h5.1v3.6h-5.1V64.6z M-12.8,62.1v-4.8h5.1v4.8H-12.8z M-36.7,70.6h5.1v4.9h-5.1V70.6z   M-12.8,75.5v-4.9h5.1v4.9H-12.8z"></path>
<g>
	<g>
		<path class="st2" d="M-22.1,61.8c1,2.2,3.1,8.9,6.4,5.2c3.1-3.5,5.1-8.6,7.2-12.7c0.9-1.7-1.7-3.2-2.6-1.5    c-1.4,2.7-2.9,5.5-4.4,8.2c-0.4,0.7-1.5,3.4-2,3.6c0,0-1.7-3.7-2-4.4C-20.3,58.6-22.9,60.1-22.1,61.8L-22.1,61.8z"></path>
	</g>
</g>
<g>
	<path class="st3" d="M0.9,63.8v-1.9h4.4v1.9H0.9z"></path>
</g>
<path class="st4" d="M61.9,31.7h-2.1c-0.6,0-1.1-0.5-1.1-1.1c0-0.6,0.5-1.1,1.1-1.1h2.1c0.6,0,1.1,0.5,1.1,1.1  C63,31.2,62.5,31.7,61.9,31.7z M93,8.2v25.7c0,2.4-1.9,4.3-4.3,4.3H65.1c-2.4,0-4.3-1.9-4.3-4.3h1.1c1.8,0,3.2-1.4,3.2-3.2  c0-1.8-1.4-3.2-3.2-3.2h-1.1V14.6h1.1c1.8,0,3.2-1.4,3.2-3.2c0-1.8-1.4-3.2-3.2-3.2h-1.1c0-2.4,1.9-4.3,4.3-4.3h23.6  C91.1,3.9,93,5.8,93,8.2z M90.9,8.2c0-1.2-1-2.1-2.1-2.1H69.4v30h19.3c1.2,0,2.1-1,2.1-2.1V8.2z M59.8,12.4h2.1  c0.6,0,1.1-0.5,1.1-1.1c0-0.6-0.5-1.1-1.1-1.1h-2.1c-0.6,0-1.1,0.5-1.1,1.1C58.7,12,59.2,12.4,59.8,12.4z M87.6,8.2h-15  c-0.6,0-1.1,0.5-1.1,1.1c0,0.6,0.5,1.1,1.1,1.1h15c0.6,0,1.1-0.5,1.1-1.1C88.7,8.6,88.2,8.2,87.6,8.2z M87.6,12.4h-15  c-0.6,0-1.1,0.5-1.1,1.1c0,0.6,0.5,1.1,1.1,1.1h15c0.6,0,1.1-0.5,1.1-1.1C88.7,12.9,88.2,12.4,87.6,12.4z M87.6,16.7h-15  c-0.6,0-1.1,0.5-1.1,1.1c0,0.6,0.5,1.1,1.1,1.1h15c0.6,0,1.1-0.5,1.1-1.1C88.7,17.2,88.2,16.7,87.6,16.7z M87.6,21h-15  c-0.6,0-1.1,0.5-1.1,1.1c0,0.6,0.5,1.1,1.1,1.1h15c0.6,0,1.1-0.5,1.1-1.1C88.7,21.5,88.2,21,87.6,21z M87.6,25.3h-15  c-0.6,0-1.1,0.5-1.1,1.1c0,0.6,0.5,1.1,1.1,1.1h15c0.6,0,1.1-0.5,1.1-1.1C88.7,25.8,88.2,25.3,87.6,25.3z M81.2,29.6h-8.6  c-0.6,0-1.1,0.5-1.1,1.1c0,0.6,0.5,1.1,1.1,1.1h8.6c0.6,0,1.1-0.5,1.1-1.1C82.3,30.1,81.8,29.6,81.2,29.6z"></path>
<g>
	<path class="st4" d="M119.4,21.8c0-1.2,3.5-2.1,4.8-3.5c1.1-1.2,2.1-2.4,1.9-4.9c-0.2-3.1-2.1-12.3-2.1-12.3h-10.6   c0,0-1.9,9.2-2.1,12.3c-0.1,2.6,0.8,3.8,1.9,4.9c1.4,1.4,4.8,2.4,4.8,3.5c0,1.2,0.1,4.1,0.1,4.1h0v11.5h-4.8V38h10.6v-0.6h-4.8   V25.9C119.4,25.9,119.4,22.9,119.4,21.8z"></path>
	<g>
		<path class="st5" d="M115.2,9.7c-0.3,3.6,0,7.5,2.4,9.4c-2.6-1.2-4.3-1.9-3.8-9.4H113l1.1-8h9.5l1.1,8H115.2z"></path>
	</g>
</g>
</svg>