<svg xmlns="http://www.w3.org/2000/svg" xmlns:xlink="http://www.w3.org/1999/xlink" id="Capa_1" x="0px" y="0px" viewBox="0 0 40 40" style="enable-background:new 0 0 40 40;" xml:space="preserve">
<style type="text/css">
	.st0{fill:#7BAA39;}
	.st1{fill:#7BAA39;stroke:#7BAA39;stroke-width:0.5898;stroke-miterlimit:10;}
	.st2{fill:#7BAA39;stroke:#7BAA39;stroke-miterlimit:10;}
	.st3{fill:#FFFFFF;}
	.st4{fill:#7BAA39;stroke:#7BAA39;stroke-width:0.9877;stroke-miterlimit:10;}
	.st5{fill:#698E21;}
	.st6{fill:#7BAA39;stroke:#7BAA39;stroke-width:1.9097;stroke-miterlimit:10;}
	.st7{fill:#7BAA39;stroke:#7BAA39;stroke-width:0.5;stroke-miterlimit:10;}
	.st8{fill:#7BAA39;stroke:#7BAA39;stroke-width:0.6979;stroke-miterlimit:10;}
	.st9{fill:#7BAA39;stroke:#7BAA39;stroke-width:0.7505;stroke-miterlimit:10;}
	.st10{fill:#7BAA39;stroke:#7BAA39;stroke-width:0.1953;stroke-miterlimit:10;}
	.st11{fill:#7BAA39;stroke:#7BAA39;stroke-width:1.0164;stroke-miterlimit:10;}
	.st12{fill:#AFDB6A;}
	.st13{fill:#7BAA39;stroke:#7BAA39;stroke-width:1.2975;stroke-miterlimit:10;}
	.st14{fill:#7BAA39;stroke:#7BAA39;stroke-width:1.2343;stroke-miterlimit:10;}
</style>
<path class="st0" d="M-120.9-41c-10.2,0-18.5,8.3-18.5,18.5S-131.1-4-120.9-4c10.2,0,18.5-8.3,18.5-18.5S-110.7-41-120.9-41z   M-120.9-8.6c-7.7,0-13.9-6.2-13.9-13.9s6.2-13.9,13.9-13.9c7.7,0,13.9,6.2,13.9,13.9S-113.2-8.6-120.9-8.6z M-110.9-20.9  c0,1.3-1,2.3-2.3,2.3h-9.3c-1.3,0-2.3-1-2.3-2.3v-9.3c0-1.3,1-2.3,2.3-2.3c1.3,0,2.3,1,2.3,2.3v6.9h6.9  C-112-23.2-110.9-22.2-110.9-20.9z"></path>
<rect x="-107" y="-110" class="st0" width="40" height="40"></rect>
<g>
	<g>
		<path class="st0" d="M-85.4,23.5c-1.1,0-2.1-0.2-3-0.6c-0.8-0.4-1.5-1-2.1-1.6c-0.5-0.7-0.9-1.5-1.2-2.3c-0.3-0.9-0.4-1.8-0.4-2.7    c0-0.9,0.1-1.9,0.4-2.7c0.3-0.9,0.7-1.7,1.2-2.3c0.5-0.7,1.2-1.2,2.1-1.6c0.8-0.4,1.8-0.6,3-0.6c1.1,0,2.1,0.2,2.9,0.6    c0.8,0.4,1.5,1,2.1,1.6s1,1.5,1.2,2.3c0.3,0.9,0.4,1.8,0.4,2.7c0,0.9-0.1,1.8-0.4,2.7c-0.3,0.9-0.7,1.6-1.2,2.3    c-0.6,0.7-1.2,1.2-2.1,1.6C-83.3,23.3-84.3,23.5-85.4,23.5z M-85.4,20.2c0.8,0,1.4-0.4,1.8-1.1c0.4-0.7,0.6-1.7,0.6-2.9    c0-1.2-0.2-2.2-0.6-2.9c-0.4-0.7-1-1.1-1.8-1.1s-1.4,0.4-1.8,1.1c-0.4,0.7-0.6,1.7-0.6,2.9c0,1.2,0.2,2.2,0.6,2.9    C-86.8,19.9-86.2,20.2-85.4,20.2z M-69.6,9.2C-68.8,9.1-68,9-67.2,9c0.7,0,1.5,0.1,2.4,0.2l-16.7,24.3c-0.8,0.1-1.6,0.2-2.3,0.2    c-0.8,0-1.6-0.1-2.4-0.2L-69.6,9.2z M-65.6,34c-1.1,0-2.1-0.2-3-0.6c-0.8-0.4-1.5-1-2.1-1.6c-0.5-0.7-0.9-1.5-1.2-2.3    c-0.3-0.9-0.4-1.8-0.4-2.7c0-0.9,0.1-1.9,0.4-2.7c0.3-0.9,0.7-1.7,1.2-2.3c0.5-0.7,1.2-1.2,2.1-1.6c0.8-0.4,1.8-0.6,3-0.6    c1.1,0,2.1,0.2,2.9,0.6c0.8,0.4,1.5,1,2.1,1.6c0.6,0.7,1,1.5,1.2,2.3c0.3,0.9,0.4,1.8,0.4,2.7c0,0.9-0.1,1.8-0.4,2.7    c-0.3,0.9-0.7,1.6-1.2,2.3c-0.6,0.7-1.2,1.2-2.1,1.6C-63.5,33.8-64.5,34-65.6,34z M-65.6,30.8c0.8,0,1.4-0.4,1.8-1.1    c0.4-0.7,0.6-1.7,0.6-2.9c0-1.2-0.2-2.2-0.6-2.9c-0.4-0.7-1-1.1-1.8-1.1s-1.4,0.4-1.8,1.1c-0.4,0.7-0.6,1.7-0.6,2.9    c0,1.2,0.2,2.2,0.6,2.9C-67.1,30.4-66.5,30.8-65.6,30.8z"></path>
	</g>
</g>
<path class="st0" d="M-104.8,7.2h-6.1v-3c0-1.3-1.1-2.4-2.4-2.4s-2.4,1.1-2.4,2.4v3h-10.9v-3c0-1.3-1.1-2.4-2.4-2.4  c-1.3,0-2.4,1.1-2.4,2.4v3h-6.1c-1,0-1.8,0.8-1.8,1.8v26.3c0,1,0.8,1.8,1.8,1.8h32.7c1,0,1.8-0.8,1.8-1.8V9  C-103,8-103.8,7.2-104.8,7.2z M-122.4,15.3v4.8h-5.8v-4.8H-122.4z M-120,15.3h5.8v4.8h-5.8V15.3z M-130.6,15.3v4.8h-5.1v-4.8H-130.6  z M-130.6,22.6v3.6h-5.1v-3.6H-130.6z M-128.1,22.6h5.8v3.6h-5.8V22.6z M-122.4,28.6v4.9h-5.8v-4.9H-122.4z M-120,28.6h5.8v4.9h-5.8  V28.6z M-120,26.2v-3.6h5.8v3.6H-120z M-111.8,22.6h5.1v3.6h-5.1V22.6z M-111.8,20.1v-4.8h5.1v4.8H-111.8z M-135.7,28.6h5.1v4.9  h-5.1V28.6z M-111.8,33.5v-4.9h5.1v4.9H-111.8z"></path>
<g>
	<path class="st1" d="M-98.1,21.8v-1.9h4.4v1.9H-98.1z"></path>
</g>
<g>
	<path class="st2" d="M20.4-19.2c0-1.2,3.5-2.1,4.8-3.5c1.1-1.2,2.1-2.4,1.9-4.9c-0.2-3.1-2.1-12.3-2.1-12.3H14.6   c0,0-1.9,9.2-2.1,12.3c-0.1,2.6,0.8,3.8,1.9,4.9c1.4,1.4,4.8,2.4,4.8,3.5c0,1.2,0.1,4.1,0.1,4.1h0v11.5h-4.8V-3h10.6v-0.6h-4.8   v-11.5C20.4-15.1,20.4-18.1,20.4-19.2z"></path>
	<g>
		<path class="st3" d="M16.2-31.3c-0.3,3.6,0,7.5,2.4,9.4c-2.6-1.2-4.3-1.9-3.8-9.4H14l1.1-8h9.5l1.1,8H16.2z"></path>
	</g>
</g>
<path class="st4" d="M-59.5-13.7c0,0.8-0.7,1.5-1.6,1.5h-35.8c-0.9,0-1.6-0.7-1.6-1.5c0-0.8,0.7-1.5,1.6-1.5h35.8  C-60.2-15.2-59.5-14.5-59.5-13.7z M-76.9-33.4c-0.1-1-0.9-1.8-1.9-1.8c-1,0-1.8,0.8-1.9,1.8c0.6-0.1,1.2-0.1,1.9-0.1  C-78.1-33.6-77.5-33.5-76.9-33.4z M-62.1-17.5h-33.3c0.7-8.6,7.9-15.4,16.7-15.4C-70-32.9-62.8-26.1-62.1-17.5z M-80.7-31.4  c0,0-9.3,2-12.1,12.4c2.5,0,3.5,0,3.5,0S-87.3-27.7-80.7-31.4z"></path>
<polygon class="st5" points="-36.2,22 -38.6,20.7 -41,22 -40.5,19.3 -42.5,17.5 -39.8,17.1 -38.6,14.7 -37.4,17.1 -34.8,17.5   -36.7,19.3 "></polygon>
<g>
	<path d="M-39.7-44.8c0-0.4,0-0.9,0-1.2h0c-0.1,0.3-0.2,0.7-0.4,1.1l-0.5,1.4h-0.3l-0.5-1.3c-0.1-0.4-0.2-0.8-0.3-1.1h0   c0,0.3,0,0.8-0.1,1.2l-0.1,1.2h-0.3l0.2-2.8h0.5L-41-45c0.1,0.3,0.2,0.7,0.3,0.9h0c0.1-0.3,0.2-0.6,0.3-0.9l0.5-1.4h0.5l0.2,2.8   h-0.4L-39.7-44.8z"></path>
	<path d="M-36.9-44.6c0,0.7-0.5,1.1-1,1.1c-0.5,0-1-0.4-1-1c0-0.7,0.4-1.1,1-1.1C-37.3-45.6-36.9-45.2-36.9-44.6z M-38.5-44.5   c0,0.4,0.3,0.8,0.6,0.8c0.4,0,0.6-0.3,0.6-0.8c0-0.3-0.2-0.8-0.6-0.8C-38.3-45.3-38.5-44.9-38.5-44.5z"></path>
	<path d="M-36.4-45c0-0.2,0-0.4,0-0.5h0.3l0,0.3h0c0.1-0.2,0.3-0.4,0.6-0.4c0.3,0,0.5,0.2,0.6,0.4h0c0.1-0.1,0.1-0.2,0.2-0.3   c0.1-0.1,0.3-0.1,0.4-0.1c0.3,0,0.7,0.2,0.7,0.9v1.2h-0.4v-1.1c0-0.4-0.1-0.6-0.4-0.6c-0.2,0-0.4,0.2-0.4,0.3c0,0.1,0,0.1,0,0.2   v1.2h-0.4v-1.2c0-0.3-0.1-0.6-0.4-0.6c-0.2,0-0.4,0.2-0.5,0.4c0,0.1,0,0.1,0,0.2v1.2h-0.4V-45z"></path>
	<path d="M-32.7-44.5c0,0.5,0.3,0.7,0.7,0.7c0.3,0,0.4,0,0.6-0.1l0.1,0.3c-0.1,0.1-0.4,0.1-0.7,0.1c-0.6,0-1-0.4-1-1   c0-0.6,0.4-1.1,0.9-1.1c0.7,0,0.8,0.6,0.8,0.9c0,0.1,0,0.1,0,0.2H-32.7z M-31.7-44.7c0-0.2-0.1-0.6-0.5-0.6c-0.4,0-0.5,0.3-0.6,0.6   H-31.7z"></path>
	<path d="M-30.8-45c0-0.2,0-0.4,0-0.5h0.3l0,0.3h0c0.1-0.2,0.3-0.4,0.7-0.4c0.3,0,0.7,0.2,0.7,0.9v1.2h-0.4v-1.2   c0-0.3-0.1-0.6-0.5-0.6c-0.2,0-0.4,0.2-0.5,0.4c0,0,0,0.1,0,0.2v1.2h-0.4V-45z"></path>
	<path d="M-28.1-46.1v0.6h0.5v0.3h-0.5v1.1c0,0.2,0.1,0.4,0.3,0.4c0.1,0,0.2,0,0.2,0l0,0.3c-0.1,0-0.2,0.1-0.3,0.1   c-0.2,0-0.3-0.1-0.4-0.2c-0.1-0.1-0.1-0.3-0.1-0.5v-1.1h-0.3v-0.3h0.3V-46L-28.1-46.1z"></path>
	<path d="M-25.4-44.6c0,0.7-0.5,1.1-1,1.1c-0.5,0-1-0.4-1-1c0-0.7,0.4-1.1,1-1.1C-25.8-45.6-25.4-45.2-25.4-44.6z M-27-44.5   c0,0.4,0.3,0.8,0.6,0.8c0.4,0,0.6-0.3,0.6-0.8c0-0.3-0.2-0.8-0.6-0.8C-26.8-45.3-27-44.9-27-44.5z"></path>
	<path d="M-25-43.9c0.1,0.1,0.3,0.1,0.5,0.1c0.3,0,0.4-0.1,0.4-0.3c0-0.2-0.1-0.3-0.4-0.4c-0.4-0.1-0.5-0.3-0.5-0.6   c0-0.3,0.3-0.6,0.7-0.6c0.2,0,0.4,0.1,0.5,0.1l-0.1,0.3c-0.1,0-0.2-0.1-0.4-0.1c-0.2,0-0.3,0.1-0.3,0.3c0,0.2,0.1,0.2,0.4,0.3   c0.4,0.1,0.5,0.3,0.5,0.6c0,0.4-0.3,0.6-0.8,0.6c-0.2,0-0.4-0.1-0.6-0.1L-25-43.9z"></path>
	<path d="M-22.4-43.5c0-0.1,0-0.3,0-0.5v-2.4h0.4v1.3h0c0.1-0.2,0.4-0.4,0.7-0.4c0.5,0,0.9,0.4,0.8,1c0,0.7-0.5,1.1-0.9,1.1   c-0.3,0-0.5-0.1-0.7-0.4h0l0,0.3H-22.4z M-22-44.3c0,0,0,0.1,0,0.1c0.1,0.3,0.3,0.4,0.5,0.4c0.4,0,0.6-0.3,0.6-0.8   c0-0.4-0.2-0.7-0.6-0.7c-0.2,0-0.5,0.2-0.6,0.4c0,0,0,0.1,0,0.1V-44.3z"></path>
	<path d="M-18.2-44.6c0,0.7-0.5,1.1-1,1.1c-0.5,0-1-0.4-1-1c0-0.7,0.4-1.1,1-1.1C-18.6-45.6-18.2-45.2-18.2-44.6z M-19.8-44.5   c0,0.4,0.3,0.8,0.6,0.8c0.4,0,0.6-0.3,0.6-0.8c0-0.3-0.2-0.8-0.6-0.8C-19.6-45.3-19.8-44.9-19.8-44.5z"></path>
	<path d="M-16-46.5v2.4c0,0.2,0,0.4,0,0.5h-0.3l0-0.3h0c-0.1,0.2-0.4,0.4-0.7,0.4c-0.5,0-0.9-0.4-0.9-1c0-0.7,0.4-1.1,0.9-1.1   c0.3,0,0.5,0.1,0.6,0.3h0v-1.2H-16z M-16.3-44.7c0,0,0-0.1,0-0.2c-0.1-0.2-0.3-0.4-0.5-0.4c-0.4,0-0.6,0.3-0.6,0.8   c0,0.4,0.2,0.7,0.6,0.7c0.2,0,0.5-0.2,0.5-0.4c0-0.1,0-0.1,0-0.2V-44.7z"></path>
	<path d="M-15.5-43.8c0-0.2,0.1-0.3,0.2-0.3c0.1,0,0.2,0.1,0.2,0.3c0,0.1-0.1,0.3-0.2,0.3C-15.4-43.5-15.5-43.6-15.5-43.8z"></path>
</g>
<rect x="54.7" y="-47.8" style="fill:none;" width="36.3" height="2.8"></rect>
<text transform="matrix(1 0 0 1 54.667 -45.7036)" style="font-family:'MyriadPro-Regular'; font-size:3px;">Regalate gastronomía. </text>
<g>
	<rect x="65.1" y="-27.7" class="st6" width="20.9" height="0.9"></rect>
	<rect x="65.1" y="-22.7" class="st6" width="20.9" height="0.9"></rect>
	<path class="st6" d="M86.5-40.1H64c-2.8,0-5.2,1.9-5.2,4.2v18.1c0,2.3,2.3,4.2,5.2,4.2h1.7l6.2,9.6L72-3.8l6.3-9.7h8.2   c2.8,0,5.1-1.9,5.1-4.2v-18.1C91.6-38.2,89.3-40.1,86.5-40.1z M86.5-14.4h-8.7l-5.8,9l-5.7-8.9l0-0.1H64c-2.3,0-4.2-1.5-4.2-3.3   v-18.1c0-1.8,1.9-3.3,4.2-3.3h22.4c2.3,0,4.2,1.5,4.2,3.3v18.1C90.7-15.9,88.8-14.4,86.5-14.4z"></path>
</g>
<polygon class="st7" points="77.8,-30 75.4,-31.3 73,-30 73.5,-32.7 71.5,-34.5 74.2,-34.9 75.4,-37.3 76.6,-34.9 79.2,-34.5   77.3,-32.7 "></polygon>
<g>
	<path class="st0" d="M112.7-21v9c-0.6,0.1-1.8,0.3-3.3,0.3c-1.5,0-2.8-0.2-3.3-0.2v-9c0-0.1,0.1-2.8,3.3-2.8   C112.7-23.8,112.7-21.1,112.7-21z M107.4-35.6c0,0,0,0.5,0,1.2h0.5v-4.2h0.8v4.2h2.7c0-0.7,0-1.2,0-1.2h0V-39h0.2v-1.6h-0.2v-0.6   h-2.7v0.6h-0.2v1.6h-0.8v-1.6h0.2v-0.6h-0.5v0.6h-0.2v1.6h0.2V-35.6z M113.9-29.3c0.8,1,1,2,1,4.1v21.8c0,0.8-2.5,1.4-5.5,1.4   c-3,0-5.5-0.6-5.5-1.4v-21.8c0-2.1,0.2-3.1,1-4.1c1-1.3,2.4-1.9,2.4-2.9c0-0.3,0-0.8,0-1.3h0.6v1.2c0,0,0,1.4-1,2.3l-0.1,0.1   c-1.2,1.1-2.2,2-2.2,4.6v21.9l0.8,0.3v-22.2c0-2.3,0.7-2.9,1.9-4.1l0.1-0.1c1.2-1.2,1.3-2.8,1.3-2.9v-1.2h2.7c0,0.5,0,1,0,1.3   C111.5-31.2,112.9-30.6,113.9-29.3z M113.2-21.1c0,0,0-3.3-3.8-3.3c-3.8,0-3.8,3.3-3.8,3.3v9.6c0,0,1.6,0.3,3.8,0.3   c2.2,0,3.8-0.3,3.8-0.3V-21.1z"></path>
</g>
<g>
	<path class="st8" d="M125.9-13.6c0-0.8,2.4-1.5,3.4-2.5c0.8-0.8,1.5-1.7,1.4-3.4c-0.1-2.1-1.4-8.6-1.4-8.6h-7.4   c0,0-1.3,6.4-1.4,8.6c-0.1,1.8,0.6,2.6,1.4,3.4c0.9,1,3.4,1.6,3.4,2.5c0,0.8,0,2.9,0,2.9h0v8.1h-3.3v0.4h7.4v-0.4h-3.4v-8.1   C125.9-10.8,125.9-12.8,125.9-13.6z"></path>
	<g>
		<path class="st3" d="M122.9-22.1c-0.2,2.5,0,5.3,1.7,6.5c-1.8-0.8-3-1.3-2.6-6.5h-0.5l0.8-5.6h6.6l0.7,5.6H122.9z"></path>
	</g>
</g>
<g>
	<g>
		<path class="st0" d="M131.6,34.1c0.9,0.9,1,2.4,0.1,3.2c-0.9,0.9-2.3,0.8-3.2-0.1l-9.6-10.5c-0.7,0-1.4-0.2-2.2-0.5l3.5-3.5    l2.3,2.3L131.6,34.1z M111.4,22.5l4.3-4.3l-4.4-4.4c-3.5-3.5-6.9-6.9-9-9c-0.3-0.3-0.7-0.4-1.1-0.4c-0.3,0-0.7,0.3-0.8,1    c-0.3,2.9,1.8,8,9.5,15.6C110.5,21.6,111,22.1,111.4,22.5z M119.4,10.5l0.6-0.6c0,0,0,0,0,0L119.4,10.5z M135.5,9.5    c-0.5-0.5-1.2-0.6-1.5-0.3l-6.8,6.8c-0.3,0.3-1,0.3-1.4-0.2c-0.4-0.4-0.5-1.1-0.2-1.4l6.8-6.8c0.3-0.3,0.2-1-0.3-1.5    c-0.5-0.5-1.2-0.6-1.5-0.3l-6.8,6.8c-0.3,0.3-1,0.3-1.4-0.2c-0.4-0.4-0.5-1.1-0.2-1.4l6.8-6.8c0.3-0.3,0.2-1-0.3-1.5    c-0.5-0.5-1.2-0.6-1.5-0.3L120,9.9c-2.4,2.4-1.6,4.1-0.3,5.6l-19,19c-0.9,0.9-1,2.4-0.1,3.2c0.9,0.9,2.3,0.8,3.2-0.1l19-19    c1.5,1.4,3.2,2.1,5.6-0.3l7.4-7.4C136.1,10.7,136,10,135.5,9.5z"></path>
	</g>
</g>
<rect x="153.7" y="-45.8" style="fill:none;" width="29.3" height="2.8"></rect>
<text transform="matrix(1 0 0 1 153.667 -43.7036)" style="font-family:'MyriadPro-Regular'; font-size:3px;">Ofertas gastronómicos. </text>
<path class="st9" d="M192.1-23l-18.4-16.4c-0.7-0.6-2-1.1-2.9-1.1l-13.3,0.3c-0.9,0-1.7,0.8-1.7,1.7l-0.3,13.3  c0,0.9,0.5,2.2,1.1,2.9L173-3.9c0.6,0.7,1.6,0.7,2.3,0.1l17-17C192.8-21.4,192.8-22.4,192.1-23z M164.5-31.5c-1,1-2.5,1-3.5,0  c-1-1-1-2.5,0-3.5c1-1,2.5-1,3.5,0C165.5-34,165.5-32.4,164.5-31.5z M182.3-20.6h-15.2v-2.8h15.2L182.3-20.6L182.3-20.6z"></path>
<path class="st0" d="M234.1-24.8l0.7,20.7c0,1.1-0.8,2-1.8,2c0,0-0.1,0-0.1,0c0,0-0.1,0-0.1,0v0c-0.9-0.1-1.6-1-1.6-2l0.7-20.7  c-2-0.8-4.1-2.2-4.1-5.5c0-4.1,2.7-9.2,4.9-9.6v0c0,0,0.1,0,0.1,0c0,0,0,0,0,0c0,0,0.1,0,0.1,0c2.2,0,5.2,5.4,5.2,9.6  C238.2-27,236.1-25.6,234.1-24.8z M202.6-39.6C202.6-39.6,202.6-39.5,202.6-39.6c-1.5,0.8-3.6,4-3.6,12.9c0,4.8,2,7.7,2.6,9.3  c1,2.8-0.9,9.8-1.3,13.1c-0.1,1.1,0.8,2,1.8,2c0.2,0,0.3,0,0.5-0.1v0c0.8-0.2,1.4-1,1.4-1.9v-34.3C204-39.3,203.3-39.8,202.6-39.6z   M219.5-39.5l-0.1,11.7h-1l-0.2-11.7h-0.5l-0.2,11.7h-0.6h-0.2h-0.2l-0.2-11.7h-0.5l-0.2,11.7h-1l-0.1-11.7h-0.5  c-0.4,2.7-0.8,8-0.8,10.7c0,3.3,0.7,3.3,2.6,4.1l-0.7,20.7c0,1,0.7,1.8,1.5,1.9v0c0.1,0,0.2,0,0.3,0c1,0,1.8-0.9,1.8-2l-0.7-20.7  c2-0.8,2.6-0.7,2.6-4.1c0-2.7-0.4-7.9-0.8-10.7H219.5z"></path>
<path class="st0" d="M155.7,22.2H193v11.2c0,1.4-1.1,2.5-2.5,2.5h-32.3c-1.4,0-2.5-1.1-2.5-2.5V22.2z M164.4,26.3  c0,0,0.1-0.1,0.1-0.1c-0.2,0-0.3,0-0.5,0.1C164.2,26.2,164.3,26.2,164.4,26.3z M163.7,26.3c0,0-0.1,0-0.1,0  c-0.1,0.1-0.1,0.2-0.2,0.3c0,0-0.4,0.8,0,0.6c0.2-0.1,0.3-0.2,0.5-0.4c0.1-0.1,0.2-0.2,0.3-0.4C164.1,26.4,163.9,26.4,163.7,26.3z   M164.7,25.9c0.5-0.6,1.1-1.3,1.6-1.9h-1.4c0.1,0.1,0.1,0.2,0,0.4c-0.3,0.5-0.7,1-1,1.5C164.1,26,164.4,25.9,164.7,25.9z   M164.6,26.3c0.2,0.1,0.4,0.1,0.6,0.2c0.1-0.2,0.2-0.4,0.3-0.6c0,0,0,0-0.1,0c-0.2,0-0.4,0.1-0.7,0.1  C164.7,26.2,164.7,26.3,164.6,26.3z M165.7,25.8c0-0.1,0.1-0.1,0.1-0.2c0.2-0.4,0.4-0.8,0.6-1.3c-0.4,0.5-0.9,1-1.3,1.5  C165.2,25.8,165.4,25.8,165.7,25.8z M166.2,25.9c0,0.2,0,0.3,0,0.5c0.2-0.1,0.3-0.3,0.3-0.5C166.4,25.9,166.3,25.9,166.2,25.9  C166.2,25.9,166.2,25.9,166.2,25.9z M165.7,26.7c0,0,0.1,0,0.1,0.1c0.7,0.4,1.3,0.7,2.2,0.8c0.3,0,1.2,0.1,0.9-0.4  c-0.1-0.1-0.1-0.3-0.1-0.4c0-0.4,0.2-0.7,0.3-1.1c-0.3,0-0.5,0-0.8,0.1c-0.2,0.1-0.4,0.2-0.6,0.2c-0.1,0-0.1,0-0.1-0.1c0,0,0,0,0,0  c-0.1,0-0.3,0-0.4,0c-0.1,0.1-0.2,0.2-0.3,0.2c-0.1,0-0.1,0-0.1-0.1c0,0,0,0,0-0.1c0,0,0,0,0,0c-0.1,0.3-0.3,0.6-0.6,0.8  c-0.1,0-0.1,0-0.2-0.1c0-0.1,0-0.1,0-0.2c-0.1,0.1-0.1,0.2-0.2,0.2C165.7,26.7,165.7,26.7,165.7,26.7z M167.6,25.6  c0-0.2,0.1-0.3,0.2-0.5c-0.2,0.1-0.3,0.3-0.4,0.5C167.4,25.6,167.5,25.6,167.6,25.6z M169.1,25.4c0-0.2-0.1-0.1-0.2,0  c0,0-0.1,0-0.1,0.1C168.8,25.4,168.9,25.4,169.1,25.4z M183.7,33.9h7.2v-3.6h-7.2V33.9z M180.6,24h-14c-0.1,0.2-0.2,0.4-0.3,0.6  c0,0,0-0.1,0.1-0.1c0.1-0.1,0.2,0,0.2,0.1c-0.1,0.3-0.2,0.7-0.4,1c0,0,0,0,0,0.1c0.1,0,0.2,0,0.3,0c0.1-0.2,0.1-0.5,0.2-0.6  c0.1-0.1,0.2,0,0.2,0.1c0,0.2,0,0.4,0,0.5c0,0,0.1,0,0.1,0c0.1-0.1,0.2-0.3,0.3-0.4c0.1-0.2,0.3-0.3,0.5-0.4c0.1,0,0.2,0,0.2,0.1  c0,0.3-0.2,0.5-0.2,0.7c0.1,0,0.3,0,0.4,0c0.3-0.1,0.5-0.3,0.8-0.4c0,0,0.1,0,0.1,0c0.1,0.1,0.1,0.2,0.1,0.3c0.4,0,0.8-0.1,1.2-0.1  c0.7,0,1.5-0.1,2.2-0.1c0.6,0,1.3-0.1,2,0c0.1,0,0.1,0.2-0.1,0.2c-0.8-0.1-1.7,0-2.5,0c-0.7,0-1.5,0-2.2,0.1c-0.2,0-0.4,0-0.6,0  c0,0.1,0,0.2-0.1,0.3c-0.1,0.2-0.1,0.5-0.2,0.7c0,0.2,0.1,0.4,0.2,0.6c0.1,0.3,0,0.5-0.3,0.6h11.8V24z M158.1,27.8h9.5  c-0.1,0-0.1,0-0.2,0c-0.6-0.1-1.2-0.5-1.7-0.7c0,0-0.1,0-0.1-0.1c-0.1,0.2-0.3,0.3-0.4,0.4c-0.1,0-0.1,0-0.1-0.1  c0-0.1,0.1-0.3,0.1-0.4c-0.2-0.1-0.5-0.2-0.7-0.2c-0.3,0.4-0.8,1-1.3,0.9c0,0-0.1-0.1-0.1-0.1c0-0.4,0.2-0.7,0.4-1c0,0-0.1,0-0.1,0  c-0.7,0.1-1.4,0.1-2.2,0.1c-0.6,0-1.1,0-1.7,0c-0.2,0-0.5,0-0.7-0.2c0,0,0-0.1,0-0.1c0.4-0.2,0.9-0.2,1.4-0.2c0.7,0,1.3,0,2,0.1  c0.4,0,0.7,0.1,1.1,0.1c0.1,0,0.2,0,0.3,0c0,0,0.1-0.1,0.1-0.1c0.2-0.3,0.5-0.7,0.7-1c0.1-0.1,0.6-0.8,0.2-0.7  c-0.1,0-0.2-0.1-0.1-0.2h-6.3V27.8z M159.9,26.1c-0.1,0-0.3,0-0.4,0c0,0-0.4,0.1-0.4,0.1c0.2,0,0.3,0,0.5,0c0.7,0.1,1.4,0,2.1,0  c0.2,0,0.3,0,0.5,0C161.4,26.1,160.7,26.1,159.9,26.1z M190.5,13h-32.3c-1.4,0-2.5,1.1-2.5,2.5v1.9H193v-1.9  C193,14.1,191.9,13,190.5,13z"></path>
<path class="st9" d="M174,11.9c-11.8-6.5-3.3-14.5,0-9.1C177.3-2.6,185.8,5.4,174,11.9z"></path>
<g>
	<g>
		<path class="st0" d="M233.6,35.1c0.9,0.9,1,2.4,0.1,3.2c-0.9,0.9-2.3,0.8-3.2-0.1l-9.6-10.5c-0.7,0-1.4-0.2-2.2-0.5l3.5-3.5    l2.3,2.3L233.6,35.1z M213.4,23.5l4.3-4.3l-4.4-4.4c-3.5-3.5-6.9-6.9-9-9c-0.3-0.3-0.7-0.4-1.1-0.4c-0.3,0-0.7,0.3-0.8,1    c-0.3,2.9,1.8,8,9.5,15.6C212.5,22.6,213,23.1,213.4,23.5z M221.4,11.5L222,11c0,0,0,0,0,0L221.4,11.5z M237.5,10.5    c-0.5-0.5-1.2-0.6-1.5-0.3l-6.8,6.8c-0.3,0.3-1,0.3-1.4-0.2c-0.4-0.4-0.5-1.1-0.2-1.4l6.8-6.8c0.3-0.3,0.2-1-0.3-1.5    c-0.5-0.5-1.2-0.6-1.5-0.3l-6.8,6.8c-0.3,0.3-1,0.3-1.4-0.2c-0.4-0.4-0.5-1.1-0.2-1.4l6.8-6.8c0.3-0.3,0.2-1-0.3-1.5    c-0.5-0.5-1.2-0.6-1.5-0.3L222,11c-2.4,2.4-1.6,4.1-0.3,5.6l-19,19c-0.9,0.9-1,2.4-0.1,3.2c0.9,0.9,2.3,0.8,3.2-0.1l19-19    c1.5,1.4,3.2,2.1,5.6-0.3l7.4-7.4C238.1,11.7,238,11,237.5,10.5z"></path>
	</g>
</g>
<polygon class="st7" points="220.8,10 218.4,8.7 216,10 216.5,7.3 214.5,5.5 217.2,5.1 218.4,2.7 219.6,5.1 222.2,5.5 220.3,7.3 "></polygon>
<rect x="-135.3" y="51.6" style="fill:none;" width="28.3" height="3.8"></rect>
<text transform="matrix(1 0 0 1 -135.334 54.417)" style="font-family:'MyriadPro-Regular'; font-size:4px;">Hoteles. </text>
<g>
	<path class="st0" d="M-106.6,73.6h-5.2v-2.6c0-1.1-0.9-2.1-2.1-2.1c-1.1,0-2.1,0.9-2.1,2.1v2.6h-9.4v-2.6c0-1.1-0.9-2.1-2.1-2.1   c-1.1,0-2.1,0.9-2.1,2.1v2.6h-5.2c-0.9,0-1.6,0.7-1.6,1.6v22.6c0,0.9,0.7,1.6,1.6,1.6h28.1c0.9,0,1.6-0.7,1.6-1.6V75.2   C-105,74.3-105.7,73.6-106.6,73.6z M-121.7,80.6v4.2h-4.9v-4.2H-121.7z M-119.6,80.6h4.9v4.2h-4.9V80.6z M-128.7,80.6v4.2h-4.4   v-4.2H-128.7z M-128.7,86.9V90h-4.4v-3.1H-128.7z M-126.6,86.9h4.9V90h-4.9V86.9z M-121.7,92.1v4.2h-4.9v-4.2H-121.7z M-119.6,92.1   h4.9v4.2h-4.9V92.1z M-119.6,90v-3.1h4.9V90H-119.6z M-112.5,86.9h4.4V90h-4.4V86.9z M-112.5,84.8v-4.2h4.4v4.2H-112.5z    M-133.1,92.1h4.4v4.2h-4.4V92.1z M-112.5,96.3v-4.2h4.4v4.2H-112.5z"></path>
	<polygon class="st10" points="-116.1,84.4 -117,83.9 -118,84.4 -117.8,83.4 -118.5,82.6 -117.5,82.5 -117,81.6 -116.6,82.5    -115.5,82.6 -116.3,83.4  "></polygon>
	<polygon class="st10" points="-123,89.5 -123.9,89.1 -124.8,89.6 -124.7,88.5 -125.4,87.8 -124.4,87.6 -123.9,86.7 -123.4,87.6    -122.4,87.8 -123.2,88.5  "></polygon>
</g>
<g>
	<g>
		<g>
			<path class="st0" d="M-57,98c0,0.6-0.5,1.1-1.1,1.1h-29.8c-0.6,0-1.1-0.5-1.1-1.1v-2c0-0.6,0.5-1.1,1.1-1.1h29.8     c0.6,0,1.1,0.5,1.1,1.1V98z"></path>
		</g>
		<g>
			<g>
				<path class="st0" d="M-70.4,74.8c0,0.1-0.1,0.2-0.2,0.2h-4.7c-0.1,0-0.2-0.1-0.2-0.2v-3.3c0-0.1,0.1-0.2,0.2-0.2h4.7      c0.1,0,0.2,0.1,0.2,0.2V74.8z"></path>
			</g>
			<g>
				<path class="st0" d="M-70.4,79.9c0,0.1-0.1,0.2-0.2,0.2h-4.7c-0.1,0-0.2-0.1-0.2-0.2v-3.3c0-0.1,0.1-0.2,0.2-0.2h4.7      c0.1,0,0.2,0.1,0.2,0.2V79.9z"></path>
			</g>
			<g>
				<path class="st0" d="M-70.4,84.9c0,0.1-0.1,0.2-0.2,0.2h-4.7c-0.1,0-0.2-0.1-0.2-0.2v-3.3c0-0.1,0.1-0.2,0.2-0.2h4.7      c0.1,0,0.2,0.1,0.2,0.2V84.9z"></path>
			</g>
			<g>
				<path class="st0" d="M-62.3,74.8c0,0.1-0.1,0.2-0.2,0.2h-4.7c-0.1,0-0.2-0.1-0.2-0.2v-3.3c0-0.1,0.1-0.2,0.2-0.2h4.7      c0.1,0,0.2,0.1,0.2,0.2V74.8z"></path>
			</g>
			<g>
				<path class="st0" d="M-62.3,79.9c0,0.1-0.1,0.2-0.2,0.2h-4.7c-0.1,0-0.2-0.1-0.2-0.2v-3.3c0-0.1,0.1-0.2,0.2-0.2h4.7      c0.1,0,0.2,0.1,0.2,0.2V79.9z"></path>
			</g>
			<g>
				<path class="st0" d="M-62.3,84.9c0,0.1-0.1,0.2-0.2,0.2h-4.7c-0.1,0-0.2-0.1-0.2-0.2v-3.3c0-0.1,0.1-0.2,0.2-0.2h4.7      c0.1,0,0.2,0.1,0.2,0.2V84.9z"></path>
			</g>
			<g>
				<path class="st0" d="M-78.5,74.8c0,0.1-0.1,0.2-0.2,0.2h-4.7c-0.1,0-0.2-0.1-0.2-0.2v-3.3c0-0.1,0.1-0.2,0.2-0.2h4.7      c0.1,0,0.2,0.1,0.2,0.2V74.8z"></path>
			</g>
			<g>
				<path class="st0" d="M-78.5,79.9c0,0.1-0.1,0.2-0.2,0.2h-4.7c-0.1,0-0.2-0.1-0.2-0.2v-3.3c0-0.1,0.1-0.2,0.2-0.2h4.7      c0.1,0,0.2,0.1,0.2,0.2V79.9z"></path>
			</g>
			<g>
				<path class="st0" d="M-78.5,84.9c0,0.1-0.1,0.2-0.2,0.2h-4.7c-0.1,0-0.2-0.1-0.2-0.2v-3.3c0-0.1,0.1-0.2,0.2-0.2h4.7      c0.1,0,0.2,0.1,0.2,0.2V84.9z"></path>
			</g>
		</g>
		<g>
			<path class="st0" d="M-73.1,60.2c0-0.1,0.1-0.1,0.1,0c0.2,0.4,0.5,0.8,0.7,1.3c0,0.1,0.1,0.1,0.2,0.2c0.5,0.1,1,0.2,1.5,0.2     c0.1,0,0.1,0.1,0,0.1c-0.4,0.3-0.7,0.6-1.1,1c-0.1,0.1-0.1,0.2-0.1,0.3c0.1,0.5,0.2,0.9,0.2,1.4c0,0.1,0,0.1-0.1,0.1     c-0.4-0.2-0.9-0.5-1.3-0.7c-0.1,0-0.2,0-0.3,0c-0.4,0.2-0.9,0.4-1.3,0.7c-0.1,0-0.1,0-0.1-0.1c0.1-0.5,0.1-0.9,0.2-1.4     c0-0.1,0-0.2-0.1-0.3c-0.4-0.3-0.7-0.6-1.1-1c-0.1-0.1,0-0.1,0-0.1c0.5-0.1,1-0.2,1.5-0.2c0.1,0,0.2-0.1,0.2-0.2     C-73.5,61-73.3,60.6-73.1,60.2"></path>
		</g>
		<g>
			<path class="st0" d="M-67.9,61.7c0-0.1,0.1-0.1,0.1,0c0.2,0.4,0.3,0.7,0.5,1.1c0,0.1,0.1,0.1,0.2,0.1c0.4,0.1,0.8,0.2,1.2,0.3     c0.1,0,0.1,0.1,0,0.1c-0.3,0.3-0.6,0.5-1,0.8c-0.1,0-0.1,0.1-0.1,0.2c0,0.4,0.1,0.8,0.1,1.2c0,0.1,0,0.1-0.1,0.1     c-0.3-0.2-0.7-0.4-1-0.6c-0.1,0-0.2,0-0.2,0c-0.4,0.2-0.7,0.3-1.1,0.5c-0.1,0-0.1,0-0.1-0.1c0.1-0.4,0.2-0.8,0.3-1.2     c0-0.1,0-0.2-0.1-0.2c-0.3-0.3-0.6-0.6-0.9-0.9c-0.1-0.1,0-0.1,0-0.1c0.4,0,0.8-0.1,1.3-0.1c0.1,0,0.2-0.1,0.2-0.1     C-68.3,62.4-68.1,62-67.9,61.7"></path>
		</g>
		<g>
			<path class="st0" d="M-78.5,61.7c0-0.1,0.1-0.1,0.1,0c0.2,0.3,0.4,0.7,0.6,1c0,0.1,0.1,0.1,0.2,0.1c0.4,0,0.8,0.1,1.3,0.1     c0.1,0,0.1,0.1,0,0.1c-0.3,0.3-0.6,0.6-0.9,0.9c-0.1,0.1-0.1,0.1-0.1,0.2c0.1,0.4,0.2,0.8,0.3,1.2c0,0.1,0,0.1-0.1,0.1     c-0.4-0.2-0.7-0.3-1.1-0.5c-0.1,0-0.2,0-0.2,0c-0.4,0.2-0.7,0.4-1.1,0.6c-0.1,0-0.1,0-0.1-0.1c0-0.4,0.1-0.8,0.1-1.2     c0-0.1,0-0.2-0.1-0.2c-0.3-0.3-0.6-0.5-1-0.8c-0.1,0,0-0.1,0-0.1c0.4-0.1,0.8-0.2,1.2-0.3c0.1,0,0.2-0.1,0.2-0.1     C-78.9,62.4-78.7,62-78.5,61.7"></path>
		</g>
		<g>
			<path class="st0" d="M-63.6,64.9C-63.5,64.8-63.5,64.8-63.6,64.9c0.2,0.3,0.3,0.5,0.4,0.8c0,0,0.1,0.1,0.1,0.1     c0.3,0.1,0.6,0.2,0.8,0.2c0,0,0.1,0,0,0.1c-0.2,0.2-0.5,0.3-0.7,0.5c0,0-0.1,0.1-0.1,0.1c0,0.3,0,0.6,0,0.8c0,0,0,0.1-0.1,0     c-0.2-0.2-0.5-0.3-0.7-0.5c0,0-0.1,0-0.2,0c-0.3,0.1-0.5,0.2-0.8,0.3c0,0-0.1,0-0.1-0.1c0.1-0.3,0.2-0.5,0.2-0.8c0,0,0-0.1,0-0.2     c-0.2-0.2-0.4-0.4-0.6-0.6c0,0,0-0.1,0-0.1c0.3,0,0.6,0,0.9,0c0.1,0,0.1,0,0.1-0.1C-63.9,65.3-63.7,65.1-63.6,64.9"></path>
		</g>
		<g>
			<path class="st0" d="M-82.5,64.9C-82.5,64.9-82.4,64.9-82.5,64.9c0.2,0.2,0.4,0.5,0.6,0.7c0,0,0.1,0.1,0.1,0.1c0.3,0,0.6,0,0.9,0     c0.1,0,0.1,0,0,0.1c-0.2,0.2-0.4,0.4-0.6,0.6c0,0,0,0.1,0,0.2c0.1,0.3,0.2,0.5,0.2,0.8c0,0,0,0.1-0.1,0.1     c-0.3-0.1-0.5-0.2-0.8-0.3c0,0-0.1,0-0.2,0c-0.2,0.2-0.5,0.3-0.7,0.5c0,0-0.1,0-0.1,0c0-0.3,0-0.6,0-0.8c0,0,0-0.1-0.1-0.1     c-0.2-0.2-0.5-0.3-0.7-0.5c0,0,0-0.1,0-0.1c0.3-0.1,0.6-0.2,0.8-0.2c0,0,0.1-0.1,0.1-0.1C-82.7,65.5-82.6,65.2-82.5,64.9"></path>
		</g>
		<g>
			<g>
				<path class="st2" d="M-80.2,66.5c0,0-0.1,0.1,0,0.2c0.1,0.2,0.1,0.4,0.2,0.7H-66c0.1-0.2,0.1-0.5,0.2-0.7c0-0.1,0-0.2,0-0.2      c0,0-0.1-0.1-0.1-0.1H-80C-80.1,66.4-80.1,66.5-80.2,66.5z"></path>
			</g>
			<g>
				<g>
					<path class="st2" d="M-84.9,97.3h23.8c1.1,0,2-0.9,2-2h-1c0,0.5-0.4,0.9-0.9,0.9h-23.8c-0.5,0-0.9-0.4-0.9-0.9h-1       C-86.8,96.4-86,97.3-84.9,97.3z"></path>
				</g>
				<g>
					<path class="st2" d="M-85.8,93.7V68.3c0-0.5,0.4-0.9,0.9-0.9h0.6c0-0.1,0-0.3,0-0.4c0-0.1,0-0.1-0.1-0.2       c-0.2-0.1-0.4-0.3-0.6-0.4l0,0c-1.1,0-1.9,0.9-1.9,2v25.4H-85.8z"></path>
				</g>
				<g>
					<path class="st2" d="M-61.1,67.4c0.5,0,0.9,0.4,0.9,0.9v25.4h1V68.3c0-1.1-0.9-2-1.9-2l0,0c-0.2,0.1-0.3,0.2-0.5,0.4       c-0.1,0-0.1,0.1-0.1,0.2c0,0.2,0,0.3,0,0.5H-61.1z"></path>
				</g>
			</g>
		</g>
		<g>
			<path class="st0" d="M-67.8,94v-6.8c0-0.3-0.2-0.5-0.5-0.5h-9.4c-0.3,0-0.5,0.2-0.5,0.5V94H-67.8z"></path>
		</g>
	</g>
</g>
<path class="st0" d="M-120.7,61c-2.4,0-4.3,1.9-4.3,4.3c0,0.9,0.3,1.8,0.8,2.5l0.1,0.2l3.1,4.3c0.1,0.1,0.2,0.1,0.3,0.1  s0.2-0.1,0.3-0.1l3-4.3l0.2-0.2c0.5-0.7,0.8-1.6,0.8-2.5C-116.4,62.9-118.3,61-120.7,61z M-120.7,66.7c-0.8,0-1.4-0.6-1.4-1.4  c0-0.8,0.6-1.4,1.4-1.4c0.8,0,1.4,0.6,1.4,1.4C-119.3,66.1-119.9,66.7-120.7,66.7z"></path>
<g>
	<g>
		<path class="st0" d="M-79.6,125.7c0.1-0.1,0.2-0.3,0.2-0.4l-0.3-2c0-0.1,0-0.3,0.1-0.4l1.4-1.4c0.1-0.1,0.2-0.3,0.1-0.4    c-0.1-0.2-0.2-0.3-0.3-0.3l-2-0.3c-0.1,0-0.3-0.1-0.3-0.2l-0.9-1.8c-0.1-0.1-0.2-0.2-0.4-0.2c-0.2,0-0.3,0.1-0.4,0.2l-0.9,1.8    c-0.1,0.1-0.2,0.2-0.3,0.2l-2,0.3c-0.2,0-0.3,0.1-0.3,0.3c-0.1,0.2,0,0.3,0.1,0.4l1.4,1.4c0.1,0.1,0.1,0.2,0.1,0.4l-0.3,2    c0,0.2,0,0.3,0.2,0.4c0.1,0.1,0.3,0.1,0.5,0l1.8-0.9c0.1-0.1,0.3-0.1,0.4,0l1.8,0.9C-79.9,125.8-79.8,125.7-79.6,125.7z"></path>
		<path class="st0" d="M-70.3,125.7c0.1-0.1,0.2-0.3,0.2-0.4l-0.3-2c0-0.1,0-0.3,0.1-0.4l1.4-1.4c0.1-0.1,0.2-0.3,0.1-0.4    c-0.1-0.2-0.2-0.3-0.3-0.3l-2-0.3c-0.1,0-0.3-0.1-0.3-0.2l-0.9-1.8c-0.1-0.1-0.2-0.2-0.4-0.2c-0.2,0-0.3,0.1-0.4,0.2l-0.9,1.8    c-0.1,0.1-0.2,0.2-0.3,0.2l-2,0.3c-0.2,0-0.3,0.1-0.3,0.3c-0.1,0.2,0,0.3,0.1,0.4l1.4,1.4c0.1,0.1,0.1,0.2,0.1,0.4l-0.3,2    c0,0.2,0,0.3,0.2,0.4c0.1,0.1,0.3,0.1,0.5,0l1.8-0.9c0.1-0.1,0.3-0.1,0.4,0l1.8,0.9C-70.6,125.8-70.4,125.7-70.3,125.7z"></path>
		<path class="st0" d="M-73.8,130.1l-2-0.3c-0.1,0-0.3-0.1-0.3-0.2l-0.9-1.8c-0.1-0.1-0.2-0.2-0.4-0.2c-0.2,0-0.3,0.1-0.4,0.2    l-0.9,1.8c-0.1,0.1-0.2,0.2-0.3,0.2l-2,0.3c-0.2,0-0.3,0.1-0.3,0.3c-0.1,0.2,0,0.3,0.1,0.4l1.4,1.4c0.1,0.1,0.1,0.2,0.1,0.4    l-0.3,2c0,0.2,0,0.3,0.2,0.4c0.1,0.1,0.3,0.1,0.5,0l1.8-0.9c0.1-0.1,0.3-0.1,0.4,0l1.8,0.9c0.1,0.1,0.3,0.1,0.5,0    c0.1-0.1,0.2-0.3,0.2-0.4l-0.3-2c0-0.1,0-0.3,0.1-0.4l1.4-1.4c0.1-0.1,0.2-0.3,0.1-0.4C-73.5,130.2-73.7,130.1-73.8,130.1z"></path>
		<path class="st0" d="M-64.5,130.1l-2-0.3c-0.1,0-0.3-0.1-0.3-0.2l-0.9-1.8c-0.1-0.1-0.2-0.2-0.4-0.2c-0.2,0-0.3,0.1-0.4,0.2    l-0.9,1.8c-0.1,0.1-0.2,0.2-0.3,0.2l-2,0.3c-0.2,0-0.3,0.1-0.3,0.3c-0.1,0.2,0,0.3,0.1,0.4l1.4,1.4c0.1,0.1,0.1,0.2,0.1,0.4    l-0.3,2c0,0.2,0,0.3,0.2,0.4c0.1,0.1,0.3,0.1,0.5,0l1.8-0.9c0.1-0.1,0.3-0.1,0.4,0l1.8,0.9c0.1,0.1,0.3,0.1,0.5,0    c0.1-0.1,0.2-0.3,0.2-0.4l-0.3-2c0-0.1,0-0.3,0.1-0.4l1.4-1.4c0.1-0.1,0.2-0.3,0.1-0.4C-64.2,130.2-64.3,130.1-64.5,130.1z"></path>
		<path class="st0" d="M-59.8,120.8l-2-0.3c-0.1,0-0.3-0.1-0.3-0.2l-0.9-1.8c-0.1-0.1-0.2-0.2-0.4-0.2c-0.2,0-0.3,0.1-0.4,0.2    l-0.9,1.8c-0.1,0.1-0.2,0.2-0.3,0.2l-2,0.3c-0.2,0-0.3,0.1-0.3,0.3c0,0.2,0,0.3,0.1,0.4l1.4,1.4c0.1,0.1,0.1,0.2,0.1,0.4l-0.3,2    c0,0.2,0,0.3,0.2,0.4c0.1,0.1,0.3,0.1,0.5,0l1.8-0.9c0.1-0.1,0.3-0.1,0.4,0l1.8,0.9c0.1,0.1,0.3,0.1,0.5,0    c0.1-0.1,0.2-0.3,0.2-0.4l-0.3-2c0-0.1,0-0.3,0.1-0.4l1.4-1.4c0.1-0.1,0.2-0.3,0.1-0.4C-59.5,120.9-59.6,120.8-59.8,120.8z"></path>
		<path class="st0" d="M-57.6,112.3h-30.1c-2,0-3.6,1.6-3.6,3.6v21.4c0,2,1.6,3.7,3.6,3.7h30.1c2,0,3.6-1.7,3.6-3.7V116    C-54,113.9-55.6,112.3-57.6,112.3z M-57.2,137.3c0,0.3-0.2,0.5-0.5,0.5h-30.2c-0.3,0-0.5-0.2-0.5-0.5v-21.4c0-0.3,0.2-0.5,0.5-0.5    h30.2c0.3,0,0.5,0.2,0.5,0.5V137.3z"></path>
	</g>
</g>
<g>
	<g>
		<path class="st11" d="M-115.6,138.4h-1V109c0-0.3,0.2-0.5,0.5-0.5h0c0.3,0,0.5,0.2,0.5,0.5V138.4z"></path>
		<path class="st0" d="M-116.1,109.3l-8.2,10.2c0,0,0.9,1.6,2,1.6c1.1,0,6.2,0,6.2,0s5.1,0,6.2,0c1.1,0,2-1.6,2-1.6L-116.1,109.3z"></path>
		<path class="st12" d="M-116.1,109.3c0,0-5.3,11.9-4.2,11.9c1.1,0,4.2,0,4.2,0s3.1,0,4.2,0C-110.7,121.2-116.1,109.3-116.1,109.3z"></path>
		<path class="st0" d="M-116.1,109.3c0,0,7.2,9.4,8,10.2c0.5,0.6,1.1,1.2,1.7,1.2c1.7,0.1,4.4-2.5,4.4-2.5c0,0,0-2-2.1-3.1    C-109,112.6-116.1,109.3-116.1,109.3z"></path>
		<path class="st12" d="M-116.1,109.3c0,0-7.2,9.4-8,10.2c-0.5,0.6-1.1,1.2-1.7,1.2c-1.7,0.1-4.4-2.5-4.4-2.5c0,0,0-2,2.1-3.1    C-123.1,112.6-116.1,109.3-116.1,109.3z"></path>
		<path class="st12" d="M-116.1,109.3c0,0,10.7,11.3,11.3,11.1c1.4-0.7,2.8-2,2.8-2C-102,118.3-116.1,109.3-116.1,109.3z"></path>
		<path class="st0" d="M-116.1,109.3c0,0-11,11.2-11.6,10.9c-1.3-0.7-2.4-1.8-2.4-1.8C-130.1,118.3-116.1,109.3-116.1,109.3z"></path>
	</g>
</g>
<g>
	<g>
		<path class="st13" d="M-127.6,137.2l-2.3,5.5c-0.2,0.5,0.2,1.1,0.7,1.1h0c0.3,0,0.6-0.2,0.7-0.5l1.7-4.4c0.1-0.3,0.4-0.5,0.8-0.5    h14.2c0.3,0,0.6,0.2,0.8,0.5l1.7,4.4c0.1,0.3,0.4,0.5,0.7,0.5h0c0.6,0,0.9-0.6,0.7-1.1l-2.2-5.6c-0.1-0.3-0.4-0.5-0.7-0.5h-1.2    h-3.1l-2.4-5.6c-0.1-0.3-0.4-0.4-0.7-0.4h-10.2l-2.7-6.8c-0.1-0.3-0.4-0.5-0.7-0.5h0c-0.6,0-0.9,0.6-0.7,1.1l4.6,11.7    C-127.5,136.5-127.5,136.9-127.6,137.2z M-118.1,133l1.3,3.2c0.1,0.2-0.1,0.5-0.3,0.5h-8.4c-0.1,0-0.3-0.1-0.3-0.2l-1.3-3.2    c-0.1-0.2,0.1-0.5,0.3-0.5h8.4C-118.2,132.8-118.1,132.9-118.1,133z"></path>
		<path class="st12" d="M-131.9,124.7l-6.1,2.5l5.2,12.7l15.8,0.5l0.6,0.4l5.4-2l-0.3-0.7c-0.1-0.3-0.4-0.5-0.7-0.5l-14.8-0.1    L-131.9,124.7z"></path>
		<path class="st12" d="M-132.8,140l15.8,0.5l0.6,0.4l5.4-2l-0.3-0.7c-0.1-0.3-0.4-0.5-0.7-0.5l-14.8-0.1L-132.8,140z"></path>
		<path class="st13" d="M-134.2,139.7l-2.3,5.5c-0.2,0.5,0.2,1.1,0.7,1.1h0c0.3,0,0.6-0.2,0.7-0.5l1.7-4.4c0.1-0.3,0.4-0.5,0.8-0.5    h14.2c0.3,0,0.6,0.2,0.8,0.5l1.7,4.4c0.1,0.3,0.4,0.5,0.7,0.5h0c0.6,0,0.9-0.6,0.7-1.1l-2.2-5.6c-0.1-0.3-0.4-0.5-0.7-0.5h-1.2    h-3.1l-2.4-5.6c-0.1-0.3-0.4-0.4-0.7-0.4h-10.2l-2.7-6.8c-0.1-0.3-0.4-0.5-0.7-0.5h0c-0.6,0-0.9,0.6-0.7,1.1l4.6,11.7    C-134,139-134,139.4-134.2,139.7z M-124.6,135.5l1.3,3.2c0.1,0.2-0.1,0.5-0.3,0.5h-8.4c-0.1,0-0.3-0.1-0.3-0.2l-1.3-3.2    c-0.1-0.2,0.1-0.5,0.3-0.5h8.4C-124.8,135.3-124.7,135.4-124.6,135.5z"></path>
	</g>
</g>
<g>
	<g>
		<path class="st14" d="M-3.5-24C-4-23.6-4.5-23.2-5-22.8c-0.9,0.6-0.9,0.8-0.2,1.7c0.5,0.5,0.4,0.7-0.2,1c-0.5,0.2-1,0.5-1.4,0.8    c-0.7,0.5-0.9,1.3-0.4,2.1c0.2,0.4,0.5,0.7,0.8,1c0.1,0.1,0.2,0.2,0.3,0.4c0.5,0.7,0.4,1.3-0.2,1.9C-7-13.4-7.8-13-8.7-12.8    c-0.9,0.2-1.9,0.4-2.7,1c-0.2,0.1-0.4,0.2-0.5,0.4c-0.3,0.3-0.5,0.3-0.9,0.2c-0.8-0.2-1.6-0.4-2.4-0.6c-0.2,0-0.4,0-0.8,0    c0.2,1,0.3,1.9,0.6,2.8c0.2,0.8,1,1.1,1.8,1.3c0.1,0,0.2,0,0.4,0.1c-0.5,0.5-0.9,0.9-1.3,1.2c-1.5,1.1-2.9,2.2-4.5,3.2    c-1.5,1-3.5,0.2-4.3-1.5c-0.3-0.6-0.4-1.2-0.6-1.8c-0.3-0.9-0.7-1.7-1.5-2.2c-0.1-0.1-0.1-0.1-0.2-0.2c0.8-1.2,0.6-2.5,0.2-3.7    c-0.1-0.5-0.3-0.9-0.4-1.4c-0.2-0.9-0.2-1.8,0.2-2.6c0.1-0.3,0.3-0.5,0.5-0.7c0.3-0.5,0.2-0.8-0.4-0.8c-0.4,0-0.8,0-1.3,0.1    c-0.8,0-1.6,0.1-2.4,0.1c-1.1-0.1-2-0.7-2.7-1.6c-0.3-0.5-0.8-0.8-1.4-0.8c-1,0-1.9,0-2.9,0c-0.3,0-0.7,0-1-0.1    c-0.9-0.3-1.2-1-1.4-1.8c0-0.2-0.1-0.4-0.1-0.6c0-0.6-0.2-1.2-0.5-1.7c-0.2-0.3-0.3-0.7-0.4-1.1c-0.1-0.4-0.4-0.5-0.7-0.6    c-0.9-0.2-0.8-0.2-0.5-1.1c0.2-0.6,0.4-1.3,0.6-1.9c0.3-1.3,1.1-2.4,2-3.3c0.4-0.4,0.9-0.4,1.3,0c0.2,0.1,0.3,0.3,0.5,0.5    c0.4,0.5,0.9,0.6,1.4,0.4c0.5-0.2,0.9-0.4,1.4-0.7c1.1-0.6,2.2-0.8,3.4-0.8c1.3,0.1,2.3,0.7,3.1,1.8c0.1,0.1,0.2,0.2,0.2,0.4    c0.3,0.5,0.8,0.7,1.4,0.7c1.1-0.1,2.3-0.3,3.5-0.1c0.6,0.1,1.2,0.4,1.9,0.6c0.4,0.2,0.8,0.4,1.2,0.6c1,0.4,2,0,2.5-0.9    c0.2-0.4,0.3-0.8,0.5-1.2c0.1-0.2,0.2-0.4,0.3-0.5c0.2-0.2,0.4-0.2,0.6,0.1c0.6,0.7,1.3,1,2.2,0.9c0.8-0.1,1.6-0.1,2.4-0.1    c0.2,0,0.5,0.1,0.7,0.3c-0.3,0.1-0.6,0.3-0.9,0.4c-0.3,0.1-0.6,0.3-0.9,0.4c0.3,0.6,0.7,0.9,1.3,1.1c0.9,0.3,1.7,0.6,2.6,0.8    c0.1,0,0.3,0.1,0.4,0.2c0.7,0.4,1,0.9,0.8,1.6c0,0.2-0.1,0.5-0.2,0.7c-0.1,0.4,0.1,0.6,0.5,0.5c0.2,0,0.4-0.1,0.7-0.1    c0.9-0.2,1.3,0.1,1.7,0.8C-3.5-24.2-3.5-24.1-3.5-24z"></path>
	</g>
</g>
<polygon class="st0" points="-25.7,-34 -26.7,-34.6 -27.8,-34 -27.6,-35.2 -28.5,-36.1 -27.3,-36.2 -26.7,-37.3 -26.2,-36.2   -25,-36.1 -25.9,-35.2 "></polygon>
<polygon class="st0" points="-19.7,-36 -20.7,-36.6 -21.8,-36 -21.6,-37.2 -22.5,-38.1 -21.3,-38.2 -20.7,-39.3 -20.2,-38.2   -19,-38.1 -19.9,-37.2 "></polygon>
<polygon class="st0" points="-14.7,-34 -15.7,-34.6 -16.8,-34 -16.6,-35.2 -17.5,-36.1 -16.3,-36.2 -15.7,-37.3 -15.2,-36.2   -14,-36.1 -14.9,-35.2 "></polygon>
<path class="st0" d="M21.5,8.6L5,5L1.3,21.7l16.5,3.6L21.5,8.6z M1.6,21.4L3,15l-1,6.1l4.4,1.4L1.6,21.4z M9,12.9  C9,12.9,9,12.9,9,12.9c0,0.2-0.1,0.4-0.1,0.7c-0.1-0.2-0.2-0.4-0.4-0.4l-2.3-0.1c-0.1,0-0.3,0-0.4,0.1c-0.1,0.1-0.2,0.2-0.2,0.3  l-0.1,2.3c0,0.2,0.1,0.4,0.4,0.5c0,0,0.1,0,0.1,0l2.3,0.1l0,0l-2.3-0.1c-0.3,0-0.5-0.3-0.5-0.5L5.6,13c0-0.3,0.3-0.5,0.5-0.5L9,12.6  c0,0,0.1,0,0.1,0c0,0,0,0.1,0,0.1l-2.9-0.2L9,12.9z M8.2,13.6c0.1,0,0.2,0.1,0.2,0.3l0.1,1.3c-0.1,0.4-0.2,0.8-0.2,1.1l0,0L6,16.2  c-0.2,0-0.3-0.2-0.3-0.4l0.1-2.3c0-0.1,0-0.2,0.1-0.2c0.1-0.1,0.2-0.1,0.3-0.1l2.3,0.1c0,0,0,0,0.1,0c0.2,0,0.3,0.2,0.3,0.4l0,0.5  c0,0.2-0.1,0.4-0.1,0.6l0-1c0-0.2-0.1-0.3-0.3-0.4l-2.2-0.2L8.2,13.6z M9.1,12.5l-3-0.1c-0.3,0-0.6,0.2-0.6,0.5l-0.1,3  c0,0.3,0.2,0.6,0.5,0.6l2.4,0.1c0,0.2-0.1,0.4-0.1,0.6l-2.3-0.1c-0.1,0-0.1,0-0.2,0c-0.6-0.1-1-0.6-0.9-1.2l0.1-3  c0-0.3,0.2-0.6,0.4-0.8c0.2-0.2,0.5-0.3,0.9-0.3l3,0.1c0.1,0,0.1,0,0.2,0C9.2,12.1,9.2,12.3,9.1,12.5C9.1,12.5,9.1,12.5,9.1,12.5z   M9.4,11.4l-4.5-1l-1.9,8.5l4.5,1c0,0.1-0.1,0.3-0.1,0.4l-4.9-1.1l3-13.6l4.9,1.1C10.2,7.7,9.8,9.4,9.4,11.4z M7.6,20.3  c0-0.1,0.1-0.3,0.1-0.4L13,21c0,0.1-0.1,0.3-0.1,0.4L7.6,20.3z M8.6,15.8c0-0.2,0.1-0.3,0.1-0.5l0,0.7c0,0.1,0,0.2-0.1,0.2  c0,0,0,0-0.1,0C8.5,16.1,8.6,16,8.6,15.8l0,0.2L8.6,15.8z M8.6,16.3c0.1-0.1,0.2-0.2,0.2-0.3l0.1-1.4c0.1-0.5,0.2-1,0.3-1.5  c0,0,0,0,0,0.1L9.3,16l0.1-2.9c0-0.1-0.1-0.2-0.2-0.3c0,0,0,0,0-0.1c0.1,0.1,0.2,0.2,0.2,0.4L9.3,16c0,0.3-0.3,0.5-0.5,0.5l-0.3,0  c0,0,0,0,0,0C8.5,16.4,8.6,16.4,8.6,16.3z M8.9,16.6c0.3,0,0.6-0.2,0.6-0.5l0.1-3c0-0.2-0.1-0.4-0.3-0.5c0-0.2,0.1-0.4,0.1-0.6  c0.5,0.2,0.8,0.6,0.8,1.2l-0.1,3c0,0.7-0.6,1.2-1.3,1.1l-0.6,0c0-0.2,0.1-0.4,0.1-0.6L8.9,16.6z M14.2,15.6  c-0.2,1.1-0.5,2.3-0.7,3.3L11.9,18c-0.1-0.1-0.2-0.2-0.1-0.4l1-2.4l-1.2,2.4c-0.1,0.2,0,0.5,0.2,0.6l1.7,0.8c0,0,0,0.1,0,0.1  l-1.9-0.9c-0.2-0.1-0.3-0.4-0.2-0.6l1.2-2.5c0.1-0.2,0.3-0.3,0.5-0.2c0,0,0.1,0,0.1,0l1,0.5c0,0,0,0.1,0,0.1l-1.1-0.6L14.2,15.6z   M13.2,14.7c-0.3-0.1-0.7,0-0.8,0.3l-1.2,2.5c-0.1,0.3,0,0.7,0.3,0.8l1.9,0.9l0,0l-2-1c-0.3-0.2-0.4-0.5-0.3-0.9l1.5-3.1  c0.2-0.3,0.5-0.4,0.9-0.3l0,0l0.9,0.5c0,0.2-0.1,0.4-0.1,0.7L13.2,14.7z M13.5,14l0.9,0.4c0,0,0,0,0,0L13.5,14z M13.5,13.8  c-0.3-0.2-0.7,0-0.9,0.3L11,17.5c-0.2,0.3,0,0.7,0.3,0.9l2.1,1c0,0.2-0.1,0.4-0.1,0.7L11,19c-0.3-0.2-0.6-0.4-0.7-0.8  c-0.1-0.3-0.1-0.7,0.1-1l1.6-3.3c0.3-0.7,1.1-0.9,1.8-0.6l0.8,0.4c0,0.2-0.1,0.4-0.1,0.7L13.5,13.8z M14.8,12.6l-5.3-1.2  c0.4-1.7,0.7-3.3,1-4.8l5.4,1.2C15.7,8.9,15.3,10.6,14.8,12.6z M13.6,19c0.2-1,0.5-2.1,0.7-3.3l1,0.6c0.1,0.1,0.2,0.2,0.1,0.4  l-0.9,2.5l1.1-2.5c0.1-0.2,0-0.5-0.2-0.6l-1.1-0.6c0,0,0-0.1,0-0.1l1.3,0.6c0.2,0.1,0.3,0.4,0.2,0.6l-1.2,2.5  c-0.1,0.2-0.4,0.3-0.6,0.2l-0.5-0.3C13.6,19.1,13.6,19.1,13.6,19l0.5,0.3L13.6,19z M14,19.6c0,0,0.1,0,0.1,0  c0.3,0.1,0.5-0.1,0.7-0.3l1.2-2.5c0.1-0.3,0-0.7-0.3-0.8l-1.3-0.6c0-0.2,0.1-0.4,0.1-0.6l2,1.2c0.1,0.1,0.2,0.2,0.1,0.4l-1.3,3.2  l1.5-3.2c0.1-0.2,0-0.5-0.2-0.6l-2.1-1.1c0,0,0,0,0,0l2,1c0.3,0.2,0.4,0.5,0.3,0.9l-1.5,3.1c-0.2,0.3-0.5,0.4-0.9,0.3l-1-0.5l0,0  L14,19.6z M14.6,20c0.3,0.2,0.7,0,0.9-0.3l1.6-3.3c0.2-0.3,0-0.7-0.3-0.9l-2.2-1c0-0.2,0.1-0.4,0.1-0.7l2.3,1.1  c0.7,0.3,0.9,1.1,0.6,1.8L16.1,20c-0.3,0.6-0.9,0.9-1.5,0.7c-0.1,0-0.2-0.1-0.3-0.1l-1-0.5c0-0.2,0.1-0.4,0.2-0.7L14.6,20z M17.4,22  l1.9-8.5L15,12.6c0.4-1.7,0.7-3.3,1-4.8l4.7,1l-3,13.6l-4.7-1c0-0.1,0.1-0.3,0.1-0.4L17.4,22z M17.9,23.7L17.6,25l-4.9-1.1l0,0  l4.6,0.7l3-12L17.9,23.7z"></path>
<path class="st0" d="M28.8,16.3l-5.3,1.6L18,19.5l4.8,16.4L39,31.1l-4.8-16.4L28.8,16.3L28.8,16.3z M22.9,35.5l-1.9-6.3l2,5.8  l4.5-0.9L22.9,35.5z M25.4,25.3l-2.1,0.3c-0.1,0-0.2,0.1-0.3,0.2c-0.1,0.1-0.1,0.2-0.1,0.3l0.3,2.1c0,0.2,0.2,0.4,0.4,0.4  c0,0,0,0,0.1,0l2.1-0.3c0.1,0,0.2-0.1,0.3-0.2c0.1-0.1,0.1-0.2,0.1-0.3l-0.1-0.8c0.1,0.4,0.2,0.8,0.4,1.2c0,0-0.1,0-0.2,0.1  l-2.5,0.4c-0.3,0-0.5-0.1-0.5-0.4l-0.4-2.5c0-0.3,0.1-0.5,0.4-0.5l0,0l2.3-0.1c0,0.1,0.1,0.3,0.1,0.4C25.5,25.3,25.5,25.2,25.4,25.3  z M25.7,25.5c0,0.2,0.1,0.3,0.1,0.5l0.3,1.7c0,0.1,0,0.2-0.1,0.2c0,0.1-0.1,0.1-0.2,0.1l-2.1,0.3c-0.2,0-0.3-0.1-0.4-0.3l-0.3-2.1  c0-0.1,0-0.2,0.1-0.2c0-0.1,0.1-0.1,0.2-0.1l2.1-0.3c0,0,0,0,0.1,0C25.5,25.4,25.6,25.4,25.7,25.5z M23.2,25.1l2.2-0.4  c0,0,0,0.1,0,0.1L23.2,25.1z M23.1,25c-0.3,0-0.5,0.3-0.4,0.6l0.4,2.7c0,0.3,0.3,0.5,0.6,0.4l2.7-0.4c0,0,0.1,0,0.1,0  c0.1,0.2,0.1,0.4,0.2,0.6c-0.1,0-0.1,0.1-0.2,0.1l-2.7,0.4c-0.1,0-0.1,0-0.2,0c-0.5,0-1-0.4-1.1-0.9l-0.4-2.7c0-0.3,0-0.6,0.2-0.8  c0.2-0.2,0.4-0.4,0.7-0.4l2.2-0.4c0.1,0.2,0.1,0.4,0.2,0.6L23.1,25z M24.9,23l-4.4,1.3l2.4,8.3l4.4-1.3c0,0.1,0.1,0.3,0.1,0.4  l-4.8,1.4l-3.9-13.4l4.8-1.4C23.9,19.3,24.3,21,24.9,23z M27.6,31.6c0-0.1-0.1-0.3-0.1-0.4l5.3-1.6c0,0.1,0.1,0.3,0.1,0.4L27.6,31.6  z M26.2,25c0-0.2-0.2-0.3-0.4-0.3l-0.2,0c0,0,0-0.1,0-0.1l0.1,0C26,24.6,26.2,24.8,26.2,25l0.5,2.6c0,0.1,0,0.3-0.1,0.4  c-0.3-1-0.6-2-0.9-3l0.1,0c0.1,0,0.2,0.1,0.2,0.2l0.6,2.5L26.2,25z M26.8,27.6l-0.4-2.7c0-0.3-0.3-0.5-0.6-0.4l-0.2,0  c-0.1-0.2-0.1-0.4-0.2-0.6l0.3,0c0.6-0.1,1.2,0.3,1.3,0.9l0.4,2.7c0.1,0.5-0.2,0.9-0.6,1.1c-0.1-0.2-0.1-0.4-0.2-0.6  C26.7,28,26.8,27.8,26.8,27.6z M31.1,24.2c0,0.2,0.1,0.3,0.1,0.5l-1.5,1c-0.2,0.2-0.3,0.5-0.1,0.7l1.4,2c0.2,0.2,0.5,0.3,0.7,0.1  l0.5-0.4c0,0,0,0,0,0l-0.6,0.4c-0.3,0.2-0.6,0.1-0.8-0.1l-1.7-2.5c-0.2-0.3-0.1-0.6,0.1-0.8L31,24c0,0,0,0,0,0.1l-1.7,1.1L31.1,24.2  z M31.4,25.1c0.3,0.9,0.6,1.9,0.8,2.7l-0.5,0.3c-0.1,0.1-0.3,0-0.4-0.1l-1.4-1.8l1.3,2c0.1,0.2,0.3,0.2,0.5,0.1l0.5-0.4  c0,0,0,0.1,0,0.1l-0.6,0.4c-0.2,0.1-0.4,0.1-0.5-0.1l-1.4-2c-0.1-0.1-0.1-0.3,0-0.5c0,0,0,0,0.1-0.1l1.4-1c0,0,0,0.1,0,0.1l-1.4,0.9  L31.4,25.1z M29.2,25.1c-0.3,0.2-0.3,0.6-0.2,0.8l1.8,2.6c0.2,0.3,0.6,0.3,0.8,0.2l0.6-0.4c0.1,0.2,0.1,0.4,0.2,0.6L32,29.2  c-0.3,0.2-0.6,0.2-0.9,0.2c-0.3-0.1-0.6-0.2-0.7-0.5l-1.8-2.6c-0.4-0.5-0.2-1.3,0.3-1.6l1.9-1.3c0.1,0.2,0.1,0.4,0.2,0.6L29.2,25.1z   M30.3,21.4l-5.2,1.5c-0.5-1.6-1-3.2-1.5-4.7l5.3-1.6C29.2,17.7,29.7,19.4,30.3,21.4z M35.1,18.6l3.2,11l0.4,1.3L34,32.3l0,0  l4.4-1.7L35.1,18.6z M33.6,15.3l3.9,13.4L33,30c0-0.1-0.1-0.3-0.1-0.4l4.2-1.2l-2.4-8.3l-4.2,1.2c-0.5-1.6-1-3.2-1.5-4.7L33.6,15.3z   M32.3,27.7c-0.2-0.9-0.5-1.8-0.8-2.7l0.4-0.2c0.1-0.1,0.3,0,0.4,0.1l1.5,1.7l-1.4-1.9c-0.1-0.2-0.3-0.2-0.5-0.1l-0.4,0.2  c0,0,0-0.1,0-0.1l0.4-0.3c0.2-0.1,0.4-0.1,0.5,0.1l1.4,2c0.1,0.2,0.1,0.4-0.1,0.5l-1.3,0.9c0,0,0-0.1,0-0.1l1.3-0.9L32.3,27.7z   M33.8,27.2C33.8,27.1,33.9,27.1,33.8,27.2c0.3-0.3,0.3-0.5,0.1-0.7l-1.4-2c-0.2-0.2-0.5-0.3-0.7-0.1l-0.4,0.3  c0-0.1-0.1-0.3-0.1-0.4l0.8-0.4c0.1-0.1,0.3,0,0.4,0.1l1.9,2.3l-1.8-2.5c-0.1-0.2-0.3-0.2-0.5-0.1L31.2,24c0,0,0-0.1,0-0.1l0.7-0.5  c0.3-0.2,0.6-0.1,0.8,0.1l1.7,2.5c0.2,0.3,0.1,0.6-0.1,0.8l-1.8,1.2l0,0L33.8,27.2z M34.4,26.9c0.3-0.2,0.3-0.6,0.2-0.8l-1.8-2.7  c-0.2-0.3-0.6-0.3-0.8-0.2l-0.7,0.5c-0.1-0.2-0.1-0.4-0.2-0.6l0.5-0.4c0.5-0.4,1.3-0.2,1.6,0.3l1.8,2.7c0.3,0.4,0.3,1-0.1,1.4  c-0.1,0.1-0.1,0.1-0.2,0.2l-2.1,1.4c-0.1-0.2-0.1-0.4-0.2-0.6L34.4,26.9z"></path>
</svg>