<svg xmlns="http://www.w3.org/2000/svg" xmlns:xlink="http://www.w3.org/1999/xlink" id="Capa_1" x="0px" y="0px" viewBox="0 0 40 40" style="enable-background:new 0 0 40 40;" xml:space="preserve">
<style type="text/css">
	.st0{fill:#7BAA39;}
	.st1{fill:#7BAA39;stroke:#7BAA39;stroke-width:0.5898;stroke-miterlimit:10;}
	.st2{fill:#7BAA39;stroke:#7BAA39;stroke-miterlimit:10;}
	.st3{fill:#FFFFFF;}
	.st4{fill:#7BAA39;stroke:#7BAA39;stroke-width:0.9877;stroke-miterlimit:10;}
	.st5{fill:#698E21;}
	.st6{fill:#7BAA39;stroke:#7BAA39;stroke-width:1.9097;stroke-miterlimit:10;}
	.st7{fill:#7BAA39;stroke:#7BAA39;stroke-width:0.5;stroke-miterlimit:10;}
	.st8{fill:#7BAA39;stroke:#7BAA39;stroke-width:0.6979;stroke-miterlimit:10;}
	.st9{fill:#7BAA39;stroke:#7BAA39;stroke-width:0.5544;stroke-miterlimit:10;}
	.st10{fill:#7BAA39;stroke:#7BAA39;stroke-width:0.7505;stroke-miterlimit:10;}
	.st11{fill:#7BAA39;stroke:#7BAA39;stroke-width:0.1953;stroke-miterlimit:10;}
	.st12{fill:#7BAA39;stroke:#7BAA39;stroke-width:1.0164;stroke-miterlimit:10;}
	.st13{fill:#AFDB6A;}
	.st14{fill:#7BAA39;stroke:#7BAA39;stroke-width:1.2975;stroke-miterlimit:10;}
	.st15{fill:#7BAA39;stroke:#7BAA39;stroke-width:1.2343;stroke-miterlimit:10;}
</style>
<path class="st0" d="M-77.9,1c-10.2,0-18.5,8.3-18.5,18.5S-88.1,38-77.9,38c10.2,0,18.5-8.3,18.5-18.5S-67.7,1-77.9,1z M-77.9,33.4  c-7.7,0-13.9-6.2-13.9-13.9s6.2-13.9,13.9-13.9c7.7,0,13.9,6.2,13.9,13.9S-70.2,33.4-77.9,33.4z M-67.9,21.1c0,1.3-1,2.3-2.3,2.3  h-9.3c-1.3,0-2.3-1-2.3-2.3v-9.3c0-1.3,1-2.3,2.3-2.3c1.3,0,2.3,1,2.3,2.3v6.9h6.9C-69,18.8-67.9,19.8-67.9,21.1z"></path>
<rect x="-64" y="-68" class="st0" width="40" height="40"></rect>
<g>
	<g>
		<path class="st0" d="M-42.4,65.5c-1.1,0-2.1-0.2-3-0.6c-0.8-0.4-1.5-1-2.1-1.6c-0.5-0.7-0.9-1.5-1.2-2.3c-0.3-0.9-0.4-1.8-0.4-2.7    c0-0.9,0.1-1.9,0.4-2.7c0.3-0.9,0.7-1.7,1.2-2.3c0.5-0.7,1.2-1.2,2.1-1.6c0.8-0.4,1.8-0.6,3-0.6c1.1,0,2.1,0.2,2.9,0.6    c0.8,0.4,1.5,1,2.1,1.6c0.6,0.7,1,1.5,1.2,2.3c0.3,0.9,0.4,1.8,0.4,2.7c0,0.9-0.1,1.8-0.4,2.7c-0.3,0.9-0.7,1.6-1.2,2.3    c-0.6,0.7-1.2,1.2-2.1,1.6C-40.3,65.3-41.3,65.5-42.4,65.5z M-42.4,62.2c0.8,0,1.4-0.4,1.8-1.1c0.4-0.7,0.6-1.7,0.6-2.9    c0-1.2-0.2-2.2-0.6-2.9c-0.4-0.7-1-1.1-1.8-1.1s-1.4,0.4-1.8,1.1c-0.4,0.7-0.6,1.7-0.6,2.9c0,1.2,0.2,2.2,0.6,2.9    C-43.8,61.9-43.2,62.2-42.4,62.2z M-26.6,51.2c0.8-0.1,1.6-0.2,2.4-0.2c0.7,0,1.5,0.1,2.4,0.2l-16.7,24.3    c-0.8,0.1-1.6,0.2-2.3,0.2c-0.8,0-1.6-0.1-2.4-0.2L-26.6,51.2z M-22.6,76c-1.1,0-2.1-0.2-3-0.6c-0.8-0.4-1.5-1-2.1-1.6    c-0.5-0.7-0.9-1.5-1.2-2.3c-0.3-0.9-0.4-1.8-0.4-2.7c0-0.9,0.1-1.9,0.4-2.7c0.3-0.9,0.7-1.7,1.2-2.3c0.5-0.7,1.2-1.2,2.1-1.6    c0.8-0.4,1.8-0.6,3-0.6c1.1,0,2.1,0.2,2.9,0.6c0.8,0.4,1.5,1,2.1,1.6c0.6,0.7,1,1.5,1.2,2.3c0.3,0.9,0.4,1.8,0.4,2.7    c0,0.9-0.1,1.8-0.4,2.7c-0.3,0.9-0.7,1.6-1.2,2.3c-0.6,0.7-1.2,1.2-2.1,1.6C-20.5,75.8-21.5,76-22.6,76z M-22.6,72.8    c0.8,0,1.4-0.4,1.8-1.1c0.4-0.7,0.6-1.7,0.6-2.9c0-1.2-0.2-2.2-0.6-2.9c-0.4-0.7-1-1.1-1.8-1.1s-1.4,0.4-1.8,1.1    c-0.4,0.7-0.6,1.7-0.6,2.9c0,1.2,0.2,2.2,0.6,2.9C-24.1,72.4-23.5,72.8-22.6,72.8z"></path>
	</g>
</g>
<path class="st0" d="M-61.8,49.2h-6.1v-3c0-1.3-1.1-2.4-2.4-2.4s-2.4,1.1-2.4,2.4v3h-10.9v-3c0-1.3-1.1-2.4-2.4-2.4  c-1.3,0-2.4,1.1-2.4,2.4v3h-6.1c-1,0-1.8,0.8-1.8,1.8v26.3c0,1,0.8,1.8,1.8,1.8h32.7c1,0,1.8-0.8,1.8-1.8V51  C-60,50-60.8,49.2-61.8,49.2z M-79.4,57.3v4.8h-5.8v-4.8H-79.4z M-77,57.3h5.8v4.8H-77V57.3z M-87.6,57.3v4.8h-5.1v-4.8H-87.6z   M-87.6,64.6v3.6h-5.1v-3.6H-87.6z M-85.1,64.6h5.8v3.6h-5.8V64.6z M-79.4,70.6v4.9h-5.8v-4.9H-79.4z M-77,70.6h5.8v4.9H-77V70.6z   M-77,68.2v-3.6h5.8v3.6H-77z M-68.8,64.6h5.1v3.6h-5.1V64.6z M-68.8,62.1v-4.8h5.1v4.8H-68.8z M-92.7,70.6h5.1v4.9h-5.1V70.6z   M-68.8,75.5v-4.9h5.1v4.9H-68.8z"></path>
<g>
	<path class="st1" d="M-55.1,63.8v-1.9h4.4v1.9H-55.1z"></path>
</g>
<g>
	<path class="st2" d="M63.4,22.8c0-1.2,3.5-2.1,4.8-3.5c1.1-1.2,2.1-2.4,1.9-4.9c-0.2-3.1-2.1-12.3-2.1-12.3H57.6   c0,0-1.9,9.2-2.1,12.3c-0.1,2.6,0.8,3.8,1.9,4.9c1.4,1.4,4.8,2.4,4.8,3.5c0,1.2,0.1,4.1,0.1,4.1h0v11.5h-4.8V39h10.6v-0.6h-4.8   V26.9C63.4,26.9,63.4,23.9,63.4,22.8z"></path>
	<g>
		<path class="st3" d="M59.2,10.7c-0.3,3.6,0,7.5,2.4,9.4c-2.6-1.2-4.3-1.9-3.8-9.4H57l1.1-8h9.5l1.1,8H59.2z"></path>
	</g>
</g>
<g>
	<path class="st0" d="M3.9,72.5c-1.4,0-2.7,1.4-2.7,3s1.3,3.1,2.7,3.1c1.4,0,2.6-1.5,2.6-3.1S5.3,72.5,3.9,72.5z"></path>
	<path class="st0" d="M13.6,48.4h22.9c1.4,0,2.5-1.2,2.5-2.8c0-1.6-1.1-2.9-2.5-2.9H13.6c-1.4,0-2.5,1.3-2.5,2.9   C11.1,47.2,12.2,48.4,13.6,48.4z"></path>
	<path class="st0" d="M3.9,42.5c-1.4,0-2.7,1.5-2.7,3.1c0,1.7,1.3,3,2.7,3c1.4,0,2.6-1.4,2.6-3C6.5,43.9,5.3,42.5,3.9,42.5z"></path>
	<path class="st0" d="M36.5,57.7H13.6c-1.4,0-2.5,1.3-2.5,2.9c0,1.6,1.1,2.9,2.5,2.9h22.9c1.4,0,2.5-1.3,2.5-2.9   C39,59,37.9,57.7,36.5,57.7z"></path>
	<path class="st0" d="M36.5,72.7H13.6c-1.4,0-2.5,1.3-2.5,2.9c0,1.6,1.1,2.9,2.5,2.9h22.9c1.4,0,2.5-1.3,2.5-2.9   C39,74,37.9,72.7,36.5,72.7z"></path>
</g>
<path class="st4" d="M-16.5,28.3c0,0.8-0.7,1.5-1.6,1.5h-35.8c-0.9,0-1.6-0.7-1.6-1.5c0-0.8,0.7-1.5,1.6-1.5h35.8  C-17.2,26.8-16.5,27.5-16.5,28.3z M-33.9,8.6c-0.1-1-0.9-1.8-1.9-1.8c-1,0-1.8,0.8-1.9,1.8c0.6-0.1,1.2-0.1,1.9-0.1  C-35.1,8.4-34.5,8.5-33.9,8.6z M-19.1,24.5h-33.3c0.7-8.6,7.9-15.4,16.7-15.4C-27,9.1-19.8,15.9-19.1,24.5z M-37.7,10.6  c0,0-9.3,2-12.1,12.4c2.5,0,3.5,0,3.5,0S-44.3,14.3-37.7,10.6z"></path>
<polygon class="st5" points="6.8,64 4.4,62.7 2,64 2.5,61.3 0.5,59.5 3.2,59.1 4.4,56.7 5.6,59.1 8.2,59.5 6.3,61.3 "></polygon>
<g>
	<path d="M3.3-2.8c0-0.4,0-0.9,0-1.2h0C3.2-3.7,3-3.3,2.9-2.9L2.4-1.6H2.1L1.7-2.9C1.5-3.3,1.4-3.6,1.3-4h0c0,0.3,0,0.8-0.1,1.2   L1.2-1.5H0.9l0.2-2.8h0.5L2-3C2.1-2.6,2.2-2.3,2.3-2h0C2.4-2.3,2.5-2.6,2.6-3l0.5-1.4h0.5l0.2,2.8H3.4L3.3-2.8z"></path>
	<path d="M6.1-2.6c0,0.7-0.5,1.1-1,1.1c-0.5,0-1-0.4-1-1c0-0.7,0.4-1.1,1-1.1C5.7-3.6,6.1-3.2,6.1-2.6z M4.5-2.5   c0,0.4,0.3,0.8,0.6,0.8c0.4,0,0.6-0.3,0.6-0.8c0-0.3-0.2-0.8-0.6-0.8C4.7-3.3,4.5-2.9,4.5-2.5z"></path>
	<path d="M6.6-3c0-0.2,0-0.4,0-0.5h0.3l0,0.3h0C7-3.4,7.2-3.6,7.6-3.6c0.3,0,0.5,0.2,0.6,0.4h0c0.1-0.1,0.1-0.2,0.2-0.3   c0.1-0.1,0.3-0.1,0.4-0.1c0.3,0,0.7,0.2,0.7,0.9v1.2H9.1v-1.1c0-0.4-0.1-0.6-0.4-0.6C8.5-3.3,8.3-3.1,8.2-3c0,0.1,0,0.1,0,0.2v1.2   H7.9v-1.2c0-0.3-0.1-0.6-0.4-0.6C7.2-3.3,7-3.1,7-2.9c0,0.1,0,0.1,0,0.2v1.2H6.6V-3z"></path>
	<path d="M10.3-2.5c0,0.5,0.3,0.7,0.7,0.7c0.3,0,0.4,0,0.6-0.1l0.1,0.3c-0.1,0.1-0.4,0.1-0.7,0.1c-0.6,0-1-0.4-1-1   c0-0.6,0.4-1.1,0.9-1.1c0.7,0,0.8,0.6,0.8,0.9c0,0.1,0,0.1,0,0.2H10.3z M11.3-2.7c0-0.2-0.1-0.6-0.5-0.6c-0.4,0-0.5,0.3-0.6,0.6   H11.3z"></path>
	<path d="M12.2-3c0-0.2,0-0.4,0-0.5h0.3l0,0.3h0c0.1-0.2,0.3-0.4,0.7-0.4c0.3,0,0.7,0.2,0.7,0.9v1.2h-0.4v-1.2   c0-0.3-0.1-0.6-0.5-0.6c-0.2,0-0.4,0.2-0.5,0.4c0,0,0,0.1,0,0.2v1.2h-0.4V-3z"></path>
	<path d="M14.9-4.1v0.6h0.5v0.3h-0.5v1.1c0,0.2,0.1,0.4,0.3,0.4c0.1,0,0.2,0,0.2,0l0,0.3c-0.1,0-0.2,0.1-0.3,0.1   c-0.2,0-0.3-0.1-0.4-0.2c-0.1-0.1-0.1-0.3-0.1-0.5v-1.1h-0.3v-0.3h0.3V-4L14.9-4.1z"></path>
	<path d="M17.6-2.6c0,0.7-0.5,1.1-1,1.1c-0.5,0-1-0.4-1-1c0-0.7,0.4-1.1,1-1.1C17.2-3.6,17.6-3.2,17.6-2.6z M16-2.5   c0,0.4,0.3,0.8,0.6,0.8c0.4,0,0.6-0.3,0.6-0.8c0-0.3-0.2-0.8-0.6-0.8C16.2-3.3,16-2.9,16-2.5z"></path>
	<path d="M18-1.9c0.1,0.1,0.3,0.1,0.5,0.1c0.3,0,0.4-0.1,0.4-0.3c0-0.2-0.1-0.3-0.4-0.4C18.2-2.6,18-2.8,18-3c0-0.3,0.3-0.6,0.7-0.6   c0.2,0,0.4,0.1,0.5,0.1l-0.1,0.3c-0.1,0-0.2-0.1-0.4-0.1c-0.2,0-0.3,0.1-0.3,0.3c0,0.2,0.1,0.2,0.4,0.3c0.4,0.1,0.5,0.3,0.5,0.6   c0,0.4-0.3,0.6-0.8,0.6c-0.2,0-0.4-0.1-0.6-0.1L18-1.9z"></path>
	<path d="M20.6-1.5c0-0.1,0-0.3,0-0.5v-2.4H21v1.3h0c0.1-0.2,0.4-0.4,0.7-0.4c0.5,0,0.9,0.4,0.8,1c0,0.7-0.5,1.1-0.9,1.1   c-0.3,0-0.5-0.1-0.7-0.4h0l0,0.3H20.6z M21-2.3c0,0,0,0.1,0,0.1c0.1,0.3,0.3,0.4,0.5,0.4c0.4,0,0.6-0.3,0.6-0.8   c0-0.4-0.2-0.7-0.6-0.7c-0.2,0-0.5,0.2-0.6,0.4c0,0,0,0.1,0,0.1V-2.3z"></path>
	<path d="M24.8-2.6c0,0.7-0.5,1.1-1,1.1c-0.5,0-1-0.4-1-1c0-0.7,0.4-1.1,1-1.1C24.4-3.6,24.8-3.2,24.8-2.6z M23.2-2.5   c0,0.4,0.3,0.8,0.6,0.8c0.4,0,0.6-0.3,0.6-0.8c0-0.3-0.2-0.8-0.6-0.8C23.4-3.3,23.2-2.9,23.2-2.5z"></path>
	<path d="M27-4.5v2.4c0,0.2,0,0.4,0,0.5h-0.3l0-0.3h0c-0.1,0.2-0.4,0.4-0.7,0.4c-0.5,0-0.9-0.4-0.9-1c0-0.7,0.4-1.1,0.9-1.1   c0.3,0,0.5,0.1,0.6,0.3h0v-1.2H27z M26.7-2.7c0,0,0-0.1,0-0.2c-0.1-0.2-0.3-0.4-0.5-0.4c-0.4,0-0.6,0.3-0.6,0.8   c0,0.4,0.2,0.7,0.6,0.7c0.2,0,0.5-0.2,0.5-0.4c0-0.1,0-0.1,0-0.2V-2.7z"></path>
	<path d="M27.5-1.8c0-0.2,0.1-0.3,0.2-0.3C27.9-2,28-1.9,28-1.8c0,0.1-0.1,0.3-0.2,0.3C27.6-1.5,27.5-1.6,27.5-1.8z"></path>
</g>
<rect x="97.7" y="-5.8" style="fill:none;" width="36.3" height="2.8"></rect>
<text transform="matrix(1 0 0 1 97.667 -3.7036)" style="font-family:'MyriadPro-Regular'; font-size:3px;">Regalate gastronomía. </text>
<g>
	<rect x="108.1" y="14.3" class="st6" width="20.9" height="0.9"></rect>
	<rect x="108.1" y="19.3" class="st6" width="20.9" height="0.9"></rect>
	<path class="st6" d="M129.5,1.9H107c-2.8,0-5.2,1.9-5.2,4.2v18.1c0,2.3,2.3,4.2,5.2,4.2h1.7l6.2,9.6l0.1,0.1l6.3-9.7h8.2   c2.8,0,5.1-1.9,5.1-4.2V6.1C134.6,3.8,132.3,1.9,129.5,1.9z M129.5,27.6h-8.7l-5.8,9l-5.7-8.9l0-0.1H107c-2.3,0-4.2-1.5-4.2-3.3   V6.1c0-1.8,1.9-3.3,4.2-3.3h22.4c2.3,0,4.2,1.5,4.2,3.3v18.1C133.7,26.1,131.8,27.6,129.5,27.6z"></path>
</g>
<polygon class="st7" points="120.8,12 118.4,10.7 116,12 116.5,9.3 114.5,7.5 117.2,7.1 118.4,4.7 119.6,7.1 122.2,7.5 120.3,9.3   "></polygon>
<g>
	<path class="st0" d="M155.7,21v9c-0.6,0.1-1.8,0.3-3.3,0.3c-1.5,0-2.8-0.2-3.3-0.2v-9c0-0.1,0.1-2.8,3.3-2.8   C155.7,18.2,155.7,20.9,155.7,21z M150.4,6.4c0,0,0,0.5,0,1.2h0.5V3.5h0.8v4.2h2.7c0-0.7,0-1.2,0-1.2h0V3h0.2V1.4h-0.2V0.8h-2.7   v0.6h-0.2v1.6h-0.8V1.4h0.2V0.8h-0.5v0.6h-0.2V3h0.2V6.4z M156.9,12.7c0.8,1,1,2,1,4.1v21.8c0,0.8-2.5,1.4-5.5,1.4   c-3,0-5.5-0.6-5.5-1.4V16.8c0-2.1,0.2-3.1,1-4.1c1-1.3,2.4-1.9,2.4-2.9c0-0.3,0-0.8,0-1.3h0.6v1.2c0,0,0,1.4-1,2.3l-0.1,0.1   c-1.2,1.1-2.2,2-2.2,4.6v21.9l0.8,0.3V16.8c0-2.3,0.7-2.9,1.9-4.1l0.1-0.1c1.2-1.2,1.3-2.8,1.3-2.9V8.5h2.7c0,0.5,0,1,0,1.3   C154.5,10.8,155.9,11.4,156.9,12.7z M156.2,20.9c0,0,0-3.3-3.8-3.3c-3.8,0-3.8,3.3-3.8,3.3v9.6c0,0,1.6,0.3,3.8,0.3   c2.2,0,3.8-0.3,3.8-0.3V20.9z"></path>
</g>
<g>
	<path class="st8" d="M168.9,28.4c0-0.8,2.4-1.5,3.4-2.5c0.8-0.8,1.5-1.7,1.4-3.4c-0.1-2.1-1.4-8.6-1.4-8.6h-7.4   c0,0-1.3,6.4-1.4,8.6c-0.1,1.8,0.6,2.6,1.4,3.4c0.9,1,3.4,1.6,3.4,2.5c0,0.8,0,2.9,0,2.9h0v8.1h-3.3v0.4h7.4v-0.4h-3.4v-8.1   C168.9,31.2,168.9,29.2,168.9,28.4z"></path>
	<g>
		<path class="st3" d="M165.9,19.9c-0.2,2.5,0,5.3,1.7,6.5c-1.8-0.8-3-1.3-2.6-6.5h-0.5l0.8-5.6h6.6l0.7,5.6H165.9z"></path>
	</g>
</g>
<path class="st9" d="M100.6,60l1.4-0.4v6.2L100.6,60z M104.5,52.6h7.9l20-4.9L132,46c-0.3-1.2-1.5-2-2.7-1.7l-28.5,7  c-1.2,0.3-2,1.5-1.7,2.7l0.4,1.7l2.7-0.7v-0.2C102.3,53.7,103.3,52.6,104.5,52.6z M102.8,61.6h33.9v10.2c0,1.2-1,2.3-2.3,2.3h-29.4  c-1.2,0-2.3-1-2.3-2.3V61.6z M110.7,65.3c0,0,0.1-0.1,0.1-0.1c-0.1,0-0.3,0-0.4,0.1C110.5,65.2,110.6,65.2,110.7,65.3z M110.2,65.3  c0,0-0.1,0-0.1,0c0,0.1-0.1,0.2-0.1,0.3c0,0-0.4,0.7,0,0.5c0.2-0.1,0.3-0.2,0.4-0.3c0.1-0.1,0.2-0.2,0.3-0.3  C110.5,65.4,110.3,65.4,110.2,65.3z M111,64.9c0.5-0.6,1-1.1,1.5-1.7h-1.3c0.1,0.1,0.1,0.2,0,0.4c-0.3,0.5-0.6,0.9-0.9,1.4  C110.5,65,110.8,65,111,64.9z M110.9,65.3c0.2,0.1,0.4,0.1,0.6,0.2c0.1-0.2,0.2-0.3,0.3-0.5c0,0,0,0-0.1,0c-0.2,0-0.4,0.1-0.6,0.1  C111.1,65.2,111,65.2,110.9,65.3z M111.9,64.8c0-0.1,0.1-0.1,0.1-0.2c0.2-0.4,0.3-0.8,0.5-1.1c-0.4,0.5-0.8,0.9-1.2,1.4  C111.5,64.9,111.7,64.8,111.9,64.8z M112.3,65c0,0.1,0,0.3,0,0.4c0.1-0.1,0.2-0.3,0.3-0.5C112.5,64.9,112.4,64.9,112.3,65  C112.3,65,112.3,65,112.3,65z M111.9,65.7c0,0,0.1,0,0.1,0.1c0.6,0.3,1.2,0.7,2,0.7c0.3,0,1.1,0.1,0.8-0.4c-0.1-0.1-0.1-0.3-0.1-0.4  c0-0.3,0.2-0.7,0.2-1c-0.2,0-0.5,0-0.7,0.1c-0.2,0.1-0.3,0.1-0.5,0.2c-0.1,0-0.1,0-0.1-0.1c0,0,0,0,0,0c-0.1,0-0.2,0-0.4,0  c-0.1,0.1-0.2,0.2-0.3,0.2c-0.1,0-0.1,0-0.1-0.1c0,0,0,0,0-0.1c0,0,0,0,0,0c-0.1,0.3-0.2,0.6-0.5,0.7c-0.1,0-0.1,0-0.1-0.1  c0-0.1,0-0.1,0-0.2c0,0.1-0.1,0.1-0.2,0.2C112,65.6,111.9,65.7,111.9,65.7z M113.6,64.6c0-0.2,0.1-0.3,0.2-0.5  c-0.1,0.1-0.3,0.3-0.4,0.5C113.5,64.6,113.6,64.6,113.6,64.6z M115,64.5c0-0.2-0.1-0.1-0.2,0c0,0-0.1,0-0.1,0  C114.8,64.5,114.9,64.5,115,64.5z M128.2,72.2h6.5V69h-6.5V72.2z M125.5,63.2h-12.7c-0.1,0.2-0.2,0.4-0.2,0.6c0,0,0,0,0.1-0.1  c0.1-0.1,0.2,0,0.2,0.1c-0.1,0.3-0.2,0.6-0.3,0.9c0,0,0,0,0,0.1c0.1,0,0.2,0,0.3,0c0.1-0.2,0.1-0.4,0.2-0.6c0-0.1,0.2,0,0.2,0  c0,0.2,0,0.3,0,0.5c0,0,0.1,0,0.1,0c0.1-0.1,0.2-0.3,0.3-0.4c0.1-0.2,0.3-0.3,0.5-0.4c0.1,0,0.1,0,0.1,0.1c0,0.2-0.2,0.4-0.2,0.7  c0.1,0,0.2,0,0.4,0c0.3-0.1,0.5-0.3,0.7-0.4c0,0,0.1,0,0.1,0c0.1,0.1,0.1,0.2,0.1,0.3c0.4,0,0.7,0,1.1-0.1c0.7,0,1.3-0.1,2-0.1  c0.6,0,1.2-0.1,1.8,0c0.1,0,0.1,0.2,0,0.2c-0.7-0.1-1.5,0-2.3,0c-0.7,0-1.3,0-2,0.1c-0.2,0-0.4,0-0.6,0c0,0.1,0,0.2-0.1,0.3  c-0.1,0.2-0.1,0.4-0.2,0.6c0,0.2,0.1,0.4,0.1,0.6c0.1,0.3,0,0.4-0.2,0.5h10.7V63.2z M105,66.6h8.7c-0.1,0-0.1,0-0.2,0  c-0.6-0.1-1.1-0.4-1.6-0.7c0,0-0.1,0-0.1-0.1c-0.1,0.2-0.2,0.3-0.4,0.3c-0.1,0-0.1,0-0.1-0.1c0-0.1,0.1-0.3,0.1-0.4  c-0.2-0.1-0.4-0.2-0.6-0.2c-0.3,0.4-0.7,0.9-1.2,0.8c0,0-0.1-0.1-0.1-0.1c0-0.3,0.2-0.7,0.3-0.9c0,0-0.1,0-0.1,0  c-0.7,0.1-1.3,0.1-2,0.1c-0.5,0-1,0-1.6,0c-0.2,0-0.5,0-0.6-0.2c0,0,0-0.1,0-0.1c0.4-0.2,0.8-0.2,1.3-0.2c0.6,0,1.2,0,1.8,0.1  c0.3,0,0.7,0.1,1,0.1c0.1,0,0.2,0,0.3,0c0,0,0-0.1,0.1-0.1c0.2-0.3,0.4-0.6,0.6-0.9c0.1-0.1,0.5-0.8,0.1-0.6c-0.1,0-0.2-0.1-0.1-0.2  H105V66.6z M106.7,65.1c-0.1,0-0.3,0-0.4,0c0,0-0.3,0.1-0.4,0.1c0.2,0,0.3,0,0.5,0c0.6,0,1.3,0,1.9,0c0.1,0,0.3,0,0.4,0  C108.1,65.1,107.4,65.1,106.7,65.1z M134.5,53.2h-29.4c-1.2,0-2.3,1-2.3,2.3v1.8h33.9v-1.8C136.7,54.2,135.7,53.2,134.5,53.2z   M133.5,52.8l-0.2-0.9l-3.9,1L133.5,52.8z"></path>
<g>
	<g>
		<path class="st0" d="M174.6,76.1c0.9,0.9,1,2.4,0.1,3.2c-0.9,0.9-2.3,0.8-3.2-0.1l-9.6-10.5c-0.7,0-1.4-0.2-2.2-0.5l3.5-3.5    l2.3,2.3L174.6,76.1z M154.4,64.5l4.3-4.3l-4.4-4.4c-3.5-3.5-6.9-6.9-9-9c-0.3-0.3-0.7-0.4-1.1-0.4c-0.3,0-0.7,0.3-0.8,1    c-0.3,2.9,1.8,8,9.5,15.6C153.5,63.6,154,64.1,154.4,64.5z M162.4,52.5l0.6-0.6c0,0,0,0,0,0L162.4,52.5z M178.5,51.5    c-0.5-0.5-1.2-0.6-1.5-0.3l-6.8,6.8c-0.3,0.3-1,0.3-1.4-0.2c-0.4-0.4-0.5-1.1-0.2-1.4l6.8-6.8c0.3-0.3,0.2-1-0.3-1.5    c-0.5-0.5-1.2-0.6-1.5-0.3l-6.8,6.8c-0.3,0.3-1,0.3-1.4-0.2c-0.4-0.4-0.5-1.1-0.2-1.4l6.8-6.8c0.3-0.3,0.2-1-0.3-1.5    c-0.5-0.5-1.2-0.6-1.5-0.3l-7.4,7.4c-2.4,2.4-1.6,4.1-0.3,5.6l-19,19c-0.9,0.9-1,2.4-0.1,3.2c0.9,0.9,2.3,0.8,3.2-0.1l19-19    c1.5,1.4,3.2,2.1,5.6-0.3l7.4-7.4C179.1,52.7,179,52,178.5,51.5z"></path>
	</g>
</g>
<rect x="196.7" y="-3.8" style="fill:none;" width="29.3" height="2.8"></rect>
<text transform="matrix(1 0 0 1 196.667 -1.7036)" style="font-family:'MyriadPro-Regular'; font-size:3px;">Ofertas gastronómicos. </text>
<path class="st10" d="M235.1,19L216.7,2.6c-0.7-0.6-2-1.1-2.9-1.1l-13.3,0.3c-0.9,0-1.7,0.8-1.7,1.7l-0.3,13.3  c0,0.9,0.5,2.2,1.1,2.9L216,38.1c0.6,0.7,1.6,0.7,2.3,0.1l17-17C235.8,20.6,235.8,19.6,235.1,19z M207.5,10.5c-1,1-2.5,1-3.5,0  c-1-1-1-2.5,0-3.5c1-1,2.5-1,3.5,0C208.5,8,208.5,9.6,207.5,10.5z M225.3,21.4h-15.2v-2.8h15.2L225.3,21.4L225.3,21.4z"></path>
<path class="st0" d="M277.1,17.2l0.7,20.7c0,1.1-0.8,2-1.8,2c0,0-0.1,0-0.1,0c0,0-0.1,0-0.1,0v0c-0.9-0.1-1.6-1-1.6-2l0.7-20.7  c-2-0.8-4.1-2.2-4.1-5.5c0-4.1,2.7-9.2,4.9-9.6v0c0,0,0.1,0,0.1,0c0,0,0,0,0,0c0,0,0.1,0,0.1,0c2.2,0,5.2,5.4,5.2,9.6  C281.2,15,279.1,16.4,277.1,17.2z M245.6,2.4C245.6,2.4,245.6,2.5,245.6,2.4c-1.5,0.8-3.6,4-3.6,12.9c0,4.8,2,7.7,2.6,9.3  c1,2.8-0.9,9.8-1.3,13.1c-0.1,1.1,0.8,2,1.8,2c0.2,0,0.3,0,0.5-0.1v0c0.8-0.2,1.4-1,1.4-1.9V3.5C247,2.7,246.3,2.2,245.6,2.4z   M262.5,2.5l-0.1,11.7h-1l-0.2-11.7h-0.5l-0.2,11.7h-0.6h-0.2h-0.2l-0.2-11.7h-0.5l-0.2,11.7h-1l-0.1-11.7h-0.5  c-0.4,2.7-0.8,8-0.8,10.7c0,3.3,0.7,3.3,2.6,4.1l-0.7,20.7c0,1,0.7,1.8,1.5,1.9v0c0.1,0,0.2,0,0.3,0c1,0,1.8-0.9,1.8-2l-0.7-20.7  c2-0.8,2.6-0.7,2.6-4.1c0-2.7-0.4-7.9-0.8-10.7H262.5z"></path>
<path class="st0" d="M198.7,64.2H236v11.2c0,1.4-1.1,2.5-2.5,2.5h-32.3c-1.4,0-2.5-1.1-2.5-2.5V64.2z M207.4,68.3  c0,0,0.1-0.1,0.1-0.1c-0.2,0-0.3,0-0.5,0.1C207.2,68.2,207.3,68.2,207.4,68.3z M206.7,68.3c0,0-0.1,0-0.1,0  c-0.1,0.1-0.1,0.2-0.2,0.3c0,0-0.4,0.8,0,0.6c0.2-0.1,0.3-0.2,0.5-0.4c0.1-0.1,0.2-0.2,0.3-0.4C207.1,68.4,206.9,68.4,206.7,68.3z   M207.7,67.9c0.5-0.6,1.1-1.3,1.6-1.9h-1.4c0.1,0.1,0.1,0.2,0,0.4c-0.3,0.5-0.7,1-1,1.5C207.1,68,207.4,67.9,207.7,67.9z   M207.6,68.3c0.2,0.1,0.4,0.1,0.6,0.2c0.1-0.2,0.2-0.4,0.3-0.6c0,0,0,0-0.1,0c-0.2,0-0.4,0.1-0.7,0.1  C207.7,68.2,207.7,68.3,207.6,68.3z M208.7,67.8c0-0.1,0.1-0.1,0.1-0.2c0.2-0.4,0.4-0.8,0.6-1.3c-0.4,0.5-0.9,1-1.3,1.5  C208.2,67.8,208.4,67.8,208.7,67.8z M209.2,67.9c0,0.2,0,0.3,0,0.5c0.2-0.1,0.3-0.3,0.3-0.5C209.4,67.9,209.3,67.9,209.2,67.9  C209.2,67.9,209.2,67.9,209.2,67.9z M208.7,68.7c0,0,0.1,0,0.1,0.1c0.7,0.4,1.3,0.7,2.2,0.8c0.3,0,1.2,0.1,0.9-0.4  c-0.1-0.1-0.1-0.3-0.1-0.4c0-0.4,0.2-0.7,0.3-1.1c-0.3,0-0.5,0-0.8,0.1c-0.2,0.1-0.4,0.2-0.6,0.2c-0.1,0-0.1,0-0.1-0.1c0,0,0,0,0,0  c-0.1,0-0.3,0-0.4,0c-0.1,0.1-0.2,0.2-0.3,0.2c-0.1,0-0.1,0-0.1-0.1c0,0,0,0,0-0.1c0,0,0,0,0,0c-0.1,0.3-0.3,0.6-0.6,0.8  c-0.1,0-0.1,0-0.2-0.1c0-0.1,0-0.1,0-0.2c-0.1,0.1-0.1,0.2-0.2,0.2C208.7,68.7,208.7,68.7,208.7,68.7z M210.6,67.6  c0-0.2,0.1-0.3,0.2-0.5c-0.2,0.1-0.3,0.3-0.4,0.5C210.4,67.6,210.5,67.6,210.6,67.6z M212.1,67.4c0-0.2-0.1-0.1-0.2,0  c0,0-0.1,0-0.1,0.1C211.8,67.4,211.9,67.4,212.1,67.4z M226.7,75.9h7.2v-3.6h-7.2V75.9z M223.6,66h-14c-0.1,0.2-0.2,0.4-0.3,0.6  c0,0,0-0.1,0.1-0.1c0.1-0.1,0.2,0,0.2,0.1c-0.1,0.3-0.2,0.7-0.4,1c0,0,0,0,0,0.1c0.1,0,0.2,0,0.3,0c0.1-0.2,0.1-0.5,0.2-0.6  c0.1-0.1,0.2,0,0.2,0.1c0,0.2,0,0.4,0,0.5c0,0,0.1,0,0.1,0c0.1-0.1,0.2-0.3,0.3-0.4c0.1-0.2,0.3-0.3,0.5-0.4c0.1,0,0.2,0,0.2,0.1  c0,0.3-0.2,0.5-0.2,0.7c0.1,0,0.3,0,0.4,0c0.3-0.1,0.5-0.3,0.8-0.4c0,0,0.1,0,0.1,0c0.1,0.1,0.1,0.2,0.1,0.3c0.4,0,0.8-0.1,1.2-0.1  c0.7,0,1.5-0.1,2.2-0.1c0.6,0,1.3-0.1,2,0c0.1,0,0.1,0.2-0.1,0.2c-0.8-0.1-1.7,0-2.5,0c-0.7,0-1.5,0-2.2,0.1c-0.2,0-0.4,0-0.6,0  c0,0.1,0,0.2-0.1,0.3c-0.1,0.2-0.1,0.5-0.2,0.7c0,0.2,0.1,0.4,0.2,0.6c0.1,0.3,0,0.5-0.3,0.6h11.8V66z M201.1,69.8h9.5  c-0.1,0-0.1,0-0.2,0c-0.6-0.1-1.2-0.5-1.7-0.7c0,0-0.1,0-0.1-0.1c-0.1,0.2-0.3,0.3-0.4,0.4c-0.1,0-0.1,0-0.1-0.1  c0-0.1,0.1-0.3,0.1-0.4c-0.2-0.1-0.5-0.2-0.7-0.2c-0.3,0.4-0.8,1-1.3,0.9c0,0-0.1-0.1-0.1-0.1c0-0.4,0.2-0.7,0.4-1c0,0-0.1,0-0.1,0  c-0.7,0.1-1.4,0.1-2.2,0.1c-0.6,0-1.1,0-1.7,0c-0.2,0-0.5,0-0.7-0.2c0,0,0-0.1,0-0.1c0.4-0.2,0.9-0.2,1.4-0.2c0.7,0,1.3,0,2,0.1  c0.4,0,0.7,0.1,1.1,0.1c0.1,0,0.2,0,0.3,0c0,0,0.1-0.1,0.1-0.1c0.2-0.3,0.5-0.7,0.7-1c0.1-0.1,0.6-0.8,0.2-0.7  c-0.1,0-0.2-0.1-0.1-0.2h-6.3V69.8z M202.9,68.1c-0.1,0-0.3,0-0.4,0c0,0-0.4,0.1-0.4,0.1c0.2,0,0.3,0,0.5,0c0.7,0.1,1.4,0,2.1,0  c0.2,0,0.3,0,0.5,0C204.4,68.1,203.7,68.1,202.9,68.1z M233.5,55h-32.3c-1.4,0-2.5,1.1-2.5,2.5v1.9H236v-1.9  C236,56.1,234.9,55,233.5,55z"></path>
<path class="st10" d="M217,53.9c-11.8-6.5-3.3-14.5,0-9.1C220.3,39.4,228.8,47.4,217,53.9z"></path>
<g>
	<g>
		<path class="st0" d="M276.6,77.1c0.9,0.9,1,2.4,0.1,3.2c-0.9,0.9-2.3,0.8-3.2-0.1l-9.6-10.5c-0.7,0-1.4-0.2-2.2-0.5l3.5-3.5    l2.3,2.3L276.6,77.1z M256.4,65.5l4.3-4.3l-4.4-4.4c-3.5-3.5-6.9-6.9-9-9c-0.3-0.3-0.7-0.4-1.1-0.4c-0.3,0-0.7,0.3-0.8,1    c-0.3,2.9,1.8,8,9.5,15.6C255.5,64.6,256,65.1,256.4,65.5z M264.4,53.5L265,53c0,0,0,0,0,0L264.4,53.5z M280.5,52.5    c-0.5-0.5-1.2-0.6-1.5-0.3l-6.8,6.8c-0.3,0.3-1,0.3-1.4-0.2c-0.4-0.4-0.5-1.1-0.2-1.4l6.8-6.8c0.3-0.3,0.2-1-0.3-1.5    c-0.5-0.5-1.2-0.6-1.5-0.3l-6.8,6.8c-0.3,0.3-1,0.3-1.4-0.2c-0.4-0.4-0.5-1.1-0.2-1.4l6.8-6.8c0.3-0.3,0.2-1-0.3-1.5    c-0.5-0.5-1.2-0.6-1.5-0.3L265,53c-2.4,2.4-1.6,4.1-0.3,5.6l-19,19c-0.9,0.9-1,2.4-0.1,3.2c0.9,0.9,2.3,0.8,3.2-0.1l19-19    c1.5,1.4,3.2,2.1,5.6-0.3l7.4-7.4C281.1,53.7,281,53,280.5,52.5z"></path>
	</g>
</g>
<polygon class="st7" points="263.8,52 261.4,50.7 259,52 259.5,49.3 257.5,47.5 260.2,47.1 261.4,44.7 262.6,47.1 265.2,47.5   263.3,49.3 "></polygon>
<rect x="-92.3" y="93.6" style="fill:none;" width="28.3" height="3.8"></rect>
<text transform="matrix(1 0 0 1 -92.334 96.417)" style="font-family:'MyriadPro-Regular'; font-size:4px;">Hoteles. </text>
<g>
	<path class="st0" d="M-63.6,115.6h-5.2v-2.6c0-1.1-0.9-2.1-2.1-2.1c-1.1,0-2.1,0.9-2.1,2.1v2.6h-9.4v-2.6c0-1.1-0.9-2.1-2.1-2.1   c-1.1,0-2.1,0.9-2.1,2.1v2.6h-5.2c-0.9,0-1.6,0.7-1.6,1.6v22.6c0,0.9,0.7,1.6,1.6,1.6h28.1c0.9,0,1.6-0.7,1.6-1.6v-22.6   C-62,116.3-62.7,115.6-63.6,115.6z M-78.7,122.6v4.2h-4.9v-4.2H-78.7z M-76.6,122.6h4.9v4.2h-4.9V122.6z M-85.7,122.6v4.2h-4.4   v-4.2H-85.7z M-85.7,128.9v3.1h-4.4v-3.1H-85.7z M-83.6,128.9h4.9v3.1h-4.9V128.9z M-78.7,134.1v4.2h-4.9v-4.2H-78.7z M-76.6,134.1   h4.9v4.2h-4.9V134.1z M-76.6,132v-3.1h4.9v3.1H-76.6z M-69.5,128.9h4.4v3.1h-4.4V128.9z M-69.5,126.8v-4.2h4.4v4.2H-69.5z    M-90.1,134.1h4.4v4.2h-4.4V134.1z M-69.5,138.3v-4.2h4.4v4.2H-69.5z"></path>
	<polygon class="st11" points="-73.1,126.4 -74,125.9 -75,126.4 -74.8,125.4 -75.5,124.6 -74.5,124.5 -74,123.6 -73.6,124.5    -72.5,124.6 -73.3,125.4  "></polygon>
	<polygon class="st11" points="-80,131.5 -80.9,131.1 -81.8,131.6 -81.7,130.5 -82.4,129.8 -81.4,129.6 -80.9,128.7 -80.4,129.6    -79.4,129.8 -80.2,130.5  "></polygon>
</g>
<g>
	<g>
		<g>
			<path class="st0" d="M-14,140c0,0.6-0.5,1.1-1.1,1.1h-29.8c-0.6,0-1.1-0.5-1.1-1.1v-2c0-0.6,0.5-1.1,1.1-1.1h29.8     c0.6,0,1.1,0.5,1.1,1.1V140z"></path>
		</g>
		<g>
			<g>
				<path class="st0" d="M-27.4,116.8c0,0.1-0.1,0.2-0.2,0.2h-4.7c-0.1,0-0.2-0.1-0.2-0.2v-3.3c0-0.1,0.1-0.2,0.2-0.2h4.7      c0.1,0,0.2,0.1,0.2,0.2V116.8z"></path>
			</g>
			<g>
				<path class="st0" d="M-27.4,121.9c0,0.1-0.1,0.2-0.2,0.2h-4.7c-0.1,0-0.2-0.1-0.2-0.2v-3.3c0-0.1,0.1-0.2,0.2-0.2h4.7      c0.1,0,0.2,0.1,0.2,0.2V121.9z"></path>
			</g>
			<g>
				<path class="st0" d="M-27.4,126.9c0,0.1-0.1,0.2-0.2,0.2h-4.7c-0.1,0-0.2-0.1-0.2-0.2v-3.3c0-0.1,0.1-0.2,0.2-0.2h4.7      c0.1,0,0.2,0.1,0.2,0.2V126.9z"></path>
			</g>
			<g>
				<path class="st0" d="M-19.3,116.8c0,0.1-0.1,0.2-0.2,0.2h-4.7c-0.1,0-0.2-0.1-0.2-0.2v-3.3c0-0.1,0.1-0.2,0.2-0.2h4.7      c0.1,0,0.2,0.1,0.2,0.2V116.8z"></path>
			</g>
			<g>
				<path class="st0" d="M-19.3,121.9c0,0.1-0.1,0.2-0.2,0.2h-4.7c-0.1,0-0.2-0.1-0.2-0.2v-3.3c0-0.1,0.1-0.2,0.2-0.2h4.7      c0.1,0,0.2,0.1,0.2,0.2V121.9z"></path>
			</g>
			<g>
				<path class="st0" d="M-19.3,126.9c0,0.1-0.1,0.2-0.2,0.2h-4.7c-0.1,0-0.2-0.1-0.2-0.2v-3.3c0-0.1,0.1-0.2,0.2-0.2h4.7      c0.1,0,0.2,0.1,0.2,0.2V126.9z"></path>
			</g>
			<g>
				<path class="st0" d="M-35.5,116.8c0,0.1-0.1,0.2-0.2,0.2h-4.7c-0.1,0-0.2-0.1-0.2-0.2v-3.3c0-0.1,0.1-0.2,0.2-0.2h4.7      c0.1,0,0.2,0.1,0.2,0.2V116.8z"></path>
			</g>
			<g>
				<path class="st0" d="M-35.5,121.9c0,0.1-0.1,0.2-0.2,0.2h-4.7c-0.1,0-0.2-0.1-0.2-0.2v-3.3c0-0.1,0.1-0.2,0.2-0.2h4.7      c0.1,0,0.2,0.1,0.2,0.2V121.9z"></path>
			</g>
			<g>
				<path class="st0" d="M-35.5,126.9c0,0.1-0.1,0.2-0.2,0.2h-4.7c-0.1,0-0.2-0.1-0.2-0.2v-3.3c0-0.1,0.1-0.2,0.2-0.2h4.7      c0.1,0,0.2,0.1,0.2,0.2V126.9z"></path>
			</g>
		</g>
		<g>
			<path class="st0" d="M-30.1,102.2c0-0.1,0.1-0.1,0.1,0c0.2,0.4,0.5,0.9,0.7,1.3c0,0.1,0.1,0.1,0.2,0.2c0.5,0.1,1,0.2,1.5,0.2     c0.1,0,0.1,0.1,0,0.1c-0.4,0.3-0.7,0.6-1.1,1c-0.1,0.1-0.1,0.2-0.1,0.3c0.1,0.5,0.2,0.9,0.2,1.4c0,0.1,0,0.1-0.1,0.1     c-0.4-0.2-0.9-0.5-1.3-0.7c-0.1,0-0.2,0-0.3,0c-0.4,0.2-0.9,0.4-1.3,0.7c-0.1,0-0.1,0-0.1-0.1c0.1-0.5,0.1-0.9,0.2-1.4     c0-0.1,0-0.2-0.1-0.3c-0.4-0.3-0.7-0.6-1.1-1c-0.1-0.1,0-0.1,0-0.1c0.5-0.1,1-0.2,1.5-0.2c0.1,0,0.2-0.1,0.2-0.2     C-30.5,103-30.3,102.6-30.1,102.2"></path>
		</g>
		<g>
			<path class="st0" d="M-24.9,103.7c0-0.1,0.1-0.1,0.1,0c0.2,0.4,0.3,0.7,0.5,1.1c0,0.1,0.1,0.1,0.2,0.1c0.4,0.1,0.8,0.2,1.2,0.3     c0.1,0,0.1,0.1,0,0.1c-0.3,0.3-0.6,0.5-1,0.8c-0.1,0-0.1,0.1-0.1,0.2c0,0.4,0.1,0.8,0.1,1.2c0,0.1,0,0.1-0.1,0.1     c-0.3-0.2-0.7-0.4-1-0.6c-0.1,0-0.2,0-0.2,0c-0.4,0.2-0.7,0.3-1.1,0.5c-0.1,0-0.1,0-0.1-0.1c0.1-0.4,0.2-0.8,0.3-1.2     c0-0.1,0-0.2-0.1-0.2c-0.3-0.3-0.6-0.6-0.9-0.9c-0.1-0.1,0-0.1,0-0.1c0.4,0,0.8-0.1,1.3-0.1c0.1,0,0.2-0.1,0.2-0.1     C-25.3,104.4-25.1,104-24.9,103.7"></path>
		</g>
		<g>
			<path class="st0" d="M-35.5,103.7c0-0.1,0.1-0.1,0.1,0c0.2,0.3,0.4,0.7,0.6,1c0,0.1,0.1,0.1,0.2,0.1c0.4,0,0.8,0.1,1.3,0.1     c0.1,0,0.1,0.1,0,0.1c-0.3,0.3-0.6,0.6-0.9,0.9c-0.1,0.1-0.1,0.1-0.1,0.2c0.1,0.4,0.2,0.8,0.3,1.2c0,0.1,0,0.1-0.1,0.1     c-0.4-0.2-0.7-0.3-1.1-0.5c-0.1,0-0.2,0-0.2,0c-0.4,0.2-0.7,0.4-1.1,0.6c-0.1,0-0.1,0-0.1-0.1c0-0.4,0.1-0.8,0.1-1.2     c0-0.1,0-0.2-0.1-0.2c-0.3-0.3-0.6-0.5-1-0.8c-0.1,0,0-0.1,0-0.1c0.4-0.1,0.8-0.2,1.2-0.3c0.1,0,0.2-0.1,0.2-0.1     C-35.9,104.4-35.7,104-35.5,103.7"></path>
		</g>
		<g>
			<path class="st0" d="M-20.6,106.9C-20.5,106.8-20.5,106.8-20.6,106.9c0.2,0.3,0.3,0.5,0.4,0.8c0,0,0.1,0.1,0.1,0.1     c0.3,0.1,0.6,0.2,0.8,0.2c0,0,0.1,0,0,0.1c-0.2,0.2-0.5,0.3-0.7,0.5c0,0-0.1,0.1-0.1,0.1c0,0.3,0,0.6,0,0.8c0,0,0,0.1-0.1,0     c-0.2-0.2-0.5-0.3-0.7-0.5c0,0-0.1,0-0.2,0c-0.3,0.1-0.5,0.2-0.8,0.3c0,0-0.1,0-0.1-0.1c0.1-0.3,0.2-0.5,0.2-0.8c0,0,0-0.1,0-0.2     c-0.2-0.2-0.4-0.4-0.6-0.6c0,0,0-0.1,0-0.1c0.3,0,0.6,0,0.9,0c0.1,0,0.1,0,0.1-0.1C-20.9,107.3-20.7,107.1-20.6,106.9"></path>
		</g>
		<g>
			<path class="st0" d="M-39.5,106.9C-39.5,106.9-39.4,106.9-39.5,106.9c0.2,0.2,0.4,0.5,0.6,0.7c0,0,0.1,0.1,0.1,0.1     c0.3,0,0.6,0,0.9,0c0.1,0,0.1,0,0,0.1c-0.2,0.2-0.4,0.4-0.6,0.6c0,0,0,0.1,0,0.2c0.1,0.3,0.2,0.5,0.2,0.8c0,0,0,0.1-0.1,0.1     c-0.3-0.1-0.5-0.2-0.8-0.3c0,0-0.1,0-0.2,0c-0.2,0.2-0.5,0.3-0.7,0.5c0,0-0.1,0-0.1,0c0-0.3,0-0.6,0-0.8c0,0,0-0.1-0.1-0.1     c-0.2-0.2-0.5-0.3-0.7-0.5c0,0,0-0.1,0-0.1c0.3-0.1,0.6-0.2,0.8-0.2c0,0,0.1-0.1,0.1-0.1C-39.7,107.5-39.6,107.2-39.5,106.9"></path>
		</g>
		<g>
			<g>
				<path class="st2" d="M-37.2,108.5c0,0-0.1,0.1,0,0.2c0.1,0.2,0.1,0.4,0.2,0.7H-23c0.1-0.2,0.1-0.5,0.2-0.7c0-0.1,0-0.2,0-0.2      c0,0-0.1-0.1-0.1-0.1H-37C-37.1,108.4-37.1,108.5-37.2,108.5z"></path>
			</g>
			<g>
				<g>
					<path class="st2" d="M-41.9,139.3h23.8c1.1,0,2-0.9,2-2h-1c0,0.5-0.4,0.9-0.9,0.9h-23.8c-0.5,0-0.9-0.4-0.9-0.9h-1       C-43.8,138.4-43,139.3-41.9,139.3z"></path>
				</g>
				<g>
					<path class="st2" d="M-42.8,135.7v-25.4c0-0.5,0.4-0.9,0.9-0.9h0.6c0-0.1,0-0.3,0-0.4c0-0.1,0-0.1-0.1-0.2       c-0.2-0.1-0.4-0.3-0.6-0.4l0,0c-1.1,0-1.9,0.9-1.9,2v25.4H-42.8z"></path>
				</g>
				<g>
					<path class="st2" d="M-18.1,109.4c0.5,0,0.9,0.4,0.9,0.9v25.4h1v-25.4c0-1.1-0.9-2-1.9-2l0,0c-0.2,0.1-0.3,0.2-0.5,0.4       c-0.1,0-0.1,0.1-0.1,0.2c0,0.2,0,0.3,0,0.5H-18.1z"></path>
				</g>
			</g>
		</g>
		<g>
			<path class="st0" d="M-24.8,136v-6.8c0-0.3-0.2-0.5-0.5-0.5h-9.4c-0.3,0-0.5,0.2-0.5,0.5v6.8H-24.8z"></path>
		</g>
	</g>
</g>
<path class="st0" d="M-77.7,103c-2.4,0-4.3,1.9-4.3,4.3c0,0.9,0.3,1.8,0.8,2.5l0.1,0.2l3.1,4.3c0.1,0.1,0.2,0.1,0.3,0.1  s0.2-0.1,0.3-0.1l3-4.3l0.2-0.2c0.5-0.7,0.8-1.6,0.8-2.5C-73.4,104.9-75.3,103-77.7,103z M-77.7,108.7c-0.8,0-1.4-0.6-1.4-1.4  c0-0.8,0.6-1.4,1.4-1.4c0.8,0,1.4,0.6,1.4,1.4C-76.3,108.1-76.9,108.7-77.7,108.7z"></path>
<g>
	<g>
		<path class="st0" d="M-36.6,167.7c0.1-0.1,0.2-0.3,0.2-0.4l-0.3-2c0-0.1,0-0.3,0.1-0.4l1.4-1.4c0.1-0.1,0.2-0.3,0.1-0.4    c-0.1-0.2-0.2-0.3-0.3-0.3l-2-0.3c-0.1,0-0.3-0.1-0.3-0.2l-0.9-1.8c-0.1-0.1-0.2-0.2-0.4-0.2c-0.2,0-0.3,0.1-0.4,0.2l-0.9,1.8    c-0.1,0.1-0.2,0.2-0.3,0.2l-2,0.3c-0.2,0-0.3,0.1-0.3,0.3c-0.1,0.2,0,0.3,0.1,0.4l1.4,1.4c0.1,0.1,0.1,0.2,0.1,0.4l-0.3,2    c0,0.2,0,0.3,0.2,0.4c0.1,0.1,0.3,0.1,0.5,0l1.8-0.9c0.1-0.1,0.3-0.1,0.4,0l1.8,0.9C-36.9,167.8-36.8,167.7-36.6,167.7z"></path>
		<path class="st0" d="M-27.3,167.7c0.1-0.1,0.2-0.3,0.2-0.4l-0.3-2c0-0.1,0-0.3,0.1-0.4l1.4-1.4c0.1-0.1,0.2-0.3,0.1-0.4    c-0.1-0.2-0.2-0.3-0.3-0.3l-2-0.3c-0.1,0-0.3-0.1-0.3-0.2l-0.9-1.8c-0.1-0.1-0.2-0.2-0.4-0.2c-0.2,0-0.3,0.1-0.4,0.2l-0.9,1.8    c-0.1,0.1-0.2,0.2-0.3,0.2l-2,0.3c-0.2,0-0.3,0.1-0.3,0.3c-0.1,0.2,0,0.3,0.1,0.4l1.4,1.4c0.1,0.1,0.1,0.2,0.1,0.4l-0.3,2    c0,0.2,0,0.3,0.2,0.4c0.1,0.1,0.3,0.1,0.5,0l1.8-0.9c0.1-0.1,0.3-0.1,0.4,0l1.8,0.9C-27.6,167.8-27.4,167.7-27.3,167.7z"></path>
		<path class="st0" d="M-30.8,172.1l-2-0.3c-0.1,0-0.3-0.1-0.3-0.2l-0.9-1.8c-0.1-0.1-0.2-0.2-0.4-0.2c-0.2,0-0.3,0.1-0.4,0.2    l-0.9,1.8c-0.1,0.1-0.2,0.2-0.3,0.2l-2,0.3c-0.2,0-0.3,0.1-0.3,0.3c-0.1,0.2,0,0.3,0.1,0.4l1.4,1.4c0.1,0.1,0.1,0.2,0.1,0.4    l-0.3,2c0,0.2,0,0.3,0.2,0.4c0.1,0.1,0.3,0.1,0.5,0l1.8-0.9c0.1-0.1,0.3-0.1,0.4,0l1.8,0.9c0.1,0.1,0.3,0.1,0.5,0    c0.1-0.1,0.2-0.3,0.2-0.4l-0.3-2c0-0.1,0-0.3,0.1-0.4l1.4-1.4c0.1-0.1,0.2-0.3,0.1-0.4C-30.5,172.2-30.7,172.1-30.8,172.1z"></path>
		<path class="st0" d="M-21.5,172.1l-2-0.3c-0.1,0-0.3-0.1-0.3-0.2l-0.9-1.8c-0.1-0.1-0.2-0.2-0.4-0.2c-0.2,0-0.3,0.1-0.4,0.2    l-0.9,1.8c-0.1,0.1-0.2,0.2-0.3,0.2l-2,0.3c-0.2,0-0.3,0.1-0.3,0.3c-0.1,0.2,0,0.3,0.1,0.4l1.4,1.4c0.1,0.1,0.1,0.2,0.1,0.4    l-0.3,2c0,0.2,0,0.3,0.2,0.4c0.1,0.1,0.3,0.1,0.5,0l1.8-0.9c0.1-0.1,0.3-0.1,0.4,0l1.8,0.9c0.1,0.1,0.3,0.1,0.5,0    c0.1-0.1,0.2-0.3,0.2-0.4l-0.3-2c0-0.1,0-0.3,0.1-0.4l1.4-1.4c0.1-0.1,0.2-0.3,0.1-0.4C-21.2,172.2-21.3,172.1-21.5,172.1z"></path>
		<path class="st0" d="M-16.8,162.8l-2-0.3c-0.1,0-0.3-0.1-0.3-0.2l-0.9-1.8c-0.1-0.1-0.2-0.2-0.4-0.2c-0.2,0-0.3,0.1-0.4,0.2    l-0.9,1.8c-0.1,0.1-0.2,0.2-0.3,0.2l-2,0.3c-0.2,0-0.3,0.1-0.3,0.3c0,0.2,0,0.3,0.1,0.4l1.4,1.4c0.1,0.1,0.1,0.2,0.1,0.4l-0.3,2    c0,0.2,0,0.3,0.2,0.4c0.1,0.1,0.3,0.1,0.5,0l1.8-0.9c0.1-0.1,0.3-0.1,0.4,0l1.8,0.9c0.1,0.1,0.3,0.1,0.5,0    c0.1-0.1,0.2-0.3,0.2-0.4l-0.3-2c0-0.1,0-0.3,0.1-0.4l1.4-1.4c0.1-0.1,0.2-0.3,0.1-0.4C-16.5,162.9-16.6,162.8-16.8,162.8z"></path>
		<path class="st0" d="M-14.6,154.3h-30.1c-2,0-3.6,1.6-3.6,3.6v21.4c0,2,1.6,3.7,3.6,3.7h30.1c2,0,3.6-1.7,3.6-3.7V158    C-11,155.9-12.6,154.3-14.6,154.3z M-14.2,179.3c0,0.3-0.2,0.5-0.5,0.5h-30.2c-0.3,0-0.5-0.2-0.5-0.5v-21.4c0-0.3,0.2-0.5,0.5-0.5    h30.2c0.3,0,0.5,0.2,0.5,0.5V179.3z"></path>
	</g>
</g>
<g>
	<g>
		<path class="st12" d="M-72.6,180.4h-1V151c0-0.3,0.2-0.5,0.5-0.5h0c0.3,0,0.5,0.2,0.5,0.5V180.4z"></path>
		<path class="st0" d="M-73.1,151.3l-8.2,10.2c0,0,0.9,1.6,2,1.6c1.1,0,6.2,0,6.2,0s5.1,0,6.2,0c1.1,0,2-1.6,2-1.6L-73.1,151.3z"></path>
		<path class="st13" d="M-73.1,151.3c0,0-5.3,11.9-4.2,11.9c1.1,0,4.2,0,4.2,0s3.1,0,4.2,0C-67.7,163.2-73.1,151.3-73.1,151.3z"></path>
		<path class="st0" d="M-73.1,151.3c0,0,7.2,9.4,8,10.2c0.5,0.6,1.1,1.2,1.7,1.2c1.7,0.1,4.4-2.5,4.4-2.5c0,0,0-2-2.1-3.1    C-66,154.6-73.1,151.3-73.1,151.3z"></path>
		<path class="st13" d="M-73.1,151.3c0,0-7.2,9.4-8,10.2c-0.5,0.6-1.1,1.2-1.7,1.2c-1.7,0.1-4.4-2.5-4.4-2.5c0,0,0-2,2.1-3.1    C-80.1,154.6-73.1,151.3-73.1,151.3z"></path>
		<path class="st13" d="M-73.1,151.3c0,0,10.7,11.3,11.3,11.1c1.4-0.7,2.8-2,2.8-2C-59,160.3-73.1,151.3-73.1,151.3z"></path>
		<path class="st0" d="M-73.1,151.3c0,0-11,11.2-11.6,10.9c-1.3-0.7-2.4-1.8-2.4-1.8C-87.1,160.3-73.1,151.3-73.1,151.3z"></path>
	</g>
</g>
<g>
	<g>
		<path class="st14" d="M-84.6,179.2l-2.3,5.5c-0.2,0.5,0.2,1.1,0.7,1.1h0c0.3,0,0.6-0.2,0.7-0.5l1.7-4.4c0.1-0.3,0.4-0.5,0.8-0.5    h14.2c0.3,0,0.6,0.2,0.8,0.5l1.7,4.4c0.1,0.3,0.4,0.5,0.7,0.5h0c0.6,0,0.9-0.6,0.7-1.1l-2.2-5.6c-0.1-0.3-0.4-0.5-0.7-0.5h-1.2    h-3.1l-2.4-5.6c-0.1-0.3-0.4-0.4-0.7-0.4h-10.2l-2.7-6.8c-0.1-0.3-0.4-0.5-0.7-0.5h0c-0.6,0-0.9,0.6-0.7,1.1l4.6,11.7    C-84.5,178.5-84.5,178.9-84.6,179.2z M-75.1,175l1.3,3.2c0.1,0.2-0.1,0.5-0.3,0.5h-8.4c-0.1,0-0.3-0.1-0.3-0.2l-1.3-3.2    c-0.1-0.2,0.1-0.5,0.3-0.5h8.4C-75.2,174.8-75.1,174.9-75.1,175z"></path>
		<path class="st13" d="M-88.9,166.7l-6.1,2.5l5.2,12.7l15.8,0.5l0.6,0.4l5.4-2l-0.3-0.7c-0.1-0.3-0.4-0.5-0.7-0.5l-14.8-0.1    L-88.9,166.7z"></path>
		<path class="st13" d="M-89.8,182l15.8,0.5l0.6,0.4l5.4-2l-0.3-0.7c-0.1-0.3-0.4-0.5-0.7-0.5l-14.8-0.1L-89.8,182z"></path>
		<path class="st14" d="M-91.2,181.7l-2.3,5.5c-0.2,0.5,0.2,1.1,0.7,1.1h0c0.3,0,0.6-0.2,0.7-0.5l1.7-4.4c0.1-0.3,0.4-0.5,0.8-0.5    h14.2c0.3,0,0.6,0.2,0.8,0.5l1.7,4.4c0.1,0.3,0.4,0.5,0.7,0.5h0c0.6,0,0.9-0.6,0.7-1.1l-2.2-5.6c-0.1-0.3-0.4-0.5-0.7-0.5h-1.2    h-3.1l-2.4-5.6c-0.1-0.3-0.4-0.4-0.7-0.4h-10.2l-2.7-6.8c-0.1-0.3-0.4-0.5-0.7-0.5h0c-0.6,0-0.9,0.6-0.7,1.1l4.6,11.7    C-91,181-91,181.4-91.2,181.7z M-81.6,177.5l1.3,3.2c0.1,0.2-0.1,0.5-0.3,0.5H-89c-0.1,0-0.3-0.1-0.3-0.2l-1.3-3.2    c-0.1-0.2,0.1-0.5,0.3-0.5h8.4C-81.8,177.3-81.7,177.4-81.6,177.5z"></path>
	</g>
</g>
<g>
	<g>
		<path class="st15" d="M39.5,18c-0.5,0.4-0.9,0.8-1.4,1.2c-0.9,0.6-0.9,0.8-0.2,1.7c0.5,0.5,0.4,0.7-0.2,1c-0.5,0.2-1,0.5-1.4,0.8    c-0.7,0.5-0.9,1.3-0.4,2.1c0.2,0.4,0.5,0.7,0.8,1c0.1,0.1,0.2,0.2,0.3,0.4c0.5,0.7,0.4,1.3-0.2,1.9c-0.7,0.6-1.5,0.9-2.3,1.2    c-0.9,0.2-1.9,0.4-2.7,1c-0.2,0.1-0.4,0.2-0.5,0.4c-0.3,0.3-0.5,0.3-0.9,0.2c-0.8-0.2-1.6-0.4-2.4-0.6c-0.2,0-0.4,0-0.8,0    c0.2,1,0.3,1.9,0.6,2.8c0.2,0.8,1,1.1,1.8,1.3c0.1,0,0.2,0,0.4,0.1c-0.5,0.5-0.9,0.9-1.3,1.2c-1.5,1.1-2.9,2.2-4.5,3.2    c-1.5,1-3.5,0.2-4.3-1.5c-0.3-0.6-0.4-1.2-0.6-1.8c-0.3-0.9-0.7-1.7-1.5-2.2c-0.1-0.1-0.1-0.1-0.2-0.2c0.8-1.2,0.6-2.5,0.2-3.7    c-0.1-0.5-0.3-0.9-0.4-1.4c-0.2-0.9-0.2-1.8,0.2-2.6c0.1-0.3,0.3-0.5,0.5-0.7c0.3-0.5,0.2-0.8-0.4-0.8c-0.4,0-0.8,0-1.3,0.1    c-0.8,0-1.6,0.1-2.4,0.1c-1.1-0.1-2-0.7-2.7-1.6c-0.3-0.5-0.8-0.8-1.4-0.8c-1,0-1.9,0-2.9,0c-0.3,0-0.7,0-1-0.1    c-0.9-0.3-1.2-1-1.4-1.8c0-0.2-0.1-0.4-0.1-0.6c0-0.6-0.2-1.2-0.5-1.7c-0.2-0.3-0.3-0.7-0.4-1.1c-0.1-0.4-0.4-0.5-0.7-0.6    c-0.9-0.2-0.8-0.2-0.5-1.1c0.2-0.6,0.4-1.3,0.6-1.9c0.3-1.3,1.1-2.4,2-3.3c0.4-0.4,0.9-0.4,1.3,0c0.2,0.1,0.3,0.3,0.5,0.5    c0.4,0.5,0.9,0.6,1.4,0.4C8.5,9.9,9,9.7,9.5,9.4c1.1-0.6,2.2-0.8,3.4-0.8c1.3,0.1,2.3,0.7,3.1,1.8c0.1,0.1,0.2,0.2,0.2,0.4    c0.3,0.5,0.8,0.7,1.4,0.7c1.1-0.1,2.3-0.3,3.5-0.1c0.6,0.1,1.2,0.4,1.9,0.6c0.4,0.2,0.8,0.4,1.2,0.6c1,0.4,2,0,2.5-0.9    c0.2-0.4,0.3-0.8,0.5-1.2c0.1-0.2,0.2-0.4,0.3-0.5c0.2-0.2,0.4-0.2,0.6,0.1c0.6,0.7,1.3,1,2.2,0.9c0.8-0.1,1.6-0.1,2.4-0.1    c0.2,0,0.5,0.1,0.7,0.3c-0.3,0.1-0.6,0.3-0.9,0.4c-0.3,0.1-0.6,0.3-0.9,0.4c0.3,0.6,0.7,0.9,1.3,1.1c0.9,0.3,1.7,0.6,2.6,0.8    c0.1,0,0.3,0.1,0.4,0.2c0.7,0.4,1,0.9,0.8,1.6c0,0.2-0.1,0.5-0.2,0.7c-0.1,0.4,0.1,0.6,0.5,0.5c0.2,0,0.4-0.1,0.7-0.1    c0.9-0.2,1.3,0.1,1.7,0.8C39.5,17.8,39.5,17.9,39.5,18z"></path>
	</g>
</g>
<polygon class="st0" points="17.3,8 16.3,7.4 15.2,8 15.4,6.8 14.5,5.9 15.7,5.8 16.3,4.7 16.8,5.8 18,5.9 17.1,6.8 "></polygon>
<polygon class="st0" points="23.3,6 22.3,5.4 21.2,6 21.4,4.8 20.5,3.9 21.7,3.8 22.3,2.7 22.8,3.8 24,3.9 23.1,4.8 "></polygon>
<polygon class="st0" points="28.3,8 27.3,7.4 26.2,8 26.4,6.8 25.5,5.9 26.7,5.8 27.3,4.7 27.8,5.8 29,5.9 28.1,6.8 "></polygon>
</svg>