<svg xmlns="http://www.w3.org/2000/svg" xmlns:xlink="http://www.w3.org/1999/xlink" id="Capa_1" x="0px" y="0px" viewBox="0 0 40 40" style="enable-background:new 0 0 40 40;" xml:space="preserve">
<style type="text/css">
	.st0{fill:#7BAA39;}
	.st1{fill:#7BAA39;stroke:#7BAA39;stroke-width:0.5898;stroke-miterlimit:10;}
	.st2{fill:#7BAA39;stroke:#7BAA39;stroke-width:0.5;stroke-miterlimit:10;}
	.st3{fill:#7BAA39;stroke:#7BAA39;stroke-miterlimit:10;}
	.st4{fill:#FFFFFF;}
	.st5{fill:#7BAA39;stroke:#7BAA39;stroke-width:0.9877;stroke-miterlimit:10;}
	.st6{fill:#698E21;}
	.st7{fill:#7BAA39;stroke:#7BAA39;stroke-width:1.9097;stroke-miterlimit:10;}
	.st8{fill:#7BAA39;stroke:#7BAA39;stroke-width:0.6979;stroke-miterlimit:10;}
	.st9{fill:#7BAA39;stroke:#7BAA39;stroke-width:0.5544;stroke-miterlimit:10;}
	.st10{fill:#7BAA39;stroke:#7BAA39;stroke-width:0.7505;stroke-miterlimit:10;}
	.st11{fill:#7BAA39;stroke:#7BAA39;stroke-width:0.1953;stroke-miterlimit:10;}
</style>
<path class="st0" d="M-318.9,1c-10.2,0-18.5,8.3-18.5,18.5s8.3,18.5,18.5,18.5c10.2,0,18.5-8.3,18.5-18.5S-308.7,1-318.9,1z   M-318.9,33.4c-7.7,0-13.9-6.2-13.9-13.9s6.2-13.9,13.9-13.9c7.7,0,13.9,6.2,13.9,13.9S-311.2,33.4-318.9,33.4z M-308.9,21.1  c0,1.3-1,2.3-2.3,2.3h-9.3c-1.3,0-2.3-1-2.3-2.3v-9.3c0-1.3,1-2.3,2.3-2.3c1.3,0,2.3,1,2.3,2.3v6.9h6.9  C-310,18.8-308.9,19.8-308.9,21.1z"></path>
<rect x="-305" y="-68" class="st0" width="40" height="40"></rect>
<g>
	<g>
		<path class="st0" d="M-283.4,65.5c-1.1,0-2.1-0.2-3-0.6c-0.8-0.4-1.5-1-2.1-1.6c-0.5-0.7-0.9-1.5-1.2-2.3    c-0.3-0.9-0.4-1.8-0.4-2.7c0-0.9,0.1-1.9,0.4-2.7c0.3-0.9,0.7-1.7,1.2-2.3c0.5-0.7,1.2-1.2,2.1-1.6c0.8-0.4,1.8-0.6,3-0.6    c1.1,0,2.1,0.2,2.9,0.6c0.8,0.4,1.5,1,2.1,1.6c0.6,0.7,1,1.5,1.2,2.3c0.3,0.9,0.4,1.8,0.4,2.7c0,0.9-0.1,1.8-0.4,2.7    c-0.3,0.9-0.7,1.6-1.2,2.3c-0.6,0.7-1.2,1.2-2.1,1.6C-281.3,65.3-282.3,65.5-283.4,65.5z M-283.4,62.2c0.8,0,1.4-0.4,1.8-1.1    c0.4-0.7,0.6-1.7,0.6-2.9c0-1.2-0.2-2.2-0.6-2.9c-0.4-0.7-1-1.1-1.8-1.1c-0.8,0-1.4,0.4-1.8,1.1c-0.4,0.7-0.6,1.7-0.6,2.9    c0,1.2,0.2,2.2,0.6,2.9C-284.8,61.9-284.2,62.2-283.4,62.2z M-267.6,51.2c0.8-0.1,1.6-0.2,2.4-0.2c0.7,0,1.5,0.1,2.4,0.2    l-16.7,24.3c-0.8,0.1-1.6,0.2-2.3,0.2c-0.8,0-1.6-0.1-2.4-0.2L-267.6,51.2z M-263.6,76c-1.1,0-2.1-0.2-3-0.6    c-0.8-0.4-1.5-1-2.1-1.6c-0.5-0.7-0.9-1.5-1.2-2.3c-0.3-0.9-0.4-1.8-0.4-2.7c0-0.9,0.1-1.9,0.4-2.7c0.3-0.9,0.7-1.7,1.2-2.3    c0.5-0.7,1.2-1.2,2.1-1.6c0.8-0.4,1.8-0.6,3-0.6c1.1,0,2.1,0.2,2.9,0.6c0.8,0.4,1.5,1,2.1,1.6c0.6,0.7,1,1.5,1.2,2.3    c0.3,0.9,0.4,1.8,0.4,2.7c0,0.9-0.1,1.8-0.4,2.7c-0.3,0.9-0.7,1.6-1.2,2.3c-0.6,0.7-1.2,1.2-2.1,1.6    C-261.5,75.8-262.5,76-263.6,76z M-263.6,72.8c0.8,0,1.4-0.4,1.8-1.1c0.4-0.7,0.6-1.7,0.6-2.9c0-1.2-0.2-2.2-0.6-2.9    c-0.4-0.7-1-1.1-1.8-1.1c-0.8,0-1.4,0.4-1.8,1.1c-0.4,0.7-0.6,1.7-0.6,2.9c0,1.2,0.2,2.2,0.6,2.9    C-265.1,72.4-264.5,72.8-263.6,72.8z"></path>
	</g>
</g>
<path class="st0" d="M-302.8,49.2h-6.1v-3c0-1.3-1.1-2.4-2.4-2.4c-1.3,0-2.4,1.1-2.4,2.4v3h-10.9v-3c0-1.3-1.1-2.4-2.4-2.4  c-1.3,0-2.4,1.1-2.4,2.4v3h-6.1c-1,0-1.8,0.8-1.8,1.8v26.3c0,1,0.8,1.8,1.8,1.8h32.7c1,0,1.8-0.8,1.8-1.8V51  C-301,50-301.8,49.2-302.8,49.2z M-320.4,57.3v4.8h-5.8v-4.8H-320.4z M-318,57.3h5.8v4.8h-5.8V57.3z M-328.6,57.3v4.8h-5.1v-4.8  H-328.6z M-328.6,64.6v3.6h-5.1v-3.6H-328.6z M-326.1,64.6h5.8v3.6h-5.8V64.6z M-320.4,70.6v4.9h-5.8v-4.9H-320.4z M-318,70.6h5.8  v4.9h-5.8V70.6z M-318,68.2v-3.6h5.8v3.6H-318z M-309.8,64.6h5.1v3.6h-5.1V64.6z M-309.8,62.1v-4.8h5.1v4.8H-309.8z M-333.7,70.6  h5.1v4.9h-5.1V70.6z M-309.8,75.5v-4.9h5.1v4.9H-309.8z"></path>
<g>
	<path class="st1" d="M-296.1,63.8v-1.9h4.4v1.9H-296.1z"></path>
</g>
<path class="st2" d="M-235.1,31.7h-2.1c-0.6,0-1.1-0.5-1.1-1.1c0-0.6,0.5-1.1,1.1-1.1h2.1c0.6,0,1.1,0.5,1.1,1.1  C-234,31.2-234.5,31.7-235.1,31.7z M-204,8.2v25.7c0,2.4-1.9,4.3-4.3,4.3h-23.6c-2.4,0-4.3-1.9-4.3-4.3h1.1c1.8,0,3.2-1.4,3.2-3.2  c0-1.8-1.4-3.2-3.2-3.2h-1.1V14.6h1.1c1.8,0,3.2-1.4,3.2-3.2c0-1.8-1.4-3.2-3.2-3.2h-1.1c0-2.4,1.9-4.3,4.3-4.3h23.6  C-205.9,3.9-204,5.8-204,8.2z M-206.1,8.2c0-1.2-1-2.1-2.1-2.1h-19.3v30h19.3c1.2,0,2.1-1,2.1-2.1V8.2z M-237.2,12.4h2.1  c0.6,0,1.1-0.5,1.1-1.1c0-0.6-0.5-1.1-1.1-1.1h-2.1c-0.6,0-1.1,0.5-1.1,1.1C-238.3,12-237.8,12.4-237.2,12.4z M-209.4,8.2h-15  c-0.6,0-1.1,0.5-1.1,1.1c0,0.6,0.5,1.1,1.1,1.1h15c0.6,0,1.1-0.5,1.1-1.1C-208.3,8.6-208.8,8.2-209.4,8.2z M-209.4,12.4h-15  c-0.6,0-1.1,0.5-1.1,1.1c0,0.6,0.5,1.1,1.1,1.1h15c0.6,0,1.1-0.5,1.1-1.1C-208.3,12.9-208.8,12.4-209.4,12.4z M-209.4,16.7h-15  c-0.6,0-1.1,0.5-1.1,1.1c0,0.6,0.5,1.1,1.1,1.1h15c0.6,0,1.1-0.5,1.1-1.1C-208.3,17.2-208.8,16.7-209.4,16.7z M-209.4,21h-15  c-0.6,0-1.1,0.5-1.1,1.1c0,0.6,0.5,1.1,1.1,1.1h15c0.6,0,1.1-0.5,1.1-1.1C-208.3,21.5-208.8,21-209.4,21z M-209.4,25.3h-15  c-0.6,0-1.1,0.5-1.1,1.1c0,0.6,0.5,1.1,1.1,1.1h15c0.6,0,1.1-0.5,1.1-1.1C-208.3,25.8-208.8,25.3-209.4,25.3z M-215.8,29.6h-8.6  c-0.6,0-1.1,0.5-1.1,1.1c0,0.6,0.5,1.1,1.1,1.1h8.6c0.6,0,1.1-0.5,1.1-1.1C-214.7,30.1-215.2,29.6-215.8,29.6z"></path>
<g>
	<path class="st3" d="M-177.6,22.8c0-1.2,3.5-2.1,4.8-3.5c1.1-1.2,2.1-2.4,1.9-4.9c-0.2-3.1-2.1-12.3-2.1-12.3h-10.6   c0,0-1.9,9.2-2.1,12.3c-0.1,2.6,0.8,3.8,1.9,4.9c1.4,1.4,4.8,2.4,4.8,3.5c0,1.2,0.1,4.1,0.1,4.1h0v11.5h-4.8V39h10.6v-0.6h-4.8   V26.9C-177.6,26.9-177.6,23.9-177.6,22.8z"></path>
	<g>
		<path class="st4" d="M-181.8,10.7c-0.3,3.6,0,7.5,2.4,9.4c-2.6-1.2-4.3-1.9-3.8-9.4h-0.8l1.1-8h9.5l1.1,8H-181.8z"></path>
	</g>
</g>
<g>
	<path class="st0" d="M-237.1,72.5c-1.4,0-2.7,1.4-2.7,3s1.3,3.1,2.7,3.1c1.4,0,2.6-1.5,2.6-3.1S-235.7,72.5-237.1,72.5z"></path>
	<path class="st0" d="M-227.4,48.4h22.9c1.4,0,2.5-1.2,2.5-2.8c0-1.6-1.1-2.9-2.5-2.9h-22.9c-1.4,0-2.5,1.3-2.5,2.9   C-229.9,47.2-228.8,48.4-227.4,48.4z"></path>
	<path class="st0" d="M-237.1,42.5c-1.4,0-2.7,1.5-2.7,3.1c0,1.7,1.3,3,2.7,3c1.4,0,2.6-1.4,2.6-3   C-234.5,43.9-235.7,42.5-237.1,42.5z"></path>
	<path class="st0" d="M-204.5,57.7h-22.9c-1.4,0-2.5,1.3-2.5,2.9s1.1,2.9,2.5,2.9h22.9c1.4,0,2.5-1.3,2.5-2.9   S-203.1,57.7-204.5,57.7z"></path>
	<path class="st0" d="M-204.5,72.7h-22.9c-1.4,0-2.5,1.3-2.5,2.9c0,1.6,1.1,2.9,2.5,2.9h22.9c1.4,0,2.5-1.3,2.5-2.9   C-202,74-203.1,72.7-204.5,72.7z"></path>
</g>
<path class="st5" d="M-257.5,28.3c0,0.8-0.7,1.5-1.6,1.5h-35.8c-0.9,0-1.6-0.7-1.6-1.5c0-0.8,0.7-1.5,1.6-1.5h35.8  C-258.2,26.8-257.5,27.5-257.5,28.3z M-274.9,8.6c-0.1-1-0.9-1.8-1.9-1.8c-1,0-1.8,0.8-1.9,1.8c0.6-0.1,1.2-0.1,1.9-0.1  C-276.1,8.4-275.5,8.5-274.9,8.6z M-260.1,24.5h-33.3c0.7-8.6,7.9-15.4,16.7-15.4C-268,9.1-260.8,15.9-260.1,24.5z M-278.7,10.6  c0,0-9.3,2-12.1,12.4c2.5,0,3.5,0,3.5,0S-285.3,14.3-278.7,10.6z"></path>
<polygon class="st6" points="-234.2,64 -236.6,62.7 -239,64 -238.5,61.3 -240.5,59.5 -237.8,59.1 -236.6,56.7 -235.4,59.1   -232.8,59.5 -234.7,61.3 "></polygon>
<g>
	<path class="st0" d="M-177.3,45.7c-7.4,0-13.5,6-13.5,13.5s6,13.5,13.5,13.5c7.4,0,13.5-6,13.5-13.5S-169.8,45.7-177.3,45.7z    M-167.4,56.7c0,0.1,0.1,0.3,0.1,0.4c0,0.2,0.1,0.4,0.1,0.6c0,0.1,0,0.2,0.1,0.4c0,0.3,0.1,0.7,0.1,1c0,0.3,0,0.7-0.1,1   c0,0.1,0,0.2-0.1,0.4c0,0.2-0.1,0.4-0.1,0.6c0,0.1-0.1,0.3-0.1,0.4c0,0.2-0.1,0.4-0.1,0.5c0,0.2-0.1,0.3-0.2,0.5   c-0.1,0.2-0.1,0.3-0.2,0.5c-0.1,0.2-0.1,0.3-0.2,0.5c-0.1,0.1-0.1,0.3-0.2,0.4c-0.1,0.2-0.2,0.3-0.3,0.5c-0.1,0.1-0.1,0.2-0.2,0.4   c-0.1,0.2-0.2,0.3-0.4,0.5c-0.1,0.1-0.1,0.2-0.2,0.3c-0.1,0.2-0.3,0.3-0.4,0.5c-0.1,0.1-0.1,0.2-0.2,0.2c-0.2,0.2-0.3,0.3-0.5,0.4   c-0.1,0.1-0.1,0.1-0.2,0.2c-0.2,0.1-0.4,0.3-0.5,0.4c-0.1,0.1-0.1,0.1-0.2,0.2c-0.2,0.1-0.4,0.2-0.6,0.4c-0.1,0-0.2,0.1-0.2,0.1   c-0.2,0.1-0.4,0.2-0.6,0.3c-0.1,0-0.2,0.1-0.2,0.1c-0.2,0.1-0.4,0.2-0.7,0.2c-0.1,0-0.2,0.1-0.3,0.1c-0.2,0.1-0.5,0.1-0.7,0.2   c-0.1,0-0.2,0.1-0.3,0.1c-0.2,0-0.5,0.1-0.7,0.1c-0.1,0-0.2,0-0.3,0c-0.2,0-0.4,0-0.7,0c-0.1,0-0.2,0-0.3,0v0c0,0,0,0-0.1,0   c-5.6,0-10.1-4.5-10.1-10.1c0-5.6,4.5-10.1,10.1-10.1c0,0,0,0,0.1,0v0c0.1,0,0.2,0,0.3,0c0.2,0,0.5,0,0.7,0c0.1,0,0.2,0,0.3,0   c0.2,0,0.5,0.1,0.7,0.1c0.1,0,0.2,0,0.2,0.1c0.2,0.1,0.5,0.1,0.7,0.2c0.1,0,0.1,0.1,0.2,0.1c0.2,0.1,0.5,0.2,0.7,0.3   c0.1,0,0.1,0.1,0.2,0.1c0.2,0.1,0.5,0.2,0.7,0.3c0.1,0,0.1,0.1,0.2,0.1c0.2,0.1,0.4,0.2,0.6,0.4c0.1,0,0.1,0.1,0.2,0.2   c0.2,0.1,0.4,0.3,0.6,0.4c0.1,0.1,0.1,0.1,0.2,0.2c0.2,0.2,0.3,0.3,0.5,0.5c0.1,0.1,0.1,0.2,0.2,0.2c0.1,0.2,0.3,0.3,0.4,0.5   c0.1,0.1,0.1,0.2,0.2,0.3c0.1,0.2,0.3,0.3,0.4,0.5c0.1,0.1,0.1,0.2,0.2,0.3c0.1,0.2,0.2,0.3,0.3,0.5c0.1,0.1,0.1,0.3,0.2,0.4   c0.1,0.2,0.2,0.3,0.2,0.5c0.1,0.2,0.1,0.3,0.2,0.5c0.1,0.2,0.1,0.3,0.2,0.5C-167.5,56.3-167.5,56.5-167.4,56.7z M-167.7,59.1   c0,5.3-4.3,9.5-9.5,9.5c-5.3,0-9.5-4.3-9.5-9.5c0-5.3,4.3-9.5,9.5-9.5C-172,49.6-167.7,53.9-167.7,59.1z M-159,48.6v22.3   c0,0.6-0.4,1.1-0.9,1.2v0c-0.1,0-0.2,0-0.3,0c-0.7,0-1.3-0.6-1.2-1.3c0.2-2.1,1.5-6.7,0.8-8.5c-0.4-1-1.7-2.9-1.7-6   c0-5.8,1.4-7.9,2.3-8.4c0,0,0,0,0,0C-159.5,47.8-159,48.1-159,48.6z M-192.4,48c0.3,1.8,0.5,5.2,0.5,6.9c0,2.1-0.4,2.1-1.7,2.6   l0.5,13.4c0,0.7-0.5,1.3-1.2,1.3c-0.1,0-0.1,0-0.2,0v0c-0.6-0.1-1-0.6-1-1.3l0.5-13.4c-1.3-0.5-1.7-0.5-1.7-2.6   c0-1.7,0.3-5.2,0.5-6.9h0.3l0.1,7.6h0.6l0.2-7.6h0.3l0.1,7.6h0.1h0.1h0.4l0.1-7.6h0.3l0.1,7.6h0.6l0.1-7.6H-192.4z"></path>
</g>
<g>
	<path d="M-237.7-2.8c0-0.4,0-0.9,0-1.2h0c-0.1,0.3-0.2,0.7-0.4,1.1l-0.5,1.4h-0.3l-0.5-1.3c-0.1-0.4-0.2-0.8-0.3-1.1h0   c0,0.3,0,0.8-0.1,1.2l-0.1,1.2h-0.3l0.2-2.8h0.5L-239-3c0.1,0.3,0.2,0.7,0.3,0.9h0c0.1-0.3,0.2-0.6,0.3-0.9l0.5-1.4h0.5l0.2,2.8   h-0.4L-237.7-2.8z"></path>
	<path d="M-234.9-2.6c0,0.7-0.5,1.1-1,1.1c-0.5,0-1-0.4-1-1c0-0.7,0.4-1.1,1-1.1C-235.3-3.6-234.9-3.2-234.9-2.6z M-236.5-2.5   c0,0.4,0.3,0.8,0.6,0.8c0.4,0,0.6-0.3,0.6-0.8c0-0.3-0.2-0.8-0.6-0.8C-236.3-3.3-236.5-2.9-236.5-2.5z"></path>
	<path d="M-234.4-3c0-0.2,0-0.4,0-0.5h0.3l0,0.3h0c0.1-0.2,0.3-0.4,0.6-0.4c0.3,0,0.5,0.2,0.6,0.4h0c0.1-0.1,0.1-0.2,0.2-0.3   c0.1-0.1,0.3-0.1,0.4-0.1c0.3,0,0.7,0.2,0.7,0.9v1.2h-0.4v-1.1c0-0.4-0.1-0.6-0.4-0.6c-0.2,0-0.4,0.2-0.4,0.3c0,0.1,0,0.1,0,0.2   v1.2h-0.4v-1.2c0-0.3-0.1-0.6-0.4-0.6c-0.2,0-0.4,0.2-0.5,0.4c0,0.1,0,0.1,0,0.2v1.2h-0.4V-3z"></path>
	<path d="M-230.7-2.5c0,0.5,0.3,0.7,0.7,0.7c0.3,0,0.4,0,0.6-0.1l0.1,0.3c-0.1,0.1-0.3,0.1-0.7,0.1c-0.6,0-1-0.4-1-1   c0-0.6,0.4-1.1,0.9-1.1c0.7,0,0.8,0.6,0.8,0.9c0,0.1,0,0.1,0,0.2H-230.7z M-229.7-2.7c0-0.2-0.1-0.6-0.5-0.6   c-0.4,0-0.5,0.3-0.6,0.6H-229.7z"></path>
	<path d="M-228.8-3c0-0.2,0-0.4,0-0.5h0.3l0,0.3h0c0.1-0.2,0.3-0.4,0.7-0.4c0.3,0,0.7,0.2,0.7,0.9v1.2h-0.4v-1.2   c0-0.3-0.1-0.6-0.5-0.6c-0.2,0-0.4,0.2-0.5,0.4c0,0,0,0.1,0,0.2v1.2h-0.4V-3z"></path>
	<path d="M-226.1-4.1v0.6h0.5v0.3h-0.5v1.1c0,0.2,0.1,0.4,0.3,0.4c0.1,0,0.2,0,0.2,0l0,0.3c-0.1,0-0.2,0.1-0.3,0.1   c-0.2,0-0.3-0.1-0.4-0.2c-0.1-0.1-0.1-0.3-0.1-0.5v-1.1h-0.3v-0.3h0.3V-4L-226.1-4.1z"></path>
	<path d="M-223.4-2.6c0,0.7-0.5,1.1-1,1.1c-0.5,0-1-0.4-1-1c0-0.7,0.4-1.1,1-1.1C-223.8-3.6-223.4-3.2-223.4-2.6z M-225-2.5   c0,0.4,0.3,0.8,0.6,0.8c0.4,0,0.6-0.3,0.6-0.8c0-0.3-0.2-0.8-0.6-0.8C-224.8-3.3-225-2.9-225-2.5z"></path>
	<path d="M-223-1.9c0.1,0.1,0.3,0.1,0.5,0.1c0.3,0,0.4-0.1,0.4-0.3c0-0.2-0.1-0.3-0.4-0.4c-0.4-0.1-0.5-0.3-0.5-0.6   c0-0.3,0.3-0.6,0.7-0.6c0.2,0,0.4,0.1,0.5,0.1l-0.1,0.3c-0.1,0-0.2-0.1-0.4-0.1c-0.2,0-0.3,0.1-0.3,0.3c0,0.2,0.1,0.2,0.4,0.3   c0.3,0.1,0.5,0.3,0.5,0.6c0,0.4-0.3,0.6-0.8,0.6c-0.2,0-0.4-0.1-0.6-0.1L-223-1.9z"></path>
	<path d="M-220.4-1.5c0-0.1,0-0.3,0-0.5v-2.4h0.4v1.3h0c0.1-0.2,0.4-0.4,0.7-0.4c0.5,0,0.9,0.4,0.8,1c0,0.7-0.5,1.1-0.9,1.1   c-0.3,0-0.5-0.1-0.7-0.4h0l0,0.3H-220.4z M-220-2.3c0,0,0,0.1,0,0.1c0.1,0.3,0.3,0.4,0.5,0.4c0.4,0,0.6-0.3,0.6-0.8   c0-0.4-0.2-0.7-0.6-0.7c-0.2,0-0.5,0.2-0.6,0.4c0,0,0,0.1,0,0.1V-2.3z"></path>
	<path d="M-216.2-2.6c0,0.7-0.5,1.1-1,1.1c-0.5,0-1-0.4-1-1c0-0.7,0.4-1.1,1-1.1C-216.6-3.6-216.2-3.2-216.2-2.6z M-217.8-2.5   c0,0.4,0.3,0.8,0.6,0.8c0.4,0,0.6-0.3,0.6-0.8c0-0.3-0.2-0.8-0.6-0.8C-217.6-3.3-217.8-2.9-217.8-2.5z"></path>
	<path d="M-214-4.5v2.4c0,0.2,0,0.4,0,0.5h-0.3l0-0.3h0c-0.1,0.2-0.4,0.4-0.7,0.4c-0.5,0-0.9-0.4-0.9-1c0-0.7,0.4-1.1,0.9-1.1   c0.3,0,0.5,0.1,0.6,0.3h0v-1.2H-214z M-214.3-2.7c0,0,0-0.1,0-0.2c-0.1-0.2-0.3-0.4-0.5-0.4c-0.4,0-0.6,0.3-0.6,0.8   c0,0.4,0.2,0.7,0.6,0.7c0.2,0,0.5-0.2,0.5-0.4c0-0.1,0-0.1,0-0.2V-2.7z"></path>
	<path d="M-213.5-1.8c0-0.2,0.1-0.3,0.2-0.3c0.1,0,0.2,0.1,0.2,0.3c0,0.1-0.1,0.3-0.2,0.3C-213.4-1.5-213.5-1.6-213.5-1.8z"></path>
</g>
<rect x="-143.3" y="-5.8" style="fill:none;" width="36.3" height="2.8"></rect>
<text transform="matrix(1 0 0 1 -143.3324 -3.7024)" style="font-family:'MyriadPro-Regular'; font-size:3px;">Regalate gastronomía. </text>
<g>
	<rect x="-132.9" y="14.3" class="st7" width="20.9" height="0.9"></rect>
	<rect x="-132.9" y="19.3" class="st7" width="20.9" height="0.9"></rect>
	<path class="st7" d="M-111.5,1.9H-134c-2.8,0-5.2,1.9-5.2,4.2v18.1c0,2.3,2.3,4.2,5.2,4.2h1.7l6.2,9.6l0.1,0.1l6.3-9.7h8.2   c2.8,0,5.1-1.9,5.1-4.2V6.1C-106.4,3.8-108.7,1.9-111.5,1.9z M-111.5,27.6h-8.7l-5.8,9l-5.7-8.9l0-0.1h-2.2c-2.3,0-4.2-1.5-4.2-3.3   V6.1c0-1.8,1.9-3.3,4.2-3.3h22.4c2.3,0,4.2,1.5,4.2,3.3v18.1C-107.3,26.1-109.2,27.6-111.5,27.6z"></path>
</g>
<polygon class="st2" points="-120.2,12 -122.6,10.7 -125,12 -124.5,9.3 -126.5,7.5 -123.8,7.1 -122.6,4.7 -121.4,7.1 -118.8,7.5   -120.7,9.3 "></polygon>
<g>
	<path class="st0" d="M-85.3,21v9c-0.6,0.1-1.8,0.3-3.3,0.3c-1.5,0-2.8-0.2-3.3-0.2v-9c0-0.1,0.1-2.8,3.3-2.8   C-85.3,18.2-85.3,20.9-85.3,21z M-90.6,6.4c0,0,0,0.5,0,1.2h0.5V3.5h0.8v4.2h2.7c0-0.7,0-1.2,0-1.2h0V3h0.2V1.4h-0.2V0.8h-2.7v0.6   h-0.2v1.6h-0.8V1.4h0.2V0.8h-0.5v0.6h-0.2V3h0.2V6.4z M-84.1,12.7c0.8,1,1,2,1,4.1v21.8c0,0.8-2.5,1.4-5.5,1.4   c-3,0-5.5-0.6-5.5-1.4V16.8c0-2.1,0.2-3.1,1-4.1c1-1.3,2.4-1.9,2.4-2.9c0-0.3,0-0.8,0-1.3h0.6v1.2c0,0,0,1.4-1,2.3l-0.1,0.1   c-1.2,1.1-2.2,2-2.2,4.6v21.9l0.8,0.3V16.8c0-2.3,0.7-2.9,1.9-4.1l0.1-0.1c1.2-1.2,1.3-2.8,1.3-2.9V8.5h2.7c0,0.5,0,1,0,1.3   C-86.5,10.8-85.1,11.4-84.1,12.7z M-84.8,20.9c0,0,0-3.3-3.8-3.3c-3.8,0-3.8,3.3-3.8,3.3v9.6c0,0,1.6,0.3,3.8,0.3   c2.2,0,3.8-0.3,3.8-0.3V20.9z"></path>
</g>
<g>
	<path class="st8" d="M-72.1,28.4c0-0.8,2.4-1.5,3.4-2.5c0.8-0.8,1.5-1.7,1.4-3.4c-0.1-2.1-1.4-8.6-1.4-8.6h-7.4   c0,0-1.3,6.4-1.4,8.6c-0.1,1.8,0.6,2.6,1.4,3.4c0.9,1,3.4,1.6,3.4,2.5c0,0.8,0,2.9,0,2.9h0v8.1h-3.3v0.4h7.4v-0.4h-3.4v-8.1   C-72.1,31.2-72.1,29.2-72.1,28.4z"></path>
	<g>
		<path class="st4" d="M-75.1,19.9c-0.2,2.5,0,5.3,1.7,6.5c-1.8-0.8-3-1.3-2.6-6.5h-0.5l0.8-5.6h6.6l0.7,5.6H-75.1z"></path>
	</g>
</g>
<path class="st9" d="M-140.4,60l1.4-0.4v6.2L-140.4,60z M-136.5,52.6h7.9l20-4.9L-109,46c-0.3-1.2-1.5-2-2.7-1.7l-28.5,7  c-1.2,0.3-2,1.5-1.7,2.7l0.4,1.7l2.7-0.7v-0.2C-138.7,53.7-137.7,52.6-136.5,52.6z M-138.2,61.6h33.9v10.2c0,1.2-1,2.3-2.3,2.3  h-29.4c-1.2,0-2.3-1-2.3-2.3V61.6z M-130.3,65.3c0,0,0.1-0.1,0.1-0.1c-0.1,0-0.3,0-0.4,0.1C-130.5,65.2-130.4,65.2-130.3,65.3z   M-130.8,65.3c0,0-0.1,0-0.1,0c0,0.1-0.1,0.2-0.1,0.3c0,0-0.4,0.7,0,0.5c0.2-0.1,0.3-0.2,0.4-0.3c0.1-0.1,0.2-0.2,0.3-0.3  C-130.5,65.4-130.7,65.4-130.8,65.3z M-130,64.9c0.5-0.6,1-1.1,1.5-1.7h-1.3c0.1,0.1,0.1,0.2,0,0.4c-0.3,0.5-0.6,0.9-0.9,1.4  C-130.5,65-130.2,65-130,64.9z M-130.1,65.3c0.2,0.1,0.4,0.1,0.6,0.2c0.1-0.2,0.2-0.3,0.3-0.5c0,0,0,0-0.1,0c-0.2,0-0.4,0.1-0.6,0.1  C-129.9,65.2-130,65.3-130.1,65.3z M-129.1,64.8c0-0.1,0.1-0.1,0.1-0.2c0.2-0.4,0.3-0.8,0.5-1.1c-0.4,0.5-0.8,0.9-1.2,1.4  C-129.5,64.9-129.3,64.8-129.1,64.8z M-128.7,65c0,0.1,0,0.3,0,0.4c0.1-0.1,0.2-0.3,0.3-0.5C-128.5,64.9-128.6,64.9-128.7,65  C-128.7,65-128.7,65-128.7,65z M-129.1,65.7c0,0,0.1,0,0.1,0.1c0.6,0.3,1.2,0.7,2,0.7c0.3,0,1.1,0.1,0.8-0.4  c-0.1-0.1-0.1-0.3-0.1-0.4c0-0.3,0.2-0.7,0.2-1c-0.2,0-0.5,0-0.7,0.1c-0.2,0.1-0.3,0.1-0.5,0.2c-0.1,0-0.1,0-0.1-0.1c0,0,0,0,0,0  c-0.1,0-0.2,0-0.4,0c-0.1,0.1-0.2,0.2-0.3,0.2c-0.1,0-0.1,0-0.1-0.1c0,0,0,0,0-0.1c0,0,0,0,0,0c-0.1,0.3-0.2,0.6-0.5,0.7  c-0.1,0-0.1,0-0.1-0.1c0-0.1,0-0.1,0-0.2c0,0.1-0.1,0.1-0.2,0.2C-129,65.6-129.1,65.7-129.1,65.7z M-127.4,64.6  c0-0.2,0.1-0.3,0.2-0.5c-0.1,0.1-0.3,0.3-0.4,0.5C-127.5,64.6-127.4,64.6-127.4,64.6z M-126,64.5c0-0.2-0.1-0.1-0.2,0  c0,0-0.1,0-0.1,0C-126.2,64.5-126.1,64.5-126,64.5z M-112.8,72.2h6.5V69h-6.5V72.2z M-115.5,63.2h-12.7c-0.1,0.2-0.2,0.4-0.2,0.6  c0,0,0,0,0.1-0.1c0.1-0.1,0.2,0,0.2,0.1c-0.1,0.3-0.2,0.6-0.3,0.9c0,0,0,0,0,0.1c0.1,0,0.2,0,0.3,0c0.1-0.2,0.1-0.4,0.2-0.6  c0-0.1,0.2,0,0.2,0c0,0.2,0,0.3,0,0.5c0,0,0.1,0,0.1,0c0.1-0.1,0.2-0.3,0.3-0.4c0.1-0.2,0.3-0.3,0.5-0.4c0.1,0,0.1,0,0.1,0.1  c0,0.2-0.2,0.4-0.2,0.7c0.1,0,0.2,0,0.4,0c0.3-0.1,0.5-0.3,0.7-0.4c0,0,0.1,0,0.1,0c0.1,0.1,0.1,0.2,0.1,0.3c0.4,0,0.7,0,1.1-0.1  c0.7,0,1.3-0.1,2-0.1c0.6,0,1.2-0.1,1.8,0c0.1,0,0.1,0.2,0,0.2c-0.7-0.1-1.5,0-2.3,0c-0.7,0-1.3,0-2,0.1c-0.2,0-0.4,0-0.6,0  c0,0.1,0,0.2-0.1,0.3c-0.1,0.2-0.1,0.4-0.2,0.6c0,0.2,0.1,0.4,0.1,0.6c0.1,0.3,0,0.4-0.2,0.5h10.7V63.2z M-136,66.6h8.7  c-0.1,0-0.1,0-0.2,0c-0.6-0.1-1.1-0.4-1.6-0.7c0,0-0.1,0-0.1-0.1c-0.1,0.2-0.2,0.3-0.4,0.3c-0.1,0-0.1,0-0.1-0.1  c0-0.1,0.1-0.3,0.1-0.4c-0.2-0.1-0.4-0.2-0.6-0.2c-0.3,0.4-0.7,0.9-1.2,0.8c0,0-0.1-0.1-0.1-0.1c0-0.3,0.2-0.7,0.3-0.9  c0,0-0.1,0-0.1,0c-0.7,0.1-1.3,0.1-2,0.1c-0.5,0-1,0-1.6,0c-0.2,0-0.5,0-0.6-0.2c0,0,0-0.1,0-0.1c0.4-0.2,0.8-0.2,1.3-0.2  c0.6,0,1.2,0,1.8,0.1c0.3,0,0.7,0.1,1,0.1c0.1,0,0.2,0,0.3,0c0,0,0-0.1,0.1-0.1c0.2-0.3,0.4-0.6,0.6-0.9c0.1-0.1,0.5-0.8,0.1-0.6  c-0.1,0-0.2-0.1-0.1-0.2h-5.8V66.6z M-134.3,65.1c-0.1,0-0.3,0-0.4,0c0,0-0.3,0.1-0.4,0.1c0.2,0,0.3,0,0.5,0c0.6,0,1.3,0,1.9,0  c0.1,0,0.3,0,0.4,0C-132.9,65.1-133.6,65.1-134.3,65.1z M-106.5,53.2h-29.4c-1.2,0-2.3,1-2.3,2.3v1.8h33.9v-1.8  C-104.3,54.2-105.3,53.2-106.5,53.2z M-107.5,52.8l-0.2-0.9l-3.9,1L-107.5,52.8z"></path>
<g>
	<g>
		<path class="st0" d="M-66.4,76.1c0.9,0.9,1,2.4,0.1,3.2c-0.9,0.9-2.3,0.8-3.2-0.1l-9.6-10.5c-0.7,0-1.4-0.2-2.2-0.5l3.5-3.5    l2.3,2.3L-66.4,76.1z M-86.6,64.5l4.3-4.3l-4.4-4.4c-3.5-3.5-6.9-6.9-9-9c-0.3-0.3-0.7-0.4-1.1-0.4c-0.3,0-0.7,0.3-0.8,1    c-0.3,2.9,1.8,8,9.5,15.6C-87.5,63.6-87,64.1-86.6,64.5z M-78.6,52.5L-78,52c0,0,0,0,0,0L-78.6,52.5z M-62.5,51.5    c-0.5-0.5-1.2-0.6-1.5-0.3l-6.8,6.8c-0.3,0.3-1,0.3-1.4-0.2c-0.4-0.4-0.5-1.1-0.2-1.4l6.8-6.8c0.3-0.3,0.2-1-0.3-1.5    c-0.5-0.5-1.2-0.6-1.5-0.3l-6.8,6.8c-0.3,0.3-1,0.3-1.4-0.2c-0.4-0.4-0.5-1.1-0.2-1.4l6.8-6.8c0.3-0.3,0.2-1-0.3-1.5    c-0.5-0.5-1.2-0.6-1.5-0.3L-78,52c-2.4,2.4-1.6,4.1-0.3,5.6l-19,19c-0.9,0.9-1,2.4-0.1,3.2c0.9,0.9,2.3,0.8,3.2-0.1l19-19    c1.5,1.4,3.2,2.1,5.6-0.3l7.4-7.4C-61.9,52.7-62,52-62.5,51.5z"></path>
	</g>
</g>
<rect x="-44.3" y="-3.8" style="fill:none;" width="29.3" height="2.8"></rect>
<text transform="matrix(1 0 0 1 -44.3324 -1.7024)" style="font-family:'MyriadPro-Regular'; font-size:3px;">Ofertas gastronómicos. </text>
<path class="st10" d="M-5.9,19L-24.3,2.6c-0.7-0.6-2-1.1-2.9-1.1l-13.3,0.3c-0.9,0-1.7,0.8-1.7,1.7l-0.3,13.3c0,0.9,0.5,2.2,1.1,2.9  L-25,38.1c0.6,0.7,1.6,0.7,2.3,0.1l17-17C-5.2,20.6-5.2,19.6-5.9,19z M-33.5,10.5c-1,1-2.5,1-3.5,0c-1-1-1-2.5,0-3.5  c1-1,2.5-1,3.5,0C-32.5,8-32.5,9.6-33.5,10.5z M-15.7,21.4h-15.2v-2.8h15.2L-15.7,21.4L-15.7,21.4z"></path>
<path class="st0" d="M36.1,17.2l0.7,20.7c0,1.1-0.8,2-1.8,2c0,0-0.1,0-0.1,0c0,0-0.1,0-0.1,0v0c-0.9-0.1-1.6-1-1.6-2l0.7-20.7  c-2-0.8-4.1-2.2-4.1-5.5c0-4.1,2.7-9.2,4.9-9.6v0c0,0,0.1,0,0.1,0c0,0,0,0,0,0c0,0,0.1,0,0.1,0c2.2,0,5.2,5.4,5.2,9.6  C40.2,15,38.1,16.4,36.1,17.2z M4.6,2.4C4.6,2.5,4.6,2.5,4.6,2.4C3.1,3.2,1,6.4,1,15.4c0,4.8,2,7.7,2.6,9.3c1,2.8-0.9,9.8-1.3,13.1  c-0.1,1.1,0.8,2,1.8,2c0.2,0,0.3,0,0.5-0.1v0c0.8-0.2,1.4-1,1.4-1.9V3.5C6,2.7,5.3,2.2,4.6,2.4z M21.5,2.5l-0.1,11.7h-1L20.3,2.5  h-0.5l-0.2,11.7h-0.6h-0.2h-0.2L18.4,2.5h-0.5l-0.2,11.7h-1L16.6,2.5h-0.5c-0.4,2.7-0.8,8-0.8,10.7c0,3.3,0.7,3.3,2.6,4.1l-0.7,20.7  c0,1,0.7,1.8,1.5,1.9v0c0.1,0,0.2,0,0.3,0c1,0,1.8-0.9,1.8-2l-0.7-20.7c2-0.8,2.6-0.7,2.6-4.1c0-2.7-0.4-7.9-0.8-10.7H21.5z"></path>
<path class="st0" d="M-42.3,64.2H-5v11.2c0,1.4-1.1,2.5-2.5,2.5h-32.3c-1.4,0-2.5-1.1-2.5-2.5V64.2z M-33.6,68.3  c0,0,0.1-0.1,0.1-0.1c-0.2,0-0.3,0-0.5,0.1C-33.8,68.2-33.7,68.2-33.6,68.3z M-34.3,68.3c0,0-0.1,0-0.1,0c-0.1,0.1-0.1,0.2-0.2,0.3  c0,0-0.4,0.8,0,0.6c0.2-0.1,0.3-0.2,0.5-0.4c0.1-0.1,0.2-0.2,0.3-0.4C-33.9,68.4-34.1,68.4-34.3,68.3z M-33.3,67.9  c0.5-0.6,1.1-1.3,1.6-1.9h-1.4c0.1,0.1,0.1,0.2,0,0.4c-0.3,0.5-0.7,1-1,1.5C-33.9,68-33.6,67.9-33.3,67.9z M-33.4,68.3  c0.2,0.1,0.4,0.1,0.6,0.2c0.1-0.2,0.2-0.4,0.3-0.6c0,0,0,0-0.1,0c-0.2,0-0.4,0.1-0.7,0.1C-33.3,68.2-33.3,68.3-33.4,68.3z   M-32.3,67.8c0-0.1,0.1-0.1,0.1-0.2c0.2-0.4,0.4-0.8,0.6-1.3c-0.4,0.5-0.9,1-1.3,1.5C-32.8,67.8-32.6,67.8-32.3,67.8z M-31.8,67.9  c0,0.2,0,0.3,0,0.5c0.2-0.1,0.3-0.3,0.3-0.5C-31.6,67.9-31.7,67.9-31.8,67.9C-31.8,67.9-31.8,67.9-31.8,67.9z M-32.3,68.8  c0,0,0.1,0,0.1,0.1c0.7,0.4,1.3,0.7,2.2,0.8c0.3,0,1.2,0.1,0.9-0.4c-0.1-0.1-0.1-0.3-0.1-0.4c0-0.4,0.2-0.7,0.3-1.1  c-0.3,0-0.5,0-0.8,0.1c-0.2,0.1-0.4,0.2-0.6,0.2c-0.1,0-0.1,0-0.1-0.1c0,0,0,0,0,0c-0.1,0-0.3,0-0.4,0c-0.1,0.1-0.2,0.2-0.3,0.2  c-0.1,0-0.1,0-0.1-0.1c0,0,0,0,0-0.1c0,0,0,0,0,0c-0.1,0.3-0.3,0.6-0.6,0.8c-0.1,0-0.1,0-0.2-0.1c0-0.1,0-0.1,0-0.2  c-0.1,0.1-0.1,0.2-0.2,0.2C-32.3,68.7-32.3,68.7-32.3,68.8z M-30.4,67.6c0-0.2,0.1-0.3,0.2-0.5c-0.2,0.1-0.3,0.3-0.4,0.5  C-30.6,67.6-30.5,67.6-30.4,67.6z M-28.9,67.4c0-0.2-0.1-0.1-0.2,0c0,0-0.1,0-0.1,0.1C-29.2,67.4-29.1,67.4-28.9,67.4z M-14.3,75.9  h7.2v-3.6h-7.2V75.9z M-17.4,66h-14c-0.1,0.2-0.2,0.4-0.3,0.6c0,0,0-0.1,0.1-0.1c0.1-0.1,0.2,0,0.2,0.1c-0.1,0.3-0.2,0.7-0.4,1  c0,0,0,0,0,0.1c0.1,0,0.2,0,0.3,0c0.1-0.2,0.1-0.5,0.2-0.6c0.1-0.1,0.2,0,0.2,0.1c0,0.2,0,0.4,0,0.5c0,0,0.1,0,0.1,0  c0.1-0.1,0.2-0.3,0.3-0.4c0.1-0.2,0.3-0.3,0.5-0.4c0.1,0,0.2,0,0.2,0.1c0,0.3-0.2,0.5-0.2,0.7c0.1,0,0.3,0,0.4,0  c0.3-0.1,0.5-0.3,0.8-0.4c0,0,0.1,0,0.1,0c0.1,0.1,0.1,0.2,0.1,0.3c0.4,0,0.8-0.1,1.2-0.1c0.7,0,1.5-0.1,2.2-0.1c0.6,0,1.3-0.1,2,0  c0.1,0,0.1,0.2-0.1,0.2c-0.8-0.1-1.7,0-2.5,0c-0.7,0-1.5,0-2.2,0.1c-0.2,0-0.4,0-0.6,0c0,0.1,0,0.2-0.1,0.3  c-0.1,0.2-0.1,0.5-0.2,0.7c0,0.2,0.1,0.4,0.2,0.6c0.1,0.3,0,0.5-0.3,0.6h11.8V66z M-39.9,69.8h9.5c-0.1,0-0.1,0-0.2,0  c-0.6-0.1-1.2-0.5-1.7-0.7c0,0-0.1,0-0.1-0.1c-0.1,0.2-0.3,0.3-0.4,0.4c-0.1,0-0.1,0-0.1-0.1c0-0.1,0.1-0.3,0.1-0.4  c-0.2-0.1-0.5-0.2-0.7-0.2c-0.3,0.4-0.8,1-1.3,0.9c0,0-0.1-0.1-0.1-0.1c0-0.4,0.2-0.7,0.4-1c0,0-0.1,0-0.1,0  c-0.7,0.1-1.4,0.1-2.2,0.1c-0.6,0-1.1,0-1.7,0c-0.2,0-0.5,0-0.7-0.2c0,0,0-0.1,0-0.1c0.4-0.2,0.9-0.2,1.4-0.2c0.7,0,1.3,0,2,0.1  c0.4,0,0.7,0.1,1.1,0.1c0.1,0,0.2,0,0.3,0c0,0,0.1-0.1,0.1-0.1c0.2-0.3,0.5-0.7,0.7-1c0.1-0.1,0.6-0.8,0.2-0.7  c-0.1,0-0.2-0.1-0.1-0.2h-6.3V69.8z M-38.1,68.1c-0.1,0-0.3,0-0.4,0c0,0-0.4,0.1-0.4,0.1c0.2,0,0.3,0,0.5,0c0.7,0.1,1.4,0,2.1,0  c0.2,0,0.3,0,0.5,0C-36.6,68.1-37.3,68.1-38.1,68.1z M-7.5,55h-32.3c-1.4,0-2.5,1.1-2.5,2.5v1.9H-5v-1.9C-5,56.1-6.1,55-7.5,55z"></path>
<path class="st10" d="M-24,53.9c-11.8-6.5-3.3-14.5,0-9.1C-20.7,39.4-12.2,47.4-24,53.9z"></path>
<g>
	<g>
		<path class="st0" d="M35.6,77.1c0.9,0.9,1,2.4,0.1,3.2c-0.9,0.9-2.3,0.8-3.2-0.1l-9.6-10.5c-0.7,0-1.4-0.2-2.2-0.5l3.5-3.5    l2.3,2.3L35.6,77.1z M15.4,65.5l4.3-4.3l-4.4-4.4c-3.5-3.5-6.9-6.9-9-9c-0.3-0.3-0.7-0.4-1.1-0.4c-0.3,0-0.7,0.3-0.8,1    c-0.3,2.9,1.8,8,9.5,15.6C14.5,64.6,15,65.1,15.4,65.5z M23.4,53.5L24,53c0,0,0,0,0,0L23.4,53.5z M39.5,52.5    c-0.5-0.5-1.2-0.6-1.5-0.3l-6.8,6.8c-0.3,0.3-1,0.3-1.4-0.2c-0.4-0.4-0.5-1.1-0.2-1.4l6.8-6.8c0.3-0.3,0.2-1-0.3-1.5    c-0.5-0.5-1.2-0.6-1.5-0.3l-6.8,6.8c-0.3,0.3-1,0.3-1.4-0.2c-0.4-0.4-0.5-1.1-0.2-1.4l6.8-6.8c0.3-0.3,0.2-1-0.3-1.5    c-0.5-0.5-1.2-0.6-1.5-0.3L24,53c-2.4,2.4-1.6,4.1-0.3,5.6l-19,19c-0.9,0.9-1,2.4-0.1,3.2c0.9,0.9,2.3,0.8,3.2-0.1l19-19    c1.5,1.4,3.2,2.1,5.6-0.3l7.4-7.4C40.1,53.7,40,53,39.5,52.5z"></path>
	</g>
</g>
<polygon class="st2" points="22.8,52 20.4,50.7 18,52 18.5,49.3 16.5,47.5 19.2,47.1 20.4,44.7 21.6,47.1 24.2,47.5 22.3,49.3 "></polygon>
<rect x="-333.3" y="93.6" style="fill:none;" width="28.3" height="3.8"></rect>
<text transform="matrix(1 0 0 1 -333.3333 96.4183)" style="font-family:'MyriadPro-Regular'; font-size:4px;">Hoteles. </text>
<g>
	<path class="st0" d="M-304.6,115.6h-5.2v-2.6c0-1.1-0.9-2.1-2.1-2.1c-1.1,0-2.1,0.9-2.1,2.1v2.6h-9.4v-2.6c0-1.1-0.9-2.1-2.1-2.1   c-1.1,0-2.1,0.9-2.1,2.1v2.6h-5.2c-0.9,0-1.6,0.7-1.6,1.6v22.6c0,0.9,0.7,1.6,1.6,1.6h28.1c0.9,0,1.6-0.7,1.6-1.6v-22.6   C-303,116.3-303.7,115.6-304.6,115.6z M-319.6,122.6v4.2h-4.9v-4.2H-319.6z M-317.6,122.6h4.9v4.2h-4.9V122.6z M-326.7,122.6v4.2   h-4.4v-4.2H-326.7z M-326.7,128.9v3.1h-4.4v-3.1H-326.7z M-324.6,128.9h4.9v3.1h-4.9V128.9z M-319.6,134.1v4.2h-4.9v-4.2H-319.6z    M-317.6,134.1h4.9v4.2h-4.9V134.1z M-317.6,132v-3.1h4.9v3.1H-317.6z M-310.5,128.9h4.4v3.1h-4.4V128.9z M-310.5,126.8v-4.2h4.4   v4.2H-310.5z M-331.1,134.1h4.4v4.2h-4.4V134.1z M-310.5,138.3v-4.2h4.4v4.2H-310.5z"></path>
	<polygon class="st11" points="-314.1,126.4 -315,125.9 -316,126.4 -315.8,125.4 -316.5,124.6 -315.5,124.5 -315,123.6    -314.6,124.5 -313.5,124.6 -314.3,125.4  "></polygon>
	<polygon class="st11" points="-321,131.6 -321.9,131.1 -322.8,131.6 -322.7,130.5 -323.4,129.8 -322.4,129.6 -321.9,128.7    -321.4,129.6 -320.4,129.8 -321.2,130.5  "></polygon>
</g>
<g>
	<g>
		<g>
			<path class="st0" d="M-255,140c0,0.6-0.5,1.1-1.1,1.1h-29.8c-0.6,0-1.1-0.5-1.1-1.1v-2c0-0.6,0.5-1.1,1.1-1.1h29.8     c0.6,0,1.1,0.5,1.1,1.1V140z"></path>
		</g>
		<g>
			<g>
				<path class="st0" d="M-268.4,116.8c0,0.1-0.1,0.2-0.2,0.2h-4.7c-0.1,0-0.2-0.1-0.2-0.2v-3.3c0-0.1,0.1-0.2,0.2-0.2h4.7      c0.1,0,0.2,0.1,0.2,0.2V116.8z"></path>
			</g>
			<g>
				<path class="st0" d="M-268.4,121.9c0,0.1-0.1,0.2-0.2,0.2h-4.7c-0.1,0-0.2-0.1-0.2-0.2v-3.3c0-0.1,0.1-0.2,0.2-0.2h4.7      c0.1,0,0.2,0.1,0.2,0.2V121.9z"></path>
			</g>
			<g>
				<path class="st0" d="M-268.4,126.9c0,0.1-0.1,0.2-0.2,0.2h-4.7c-0.1,0-0.2-0.1-0.2-0.2v-3.3c0-0.1,0.1-0.2,0.2-0.2h4.7      c0.1,0,0.2,0.1,0.2,0.2V126.9z"></path>
			</g>
			<g>
				<path class="st0" d="M-260.3,116.8c0,0.1-0.1,0.2-0.2,0.2h-4.7c-0.1,0-0.2-0.1-0.2-0.2v-3.3c0-0.1,0.1-0.2,0.2-0.2h4.7      c0.1,0,0.2,0.1,0.2,0.2V116.8z"></path>
			</g>
			<g>
				<path class="st0" d="M-260.3,121.9c0,0.1-0.1,0.2-0.2,0.2h-4.7c-0.1,0-0.2-0.1-0.2-0.2v-3.3c0-0.1,0.1-0.2,0.2-0.2h4.7      c0.1,0,0.2,0.1,0.2,0.2V121.9z"></path>
			</g>
			<g>
				<path class="st0" d="M-260.3,126.9c0,0.1-0.1,0.2-0.2,0.2h-4.7c-0.1,0-0.2-0.1-0.2-0.2v-3.3c0-0.1,0.1-0.2,0.2-0.2h4.7      c0.1,0,0.2,0.1,0.2,0.2V126.9z"></path>
			</g>
			<g>
				<path class="st0" d="M-276.5,116.8c0,0.1-0.1,0.2-0.2,0.2h-4.7c-0.1,0-0.2-0.1-0.2-0.2v-3.3c0-0.1,0.1-0.2,0.2-0.2h4.7      c0.1,0,0.2,0.1,0.2,0.2V116.8z"></path>
			</g>
			<g>
				<path class="st0" d="M-276.5,121.9c0,0.1-0.1,0.2-0.2,0.2h-4.7c-0.1,0-0.2-0.1-0.2-0.2v-3.3c0-0.1,0.1-0.2,0.2-0.2h4.7      c0.1,0,0.2,0.1,0.2,0.2V121.9z"></path>
			</g>
			<g>
				<path class="st0" d="M-276.5,126.9c0,0.1-0.1,0.2-0.2,0.2h-4.7c-0.1,0-0.2-0.1-0.2-0.2v-3.3c0-0.1,0.1-0.2,0.2-0.2h4.7      c0.1,0,0.2,0.1,0.2,0.2V126.9z"></path>
			</g>
		</g>
		<g>
			<path class="st0" d="M-271.1,102.2c0-0.1,0.1-0.1,0.1,0c0.2,0.4,0.5,0.9,0.7,1.3c0,0.1,0.1,0.1,0.2,0.2c0.5,0.1,1,0.2,1.5,0.2     c0.1,0,0.1,0.1,0,0.1c-0.4,0.3-0.7,0.6-1.1,1c-0.1,0.1-0.1,0.2-0.1,0.3c0.1,0.5,0.2,0.9,0.2,1.4c0,0.1,0,0.1-0.1,0.1     c-0.4-0.2-0.9-0.5-1.3-0.7c-0.1,0-0.2,0-0.3,0c-0.4,0.2-0.9,0.4-1.3,0.7c-0.1,0-0.1,0-0.1-0.1c0.1-0.5,0.1-0.9,0.2-1.4     c0-0.1,0-0.2-0.1-0.3c-0.4-0.3-0.7-0.6-1.1-1c-0.1-0.1,0-0.1,0-0.1c0.5-0.1,1-0.2,1.5-0.2c0.1,0,0.2-0.1,0.2-0.2     C-271.5,103-271.3,102.6-271.1,102.2"></path>
		</g>
		<g>
			<path class="st0" d="M-265.9,103.7c0-0.1,0.1-0.1,0.1,0c0.2,0.4,0.3,0.7,0.5,1.1c0,0.1,0.1,0.1,0.2,0.1c0.4,0.1,0.8,0.2,1.2,0.3     c0.1,0,0.1,0.1,0,0.1c-0.3,0.3-0.6,0.5-1,0.8c-0.1,0-0.1,0.1-0.1,0.2c0,0.4,0.1,0.8,0.1,1.2c0,0.1,0,0.1-0.1,0.1     c-0.3-0.2-0.7-0.4-1-0.6c-0.1,0-0.2,0-0.2,0c-0.4,0.2-0.7,0.3-1.1,0.5c-0.1,0-0.1,0-0.1-0.1c0.1-0.4,0.2-0.8,0.3-1.2     c0-0.1,0-0.2-0.1-0.2c-0.3-0.3-0.6-0.6-0.9-0.9c-0.1-0.1,0-0.1,0-0.1c0.4,0,0.8-0.1,1.3-0.1c0.1,0,0.2-0.1,0.2-0.1     C-266.3,104.4-266.1,104-265.9,103.7"></path>
		</g>
		<g>
			<path class="st0" d="M-276.5,103.7c0-0.1,0.1-0.1,0.1,0c0.2,0.3,0.4,0.7,0.6,1c0,0.1,0.1,0.1,0.2,0.1c0.4,0,0.8,0.1,1.3,0.1     c0.1,0,0.1,0.1,0,0.1c-0.3,0.3-0.6,0.6-0.9,0.9c-0.1,0.1-0.1,0.1-0.1,0.2c0.1,0.4,0.2,0.8,0.3,1.2c0,0.1,0,0.1-0.1,0.1     c-0.4-0.2-0.7-0.3-1.1-0.5c-0.1,0-0.2,0-0.2,0c-0.4,0.2-0.7,0.4-1.1,0.6c-0.1,0-0.1,0-0.1-0.1c0-0.4,0.1-0.8,0.1-1.2     c0-0.1,0-0.2-0.1-0.2c-0.3-0.3-0.6-0.5-1-0.8c-0.1,0,0-0.1,0-0.1c0.4-0.1,0.8-0.2,1.2-0.3c0.1,0,0.2-0.1,0.2-0.1     C-276.9,104.4-276.7,104.1-276.5,103.7"></path>
		</g>
		<g>
			<path class="st0" d="M-261.6,106.9C-261.5,106.8-261.5,106.8-261.6,106.9c0.2,0.3,0.3,0.5,0.4,0.8c0,0,0.1,0.1,0.1,0.1     c0.3,0.1,0.6,0.2,0.8,0.2c0,0,0.1,0,0,0.1c-0.2,0.2-0.5,0.3-0.7,0.5c0,0-0.1,0.1-0.1,0.1c0,0.3,0,0.6,0,0.8c0,0,0,0.1-0.1,0     c-0.2-0.2-0.5-0.3-0.7-0.5c0,0-0.1,0-0.2,0c-0.3,0.1-0.5,0.2-0.8,0.3c0,0-0.1,0-0.1-0.1c0.1-0.3,0.2-0.5,0.2-0.8c0,0,0-0.1,0-0.2     c-0.2-0.2-0.4-0.4-0.6-0.6c0,0,0-0.1,0-0.1c0.3,0,0.6,0,0.9,0c0.1,0,0.1,0,0.1-0.1C-261.9,107.3-261.7,107.1-261.6,106.9"></path>
		</g>
		<g>
			<path class="st0" d="M-280.5,106.9C-280.5,106.9-280.4,106.9-280.5,106.9c0.2,0.2,0.4,0.5,0.6,0.7c0,0,0.1,0.1,0.1,0.1     c0.3,0,0.6,0,0.9,0c0.1,0,0.1,0,0,0.1c-0.2,0.2-0.4,0.4-0.6,0.6c0,0,0,0.1,0,0.2c0.1,0.3,0.2,0.5,0.2,0.8c0,0,0,0.1-0.1,0.1     c-0.3-0.1-0.5-0.2-0.8-0.3c0,0-0.1,0-0.2,0c-0.2,0.2-0.5,0.3-0.7,0.5c0,0-0.1,0-0.1,0c0-0.3,0-0.6,0-0.8c0,0,0-0.1-0.1-0.1     c-0.2-0.2-0.5-0.3-0.7-0.5c0,0,0-0.1,0-0.1c0.3-0.1,0.6-0.2,0.8-0.2c0,0,0.1-0.1,0.1-0.1C-280.7,107.5-280.6,107.2-280.5,106.9"></path>
		</g>
		<g>
			<g>
				<path class="st3" d="M-278.2,108.5c0,0-0.1,0.1,0,0.2c0.1,0.2,0.1,0.4,0.2,0.7h14.1c0.1-0.2,0.1-0.5,0.2-0.7c0-0.1,0-0.2,0-0.2      c0,0-0.1-0.1-0.1-0.1H-278C-278.1,108.4-278.1,108.5-278.2,108.5z"></path>
			</g>
			<g>
				<g>
					<path class="st3" d="M-282.9,139.3h23.8c1.1,0,2-0.9,2-2h-1c0,0.5-0.4,0.9-0.9,0.9h-23.8c-0.5,0-0.9-0.4-0.9-0.9h-1       C-284.8,138.4-284,139.3-282.9,139.3z"></path>
				</g>
				<g>
					<path class="st3" d="M-283.8,135.7v-25.4c0-0.5,0.4-0.9,0.9-0.9h0.6c0-0.1,0-0.3,0-0.4c0-0.1,0-0.1-0.1-0.2       c-0.2-0.1-0.4-0.3-0.6-0.4l0,0c-1.1,0-1.9,0.9-1.9,2v25.4H-283.8z"></path>
				</g>
				<g>
					<path class="st3" d="M-259.1,109.4c0.5,0,0.9,0.4,0.9,0.9v25.4h1v-25.4c0-1.1-0.9-2-1.9-2l0,0c-0.2,0.1-0.3,0.2-0.5,0.4       c-0.1,0-0.1,0.1-0.1,0.2c0,0.2,0,0.3,0,0.5H-259.1z"></path>
				</g>
			</g>
		</g>
		<g>
			<path class="st0" d="M-265.8,136v-6.8c0-0.3-0.2-0.5-0.5-0.5h-9.4c-0.3,0-0.5,0.2-0.5,0.5v6.8H-265.8z"></path>
		</g>
	</g>
</g>
<path class="st0" d="M-318.7,103c-2.4,0-4.3,1.9-4.3,4.3c0,0.9,0.3,1.8,0.8,2.5l0.1,0.2l3.1,4.3c0.1,0.1,0.2,0.1,0.3,0.1  s0.2-0.1,0.3-0.1l3-4.3l0.2-0.2c0.5-0.7,0.8-1.6,0.8-2.5C-314.4,104.9-316.3,103-318.7,103z M-318.7,108.7c-0.8,0-1.4-0.6-1.4-1.4  c0-0.8,0.6-1.4,1.4-1.4c0.8,0,1.4,0.6,1.4,1.4C-317.3,108.1-317.9,108.7-318.7,108.7z"></path>
<g>
	<g>
		<path class="st0" d="M-277.6,167.7c0.1-0.1,0.2-0.3,0.2-0.4l-0.3-2c0-0.1,0-0.3,0.1-0.4l1.4-1.4c0.1-0.1,0.2-0.3,0.1-0.4    c-0.1-0.2-0.2-0.3-0.3-0.3l-2-0.3c-0.1,0-0.3-0.1-0.3-0.2l-0.9-1.8c-0.1-0.1-0.2-0.2-0.4-0.2c-0.2,0-0.3,0.1-0.4,0.2l-0.9,1.8    c-0.1,0.1-0.2,0.2-0.3,0.2l-2,0.3c-0.2,0-0.3,0.1-0.3,0.3c-0.1,0.2,0,0.3,0.1,0.4l1.4,1.4c0.1,0.1,0.1,0.2,0.1,0.4l-0.3,2    c0,0.2,0,0.3,0.2,0.4c0.1,0.1,0.3,0.1,0.5,0l1.8-0.9c0.1-0.1,0.3-0.1,0.4,0l1.8,0.9C-277.9,167.8-277.8,167.7-277.6,167.7z"></path>
		<path class="st0" d="M-268.3,167.7c0.1-0.1,0.2-0.3,0.2-0.4l-0.3-2c0-0.1,0-0.3,0.1-0.4l1.4-1.4c0.1-0.1,0.2-0.3,0.1-0.4    c-0.1-0.2-0.2-0.3-0.3-0.3l-2-0.3c-0.1,0-0.3-0.1-0.3-0.2l-0.9-1.8c-0.1-0.1-0.2-0.2-0.4-0.2c-0.2,0-0.3,0.1-0.4,0.2l-0.9,1.8    c-0.1,0.1-0.2,0.2-0.3,0.2l-2,0.3c-0.2,0-0.3,0.1-0.3,0.3c-0.1,0.2,0,0.3,0.1,0.4l1.4,1.4c0.1,0.1,0.1,0.2,0.1,0.4l-0.3,2    c0,0.2,0,0.3,0.2,0.4c0.1,0.1,0.3,0.1,0.5,0l1.8-0.9c0.1-0.1,0.3-0.1,0.4,0l1.8,0.9C-268.6,167.8-268.4,167.7-268.3,167.7z"></path>
		<path class="st0" d="M-271.8,172.1l-2-0.3c-0.1,0-0.3-0.1-0.3-0.2l-0.9-1.8c-0.1-0.1-0.2-0.2-0.4-0.2c-0.2,0-0.3,0.1-0.4,0.2    l-0.9,1.8c-0.1,0.1-0.2,0.2-0.3,0.2l-2,0.3c-0.2,0-0.3,0.1-0.3,0.3c-0.1,0.2,0,0.3,0.1,0.4l1.4,1.4c0.1,0.1,0.1,0.2,0.1,0.4    l-0.3,2c0,0.2,0,0.3,0.2,0.4c0.1,0.1,0.3,0.1,0.5,0l1.8-0.9c0.1-0.1,0.3-0.1,0.4,0l1.8,0.9c0.1,0.1,0.3,0.1,0.5,0    c0.1-0.1,0.2-0.3,0.2-0.4l-0.3-2c0-0.1,0-0.3,0.1-0.4l1.4-1.4c0.1-0.1,0.2-0.3,0.1-0.4C-271.5,172.2-271.7,172.1-271.8,172.1z"></path>
		<path class="st0" d="M-262.5,172.1l-2-0.3c-0.1,0-0.3-0.1-0.3-0.2l-0.9-1.8c-0.1-0.1-0.2-0.2-0.4-0.2c-0.2,0-0.3,0.1-0.4,0.2    l-0.9,1.8c-0.1,0.1-0.2,0.2-0.3,0.2l-2,0.3c-0.2,0-0.3,0.1-0.3,0.3c-0.1,0.2,0,0.3,0.1,0.4l1.4,1.4c0.1,0.1,0.1,0.2,0.1,0.4    l-0.3,2c0,0.2,0,0.3,0.2,0.4c0.1,0.1,0.3,0.1,0.5,0l1.8-0.9c0.1-0.1,0.3-0.1,0.4,0l1.8,0.9c0.1,0.1,0.3,0.1,0.5,0    c0.1-0.1,0.2-0.3,0.2-0.4l-0.3-2c0-0.1,0-0.3,0.1-0.4l1.4-1.4c0.1-0.1,0.2-0.3,0.1-0.4C-262.2,172.2-262.3,172.1-262.5,172.1z"></path>
		<path class="st0" d="M-257.8,162.8l-2-0.3c-0.1,0-0.3-0.1-0.3-0.2l-0.9-1.8c-0.1-0.1-0.2-0.2-0.4-0.2c-0.2,0-0.3,0.1-0.4,0.2    l-0.9,1.8c-0.1,0.1-0.2,0.2-0.3,0.2l-2,0.3c-0.2,0-0.3,0.1-0.3,0.3c0,0.2,0,0.3,0.1,0.4l1.4,1.4c0.1,0.1,0.1,0.2,0.1,0.4l-0.3,2    c0,0.2,0,0.3,0.2,0.4c0.1,0.1,0.3,0.1,0.5,0l1.8-0.9c0.1-0.1,0.3-0.1,0.4,0l1.8,0.9c0.1,0.1,0.3,0.1,0.5,0    c0.1-0.1,0.2-0.3,0.2-0.4l-0.3-2c0-0.1,0-0.3,0.1-0.4l1.4-1.4c0.1-0.1,0.2-0.3,0.1-0.4C-257.5,162.9-257.6,162.8-257.8,162.8z"></path>
		<path class="st0" d="M-255.6,154.3h-30.1c-2,0-3.6,1.6-3.6,3.6v21.4c0,2,1.6,3.7,3.6,3.7h30.1c2,0,3.6-1.7,3.6-3.7V158    C-252,155.9-253.6,154.3-255.6,154.3z M-255.1,179.3c0,0.3-0.2,0.5-0.5,0.5h-30.2c-0.3,0-0.5-0.2-0.5-0.5v-21.4    c0-0.3,0.2-0.5,0.5-0.5h30.2c0.3,0,0.5,0.2,0.5,0.5V179.3z"></path>
	</g>
</g>
</svg>