<svg xmlns="http://www.w3.org/2000/svg" xmlns:xlink="http://www.w3.org/1999/xlink" id="Capa_1" x="0px" y="0px" viewBox="0 0 40 40" style="enable-background:new 0 0 40 40;" xml:space="preserve">
<style type="text/css">
	.st0{fill:#7BAA39;}
	.st1{fill:#7BAA39;stroke:#7BAA39;stroke-width:0.5898;stroke-miterlimit:10;}
	.st2{fill:#7BAA39;stroke:#7BAA39;stroke-width:0.5;stroke-miterlimit:10;}
	.st3{fill:#7BAA39;stroke:#7BAA39;stroke-miterlimit:10;}
	.st4{fill:#FFFFFF;}
	.st5{fill:#7BAA39;stroke:#7BAA39;stroke-width:0.9877;stroke-miterlimit:10;}
	.st6{fill:#698E21;}
	.st7{fill:#7BAA39;stroke:#7BAA39;stroke-width:1.9097;stroke-miterlimit:10;}
	.st8{fill:#7BAA39;stroke:#7BAA39;stroke-width:0.6979;stroke-miterlimit:10;}
	.st9{fill:#7BAA39;stroke:#7BAA39;stroke-width:0.5544;stroke-miterlimit:10;}
	.st10{fill:#7BAA39;stroke:#7BAA39;stroke-width:0.7505;stroke-miterlimit:10;}
	.st11{fill:#7BAA39;stroke:#7BAA39;stroke-width:0.1953;stroke-miterlimit:10;}
</style>
<path class="st0" d="M-217.9,1c-10.2,0-18.5,8.3-18.5,18.5s8.3,18.5,18.5,18.5c10.2,0,18.5-8.3,18.5-18.5S-207.7,1-217.9,1z   M-217.9,33.4c-7.7,0-13.9-6.2-13.9-13.9s6.2-13.9,13.9-13.9c7.7,0,13.9,6.2,13.9,13.9S-210.2,33.4-217.9,33.4z M-207.9,21.1  c0,1.3-1,2.3-2.3,2.3h-9.3c-1.3,0-2.3-1-2.3-2.3v-9.3c0-1.3,1-2.3,2.3-2.3c1.3,0,2.3,1,2.3,2.3v6.9h6.9  C-209,18.8-207.9,19.8-207.9,21.1z"></path>
<rect x="-204" y="-68" class="st0" width="40" height="40"></rect>
<g>
	<g>
		<path class="st0" d="M-182.4,65.5c-1.1,0-2.1-0.2-3-0.6c-0.8-0.4-1.5-1-2.1-1.6c-0.5-0.7-0.9-1.5-1.2-2.3    c-0.3-0.9-0.4-1.8-0.4-2.7c0-0.9,0.1-1.9,0.4-2.7c0.3-0.9,0.7-1.7,1.2-2.3c0.5-0.7,1.2-1.2,2.1-1.6c0.8-0.4,1.8-0.6,3-0.6    c1.1,0,2.1,0.2,2.9,0.6c0.8,0.4,1.5,1,2.1,1.6s1,1.5,1.2,2.3c0.3,0.9,0.4,1.8,0.4,2.7c0,0.9-0.1,1.8-0.4,2.7    c-0.3,0.9-0.7,1.6-1.2,2.3c-0.6,0.7-1.2,1.2-2.1,1.6C-180.3,65.3-181.3,65.5-182.4,65.5z M-182.4,62.2c0.8,0,1.4-0.4,1.8-1.1    c0.4-0.7,0.6-1.7,0.6-2.9c0-1.2-0.2-2.2-0.6-2.9c-0.4-0.7-1-1.1-1.8-1.1c-0.8,0-1.4,0.4-1.8,1.1c-0.4,0.7-0.6,1.7-0.6,2.9    c0,1.2,0.2,2.2,0.6,2.9C-183.8,61.9-183.2,62.2-182.4,62.2z M-166.6,51.2c0.8-0.1,1.6-0.2,2.4-0.2c0.7,0,1.5,0.1,2.4,0.2    l-16.7,24.3c-0.8,0.1-1.6,0.2-2.3,0.2c-0.8,0-1.6-0.1-2.4-0.2L-166.6,51.2z M-162.6,76c-1.1,0-2.1-0.2-3-0.6    c-0.8-0.4-1.5-1-2.1-1.6c-0.5-0.7-0.9-1.5-1.2-2.3c-0.3-0.9-0.4-1.8-0.4-2.7c0-0.9,0.1-1.9,0.4-2.7c0.3-0.9,0.7-1.7,1.2-2.3    c0.5-0.7,1.2-1.2,2.1-1.6c0.8-0.4,1.8-0.6,3-0.6c1.1,0,2.1,0.2,2.9,0.6c0.8,0.4,1.5,1,2.1,1.6s1,1.5,1.2,2.3    c0.3,0.9,0.4,1.8,0.4,2.7c0,0.9-0.1,1.8-0.4,2.7c-0.3,0.9-0.7,1.6-1.2,2.3c-0.6,0.7-1.2,1.2-2.1,1.6    C-160.5,75.8-161.5,76-162.6,76z M-162.6,72.8c0.8,0,1.4-0.4,1.8-1.1c0.4-0.7,0.6-1.7,0.6-2.9c0-1.2-0.2-2.2-0.6-2.9    c-0.4-0.7-1-1.1-1.8-1.1c-0.8,0-1.4,0.4-1.8,1.1c-0.4,0.7-0.6,1.7-0.6,2.9c0,1.2,0.2,2.2,0.6,2.9    C-164.1,72.4-163.5,72.8-162.6,72.8z"></path>
	</g>
</g>
<path class="st0" d="M-201.8,49.2h-6.1v-3c0-1.3-1.1-2.4-2.4-2.4c-1.3,0-2.4,1.1-2.4,2.4v3h-10.9v-3c0-1.3-1.1-2.4-2.4-2.4  c-1.3,0-2.4,1.1-2.4,2.4v3h-6.1c-1,0-1.8,0.8-1.8,1.8v26.3c0,1,0.8,1.8,1.8,1.8h32.7c1,0,1.8-0.8,1.8-1.8V51  C-200,50-200.8,49.2-201.8,49.2z M-219.4,57.3v4.8h-5.8v-4.8H-219.4z M-217,57.3h5.8v4.8h-5.8V57.3z M-227.6,57.3v4.8h-5.1v-4.8  H-227.6z M-227.6,64.6v3.6h-5.1v-3.6H-227.6z M-225.1,64.6h5.8v3.6h-5.8V64.6z M-219.4,70.6v4.9h-5.8v-4.9H-219.4z M-217,70.6h5.8  v4.9h-5.8V70.6z M-217,68.2v-3.6h5.8v3.6H-217z M-208.8,64.6h5.1v3.6h-5.1V64.6z M-208.8,62.1v-4.8h5.1v4.8H-208.8z M-232.7,70.6  h5.1v4.9h-5.1V70.6z M-208.8,75.5v-4.9h5.1v4.9H-208.8z"></path>
<g>
	<path class="st1" d="M-195.1,63.8v-1.9h4.4v1.9H-195.1z"></path>
</g>
<path class="st2" d="M-134.1,31.7h-2.1c-0.6,0-1.1-0.5-1.1-1.1c0-0.6,0.5-1.1,1.1-1.1h2.1c0.6,0,1.1,0.5,1.1,1.1  C-133,31.2-133.5,31.7-134.1,31.7z M-103,8.2v25.7c0,2.4-1.9,4.3-4.3,4.3h-23.6c-2.4,0-4.3-1.9-4.3-4.3h1.1c1.8,0,3.2-1.4,3.2-3.2  c0-1.8-1.4-3.2-3.2-3.2h-1.1V14.6h1.1c1.8,0,3.2-1.4,3.2-3.2c0-1.8-1.4-3.2-3.2-3.2h-1.1c0-2.4,1.9-4.3,4.3-4.3h23.6  C-104.9,3.9-103,5.8-103,8.2z M-105.1,8.2c0-1.2-1-2.1-2.1-2.1h-19.3v30h19.3c1.2,0,2.1-1,2.1-2.1V8.2z M-136.2,12.4h2.1  c0.6,0,1.1-0.5,1.1-1.1c0-0.6-0.5-1.1-1.1-1.1h-2.1c-0.6,0-1.1,0.5-1.1,1.1C-137.3,12-136.8,12.4-136.2,12.4z M-108.4,8.2h-15  c-0.6,0-1.1,0.5-1.1,1.1c0,0.6,0.5,1.1,1.1,1.1h15c0.6,0,1.1-0.5,1.1-1.1C-107.3,8.6-107.8,8.2-108.4,8.2z M-108.4,12.4h-15  c-0.6,0-1.1,0.5-1.1,1.1c0,0.6,0.5,1.1,1.1,1.1h15c0.6,0,1.1-0.5,1.1-1.1C-107.3,12.9-107.8,12.4-108.4,12.4z M-108.4,16.7h-15  c-0.6,0-1.1,0.5-1.1,1.1c0,0.6,0.5,1.1,1.1,1.1h15c0.6,0,1.1-0.5,1.1-1.1C-107.3,17.2-107.8,16.7-108.4,16.7z M-108.4,21h-15  c-0.6,0-1.1,0.5-1.1,1.1c0,0.6,0.5,1.1,1.1,1.1h15c0.6,0,1.1-0.5,1.1-1.1C-107.3,21.5-107.8,21-108.4,21z M-108.4,25.3h-15  c-0.6,0-1.1,0.5-1.1,1.1c0,0.6,0.5,1.1,1.1,1.1h15c0.6,0,1.1-0.5,1.1-1.1C-107.3,25.8-107.8,25.3-108.4,25.3z M-114.8,29.6h-8.6  c-0.6,0-1.1,0.5-1.1,1.1c0,0.6,0.5,1.1,1.1,1.1h8.6c0.6,0,1.1-0.5,1.1-1.1C-113.7,30.1-114.2,29.6-114.8,29.6z"></path>
<g>
	<path class="st3" d="M-76.6,22.8c0-1.2,3.5-2.1,4.8-3.5c1.1-1.2,2.1-2.4,1.9-4.9c-0.2-3.1-2.1-12.3-2.1-12.3h-10.6   c0,0-1.9,9.2-2.1,12.3c-0.1,2.6,0.8,3.8,1.9,4.9c1.4,1.4,4.8,2.4,4.8,3.5c0,1.2,0.1,4.1,0.1,4.1h0v11.5h-4.8V39h10.6v-0.6h-4.8   V26.9C-76.6,26.9-76.6,23.9-76.6,22.8z"></path>
	<g>
		<path class="st4" d="M-80.8,10.7c-0.3,3.6,0,7.5,2.4,9.4c-2.6-1.2-4.3-1.9-3.8-9.4H-83l1.1-8h9.5l1.1,8H-80.8z"></path>
	</g>
</g>
<g>
	<path class="st0" d="M-136.1,72.5c-1.4,0-2.7,1.4-2.7,3s1.3,3.1,2.7,3.1c1.4,0,2.6-1.5,2.6-3.1S-134.7,72.5-136.1,72.5z"></path>
	<path class="st0" d="M-126.4,48.4h22.9c1.4,0,2.5-1.2,2.5-2.8c0-1.6-1.1-2.9-2.5-2.9h-22.9c-1.4,0-2.5,1.3-2.5,2.9   C-128.9,47.2-127.8,48.4-126.4,48.4z"></path>
	<path class="st0" d="M-136.1,42.5c-1.4,0-2.7,1.5-2.7,3.1c0,1.7,1.3,3,2.7,3c1.4,0,2.6-1.4,2.6-3   C-133.5,43.9-134.7,42.5-136.1,42.5z"></path>
	<path class="st0" d="M-103.5,57.7h-22.9c-1.4,0-2.5,1.3-2.5,2.9c0,1.6,1.1,2.9,2.5,2.9h22.9c1.4,0,2.5-1.3,2.5-2.9   C-101,59-102.1,57.7-103.5,57.7z"></path>
	<path class="st0" d="M-103.5,72.7h-22.9c-1.4,0-2.5,1.3-2.5,2.9c0,1.6,1.1,2.9,2.5,2.9h22.9c1.4,0,2.5-1.3,2.5-2.9   C-101,74-102.1,72.7-103.5,72.7z"></path>
</g>
<path class="st5" d="M-156.5,28.3c0,0.8-0.7,1.5-1.6,1.5h-35.8c-0.9,0-1.6-0.7-1.6-1.5c0-0.8,0.7-1.5,1.6-1.5h35.8  C-157.2,26.8-156.5,27.5-156.5,28.3z M-173.9,8.6c-0.1-1-0.9-1.8-1.9-1.8c-1,0-1.8,0.8-1.9,1.8c0.6-0.1,1.2-0.1,1.9-0.1  C-175.1,8.4-174.5,8.5-173.9,8.6z M-159.1,24.5h-33.3c0.7-8.6,7.9-15.4,16.7-15.4C-167,9.1-159.8,15.9-159.1,24.5z M-177.7,10.6  c0,0-9.3,2-12.1,12.4c2.5,0,3.5,0,3.5,0S-184.3,14.3-177.7,10.6z"></path>
<polygon class="st6" points="-133.2,64 -135.6,62.7 -138,64 -137.5,61.3 -139.5,59.5 -136.8,59.1 -135.6,56.7 -134.4,59.1   -131.8,59.5 -133.7,61.3 "></polygon>
<g>
	<path class="st0" d="M-76.3,45.7c-7.4,0-13.5,6-13.5,13.5s6,13.5,13.5,13.5c7.4,0,13.5-6,13.5-13.5S-68.8,45.7-76.3,45.7z    M-66.4,56.7c0,0.1,0.1,0.3,0.1,0.4c0,0.2,0.1,0.4,0.1,0.6c0,0.1,0,0.2,0.1,0.4c0,0.3,0.1,0.7,0.1,1c0,0.3,0,0.7-0.1,1   c0,0.1,0,0.2-0.1,0.4c0,0.2-0.1,0.4-0.1,0.6c0,0.1-0.1,0.3-0.1,0.4c0,0.2-0.1,0.4-0.1,0.5c0,0.2-0.1,0.3-0.2,0.5   c-0.1,0.2-0.1,0.3-0.2,0.5c-0.1,0.2-0.1,0.3-0.2,0.5c-0.1,0.1-0.1,0.3-0.2,0.4c-0.1,0.2-0.2,0.3-0.3,0.5c-0.1,0.1-0.1,0.2-0.2,0.4   c-0.1,0.2-0.2,0.3-0.4,0.5c-0.1,0.1-0.1,0.2-0.2,0.3c-0.1,0.2-0.3,0.3-0.4,0.5c-0.1,0.1-0.1,0.2-0.2,0.2c-0.2,0.2-0.3,0.3-0.5,0.4   c-0.1,0.1-0.1,0.1-0.2,0.2c-0.2,0.1-0.4,0.3-0.5,0.4c-0.1,0.1-0.1,0.1-0.2,0.2c-0.2,0.1-0.4,0.2-0.6,0.4c-0.1,0-0.2,0.1-0.2,0.1   c-0.2,0.1-0.4,0.2-0.6,0.3c-0.1,0-0.2,0.1-0.2,0.1c-0.2,0.1-0.4,0.2-0.7,0.2c-0.1,0-0.2,0.1-0.3,0.1c-0.2,0.1-0.5,0.1-0.7,0.2   c-0.1,0-0.2,0.1-0.3,0.1c-0.2,0-0.5,0.1-0.7,0.1c-0.1,0-0.2,0-0.3,0c-0.2,0-0.4,0-0.7,0c-0.1,0-0.2,0-0.3,0v0c0,0,0,0-0.1,0   c-5.6,0-10.1-4.5-10.1-10.1c0-5.6,4.5-10.1,10.1-10.1c0,0,0,0,0.1,0v0c0.1,0,0.2,0,0.3,0c0.2,0,0.5,0,0.7,0c0.1,0,0.2,0,0.3,0   c0.2,0,0.5,0.1,0.7,0.1c0.1,0,0.2,0,0.2,0.1c0.2,0.1,0.5,0.1,0.7,0.2c0.1,0,0.1,0.1,0.2,0.1c0.2,0.1,0.5,0.2,0.7,0.3   c0.1,0,0.1,0.1,0.2,0.1c0.2,0.1,0.5,0.2,0.7,0.3c0.1,0,0.1,0.1,0.2,0.1c0.2,0.1,0.4,0.2,0.6,0.4c0.1,0,0.1,0.1,0.2,0.2   c0.2,0.1,0.4,0.3,0.6,0.4c0.1,0.1,0.1,0.1,0.2,0.2c0.2,0.2,0.3,0.3,0.5,0.5c0.1,0.1,0.1,0.2,0.2,0.2c0.1,0.2,0.3,0.3,0.4,0.5   c0.1,0.1,0.1,0.2,0.2,0.3c0.1,0.2,0.3,0.3,0.4,0.5c0.1,0.1,0.1,0.2,0.2,0.3c0.1,0.2,0.2,0.3,0.3,0.5c0.1,0.1,0.1,0.3,0.2,0.4   c0.1,0.2,0.2,0.3,0.2,0.5c0.1,0.2,0.1,0.3,0.2,0.5c0.1,0.2,0.1,0.3,0.2,0.5C-66.5,56.3-66.5,56.5-66.4,56.7z M-66.7,59.1   c0,5.3-4.3,9.5-9.5,9.5c-5.3,0-9.5-4.3-9.5-9.5c0-5.3,4.3-9.5,9.5-9.5C-71,49.6-66.7,53.9-66.7,59.1z M-58,48.6v22.3   c0,0.6-0.4,1.1-0.9,1.2v0c-0.1,0-0.2,0-0.3,0c-0.7,0-1.3-0.6-1.2-1.3c0.2-2.1,1.5-6.7,0.8-8.5c-0.4-1-1.7-2.9-1.7-6   c0-5.8,1.4-7.9,2.3-8.4c0,0,0,0,0,0C-58.5,47.8-58,48.1-58,48.6z M-91.4,48c0.3,1.8,0.5,5.2,0.5,6.9c0,2.1-0.4,2.1-1.7,2.6   l0.5,13.4c0,0.7-0.5,1.3-1.2,1.3c-0.1,0-0.1,0-0.2,0v0c-0.6-0.1-1-0.6-1-1.3l0.5-13.4c-1.3-0.5-1.7-0.5-1.7-2.6   c0-1.7,0.3-5.2,0.5-6.9h0.3l0.1,7.6h0.6L-94,48h0.3l0.1,7.6h0.1h0.1h0.4l0.1-7.6h0.3l0.1,7.6h0.6l0.1-7.6H-91.4z"></path>
</g>
<g>
	<path d="M-136.7-2.8c0-0.4,0-0.9,0-1.2h0c-0.1,0.3-0.2,0.7-0.4,1.1l-0.5,1.4h-0.3l-0.5-1.3c-0.1-0.4-0.2-0.8-0.3-1.1h0   c0,0.3,0,0.8-0.1,1.2l-0.1,1.2h-0.3l0.2-2.8h0.5L-138-3c0.1,0.3,0.2,0.7,0.3,0.9h0c0.1-0.3,0.2-0.6,0.3-0.9l0.5-1.4h0.5l0.2,2.8   h-0.4L-136.7-2.8z"></path>
	<path d="M-133.9-2.6c0,0.7-0.5,1.1-1,1.1c-0.5,0-1-0.4-1-1c0-0.7,0.4-1.1,1-1.1C-134.3-3.6-133.9-3.2-133.9-2.6z M-135.5-2.5   c0,0.4,0.3,0.8,0.6,0.8c0.4,0,0.6-0.3,0.6-0.8c0-0.3-0.2-0.8-0.6-0.8C-135.3-3.3-135.5-2.9-135.5-2.5z"></path>
	<path d="M-133.4-3c0-0.2,0-0.4,0-0.5h0.3l0,0.3h0c0.1-0.2,0.3-0.4,0.6-0.4c0.3,0,0.5,0.2,0.6,0.4h0c0.1-0.1,0.1-0.2,0.2-0.3   c0.1-0.1,0.3-0.1,0.4-0.1c0.3,0,0.7,0.2,0.7,0.9v1.2h-0.4v-1.1c0-0.4-0.1-0.6-0.4-0.6c-0.2,0-0.4,0.2-0.4,0.3c0,0.1,0,0.1,0,0.2   v1.2h-0.4v-1.2c0-0.3-0.1-0.6-0.4-0.6c-0.2,0-0.4,0.2-0.5,0.4c0,0.1,0,0.1,0,0.2v1.2h-0.4V-3z"></path>
	<path d="M-129.7-2.5c0,0.5,0.3,0.7,0.7,0.7c0.3,0,0.4,0,0.6-0.1l0.1,0.3c-0.1,0.1-0.4,0.1-0.7,0.1c-0.6,0-1-0.4-1-1   c0-0.6,0.4-1.1,0.9-1.1c0.7,0,0.8,0.6,0.8,0.9c0,0.1,0,0.1,0,0.2H-129.7z M-128.7-2.7c0-0.2-0.1-0.6-0.5-0.6   c-0.4,0-0.5,0.3-0.6,0.6H-128.7z"></path>
	<path d="M-127.8-3c0-0.2,0-0.4,0-0.5h0.3l0,0.3h0c0.1-0.2,0.3-0.4,0.7-0.4c0.3,0,0.7,0.2,0.7,0.9v1.2h-0.4v-1.2   c0-0.3-0.1-0.6-0.5-0.6c-0.2,0-0.4,0.2-0.5,0.4c0,0,0,0.1,0,0.2v1.2h-0.4V-3z"></path>
	<path d="M-125.1-4.1v0.6h0.5v0.3h-0.5v1.1c0,0.2,0.1,0.4,0.3,0.4c0.1,0,0.2,0,0.2,0l0,0.3c-0.1,0-0.2,0.1-0.3,0.1   c-0.2,0-0.3-0.1-0.4-0.2c-0.1-0.1-0.1-0.3-0.1-0.5v-1.1h-0.3v-0.3h0.3V-4L-125.1-4.1z"></path>
	<path d="M-122.4-2.6c0,0.7-0.5,1.1-1,1.1c-0.5,0-1-0.4-1-1c0-0.7,0.4-1.1,1-1.1C-122.8-3.6-122.4-3.2-122.4-2.6z M-124-2.5   c0,0.4,0.3,0.8,0.6,0.8c0.4,0,0.6-0.3,0.6-0.8c0-0.3-0.2-0.8-0.6-0.8C-123.8-3.3-124-2.9-124-2.5z"></path>
	<path d="M-122-1.9c0.1,0.1,0.3,0.1,0.5,0.1c0.3,0,0.4-0.1,0.4-0.3c0-0.2-0.1-0.3-0.4-0.4c-0.4-0.1-0.5-0.3-0.5-0.6   c0-0.3,0.3-0.6,0.7-0.6c0.2,0,0.4,0.1,0.5,0.1l-0.1,0.3c-0.1,0-0.2-0.1-0.4-0.1c-0.2,0-0.3,0.1-0.3,0.3c0,0.2,0.1,0.2,0.4,0.3   c0.3,0.1,0.5,0.3,0.5,0.6c0,0.4-0.3,0.6-0.8,0.6c-0.2,0-0.4-0.1-0.6-0.1L-122-1.9z"></path>
	<path d="M-119.4-1.5c0-0.1,0-0.3,0-0.5v-2.4h0.4v1.3h0c0.1-0.2,0.4-0.4,0.7-0.4c0.5,0,0.9,0.4,0.8,1c0,0.7-0.5,1.1-0.9,1.1   c-0.3,0-0.5-0.1-0.7-0.4h0l0,0.3H-119.4z M-119-2.3c0,0,0,0.1,0,0.1c0.1,0.3,0.3,0.4,0.5,0.4c0.4,0,0.6-0.3,0.6-0.8   c0-0.4-0.2-0.7-0.6-0.7c-0.2,0-0.5,0.2-0.6,0.4c0,0,0,0.1,0,0.1V-2.3z"></path>
	<path d="M-115.2-2.6c0,0.7-0.5,1.1-1,1.1c-0.5,0-1-0.4-1-1c0-0.7,0.4-1.1,1-1.1C-115.6-3.6-115.2-3.2-115.2-2.6z M-116.8-2.5   c0,0.4,0.3,0.8,0.6,0.8c0.4,0,0.6-0.3,0.6-0.8c0-0.3-0.2-0.8-0.6-0.8C-116.6-3.3-116.8-2.9-116.8-2.5z"></path>
	<path d="M-113-4.5v2.4c0,0.2,0,0.4,0,0.5h-0.3l0-0.3h0c-0.1,0.2-0.4,0.4-0.7,0.4c-0.5,0-0.9-0.4-0.9-1c0-0.7,0.4-1.1,0.9-1.1   c0.3,0,0.5,0.1,0.6,0.3h0v-1.2H-113z M-113.3-2.7c0,0,0-0.1,0-0.2c-0.1-0.2-0.3-0.4-0.5-0.4c-0.4,0-0.6,0.3-0.6,0.8   c0,0.4,0.2,0.7,0.6,0.7c0.2,0,0.5-0.2,0.5-0.4c0-0.1,0-0.1,0-0.2V-2.7z"></path>
	<path d="M-112.5-1.8c0-0.2,0.1-0.3,0.2-0.3c0.1,0,0.2,0.1,0.2,0.3c0,0.1-0.1,0.3-0.2,0.3C-112.4-1.5-112.5-1.6-112.5-1.8z"></path>
</g>
<rect x="-42.3" y="-5.8" style="fill:none;" width="36.3" height="2.8"></rect>
<text transform="matrix(1 0 0 1 -42.333 -3.7036)" style="font-family:'MyriadPro-Regular'; font-size:3px;">Regalate gastronomía. </text>
<g>
	<rect x="-31.9" y="14.3" class="st7" width="20.9" height="0.9"></rect>
	<rect x="-31.9" y="19.3" class="st7" width="20.9" height="0.9"></rect>
	<path class="st7" d="M-10.5,1.9H-33c-2.8,0-5.2,1.9-5.2,4.2v18.1c0,2.3,2.3,4.2,5.2,4.2h1.7l6.2,9.6l0.1,0.1l6.3-9.7h8.2   c2.8,0,5.1-1.9,5.1-4.2V6.1C-5.4,3.8-7.7,1.9-10.5,1.9z M-10.5,27.6h-8.7l-5.8,9l-5.7-8.9l0-0.1H-33c-2.3,0-4.2-1.5-4.2-3.3V6.1   c0-1.8,1.9-3.3,4.2-3.3h22.4c2.3,0,4.2,1.5,4.2,3.3v18.1C-6.3,26.1-8.2,27.6-10.5,27.6z"></path>
</g>
<polygon class="st2" points="-19.2,12 -21.6,10.7 -24,12 -23.5,9.3 -25.5,7.5 -22.8,7.1 -21.6,4.7 -20.4,7.1 -17.8,7.5 -19.7,9.3   "></polygon>
<g>
	<path class="st0" d="M15.7,21v9c-0.6,0.1-1.8,0.3-3.3,0.3c-1.5,0-2.8-0.2-3.3-0.2v-9c0-0.1,0.1-2.8,3.3-2.8   C15.7,18.2,15.7,20.9,15.7,21z M10.4,6.4c0,0,0,0.5,0,1.2h0.5V3.5h0.8v4.2h2.7c0-0.7,0-1.2,0-1.2h0V3h0.2V1.4h-0.2V0.8h-2.7v0.6   h-0.2v1.6h-0.8V1.4h0.2V0.8h-0.5v0.6h-0.2V3h0.2V6.4z M16.9,12.7c0.8,1,1,2,1,4.1v21.8c0,0.8-2.5,1.4-5.5,1.4c-3,0-5.5-0.6-5.5-1.4   V16.8c0-2.1,0.2-3.1,1-4.1c1-1.3,2.4-1.9,2.4-2.9c0-0.3,0-0.8,0-1.3h0.6v1.2c0,0,0,1.4-1,2.3l-0.1,0.1c-1.2,1.1-2.2,2-2.2,4.6v21.9   L8.4,39V16.8c0-2.3,0.7-2.9,1.9-4.1l0.1-0.1c1.2-1.2,1.3-2.8,1.3-2.9V8.5h2.7c0,0.5,0,1,0,1.3C14.5,10.8,15.9,11.4,16.9,12.7z    M16.2,20.9c0,0,0-3.3-3.8-3.3c-3.8,0-3.8,3.3-3.8,3.3v9.6c0,0,1.6,0.3,3.8,0.3c2.2,0,3.8-0.3,3.8-0.3V20.9z"></path>
</g>
<g>
	<path class="st8" d="M28.9,28.4c0-0.8,2.4-1.5,3.4-2.5c0.8-0.8,1.5-1.7,1.4-3.4c-0.1-2.1-1.4-8.6-1.4-8.6h-7.4c0,0-1.3,6.4-1.4,8.6   c-0.1,1.8,0.6,2.6,1.4,3.4c0.9,1,3.4,1.6,3.4,2.5c0,0.8,0,2.9,0,2.9h0v8.1h-3.3v0.4h7.4v-0.4h-3.4v-8.1   C28.9,31.2,28.9,29.2,28.9,28.4z"></path>
	<g>
		<path class="st4" d="M25.9,19.9c-0.2,2.5,0,5.3,1.7,6.5c-1.8-0.8-3-1.3-2.6-6.5h-0.5l0.8-5.6h6.6l0.7,5.6H25.9z"></path>
	</g>
</g>
<path class="st9" d="M-39.4,60l1.4-0.4v6.2L-39.4,60z M-35.5,52.6h7.9l20-4.9L-8,46c-0.3-1.2-1.5-2-2.7-1.7l-28.5,7  c-1.2,0.3-2,1.5-1.7,2.7l0.4,1.7l2.7-0.7v-0.2C-37.7,53.7-36.7,52.6-35.5,52.6z M-37.2,61.6h33.9v10.2c0,1.2-1,2.3-2.3,2.3h-29.4  c-1.2,0-2.3-1-2.3-2.3V61.6z M-29.3,65.3c0,0,0.1-0.1,0.1-0.1c-0.1,0-0.3,0-0.4,0.1C-29.5,65.2-29.4,65.2-29.3,65.3z M-29.8,65.3  c0,0-0.1,0-0.1,0c0,0.1-0.1,0.2-0.1,0.3c0,0-0.4,0.7,0,0.5c0.2-0.1,0.3-0.2,0.4-0.3c0.1-0.1,0.2-0.2,0.3-0.3  C-29.5,65.4-29.7,65.4-29.8,65.3z M-29,64.9c0.5-0.6,1-1.1,1.5-1.7h-1.3c0.1,0.1,0.1,0.2,0,0.4c-0.3,0.5-0.6,0.9-0.9,1.4  C-29.5,65-29.2,65-29,64.9z M-29.1,65.3c0.2,0.1,0.4,0.1,0.6,0.2c0.1-0.2,0.2-0.3,0.3-0.5c0,0,0,0-0.1,0c-0.2,0-0.4,0.1-0.6,0.1  C-28.9,65.2-29,65.2-29.1,65.3z M-28.1,64.8c0-0.1,0.1-0.1,0.1-0.2c0.2-0.4,0.3-0.8,0.5-1.1c-0.4,0.5-0.8,0.9-1.2,1.4  C-28.5,64.9-28.3,64.8-28.1,64.8z M-27.7,65c0,0.1,0,0.3,0,0.4c0.1-0.1,0.2-0.3,0.3-0.5C-27.5,64.9-27.6,64.9-27.7,65  C-27.7,65-27.7,65-27.7,65z M-28.1,65.7c0,0,0.1,0,0.1,0.1c0.6,0.3,1.2,0.7,2,0.7c0.3,0,1.1,0.1,0.8-0.4c-0.1-0.1-0.1-0.3-0.1-0.4  c0-0.3,0.2-0.7,0.2-1c-0.2,0-0.5,0-0.7,0.1c-0.2,0.1-0.3,0.1-0.5,0.2c-0.1,0-0.1,0-0.1-0.1c0,0,0,0,0,0c-0.1,0-0.2,0-0.4,0  c-0.1,0.1-0.2,0.2-0.3,0.2c-0.1,0-0.1,0-0.1-0.1c0,0,0,0,0-0.1c0,0,0,0,0,0c-0.1,0.3-0.2,0.6-0.5,0.7c-0.1,0-0.1,0-0.1-0.1  c0-0.1,0-0.1,0-0.2c0,0.1-0.1,0.1-0.2,0.2C-28,65.6-28.1,65.7-28.1,65.7z M-26.4,64.6c0-0.2,0.1-0.3,0.2-0.5  c-0.1,0.1-0.3,0.3-0.4,0.5C-26.5,64.6-26.4,64.6-26.4,64.6z M-25,64.5c0-0.2-0.1-0.1-0.2,0c0,0-0.1,0-0.1,0  C-25.2,64.5-25.1,64.5-25,64.5z M-11.8,72.2h6.5V69h-6.5V72.2z M-14.5,63.2h-12.7c-0.1,0.2-0.2,0.4-0.2,0.6c0,0,0,0,0.1-0.1  c0.1-0.1,0.2,0,0.2,0.1c-0.1,0.3-0.2,0.6-0.3,0.9c0,0,0,0,0,0.1c0.1,0,0.2,0,0.3,0c0.1-0.2,0.1-0.4,0.2-0.6c0-0.1,0.2,0,0.2,0  c0,0.2,0,0.3,0,0.5c0,0,0.1,0,0.1,0c0.1-0.1,0.2-0.3,0.3-0.4c0.1-0.2,0.3-0.3,0.5-0.4c0.1,0,0.1,0,0.1,0.1c0,0.2-0.2,0.4-0.2,0.7  c0.1,0,0.2,0,0.4,0c0.3-0.1,0.5-0.3,0.7-0.4c0,0,0.1,0,0.1,0c0.1,0.1,0.1,0.2,0.1,0.3c0.4,0,0.7,0,1.1-0.1c0.7,0,1.3-0.1,2-0.1  c0.6,0,1.2-0.1,1.8,0c0.1,0,0.1,0.2,0,0.2c-0.7-0.1-1.5,0-2.3,0c-0.7,0-1.3,0-2,0.1c-0.2,0-0.4,0-0.6,0c0,0.1,0,0.2-0.1,0.3  c-0.1,0.2-0.1,0.4-0.2,0.6c0,0.2,0.1,0.4,0.1,0.6c0.1,0.3,0,0.4-0.2,0.5h10.7V63.2z M-35,66.6h8.7c-0.1,0-0.1,0-0.2,0  c-0.6-0.1-1.1-0.4-1.6-0.7c0,0-0.1,0-0.1-0.1c-0.1,0.2-0.2,0.3-0.4,0.3c-0.1,0-0.1,0-0.1-0.1c0-0.1,0.1-0.3,0.1-0.4  c-0.2-0.1-0.4-0.2-0.6-0.2c-0.3,0.4-0.7,0.9-1.2,0.8c0,0-0.1-0.1-0.1-0.1c0-0.3,0.2-0.7,0.3-0.9c0,0-0.1,0-0.1,0  c-0.7,0.1-1.3,0.1-2,0.1c-0.5,0-1,0-1.6,0c-0.2,0-0.5,0-0.6-0.2c0,0,0-0.1,0-0.1c0.4-0.2,0.8-0.2,1.3-0.2c0.6,0,1.2,0,1.8,0.1  c0.3,0,0.7,0.1,1,0.1c0.1,0,0.2,0,0.3,0c0,0,0-0.1,0.1-0.1c0.2-0.3,0.4-0.6,0.6-0.9c0.1-0.1,0.5-0.8,0.1-0.6c-0.1,0-0.2-0.1-0.1-0.2  H-35V66.6z M-33.3,65.1c-0.1,0-0.3,0-0.4,0c0,0-0.3,0.1-0.4,0.1c0.2,0,0.3,0,0.5,0c0.6,0,1.3,0,1.9,0c0.1,0,0.3,0,0.4,0  C-31.9,65.1-32.6,65.1-33.3,65.1z M-5.5,53.2h-29.4c-1.2,0-2.3,1-2.3,2.3v1.8h33.9v-1.8C-3.3,54.2-4.3,53.2-5.5,53.2z M-6.5,52.8  l-0.2-0.9l-3.9,1L-6.5,52.8z"></path>
<g>
	<g>
		<path class="st0" d="M34.6,76.1c0.9,0.9,1,2.4,0.1,3.2c-0.9,0.9-2.3,0.8-3.2-0.1l-9.6-10.5c-0.7,0-1.4-0.2-2.2-0.5l3.5-3.5    l2.3,2.3L34.6,76.1z M14.4,64.5l4.3-4.3l-4.4-4.4c-3.5-3.5-6.9-6.9-9-9c-0.3-0.3-0.7-0.4-1.1-0.4c-0.3,0-0.7,0.3-0.8,1    c-0.3,2.9,1.8,8,9.5,15.6C13.5,63.6,14,64.1,14.4,64.5z M22.4,52.5l0.6-0.6c0,0,0,0,0,0L22.4,52.5z M38.5,51.5    c-0.5-0.5-1.2-0.6-1.5-0.3l-6.8,6.8c-0.3,0.3-1,0.3-1.4-0.2c-0.4-0.4-0.5-1.1-0.2-1.4l6.8-6.8c0.3-0.3,0.2-1-0.3-1.5    c-0.5-0.5-1.2-0.6-1.5-0.3l-6.8,6.8c-0.3,0.3-1,0.3-1.4-0.2c-0.4-0.4-0.5-1.1-0.2-1.4l6.8-6.8c0.3-0.3,0.2-1-0.3-1.5    c-0.5-0.5-1.2-0.6-1.5-0.3L23,51.9c-2.4,2.4-1.6,4.1-0.3,5.6l-19,19c-0.9,0.9-1,2.4-0.1,3.2c0.9,0.9,2.3,0.8,3.2-0.1l19-19    c1.5,1.4,3.2,2.1,5.6-0.3l7.4-7.4C39.1,52.7,39,52,38.5,51.5z"></path>
	</g>
</g>
<rect x="56.7" y="-3.8" style="fill:none;" width="29.3" height="2.8"></rect>
<text transform="matrix(1 0 0 1 56.667 -1.7036)" style="font-family:'MyriadPro-Regular'; font-size:3px;">Ofertas gastronómicos. </text>
<path class="st10" d="M95.1,19L76.7,2.6c-0.7-0.6-2-1.1-2.9-1.1L60.5,1.8c-0.9,0-1.7,0.8-1.7,1.7l-0.3,13.3c0,0.9,0.5,2.2,1.1,2.9  L76,38.1c0.6,0.7,1.6,0.7,2.3,0.1l17-17C95.8,20.6,95.8,19.6,95.1,19z M67.5,10.5c-1,1-2.5,1-3.5,0c-1-1-1-2.5,0-3.5  c1-1,2.5-1,3.5,0C68.5,8,68.5,9.6,67.5,10.5z M85.3,21.4H70.1v-2.8h15.2L85.3,21.4L85.3,21.4z"></path>
<path class="st0" d="M137.1,17.2l0.7,20.7c0,1.1-0.8,2-1.8,2c0,0-0.1,0-0.1,0c0,0-0.1,0-0.1,0v0c-0.9-0.1-1.6-1-1.6-2l0.7-20.7  c-2-0.8-4.1-2.2-4.1-5.5c0-4.1,2.7-9.2,4.9-9.6v0c0,0,0.1,0,0.1,0c0,0,0,0,0,0c0,0,0.1,0,0.1,0c2.2,0,5.2,5.4,5.2,9.6  C141.2,15,139.1,16.4,137.1,17.2z M105.6,2.4C105.6,2.4,105.6,2.5,105.6,2.4c-1.5,0.8-3.6,4-3.6,12.9c0,4.8,2,7.7,2.6,9.3  c1,2.8-0.9,9.8-1.3,13.1c-0.1,1.1,0.8,2,1.8,2c0.2,0,0.3,0,0.5-0.1v0c0.8-0.2,1.4-1,1.4-1.9V3.5C107,2.7,106.3,2.2,105.6,2.4z   M122.5,2.5l-0.1,11.7h-1l-0.2-11.7h-0.5l-0.2,11.7h-0.6h-0.2h-0.2l-0.2-11.7h-0.5l-0.2,11.7h-1l-0.1-11.7h-0.5  c-0.4,2.7-0.8,8-0.8,10.7c0,3.3,0.7,3.3,2.6,4.1l-0.7,20.7c0,1,0.7,1.8,1.5,1.9v0c0.1,0,0.2,0,0.3,0c1,0,1.8-0.9,1.8-2l-0.7-20.7  c2-0.8,2.6-0.7,2.6-4.1c0-2.7-0.4-7.9-0.8-10.7H122.5z"></path>
<path class="st0" d="M58.7,64.2H96v11.2c0,1.4-1.1,2.5-2.5,2.5H61.2c-1.4,0-2.5-1.1-2.5-2.5V64.2z M67.4,68.3c0,0,0.1-0.1,0.1-0.1  c-0.2,0-0.3,0-0.5,0.1C67.2,68.2,67.3,68.2,67.4,68.3z M66.7,68.3c0,0-0.1,0-0.1,0c-0.1,0.1-0.1,0.2-0.2,0.3c0,0-0.4,0.8,0,0.6  c0.2-0.1,0.3-0.2,0.5-0.4c0.1-0.1,0.2-0.2,0.3-0.4C67.1,68.4,66.9,68.4,66.7,68.3z M67.7,67.9c0.5-0.6,1.1-1.3,1.6-1.9h-1.4  c0.1,0.1,0.1,0.2,0,0.4c-0.3,0.5-0.7,1-1,1.5C67.1,68,67.4,67.9,67.7,67.9z M67.6,68.3c0.2,0.1,0.4,0.1,0.6,0.2  c0.1-0.2,0.2-0.4,0.3-0.6c0,0,0,0-0.1,0c-0.2,0-0.4,0.1-0.7,0.1C67.7,68.2,67.7,68.3,67.6,68.3z M68.7,67.8c0-0.1,0.1-0.1,0.1-0.2  c0.2-0.4,0.4-0.8,0.6-1.3c-0.4,0.5-0.9,1-1.3,1.5C68.2,67.8,68.4,67.8,68.7,67.8z M69.2,67.9c0,0.2,0,0.3,0,0.5  c0.2-0.1,0.3-0.3,0.3-0.5C69.4,67.9,69.3,67.9,69.2,67.9C69.2,67.9,69.2,67.9,69.2,67.9z M68.7,68.7c0,0,0.1,0,0.1,0.1  c0.7,0.4,1.3,0.7,2.2,0.8c0.3,0,1.2,0.1,0.9-0.4c-0.1-0.1-0.1-0.3-0.1-0.4c0-0.4,0.2-0.7,0.3-1.1c-0.3,0-0.5,0-0.8,0.1  c-0.2,0.1-0.4,0.2-0.6,0.2c-0.1,0-0.1,0-0.1-0.1c0,0,0,0,0,0c-0.1,0-0.3,0-0.4,0C70.1,67.9,70,68,69.9,68c-0.1,0-0.1,0-0.1-0.1  c0,0,0,0,0-0.1c0,0,0,0,0,0c-0.1,0.3-0.3,0.6-0.6,0.8c-0.1,0-0.1,0-0.2-0.1c0-0.1,0-0.1,0-0.2c-0.1,0.1-0.1,0.2-0.2,0.2  C68.7,68.7,68.7,68.7,68.7,68.7z M70.6,67.6c0-0.2,0.1-0.3,0.2-0.5c-0.2,0.1-0.3,0.3-0.4,0.5C70.4,67.6,70.5,67.6,70.6,67.6z   M72.1,67.4c0-0.2-0.1-0.1-0.2,0c0,0-0.1,0-0.1,0.1C71.8,67.4,71.9,67.4,72.1,67.4z M86.7,75.9h7.2v-3.6h-7.2V75.9z M83.6,66h-14  c-0.1,0.2-0.2,0.4-0.3,0.6c0,0,0-0.1,0.1-0.1c0.1-0.1,0.2,0,0.2,0.1c-0.1,0.3-0.2,0.7-0.4,1c0,0,0,0,0,0.1c0.1,0,0.2,0,0.3,0  c0.1-0.2,0.1-0.5,0.2-0.6c0.1-0.1,0.2,0,0.2,0.1c0,0.2,0,0.4,0,0.5c0,0,0.1,0,0.1,0c0.1-0.1,0.2-0.3,0.3-0.4  c0.1-0.2,0.3-0.3,0.5-0.4c0.1,0,0.2,0,0.2,0.1c0,0.3-0.2,0.5-0.2,0.7c0.1,0,0.3,0,0.4,0c0.3-0.1,0.5-0.3,0.8-0.4c0,0,0.1,0,0.1,0  c0.1,0.1,0.1,0.2,0.1,0.3c0.4,0,0.8-0.1,1.2-0.1c0.7,0,1.5-0.1,2.2-0.1c0.6,0,1.3-0.1,2,0c0.1,0,0.1,0.2-0.1,0.2  c-0.8-0.1-1.7,0-2.5,0c-0.7,0-1.5,0-2.2,0.1c-0.2,0-0.4,0-0.6,0c0,0.1,0,0.2-0.1,0.3c-0.1,0.2-0.1,0.5-0.2,0.7  c0,0.2,0.1,0.4,0.2,0.6c0.1,0.3,0,0.5-0.3,0.6h11.8V66z M61.1,69.8h9.5c-0.1,0-0.1,0-0.2,0c-0.6-0.1-1.2-0.5-1.7-0.7  c0,0-0.1,0-0.1-0.1c-0.1,0.2-0.3,0.3-0.4,0.4c-0.1,0-0.1,0-0.1-0.1c0-0.1,0.1-0.3,0.1-0.4c-0.2-0.1-0.5-0.2-0.7-0.2  c-0.3,0.4-0.8,1-1.3,0.9c0,0-0.1-0.1-0.1-0.1c0-0.4,0.2-0.7,0.4-1c0,0-0.1,0-0.1,0c-0.7,0.1-1.4,0.1-2.2,0.1c-0.6,0-1.1,0-1.7,0  c-0.2,0-0.5,0-0.7-0.2c0,0,0-0.1,0-0.1c0.4-0.2,0.9-0.2,1.4-0.2c0.7,0,1.3,0,2,0.1c0.4,0,0.7,0.1,1.1,0.1c0.1,0,0.2,0,0.3,0  c0,0,0.1-0.1,0.1-0.1c0.2-0.3,0.5-0.7,0.7-1c0.1-0.1,0.6-0.8,0.2-0.7c-0.1,0-0.2-0.1-0.1-0.2h-6.3V69.8z M62.9,68.1  c-0.1,0-0.3,0-0.4,0c0,0-0.4,0.1-0.4,0.1c0.2,0,0.3,0,0.5,0c0.7,0.1,1.4,0,2.1,0c0.2,0,0.3,0,0.5,0C64.4,68.1,63.7,68.1,62.9,68.1z   M93.5,55H61.2c-1.4,0-2.5,1.1-2.5,2.5v1.9H96v-1.9C96,56.1,94.9,55,93.5,55z"></path>
<path class="st10" d="M77,53.9c-11.8-6.5-3.3-14.5,0-9.1C80.3,39.4,88.8,47.4,77,53.9z"></path>
<g>
	<g>
		<path class="st0" d="M136.6,77.1c0.9,0.9,1,2.4,0.1,3.2c-0.9,0.9-2.3,0.8-3.2-0.1l-9.6-10.5c-0.7,0-1.4-0.2-2.2-0.5l3.5-3.5    l2.3,2.3L136.6,77.1z M116.4,65.5l4.3-4.3l-4.4-4.4c-3.5-3.5-6.9-6.9-9-9c-0.3-0.3-0.7-0.4-1.1-0.4c-0.3,0-0.7,0.3-0.8,1    c-0.3,2.9,1.8,8,9.5,15.6C115.5,64.6,116,65.1,116.4,65.5z M124.4,53.5L125,53c0,0,0,0,0,0L124.4,53.5z M140.5,52.5    c-0.5-0.5-1.2-0.6-1.5-0.3l-6.8,6.8c-0.3,0.3-1,0.3-1.4-0.2c-0.4-0.4-0.5-1.1-0.2-1.4l6.8-6.8c0.3-0.3,0.2-1-0.3-1.5    c-0.5-0.5-1.2-0.6-1.5-0.3l-6.8,6.8c-0.3,0.3-1,0.3-1.4-0.2c-0.4-0.4-0.5-1.1-0.2-1.4l6.8-6.8c0.3-0.3,0.2-1-0.3-1.5    c-0.5-0.5-1.2-0.6-1.5-0.3L125,53c-2.4,2.4-1.6,4.1-0.3,5.6l-19,19c-0.9,0.9-1,2.4-0.1,3.2c0.9,0.9,2.3,0.8,3.2-0.1l19-19    c1.5,1.4,3.2,2.1,5.6-0.3l7.4-7.4C141.1,53.7,141,53,140.5,52.5z"></path>
	</g>
</g>
<polygon class="st2" points="123.8,52 121.4,50.7 119,52 119.5,49.3 117.5,47.5 120.2,47.1 121.4,44.7 122.6,47.1 125.2,47.5   123.3,49.3 "></polygon>
<rect x="-232.3" y="93.6" style="fill:none;" width="28.3" height="3.8"></rect>
<text transform="matrix(1 0 0 1 -232.334 96.417)" style="font-family:'MyriadPro-Regular'; font-size:4px;">Hoteles. </text>
<g>
	<path class="st0" d="M-203.6,115.6h-5.2v-2.6c0-1.1-0.9-2.1-2.1-2.1c-1.1,0-2.1,0.9-2.1,2.1v2.6h-9.4v-2.6c0-1.1-0.9-2.1-2.1-2.1   c-1.1,0-2.1,0.9-2.1,2.1v2.6h-5.2c-0.9,0-1.6,0.7-1.6,1.6v22.6c0,0.9,0.7,1.6,1.6,1.6h28.1c0.9,0,1.6-0.7,1.6-1.6v-22.6   C-202,116.3-202.7,115.6-203.6,115.6z M-218.7,122.6v4.2h-4.9v-4.2H-218.7z M-216.6,122.6h4.9v4.2h-4.9V122.6z M-225.7,122.6v4.2   h-4.4v-4.2H-225.7z M-225.7,128.9v3.1h-4.4v-3.1H-225.7z M-223.6,128.9h4.9v3.1h-4.9V128.9z M-218.7,134.1v4.2h-4.9v-4.2H-218.7z    M-216.6,134.1h4.9v4.2h-4.9V134.1z M-216.6,132v-3.1h4.9v3.1H-216.6z M-209.5,128.9h4.4v3.1h-4.4V128.9z M-209.5,126.8v-4.2h4.4   v4.2H-209.5z M-230.1,134.1h4.4v4.2h-4.4V134.1z M-209.5,138.3v-4.2h4.4v4.2H-209.5z"></path>
	<polygon class="st11" points="-213.1,126.4 -214,125.9 -215,126.4 -214.8,125.4 -215.5,124.6 -214.5,124.5 -214,123.6    -213.6,124.5 -212.5,124.6 -213.3,125.4  "></polygon>
	<polygon class="st11" points="-220,131.5 -220.9,131.1 -221.8,131.6 -221.7,130.5 -222.4,129.8 -221.4,129.6 -220.9,128.7    -220.4,129.6 -219.4,129.8 -220.2,130.5  "></polygon>
</g>
<g>
	<g>
		<g>
			<path class="st0" d="M-154,140c0,0.6-0.5,1.1-1.1,1.1h-29.8c-0.6,0-1.1-0.5-1.1-1.1v-2c0-0.6,0.5-1.1,1.1-1.1h29.8     c0.6,0,1.1,0.5,1.1,1.1V140z"></path>
		</g>
		<g>
			<g>
				<path class="st0" d="M-167.4,116.8c0,0.1-0.1,0.2-0.2,0.2h-4.7c-0.1,0-0.2-0.1-0.2-0.2v-3.3c0-0.1,0.1-0.2,0.2-0.2h4.7      c0.1,0,0.2,0.1,0.2,0.2V116.8z"></path>
			</g>
			<g>
				<path class="st0" d="M-167.4,121.9c0,0.1-0.1,0.2-0.2,0.2h-4.7c-0.1,0-0.2-0.1-0.2-0.2v-3.3c0-0.1,0.1-0.2,0.2-0.2h4.7      c0.1,0,0.2,0.1,0.2,0.2V121.9z"></path>
			</g>
			<g>
				<path class="st0" d="M-167.4,126.9c0,0.1-0.1,0.2-0.2,0.2h-4.7c-0.1,0-0.2-0.1-0.2-0.2v-3.3c0-0.1,0.1-0.2,0.2-0.2h4.7      c0.1,0,0.2,0.1,0.2,0.2V126.9z"></path>
			</g>
			<g>
				<path class="st0" d="M-159.3,116.8c0,0.1-0.1,0.2-0.2,0.2h-4.7c-0.1,0-0.2-0.1-0.2-0.2v-3.3c0-0.1,0.1-0.2,0.2-0.2h4.7      c0.1,0,0.2,0.1,0.2,0.2V116.8z"></path>
			</g>
			<g>
				<path class="st0" d="M-159.3,121.9c0,0.1-0.1,0.2-0.2,0.2h-4.7c-0.1,0-0.2-0.1-0.2-0.2v-3.3c0-0.1,0.1-0.2,0.2-0.2h4.7      c0.1,0,0.2,0.1,0.2,0.2V121.9z"></path>
			</g>
			<g>
				<path class="st0" d="M-159.3,126.9c0,0.1-0.1,0.2-0.2,0.2h-4.7c-0.1,0-0.2-0.1-0.2-0.2v-3.3c0-0.1,0.1-0.2,0.2-0.2h4.7      c0.1,0,0.2,0.1,0.2,0.2V126.9z"></path>
			</g>
			<g>
				<path class="st0" d="M-175.5,116.8c0,0.1-0.1,0.2-0.2,0.2h-4.7c-0.1,0-0.2-0.1-0.2-0.2v-3.3c0-0.1,0.1-0.2,0.2-0.2h4.7      c0.1,0,0.2,0.1,0.2,0.2V116.8z"></path>
			</g>
			<g>
				<path class="st0" d="M-175.5,121.9c0,0.1-0.1,0.2-0.2,0.2h-4.7c-0.1,0-0.2-0.1-0.2-0.2v-3.3c0-0.1,0.1-0.2,0.2-0.2h4.7      c0.1,0,0.2,0.1,0.2,0.2V121.9z"></path>
			</g>
			<g>
				<path class="st0" d="M-175.5,126.9c0,0.1-0.1,0.2-0.2,0.2h-4.7c-0.1,0-0.2-0.1-0.2-0.2v-3.3c0-0.1,0.1-0.2,0.2-0.2h4.7      c0.1,0,0.2,0.1,0.2,0.2V126.9z"></path>
			</g>
		</g>
		<g>
			<path class="st0" d="M-170.1,102.2c0-0.1,0.1-0.1,0.1,0c0.2,0.4,0.5,0.9,0.7,1.3c0,0.1,0.1,0.1,0.2,0.2c0.5,0.1,1,0.2,1.5,0.2     c0.1,0,0.1,0.1,0,0.1c-0.4,0.3-0.7,0.6-1.1,1c-0.1,0.1-0.1,0.2-0.1,0.3c0.1,0.5,0.2,0.9,0.2,1.4c0,0.1,0,0.1-0.1,0.1     c-0.4-0.2-0.9-0.5-1.3-0.7c-0.1,0-0.2,0-0.3,0c-0.4,0.2-0.9,0.4-1.3,0.7c-0.1,0-0.1,0-0.1-0.1c0.1-0.5,0.1-0.9,0.2-1.4     c0-0.1,0-0.2-0.1-0.3c-0.4-0.3-0.7-0.6-1.1-1c-0.1-0.1,0-0.1,0-0.1c0.5-0.1,1-0.2,1.5-0.2c0.1,0,0.2-0.1,0.2-0.2     C-170.5,103-170.3,102.6-170.1,102.2"></path>
		</g>
		<g>
			<path class="st0" d="M-164.9,103.7c0-0.1,0.1-0.1,0.1,0c0.2,0.4,0.3,0.7,0.5,1.1c0,0.1,0.1,0.1,0.2,0.1c0.4,0.1,0.8,0.2,1.2,0.3     c0.1,0,0.1,0.1,0,0.1c-0.3,0.3-0.6,0.5-1,0.8c-0.1,0-0.1,0.1-0.1,0.2c0,0.4,0.1,0.8,0.1,1.2c0,0.1,0,0.1-0.1,0.1     c-0.3-0.2-0.7-0.4-1-0.6c-0.1,0-0.2,0-0.2,0c-0.4,0.2-0.7,0.3-1.1,0.5c-0.1,0-0.1,0-0.1-0.1c0.1-0.4,0.2-0.8,0.3-1.2     c0-0.1,0-0.2-0.1-0.2c-0.3-0.3-0.6-0.6-0.9-0.9c-0.1-0.1,0-0.1,0-0.1c0.4,0,0.8-0.1,1.3-0.1c0.1,0,0.2-0.1,0.2-0.1     C-165.3,104.4-165.1,104-164.9,103.7"></path>
		</g>
		<g>
			<path class="st0" d="M-175.5,103.7c0-0.1,0.1-0.1,0.1,0c0.2,0.3,0.4,0.7,0.6,1c0,0.1,0.1,0.1,0.2,0.1c0.4,0,0.8,0.1,1.3,0.1     c0.1,0,0.1,0.1,0,0.1c-0.3,0.3-0.6,0.6-0.9,0.9c-0.1,0.1-0.1,0.1-0.1,0.2c0.1,0.4,0.2,0.8,0.3,1.2c0,0.1,0,0.1-0.1,0.1     c-0.4-0.2-0.7-0.3-1.1-0.5c-0.1,0-0.2,0-0.2,0c-0.4,0.2-0.7,0.4-1.1,0.6c-0.1,0-0.1,0-0.1-0.1c0-0.4,0.1-0.8,0.1-1.2     c0-0.1,0-0.2-0.1-0.2c-0.3-0.3-0.6-0.5-1-0.8c-0.1,0,0-0.1,0-0.1c0.4-0.1,0.8-0.2,1.2-0.3c0.1,0,0.2-0.1,0.2-0.1     C-175.9,104.4-175.7,104-175.5,103.7"></path>
		</g>
		<g>
			<path class="st0" d="M-160.6,106.9C-160.5,106.8-160.5,106.8-160.6,106.9c0.2,0.3,0.3,0.5,0.4,0.8c0,0,0.1,0.1,0.1,0.1     c0.3,0.1,0.6,0.2,0.8,0.2c0,0,0.1,0,0,0.1c-0.2,0.2-0.5,0.3-0.7,0.5c0,0-0.1,0.1-0.1,0.1c0,0.3,0,0.6,0,0.8c0,0,0,0.1-0.1,0     c-0.2-0.2-0.5-0.3-0.7-0.5c0,0-0.1,0-0.2,0c-0.3,0.1-0.5,0.2-0.8,0.3c0,0-0.1,0-0.1-0.1c0.1-0.3,0.2-0.5,0.2-0.8c0,0,0-0.1,0-0.2     c-0.2-0.2-0.4-0.4-0.6-0.6c0,0,0-0.1,0-0.1c0.3,0,0.6,0,0.9,0c0.1,0,0.1,0,0.1-0.1C-160.9,107.3-160.7,107.1-160.6,106.9"></path>
		</g>
		<g>
			<path class="st0" d="M-179.5,106.9C-179.5,106.9-179.4,106.9-179.5,106.9c0.2,0.2,0.4,0.5,0.6,0.7c0,0,0.1,0.1,0.1,0.1     c0.3,0,0.6,0,0.9,0c0.1,0,0.1,0,0,0.1c-0.2,0.2-0.4,0.4-0.6,0.6c0,0,0,0.1,0,0.2c0.1,0.3,0.2,0.5,0.2,0.8c0,0,0,0.1-0.1,0.1     c-0.3-0.1-0.5-0.2-0.8-0.3c0,0-0.1,0-0.2,0c-0.2,0.2-0.5,0.3-0.7,0.5c0,0-0.1,0-0.1,0c0-0.3,0-0.6,0-0.8c0,0,0-0.1-0.1-0.1     c-0.2-0.2-0.5-0.3-0.7-0.5c0,0,0-0.1,0-0.1c0.3-0.1,0.6-0.2,0.8-0.2c0,0,0.1-0.1,0.1-0.1C-179.7,107.5-179.6,107.2-179.5,106.9"></path>
		</g>
		<g>
			<g>
				<path class="st3" d="M-177.2,108.5c0,0-0.1,0.1,0,0.2c0.1,0.2,0.1,0.4,0.2,0.7h14.1c0.1-0.2,0.1-0.5,0.2-0.7c0-0.1,0-0.2,0-0.2      c0,0-0.1-0.1-0.1-0.1H-177C-177.1,108.4-177.1,108.5-177.2,108.5z"></path>
			</g>
			<g>
				<g>
					<path class="st3" d="M-181.9,139.3h23.8c1.1,0,2-0.9,2-2h-1c0,0.5-0.4,0.9-0.9,0.9h-23.8c-0.5,0-0.9-0.4-0.9-0.9h-1       C-183.8,138.4-183,139.3-181.9,139.3z"></path>
				</g>
				<g>
					<path class="st3" d="M-182.8,135.7v-25.4c0-0.5,0.4-0.9,0.9-0.9h0.6c0-0.1,0-0.3,0-0.4c0-0.1,0-0.1-0.1-0.2       c-0.2-0.1-0.4-0.3-0.6-0.4l0,0c-1.1,0-1.9,0.9-1.9,2v25.4H-182.8z"></path>
				</g>
				<g>
					<path class="st3" d="M-158.1,109.4c0.5,0,0.9,0.4,0.9,0.9v25.4h1v-25.4c0-1.1-0.9-2-1.9-2l0,0c-0.2,0.1-0.3,0.2-0.5,0.4       c-0.1,0-0.1,0.1-0.1,0.2c0,0.2,0,0.3,0,0.5H-158.1z"></path>
				</g>
			</g>
		</g>
		<g>
			<path class="st0" d="M-164.8,136v-6.8c0-0.3-0.2-0.5-0.5-0.5h-9.4c-0.3,0-0.5,0.2-0.5,0.5v6.8H-164.8z"></path>
		</g>
	</g>
</g>
<path class="st0" d="M-217.7,103c-2.4,0-4.3,1.9-4.3,4.3c0,0.9,0.3,1.8,0.8,2.5l0.1,0.2l3.1,4.3c0.1,0.1,0.2,0.1,0.3,0.1  s0.2-0.1,0.3-0.1l3-4.3l0.2-0.2c0.5-0.7,0.8-1.6,0.8-2.5C-213.4,104.9-215.3,103-217.7,103z M-217.7,108.7c-0.8,0-1.4-0.6-1.4-1.4  c0-0.8,0.6-1.4,1.4-1.4c0.8,0,1.4,0.6,1.4,1.4C-216.3,108.1-216.9,108.7-217.7,108.7z"></path>
<g>
	<g>
		<g>
			<g>
				<path class="st0" d="M-219.4,160.3c-6.3,0-11.5,5.1-11.5,11.5s5.1,11.5,11.5,11.5c6.3,0,11.5-5.1,11.5-11.5      S-213,160.3-219.4,160.3z M-211,169.7c0,0.1,0.1,0.2,0.1,0.4c0,0.2,0.1,0.4,0.1,0.5c0,0.1,0,0.2,0,0.3c0,0.3,0,0.6,0,0.9      c0,0.3,0,0.6,0,0.9c0,0.1,0,0.2,0,0.3c0,0.2,0,0.4-0.1,0.5c0,0.1-0.1,0.2-0.1,0.4c0,0.2-0.1,0.3-0.1,0.5c0,0.1-0.1,0.3-0.1,0.4      c0,0.1-0.1,0.3-0.1,0.4c-0.1,0.1-0.1,0.3-0.2,0.4c-0.1,0.1-0.1,0.2-0.2,0.4c-0.1,0.1-0.2,0.3-0.2,0.4c-0.1,0.1-0.1,0.2-0.2,0.3      c-0.1,0.1-0.2,0.3-0.3,0.4c-0.1,0.1-0.1,0.2-0.2,0.3c-0.1,0.1-0.2,0.3-0.4,0.4c-0.1,0.1-0.1,0.1-0.2,0.2      c-0.1,0.1-0.3,0.3-0.4,0.4c-0.1,0.1-0.1,0.1-0.2,0.2c-0.1,0.1-0.3,0.2-0.5,0.4c-0.1,0-0.1,0.1-0.2,0.1c-0.2,0.1-0.3,0.2-0.5,0.3      c-0.1,0-0.1,0.1-0.2,0.1c-0.2,0.1-0.4,0.2-0.5,0.3c-0.1,0-0.1,0.1-0.2,0.1c-0.2,0.1-0.4,0.1-0.6,0.2c-0.1,0-0.1,0.1-0.2,0.1      c-0.2,0.1-0.4,0.1-0.6,0.2c-0.1,0-0.2,0-0.2,0.1c-0.2,0-0.4,0.1-0.6,0.1c-0.1,0-0.2,0-0.3,0c-0.2,0-0.4,0-0.6,0      c-0.1,0-0.2,0-0.3,0v0c0,0,0,0-0.1,0c-4.8,0-8.6-3.9-8.6-8.6c0-4.8,3.9-8.6,8.6-8.6c0,0,0,0,0.1,0v0c0.1,0,0.2,0,0.2,0      c0.2,0,0.4,0,0.6,0c0.1,0,0.1,0,0.2,0c0.2,0,0.4,0.1,0.6,0.1c0.1,0,0.1,0,0.2,0.1c0.2,0,0.4,0.1,0.6,0.2c0.1,0,0.1,0,0.2,0.1      c0.2,0.1,0.4,0.1,0.6,0.2c0.1,0,0.1,0.1,0.2,0.1c0.2,0.1,0.4,0.2,0.6,0.3c0.1,0,0.1,0.1,0.2,0.1c0.2,0.1,0.4,0.2,0.5,0.3      c0.1,0,0.1,0.1,0.2,0.1c0.2,0.1,0.3,0.2,0.5,0.4c0.1,0.1,0.1,0.1,0.2,0.2c0.1,0.1,0.3,0.3,0.4,0.4c0.1,0.1,0.1,0.1,0.2,0.2      c0.1,0.1,0.3,0.3,0.4,0.4c0.1,0.1,0.1,0.2,0.2,0.2c0.1,0.1,0.2,0.3,0.3,0.4c0.1,0.1,0.1,0.2,0.2,0.3c0.1,0.1,0.2,0.3,0.3,0.4      c0.1,0.1,0.1,0.2,0.2,0.4c0.1,0.1,0.1,0.3,0.2,0.4c0.1,0.1,0.1,0.3,0.1,0.4c0,0.1,0.1,0.3,0.1,0.4      C-211.1,169.4-211.1,169.6-211,169.7z M-211.3,171.8c0,4.5-3.6,8.1-8.1,8.1c-4.5,0-8.1-3.6-8.1-8.1c0-4.5,3.6-8.1,8.1-8.1      C-214.9,163.7-211.3,167.4-211.3,171.8z M-232.3,162.4c0.2,1.5,0.5,4.4,0.5,5.9c0,1.8-0.4,1.8-1.5,2.2l0.4,11.4      c0,0.6-0.5,1.1-1,1.1c0,0-0.1,0-0.1,0v0c-0.5-0.1-0.9-0.5-0.9-1.1l0.4-11.4c-1.1-0.4-1.5-0.4-1.5-2.2c0-1.5,0.2-4.4,0.5-5.9h0.3      l0.1,6.5h0.5l0.1-6.5h0.2l0.1,6.5h0.1h0.1h0.3l0.1-6.5h0.3l0.1,6.5h0.5l0-6.5H-232.3z"></path>
			</g>
		</g>
	</g>
</g>
<g>
	<g>
		<path class="st0" d="M-203.4,172.4c0-0.7,2.2-1.3,3.1-2.3c0.7-0.8,1.3-1.5,1.3-3.2c-0.1-2-1.3-7.9-1.3-7.9h-6.8    c0,0-1.2,5.9-1.3,7.9c-0.1,1.6,0.5,2.4,1.3,3.2c0.9,0.9,3.1,1.5,3.1,2.3c0,0.7,0,2.6,0,2.6h0v7.4h-3.1v0.4h6.8v-0.4h-3.1V175    C-203.4,175-203.4,173.1-203.4,172.4z"></path>
		<path class="st0" d="M-206.1,164.6c-0.2,2.3,0,4.9,1.5,6c-1.6-0.7-2.8-1.2-2.4-6h-0.5l0.7-5.2h6.1l0.7,5.2H-206.1z"></path>
	</g>
</g>
<g>
	<g>
		<path class="st0" d="M-176.6,167.7c0.1-0.1,0.2-0.3,0.2-0.4l-0.3-2c0-0.1,0-0.3,0.1-0.4l1.4-1.4c0.1-0.1,0.2-0.3,0.1-0.4    c-0.1-0.2-0.2-0.3-0.3-0.3l-2-0.3c-0.1,0-0.3-0.1-0.3-0.2l-0.9-1.8c-0.1-0.1-0.2-0.2-0.4-0.2c-0.2,0-0.3,0.1-0.4,0.2l-0.9,1.8    c-0.1,0.1-0.2,0.2-0.3,0.2l-2,0.3c-0.2,0-0.3,0.1-0.3,0.3c-0.1,0.2,0,0.3,0.1,0.4l1.4,1.4c0.1,0.1,0.1,0.2,0.1,0.4l-0.3,2    c0,0.2,0,0.3,0.2,0.4c0.1,0.1,0.3,0.1,0.5,0l1.8-0.9c0.1-0.1,0.3-0.1,0.4,0l1.8,0.9C-176.9,167.8-176.8,167.7-176.6,167.7z"></path>
		<path class="st0" d="M-167.3,167.7c0.1-0.1,0.2-0.3,0.2-0.4l-0.3-2c0-0.1,0-0.3,0.1-0.4l1.4-1.4c0.1-0.1,0.2-0.3,0.1-0.4    c-0.1-0.2-0.2-0.3-0.3-0.3l-2-0.3c-0.1,0-0.3-0.1-0.3-0.2l-0.9-1.8c-0.1-0.1-0.2-0.2-0.4-0.2c-0.2,0-0.3,0.1-0.4,0.2l-0.9,1.8    c-0.1,0.1-0.2,0.2-0.3,0.2l-2,0.3c-0.2,0-0.3,0.1-0.3,0.3c-0.1,0.2,0,0.3,0.1,0.4l1.4,1.4c0.1,0.1,0.1,0.2,0.1,0.4l-0.3,2    c0,0.2,0,0.3,0.2,0.4c0.1,0.1,0.3,0.1,0.5,0l1.8-0.9c0.1-0.1,0.3-0.1,0.4,0l1.8,0.9C-167.6,167.8-167.4,167.7-167.3,167.7z"></path>
		<path class="st0" d="M-170.8,172.1l-2-0.3c-0.1,0-0.3-0.1-0.3-0.2l-0.9-1.8c-0.1-0.1-0.2-0.2-0.4-0.2c-0.2,0-0.3,0.1-0.4,0.2    l-0.9,1.8c-0.1,0.1-0.2,0.2-0.3,0.2l-2,0.3c-0.2,0-0.3,0.1-0.3,0.3c-0.1,0.2,0,0.3,0.1,0.4l1.4,1.4c0.1,0.1,0.1,0.2,0.1,0.4    l-0.3,2c0,0.2,0,0.3,0.2,0.4c0.1,0.1,0.3,0.1,0.5,0l1.8-0.9c0.1-0.1,0.3-0.1,0.4,0l1.8,0.9c0.1,0.1,0.3,0.1,0.5,0    c0.1-0.1,0.2-0.3,0.2-0.4l-0.3-2c0-0.1,0-0.3,0.1-0.4l1.4-1.4c0.1-0.1,0.2-0.3,0.1-0.4C-170.5,172.2-170.7,172.1-170.8,172.1z"></path>
		<path class="st0" d="M-161.5,172.1l-2-0.3c-0.1,0-0.3-0.1-0.3-0.2l-0.9-1.8c-0.1-0.1-0.2-0.2-0.4-0.2c-0.2,0-0.3,0.1-0.4,0.2    l-0.9,1.8c-0.1,0.1-0.2,0.2-0.3,0.2l-2,0.3c-0.2,0-0.3,0.1-0.3,0.3c-0.1,0.2,0,0.3,0.1,0.4l1.4,1.4c0.1,0.1,0.1,0.2,0.1,0.4    l-0.3,2c0,0.2,0,0.3,0.2,0.4c0.1,0.1,0.3,0.1,0.5,0l1.8-0.9c0.1-0.1,0.3-0.1,0.4,0l1.8,0.9c0.1,0.1,0.3,0.1,0.5,0    c0.1-0.1,0.2-0.3,0.2-0.4l-0.3-2c0-0.1,0-0.3,0.1-0.4l1.4-1.4c0.1-0.1,0.2-0.3,0.1-0.4C-161.2,172.2-161.3,172.1-161.5,172.1z"></path>
		<path class="st0" d="M-156.8,162.8l-2-0.3c-0.1,0-0.3-0.1-0.3-0.2l-0.9-1.8c-0.1-0.1-0.2-0.2-0.4-0.2c-0.2,0-0.3,0.1-0.4,0.2    l-0.9,1.8c-0.1,0.1-0.2,0.2-0.3,0.2l-2,0.3c-0.2,0-0.3,0.1-0.3,0.3c0,0.2,0,0.3,0.1,0.4l1.4,1.4c0.1,0.1,0.1,0.2,0.1,0.4l-0.3,2    c0,0.2,0,0.3,0.2,0.4c0.1,0.1,0.3,0.1,0.5,0l1.8-0.9c0.1-0.1,0.3-0.1,0.4,0l1.8,0.9c0.1,0.1,0.3,0.1,0.5,0    c0.1-0.1,0.2-0.3,0.2-0.4l-0.3-2c0-0.1,0-0.3,0.1-0.4l1.4-1.4c0.1-0.1,0.2-0.3,0.1-0.4C-156.5,162.9-156.6,162.8-156.8,162.8z"></path>
		<path class="st0" d="M-154.6,154.3h-30.1c-2,0-3.6,1.6-3.6,3.6v21.4c0,2,1.6,3.7,3.6,3.7h30.1c2,0,3.6-1.7,3.6-3.7V158    C-151,155.9-152.6,154.3-154.6,154.3z M-154.2,179.3c0,0.3-0.2,0.5-0.5,0.5h-30.2c-0.3,0-0.5-0.2-0.5-0.5v-21.4    c0-0.3,0.2-0.5,0.5-0.5h30.2c0.3,0,0.5,0.2,0.5,0.5V179.3z"></path>
	</g>
</g>
</svg>