<svg xmlns="http://www.w3.org/2000/svg" xmlns:xlink="http://www.w3.org/1999/xlink" id="Capa_1" x="0px" y="0px" viewBox="0 0 40 40" style="enable-background:new 0 0 40 40;" xml:space="preserve">
<style type="text/css">
	.st0{fill:#7BAA39;}
	.st1{fill:#7BAA39;stroke:#7BAA39;stroke-width:0.5898;stroke-miterlimit:10;}
	.st2{fill:#7BAA39;stroke:#7BAA39;stroke-width:0.5;stroke-miterlimit:10;}
	.st3{fill:#7BAA39;stroke:#7BAA39;stroke-miterlimit:10;}
	.st4{fill:#FFFFFF;}
	.st5{fill:#7BAA39;stroke:#7BAA39;stroke-width:0.9877;stroke-miterlimit:10;}
	.st6{fill:#698E21;}
	.st7{fill:#7BAA39;stroke:#7BAA39;stroke-width:1.9097;stroke-miterlimit:10;}
	.st8{fill:#7BAA39;stroke:#7BAA39;stroke-width:0.6979;stroke-miterlimit:10;}
	.st9{fill:#7BAA39;stroke:#7BAA39;stroke-width:0.5544;stroke-miterlimit:10;}
	.st10{fill:#7BAA39;stroke:#7BAA39;stroke-width:0.7505;stroke-miterlimit:10;}
	.st11{fill:#7BAA39;stroke:#7BAA39;stroke-width:0.1953;stroke-miterlimit:10;}
</style>
<path class="st0" d="M-175.9,1c-10.2,0-18.5,8.3-18.5,18.5s8.3,18.5,18.5,18.5c10.2,0,18.5-8.3,18.5-18.5S-165.7,1-175.9,1z   M-175.9,33.4c-7.7,0-13.9-6.2-13.9-13.9s6.2-13.9,13.9-13.9c7.7,0,13.9,6.2,13.9,13.9S-168.2,33.4-175.9,33.4z M-165.9,21.1  c0,1.3-1,2.3-2.3,2.3h-9.3c-1.3,0-2.3-1-2.3-2.3v-9.3c0-1.3,1-2.3,2.3-2.3c1.3,0,2.3,1,2.3,2.3v6.9h6.9  C-167,18.8-165.9,19.8-165.9,21.1z"></path>
<rect x="-162" y="-68" class="st0" width="40" height="40"></rect>
<g>
	<g>
		<path class="st0" d="M-140.4,65.5c-1.1,0-2.1-0.2-3-0.6c-0.8-0.4-1.5-1-2.1-1.6c-0.5-0.7-0.9-1.5-1.2-2.3    c-0.3-0.9-0.4-1.8-0.4-2.7c0-0.9,0.1-1.9,0.4-2.7c0.3-0.9,0.7-1.7,1.2-2.3c0.5-0.7,1.2-1.2,2.1-1.6c0.8-0.4,1.8-0.6,3-0.6    c1.1,0,2.1,0.2,2.9,0.6c0.8,0.4,1.5,1,2.1,1.6s1,1.5,1.2,2.3c0.3,0.9,0.4,1.8,0.4,2.7c0,0.9-0.1,1.8-0.4,2.7    c-0.3,0.9-0.7,1.6-1.2,2.3c-0.6,0.7-1.2,1.2-2.1,1.6C-138.3,65.3-139.3,65.5-140.4,65.5z M-140.4,62.2c0.8,0,1.4-0.4,1.8-1.1    c0.4-0.7,0.6-1.7,0.6-2.9c0-1.2-0.2-2.2-0.6-2.9c-0.4-0.7-1-1.1-1.8-1.1c-0.8,0-1.4,0.4-1.8,1.1c-0.4,0.7-0.6,1.7-0.6,2.9    c0,1.2,0.2,2.2,0.6,2.9C-141.8,61.9-141.2,62.2-140.4,62.2z M-124.6,51.2c0.8-0.1,1.6-0.2,2.4-0.2c0.7,0,1.5,0.1,2.4,0.2    l-16.7,24.3c-0.8,0.1-1.6,0.2-2.3,0.2c-0.8,0-1.6-0.1-2.4-0.2L-124.6,51.2z M-120.6,76c-1.1,0-2.1-0.2-3-0.6    c-0.8-0.4-1.5-1-2.1-1.6c-0.5-0.7-0.9-1.5-1.2-2.3c-0.3-0.9-0.4-1.8-0.4-2.7c0-0.9,0.1-1.9,0.4-2.7c0.3-0.9,0.7-1.7,1.2-2.3    c0.5-0.7,1.2-1.2,2.1-1.6c0.8-0.4,1.8-0.6,3-0.6c1.1,0,2.1,0.2,2.9,0.6c0.8,0.4,1.5,1,2.1,1.6s1,1.5,1.2,2.3    c0.3,0.9,0.4,1.8,0.4,2.7c0,0.9-0.1,1.8-0.4,2.7c-0.3,0.9-0.7,1.6-1.2,2.3c-0.6,0.7-1.2,1.2-2.1,1.6    C-118.5,75.8-119.5,76-120.6,76z M-120.6,72.8c0.8,0,1.4-0.4,1.8-1.1c0.4-0.7,0.6-1.7,0.6-2.9c0-1.2-0.2-2.2-0.6-2.9    c-0.4-0.7-1-1.1-1.8-1.1s-1.4,0.4-1.8,1.1c-0.4,0.7-0.6,1.7-0.6,2.9c0,1.2,0.2,2.2,0.6,2.9C-122.1,72.4-121.5,72.8-120.6,72.8z"></path>
	</g>
</g>
<path class="st0" d="M-159.8,49.2h-6.1v-3c0-1.3-1.1-2.4-2.4-2.4c-1.3,0-2.4,1.1-2.4,2.4v3h-10.9v-3c0-1.3-1.1-2.4-2.4-2.4  c-1.3,0-2.4,1.1-2.4,2.4v3h-6.1c-1,0-1.8,0.8-1.8,1.8v26.3c0,1,0.8,1.8,1.8,1.8h32.7c1,0,1.8-0.8,1.8-1.8V51  C-158,50-158.8,49.2-159.8,49.2z M-177.4,57.3v4.8h-5.8v-4.8H-177.4z M-175,57.3h5.8v4.8h-5.8V57.3z M-185.6,57.3v4.8h-5.1v-4.8  H-185.6z M-185.6,64.6v3.6h-5.1v-3.6H-185.6z M-183.1,64.6h5.8v3.6h-5.8V64.6z M-177.4,70.6v4.9h-5.8v-4.9H-177.4z M-175,70.6h5.8  v4.9h-5.8V70.6z M-175,68.2v-3.6h5.8v3.6H-175z M-166.8,64.6h5.1v3.6h-5.1V64.6z M-166.8,62.1v-4.8h5.1v4.8H-166.8z M-190.7,70.6  h5.1v4.9h-5.1V70.6z M-166.8,75.5v-4.9h5.1v4.9H-166.8z"></path>
<g>
	<path class="st1" d="M-153.1,63.8v-1.9h4.4v1.9H-153.1z"></path>
</g>
<path class="st2" d="M-92.1,31.7h-2.1c-0.6,0-1.1-0.5-1.1-1.1c0-0.6,0.5-1.1,1.1-1.1h2.1c0.6,0,1.1,0.5,1.1,1.1  C-91,31.2-91.5,31.7-92.1,31.7z M-61,8.2v25.7c0,2.4-1.9,4.3-4.3,4.3h-23.6c-2.4,0-4.3-1.9-4.3-4.3h1.1c1.8,0,3.2-1.4,3.2-3.2  c0-1.8-1.4-3.2-3.2-3.2h-1.1V14.6h1.1c1.8,0,3.2-1.4,3.2-3.2c0-1.8-1.4-3.2-3.2-3.2h-1.1c0-2.4,1.9-4.3,4.3-4.3h23.6  C-62.9,3.9-61,5.8-61,8.2z M-63.1,8.2c0-1.2-1-2.1-2.1-2.1h-19.3v30h19.3c1.2,0,2.1-1,2.1-2.1V8.2z M-94.2,12.4h2.1  c0.6,0,1.1-0.5,1.1-1.1c0-0.6-0.5-1.1-1.1-1.1h-2.1c-0.6,0-1.1,0.5-1.1,1.1C-95.3,12-94.8,12.4-94.2,12.4z M-66.4,8.2h-15  c-0.6,0-1.1,0.5-1.1,1.1c0,0.6,0.5,1.1,1.1,1.1h15c0.6,0,1.1-0.5,1.1-1.1C-65.3,8.6-65.8,8.2-66.4,8.2z M-66.4,12.4h-15  c-0.6,0-1.1,0.5-1.1,1.1c0,0.6,0.5,1.1,1.1,1.1h15c0.6,0,1.1-0.5,1.1-1.1C-65.3,12.9-65.8,12.4-66.4,12.4z M-66.4,16.7h-15  c-0.6,0-1.1,0.5-1.1,1.1c0,0.6,0.5,1.1,1.1,1.1h15c0.6,0,1.1-0.5,1.1-1.1C-65.3,17.2-65.8,16.7-66.4,16.7z M-66.4,21h-15  c-0.6,0-1.1,0.5-1.1,1.1c0,0.6,0.5,1.1,1.1,1.1h15c0.6,0,1.1-0.5,1.1-1.1C-65.3,21.5-65.8,21-66.4,21z M-66.4,25.3h-15  c-0.6,0-1.1,0.5-1.1,1.1c0,0.6,0.5,1.1,1.1,1.1h15c0.6,0,1.1-0.5,1.1-1.1C-65.3,25.8-65.8,25.3-66.4,25.3z M-72.8,29.6h-8.6  c-0.6,0-1.1,0.5-1.1,1.1c0,0.6,0.5,1.1,1.1,1.1h8.6c0.6,0,1.1-0.5,1.1-1.1C-71.7,30.1-72.2,29.6-72.8,29.6z"></path>
<g>
	<path class="st3" d="M-34.6,22.8c0-1.2,3.5-2.1,4.8-3.5c1.1-1.2,2.1-2.4,1.9-4.9c-0.2-3.1-2.1-12.3-2.1-12.3h-10.6   c0,0-1.9,9.2-2.1,12.3c-0.1,2.6,0.8,3.8,1.9,4.9c1.4,1.4,4.8,2.4,4.8,3.5c0,1.2,0.1,4.1,0.1,4.1h0v11.5h-4.8V39h10.6v-0.6h-4.8   V26.9C-34.6,26.9-34.6,23.9-34.6,22.8z"></path>
	<g>
		<path class="st4" d="M-38.8,10.7c-0.3,3.6,0,7.5,2.4,9.4c-2.6-1.2-4.3-1.9-3.8-9.4H-41l1.1-8h9.5l1.1,8H-38.8z"></path>
	</g>
</g>
<g>
	<path class="st0" d="M-94.1,72.5c-1.4,0-2.7,1.4-2.7,3s1.3,3.1,2.7,3.1c1.4,0,2.6-1.5,2.6-3.1S-92.7,72.5-94.1,72.5z"></path>
	<path class="st0" d="M-84.4,48.4h22.9c1.4,0,2.5-1.2,2.5-2.8c0-1.6-1.1-2.9-2.5-2.9h-22.9c-1.4,0-2.5,1.3-2.5,2.9   C-86.9,47.2-85.8,48.4-84.4,48.4z"></path>
	<path class="st0" d="M-94.1,42.5c-1.4,0-2.7,1.5-2.7,3.1c0,1.7,1.3,3,2.7,3c1.4,0,2.6-1.4,2.6-3C-91.5,43.9-92.7,42.5-94.1,42.5z"></path>
	<path class="st0" d="M-61.5,57.7h-22.9c-1.4,0-2.5,1.3-2.5,2.9c0,1.6,1.1,2.9,2.5,2.9h22.9c1.4,0,2.5-1.3,2.5-2.9   C-59,59-60.1,57.7-61.5,57.7z"></path>
	<path class="st0" d="M-61.5,72.7h-22.9c-1.4,0-2.5,1.3-2.5,2.9c0,1.6,1.1,2.9,2.5,2.9h22.9c1.4,0,2.5-1.3,2.5-2.9   C-59,74-60.1,72.7-61.5,72.7z"></path>
</g>
<path class="st5" d="M-114.5,28.3c0,0.8-0.7,1.5-1.6,1.5h-35.8c-0.9,0-1.6-0.7-1.6-1.5c0-0.8,0.7-1.5,1.6-1.5h35.8  C-115.2,26.8-114.5,27.5-114.5,28.3z M-131.9,8.6c-0.1-1-0.9-1.8-1.9-1.8c-1,0-1.8,0.8-1.9,1.8c0.6-0.1,1.2-0.1,1.9-0.1  C-133.1,8.4-132.5,8.5-131.9,8.6z M-117.1,24.5h-33.3c0.7-8.6,7.9-15.4,16.7-15.4C-125,9.1-117.8,15.9-117.1,24.5z M-135.7,10.6  c0,0-9.3,2-12.1,12.4c2.5,0,3.5,0,3.5,0S-142.3,14.3-135.7,10.6z"></path>
<polygon class="st6" points="-91.2,64 -93.6,62.7 -96,64 -95.5,61.3 -97.5,59.5 -94.8,59.1 -93.6,56.7 -92.4,59.1 -89.8,59.5   -91.7,61.3 "></polygon>
<g>
	<path class="st0" d="M-34.3,45.7c-7.4,0-13.5,6-13.5,13.5s6,13.5,13.5,13.5c7.4,0,13.5-6,13.5-13.5S-26.8,45.7-34.3,45.7z    M-24.4,56.7c0,0.1,0.1,0.3,0.1,0.4c0,0.2,0.1,0.4,0.1,0.6c0,0.1,0,0.2,0.1,0.4c0,0.3,0.1,0.7,0.1,1c0,0.3,0,0.7-0.1,1   c0,0.1,0,0.2-0.1,0.4c0,0.2-0.1,0.4-0.1,0.6c0,0.1-0.1,0.3-0.1,0.4c0,0.2-0.1,0.4-0.1,0.5c0,0.2-0.1,0.3-0.2,0.5   c-0.1,0.2-0.1,0.3-0.2,0.5c-0.1,0.2-0.1,0.3-0.2,0.5c-0.1,0.1-0.1,0.3-0.2,0.4c-0.1,0.2-0.2,0.3-0.3,0.5c-0.1,0.1-0.1,0.2-0.2,0.4   c-0.1,0.2-0.2,0.3-0.4,0.5c-0.1,0.1-0.1,0.2-0.2,0.3c-0.1,0.2-0.3,0.3-0.4,0.5c-0.1,0.1-0.1,0.2-0.2,0.2c-0.2,0.2-0.3,0.3-0.5,0.4   c-0.1,0.1-0.1,0.1-0.2,0.2c-0.2,0.1-0.4,0.3-0.5,0.4c-0.1,0.1-0.1,0.1-0.2,0.2c-0.2,0.1-0.4,0.2-0.6,0.4c-0.1,0-0.2,0.1-0.2,0.1   c-0.2,0.1-0.4,0.2-0.6,0.3c-0.1,0-0.2,0.1-0.2,0.1c-0.2,0.1-0.4,0.2-0.7,0.2c-0.1,0-0.2,0.1-0.3,0.1c-0.2,0.1-0.5,0.1-0.7,0.2   c-0.1,0-0.2,0.1-0.3,0.1c-0.2,0-0.5,0.1-0.7,0.1c-0.1,0-0.2,0-0.3,0c-0.2,0-0.4,0-0.7,0c-0.1,0-0.2,0-0.3,0v0c0,0,0,0-0.1,0   c-5.6,0-10.1-4.5-10.1-10.1c0-5.6,4.5-10.1,10.1-10.1c0,0,0,0,0.1,0v0c0.1,0,0.2,0,0.3,0c0.2,0,0.5,0,0.7,0c0.1,0,0.2,0,0.3,0   c0.2,0,0.5,0.1,0.7,0.1c0.1,0,0.2,0,0.2,0.1c0.2,0.1,0.5,0.1,0.7,0.2c0.1,0,0.1,0.1,0.2,0.1c0.2,0.1,0.5,0.2,0.7,0.3   c0.1,0,0.1,0.1,0.2,0.1c0.2,0.1,0.5,0.2,0.7,0.3c0.1,0,0.1,0.1,0.2,0.1c0.2,0.1,0.4,0.2,0.6,0.4c0.1,0,0.1,0.1,0.2,0.2   c0.2,0.1,0.4,0.3,0.6,0.4c0.1,0.1,0.1,0.1,0.2,0.2c0.2,0.2,0.3,0.3,0.5,0.5c0.1,0.1,0.1,0.2,0.2,0.2c0.1,0.2,0.3,0.3,0.4,0.5   c0.1,0.1,0.1,0.2,0.2,0.3c0.1,0.2,0.3,0.3,0.4,0.5c0.1,0.1,0.1,0.2,0.2,0.3c0.1,0.2,0.2,0.3,0.3,0.5c0.1,0.1,0.1,0.3,0.2,0.4   c0.1,0.2,0.2,0.3,0.2,0.5c0.1,0.2,0.1,0.3,0.2,0.5c0.1,0.2,0.1,0.3,0.2,0.5C-24.5,56.3-24.5,56.5-24.4,56.7z M-24.7,59.1   c0,5.3-4.3,9.5-9.5,9.5c-5.3,0-9.5-4.3-9.5-9.5c0-5.3,4.3-9.5,9.5-9.5C-29,49.6-24.7,53.9-24.7,59.1z M-16,48.6v22.3   c0,0.6-0.4,1.1-0.9,1.2v0c-0.1,0-0.2,0-0.3,0c-0.7,0-1.3-0.6-1.2-1.3c0.2-2.1,1.5-6.7,0.8-8.5c-0.4-1-1.7-2.9-1.7-6   c0-5.8,1.4-7.9,2.3-8.4c0,0,0,0,0,0C-16.5,47.8-16,48.1-16,48.6z M-49.4,48c0.3,1.8,0.5,5.2,0.5,6.9c0,2.1-0.4,2.1-1.7,2.6   l0.5,13.4c0,0.7-0.5,1.3-1.2,1.3c-0.1,0-0.1,0-0.2,0v0c-0.6-0.1-1-0.6-1-1.3l0.5-13.4c-1.3-0.5-1.7-0.5-1.7-2.6   c0-1.7,0.3-5.2,0.5-6.9h0.3l0.1,7.6h0.6L-52,48h0.3l0.1,7.6h0.1h0.1h0.4l0.1-7.6h0.3l0.1,7.6h0.6l0.1-7.6H-49.4z"></path>
</g>
<g>
	<path d="M-94.7-2.8c0-0.4,0-0.9,0-1.2h0c-0.1,0.3-0.2,0.7-0.4,1.1l-0.5,1.4h-0.3l-0.5-1.3c-0.1-0.4-0.2-0.8-0.3-1.1h0   c0,0.3,0,0.8-0.1,1.2l-0.1,1.2h-0.3l0.2-2.8h0.5L-96-3c0.1,0.3,0.2,0.7,0.3,0.9h0c0.1-0.3,0.2-0.6,0.3-0.9l0.5-1.4h0.5l0.2,2.8   h-0.4L-94.7-2.8z"></path>
	<path d="M-91.9-2.6c0,0.7-0.5,1.1-1,1.1c-0.5,0-1-0.4-1-1c0-0.7,0.4-1.1,1-1.1C-92.3-3.6-91.9-3.2-91.9-2.6z M-93.5-2.5   c0,0.4,0.3,0.8,0.6,0.8c0.3,0,0.6-0.3,0.6-0.8c0-0.3-0.2-0.8-0.6-0.8C-93.3-3.3-93.5-2.9-93.5-2.5z"></path>
	<path d="M-91.4-3c0-0.2,0-0.4,0-0.5h0.3l0,0.3h0c0.1-0.2,0.3-0.4,0.6-0.4c0.3,0,0.5,0.2,0.6,0.4h0c0.1-0.1,0.1-0.2,0.2-0.3   c0.1-0.1,0.3-0.1,0.4-0.1c0.3,0,0.7,0.2,0.7,0.9v1.2h-0.4v-1.1c0-0.4-0.1-0.6-0.4-0.6c-0.2,0-0.4,0.2-0.4,0.3c0,0.1,0,0.1,0,0.2   v1.2h-0.4v-1.2c0-0.3-0.1-0.6-0.4-0.6c-0.2,0-0.4,0.2-0.5,0.4c0,0.1,0,0.1,0,0.2v1.2h-0.4V-3z"></path>
	<path d="M-87.7-2.5c0,0.5,0.3,0.7,0.7,0.7c0.3,0,0.4,0,0.6-0.1l0.1,0.3c-0.1,0.1-0.3,0.1-0.7,0.1c-0.6,0-1-0.4-1-1   c0-0.6,0.4-1.1,0.9-1.1c0.7,0,0.8,0.6,0.8,0.9c0,0.1,0,0.1,0,0.2H-87.7z M-86.7-2.7c0-0.2-0.1-0.6-0.5-0.6c-0.4,0-0.5,0.3-0.6,0.6   H-86.7z"></path>
	<path d="M-85.8-3c0-0.2,0-0.4,0-0.5h0.3l0,0.3h0c0.1-0.2,0.3-0.4,0.7-0.4c0.3,0,0.7,0.2,0.7,0.9v1.2h-0.4v-1.2   c0-0.3-0.1-0.6-0.5-0.6c-0.2,0-0.4,0.2-0.5,0.4c0,0,0,0.1,0,0.2v1.2h-0.4V-3z"></path>
	<path d="M-83.1-4.1v0.6h0.5v0.3h-0.5v1.1c0,0.2,0.1,0.4,0.3,0.4c0.1,0,0.2,0,0.2,0l0,0.3c-0.1,0-0.2,0.1-0.3,0.1   c-0.2,0-0.3-0.1-0.4-0.2c-0.1-0.1-0.1-0.3-0.1-0.5v-1.1h-0.3v-0.3h0.3V-4L-83.1-4.1z"></path>
	<path d="M-80.4-2.6c0,0.7-0.5,1.1-1,1.1c-0.5,0-1-0.4-1-1c0-0.7,0.4-1.1,1-1.1C-80.8-3.6-80.4-3.2-80.4-2.6z M-82-2.5   c0,0.4,0.3,0.8,0.6,0.8c0.4,0,0.6-0.3,0.6-0.8c0-0.3-0.2-0.8-0.6-0.8C-81.8-3.3-82-2.9-82-2.5z"></path>
	<path d="M-80-1.9c0.1,0.1,0.3,0.1,0.5,0.1c0.3,0,0.4-0.1,0.4-0.3c0-0.2-0.1-0.3-0.4-0.4C-79.8-2.6-80-2.8-80-3   c0-0.3,0.3-0.6,0.7-0.6c0.2,0,0.4,0.1,0.5,0.1l-0.1,0.3c-0.1,0-0.2-0.1-0.4-0.1c-0.2,0-0.3,0.1-0.3,0.3c0,0.2,0.1,0.2,0.4,0.3   c0.3,0.1,0.5,0.3,0.5,0.6c0,0.4-0.3,0.6-0.8,0.6c-0.2,0-0.4-0.1-0.6-0.1L-80-1.9z"></path>
	<path d="M-77.4-1.5c0-0.1,0-0.3,0-0.5v-2.4h0.4v1.3h0c0.1-0.2,0.4-0.4,0.7-0.4c0.5,0,0.9,0.4,0.8,1c0,0.7-0.5,1.1-0.9,1.1   c-0.3,0-0.5-0.1-0.7-0.4h0l0,0.3H-77.4z M-77-2.3c0,0,0,0.1,0,0.1c0.1,0.3,0.3,0.4,0.5,0.4c0.4,0,0.6-0.3,0.6-0.8   c0-0.4-0.2-0.7-0.6-0.7c-0.2,0-0.5,0.2-0.6,0.4c0,0,0,0.1,0,0.1V-2.3z"></path>
	<path d="M-73.2-2.6c0,0.7-0.5,1.1-1,1.1c-0.5,0-1-0.4-1-1c0-0.7,0.4-1.1,1-1.1C-73.6-3.6-73.2-3.2-73.2-2.6z M-74.8-2.5   c0,0.4,0.3,0.8,0.6,0.8c0.4,0,0.6-0.3,0.6-0.8c0-0.3-0.2-0.8-0.6-0.8C-74.6-3.3-74.8-2.9-74.8-2.5z"></path>
	<path d="M-71-4.5v2.4c0,0.2,0,0.4,0,0.5h-0.3l0-0.3h0c-0.1,0.2-0.4,0.4-0.7,0.4c-0.5,0-0.9-0.4-0.9-1c0-0.7,0.4-1.1,0.9-1.1   c0.3,0,0.5,0.1,0.6,0.3h0v-1.2H-71z M-71.3-2.7c0,0,0-0.1,0-0.2c-0.1-0.2-0.3-0.4-0.5-0.4c-0.4,0-0.6,0.3-0.6,0.8   c0,0.4,0.2,0.7,0.6,0.7c0.2,0,0.5-0.2,0.5-0.4c0-0.1,0-0.1,0-0.2V-2.7z"></path>
	<path d="M-70.5-1.8c0-0.2,0.1-0.3,0.2-0.3c0.1,0,0.2,0.1,0.2,0.3c0,0.1-0.1,0.3-0.2,0.3C-70.4-1.5-70.5-1.6-70.5-1.8z"></path>
</g>
<rect x="-0.3" y="-5.8" style="fill:none;" width="36.3" height="2.8"></rect>
<text transform="matrix(1 0 0 1 -0.333 -3.7036)" style="font-family:'MyriadPro-Regular'; font-size:3px;">Regalate gastronomía. </text>
<g>
	<rect x="10.1" y="14.3" class="st7" width="20.9" height="0.9"></rect>
	<rect x="10.1" y="19.3" class="st7" width="20.9" height="0.9"></rect>
	<path class="st7" d="M31.5,1.9H9c-2.8,0-5.2,1.9-5.2,4.2v18.1c0,2.3,2.3,4.2,5.2,4.2h1.7l6.2,9.6l0.1,0.1l6.3-9.7h8.2   c2.8,0,5.1-1.9,5.1-4.2V6.1C36.6,3.8,34.3,1.9,31.5,1.9z M31.5,27.6h-8.7l-5.8,9l-5.7-8.9l0-0.1H9c-2.3,0-4.2-1.5-4.2-3.3V6.1   c0-1.8,1.9-3.3,4.2-3.3h22.4c2.3,0,4.2,1.5,4.2,3.3v18.1C35.7,26.1,33.8,27.6,31.5,27.6z"></path>
</g>
<polygon class="st2" points="22.8,12 20.4,10.7 18,12 18.5,9.3 16.5,7.5 19.2,7.1 20.4,4.7 21.6,7.1 24.2,7.5 22.3,9.3 "></polygon>
<g>
	<path class="st0" d="M57.7,21v9c-0.6,0.1-1.8,0.3-3.3,0.3c-1.5,0-2.8-0.2-3.3-0.2v-9c0-0.1,0.1-2.8,3.3-2.8   C57.7,18.2,57.7,20.9,57.7,21z M52.4,6.4c0,0,0,0.5,0,1.2h0.5V3.5h0.8v4.2h2.7c0-0.7,0-1.2,0-1.2h0V3h0.2V1.4h-0.2V0.8h-2.7v0.6   h-0.2v1.6h-0.8V1.4h0.2V0.8h-0.5v0.6h-0.2V3h0.2V6.4z M58.9,12.7c0.8,1,1,2,1,4.1v21.8c0,0.8-2.5,1.4-5.5,1.4c-3,0-5.5-0.6-5.5-1.4   V16.8c0-2.1,0.2-3.1,1-4.1c1-1.3,2.4-1.9,2.4-2.9c0-0.3,0-0.8,0-1.3h0.6v1.2c0,0,0,1.4-1,2.3l-0.1,0.1c-1.2,1.1-2.2,2-2.2,4.6v21.9   l0.8,0.3V16.8c0-2.3,0.7-2.9,1.9-4.1l0.1-0.1c1.2-1.2,1.3-2.8,1.3-2.9V8.5h2.7c0,0.5,0,1,0,1.3C56.5,10.8,57.9,11.4,58.9,12.7z    M58.2,20.9c0,0,0-3.3-3.8-3.3c-3.8,0-3.8,3.3-3.8,3.3v9.6c0,0,1.6,0.3,3.8,0.3c2.2,0,3.8-0.3,3.8-0.3V20.9z"></path>
</g>
<g>
	<path class="st8" d="M70.9,28.4c0-0.8,2.4-1.5,3.4-2.5c0.8-0.8,1.5-1.7,1.4-3.4c-0.1-2.1-1.4-8.6-1.4-8.6h-7.4c0,0-1.3,6.4-1.4,8.6   c-0.1,1.8,0.6,2.6,1.4,3.4c0.9,1,3.4,1.6,3.4,2.5c0,0.8,0,2.9,0,2.9h0v8.1h-3.3v0.4h7.4v-0.4h-3.4v-8.1   C70.9,31.2,70.9,29.2,70.9,28.4z"></path>
	<g>
		<path class="st4" d="M67.9,19.9c-0.2,2.5,0,5.3,1.7,6.5c-1.8-0.8-3-1.3-2.6-6.5h-0.5l0.8-5.6h6.6l0.7,5.6H67.9z"></path>
	</g>
</g>
<path class="st9" d="M2.6,60L4,59.7v6.2L2.6,60z M6.5,52.6h7.9l20-4.9L34,46c-0.3-1.2-1.5-2-2.7-1.7l-28.5,7c-1.2,0.3-2,1.5-1.7,2.7  l0.4,1.7l2.7-0.7v-0.2C4.3,53.7,5.3,52.6,6.5,52.6z M4.8,61.6h33.9v10.2c0,1.2-1,2.3-2.3,2.3H7.1c-1.2,0-2.3-1-2.3-2.3V61.6z   M12.7,65.3c0,0,0.1-0.1,0.1-0.1c-0.1,0-0.3,0-0.4,0.1C12.5,65.2,12.6,65.2,12.7,65.3z M12.2,65.3c0,0-0.1,0-0.1,0  c0,0.1-0.1,0.2-0.1,0.3c0,0-0.4,0.7,0,0.5c0.2-0.1,0.3-0.2,0.4-0.3c0.1-0.1,0.2-0.2,0.3-0.3C12.5,65.4,12.3,65.4,12.2,65.3z   M13,64.9c0.5-0.6,1-1.1,1.5-1.7h-1.3c0.1,0.1,0.1,0.2,0,0.4c-0.3,0.5-0.6,0.9-0.9,1.4C12.5,65,12.8,65,13,64.9z M12.9,65.3  c0.2,0.1,0.4,0.1,0.6,0.2c0.1-0.2,0.2-0.3,0.3-0.5c0,0,0,0-0.1,0c-0.2,0-0.4,0.1-0.6,0.1C13.1,65.2,13,65.2,12.9,65.3z M13.9,64.8  c0-0.1,0.1-0.1,0.1-0.2c0.2-0.4,0.3-0.8,0.5-1.1c-0.4,0.5-0.8,0.9-1.2,1.4C13.5,64.9,13.7,64.8,13.9,64.8z M14.3,65  c0,0.1,0,0.3,0,0.4c0.1-0.1,0.2-0.3,0.3-0.5C14.5,64.9,14.4,64.9,14.3,65C14.3,65,14.3,65,14.3,65z M13.9,65.7c0,0,0.1,0,0.1,0.1  c0.6,0.3,1.2,0.7,2,0.7c0.3,0,1.1,0.1,0.8-0.4c-0.1-0.1-0.1-0.3-0.1-0.4c0-0.3,0.2-0.7,0.2-1c-0.2,0-0.5,0-0.7,0.1  c-0.2,0.1-0.3,0.1-0.5,0.2c-0.1,0-0.1,0-0.1-0.1c0,0,0,0,0,0c-0.1,0-0.2,0-0.4,0C15.2,64.9,15.1,65,15,65c-0.1,0-0.1,0-0.1-0.1  c0,0,0,0,0-0.1c0,0,0,0,0,0c-0.1,0.3-0.2,0.6-0.5,0.7c-0.1,0-0.1,0-0.1-0.1c0-0.1,0-0.1,0-0.2c0,0.1-0.1,0.1-0.2,0.2  C14,65.6,13.9,65.7,13.9,65.7z M15.6,64.6c0-0.2,0.1-0.3,0.2-0.5c-0.1,0.1-0.3,0.3-0.4,0.5C15.5,64.6,15.6,64.6,15.6,64.6z M17,64.5  c0-0.2-0.1-0.1-0.2,0c0,0-0.1,0-0.1,0C16.8,64.5,16.9,64.5,17,64.5z M30.2,72.2h6.5V69h-6.5V72.2z M27.5,63.2H14.8  c-0.1,0.2-0.2,0.4-0.2,0.6c0,0,0,0,0.1-0.1c0.1-0.1,0.2,0,0.2,0.1c-0.1,0.3-0.2,0.6-0.3,0.9c0,0,0,0,0,0.1c0.1,0,0.2,0,0.3,0  c0.1-0.2,0.1-0.4,0.2-0.6c0-0.1,0.2,0,0.2,0c0,0.2,0,0.3,0,0.5c0,0,0.1,0,0.1,0c0.1-0.1,0.2-0.3,0.3-0.4c0.1-0.2,0.3-0.3,0.5-0.4  c0.1,0,0.1,0,0.1,0.1c0,0.2-0.2,0.4-0.2,0.7c0.1,0,0.2,0,0.4,0c0.3-0.1,0.5-0.3,0.7-0.4c0,0,0.1,0,0.1,0c0.1,0.1,0.1,0.2,0.1,0.3  c0.4,0,0.7,0,1.1-0.1c0.7,0,1.3-0.1,2-0.1c0.6,0,1.2-0.1,1.8,0c0.1,0,0.1,0.2,0,0.2c-0.7-0.1-1.5,0-2.3,0c-0.7,0-1.3,0-2,0.1  c-0.2,0-0.4,0-0.6,0c0,0.1,0,0.2-0.1,0.3c-0.1,0.2-0.1,0.4-0.2,0.6c0,0.2,0.1,0.4,0.1,0.6c0.1,0.3,0,0.4-0.2,0.5h10.7V63.2z M7,66.6  h8.7c-0.1,0-0.1,0-0.2,0c-0.6-0.1-1.1-0.4-1.6-0.7c0,0-0.1,0-0.1-0.1c-0.1,0.2-0.2,0.3-0.4,0.3c-0.1,0-0.1,0-0.1-0.1  c0-0.1,0.1-0.3,0.1-0.4c-0.2-0.1-0.4-0.2-0.6-0.2c-0.3,0.4-0.7,0.9-1.2,0.8c0,0-0.1-0.1-0.1-0.1c0-0.3,0.2-0.7,0.3-0.9  c0,0-0.1,0-0.1,0c-0.7,0.1-1.3,0.1-2,0.1c-0.5,0-1,0-1.6,0c-0.2,0-0.5,0-0.6-0.2c0,0,0-0.1,0-0.1c0.4-0.2,0.8-0.2,1.3-0.2  c0.6,0,1.2,0,1.8,0.1c0.3,0,0.7,0.1,1,0.1c0.1,0,0.2,0,0.3,0c0,0,0-0.1,0.1-0.1c0.2-0.3,0.4-0.6,0.6-0.9c0.1-0.1,0.5-0.8,0.1-0.6  c-0.1,0-0.2-0.1-0.1-0.2H7V66.6z M8.7,65.1c-0.1,0-0.3,0-0.4,0c0,0-0.3,0.1-0.4,0.1c0.2,0,0.3,0,0.5,0c0.6,0,1.3,0,1.9,0  c0.1,0,0.3,0,0.4,0C10.1,65.1,9.4,65.1,8.7,65.1z M36.5,53.2H7.1c-1.2,0-2.3,1-2.3,2.3v1.8h33.9v-1.8C38.7,54.2,37.7,53.2,36.5,53.2  z M35.5,52.8l-0.2-0.9l-3.9,1L35.5,52.8z"></path>
<g>
	<g>
		<path class="st0" d="M76.6,76.1c0.9,0.9,1,2.4,0.1,3.2c-0.9,0.9-2.3,0.8-3.2-0.1l-9.6-10.5c-0.7,0-1.4-0.2-2.2-0.5l3.5-3.5    l2.3,2.3L76.6,76.1z M56.4,64.5l4.3-4.3l-4.4-4.4c-3.5-3.5-6.9-6.9-9-9c-0.3-0.3-0.7-0.4-1.1-0.4c-0.3,0-0.7,0.3-0.8,1    c-0.3,2.9,1.8,8,9.5,15.6C55.5,63.6,56,64.1,56.4,64.5z M64.4,52.5l0.6-0.6c0,0,0,0,0,0L64.4,52.5z M80.5,51.5    c-0.5-0.5-1.2-0.6-1.5-0.3l-6.8,6.8c-0.3,0.3-1,0.3-1.4-0.2c-0.4-0.4-0.5-1.1-0.2-1.4l6.8-6.8c0.3-0.3,0.2-1-0.3-1.5    c-0.5-0.5-1.2-0.6-1.5-0.3l-6.8,6.8c-0.3,0.3-1,0.3-1.4-0.2c-0.4-0.4-0.5-1.1-0.2-1.4l6.8-6.8c0.3-0.3,0.2-1-0.3-1.5    c-0.5-0.5-1.2-0.6-1.5-0.3L65,51.9c-2.4,2.4-1.6,4.1-0.3,5.6l-19,19c-0.9,0.9-1,2.4-0.1,3.2c0.9,0.9,2.3,0.8,3.2-0.1l19-19    c1.5,1.4,3.2,2.1,5.6-0.3l7.4-7.4C81.1,52.7,81,52,80.5,51.5z"></path>
	</g>
</g>
<rect x="98.7" y="-3.8" style="fill:none;" width="29.3" height="2.8"></rect>
<text transform="matrix(1 0 0 1 98.667 -1.7036)" style="font-family:'MyriadPro-Regular'; font-size:3px;">Ofertas gastronómicos. </text>
<path class="st10" d="M137.1,19L118.7,2.6c-0.7-0.6-2-1.1-2.9-1.1l-13.3,0.3c-0.9,0-1.7,0.8-1.7,1.7l-0.3,13.3  c0,0.9,0.5,2.2,1.1,2.9L118,38.1c0.6,0.7,1.6,0.7,2.3,0.1l17-17C137.8,20.6,137.8,19.6,137.1,19z M109.5,10.5c-1,1-2.5,1-3.5,0  c-1-1-1-2.5,0-3.5c1-1,2.5-1,3.5,0C110.5,8,110.5,9.6,109.5,10.5z M127.3,21.4h-15.2v-2.8h15.2L127.3,21.4L127.3,21.4z"></path>
<path class="st0" d="M179.1,17.2l0.7,20.7c0,1.1-0.8,2-1.8,2c0,0-0.1,0-0.1,0c0,0-0.1,0-0.1,0v0c-0.9-0.1-1.6-1-1.6-2l0.7-20.7  c-2-0.8-4.1-2.2-4.1-5.5c0-4.1,2.7-9.2,4.9-9.6v0c0,0,0.1,0,0.1,0c0,0,0,0,0,0c0,0,0.1,0,0.1,0c2.2,0,5.2,5.4,5.2,9.6  C183.2,15,181.1,16.4,179.1,17.2z M147.6,2.4C147.6,2.4,147.6,2.5,147.6,2.4c-1.5,0.8-3.6,4-3.6,12.9c0,4.8,2,7.7,2.6,9.3  c1,2.8-0.9,9.8-1.3,13.1c-0.1,1.1,0.8,2,1.8,2c0.2,0,0.3,0,0.5-0.1v0c0.8-0.2,1.4-1,1.4-1.9V3.5C149,2.7,148.3,2.2,147.6,2.4z   M164.5,2.5l-0.1,11.7h-1l-0.2-11.7h-0.5l-0.2,11.7h-0.6h-0.2h-0.2l-0.2-11.7h-0.5l-0.2,11.7h-1l-0.1-11.7h-0.5  c-0.4,2.7-0.8,8-0.8,10.7c0,3.3,0.7,3.3,2.6,4.1l-0.7,20.7c0,1,0.7,1.8,1.5,1.9v0c0.1,0,0.2,0,0.3,0c1,0,1.8-0.9,1.8-2l-0.7-20.7  c2-0.8,2.6-0.7,2.6-4.1c0-2.7-0.4-7.9-0.8-10.7H164.5z"></path>
<path class="st0" d="M100.7,64.2H138v11.2c0,1.4-1.1,2.5-2.5,2.5h-32.3c-1.4,0-2.5-1.1-2.5-2.5V64.2z M109.4,68.3  c0,0,0.1-0.1,0.1-0.1c-0.2,0-0.3,0-0.5,0.1C109.2,68.2,109.3,68.2,109.4,68.3z M108.7,68.3c0,0-0.1,0-0.1,0  c-0.1,0.1-0.1,0.2-0.2,0.3c0,0-0.4,0.8,0,0.6c0.2-0.1,0.3-0.2,0.5-0.4c0.1-0.1,0.2-0.2,0.3-0.4C109.1,68.4,108.9,68.4,108.7,68.3z   M109.7,67.9c0.5-0.6,1.1-1.3,1.6-1.9h-1.4c0.1,0.1,0.1,0.2,0,0.4c-0.3,0.5-0.7,1-1,1.5C109.1,68,109.4,67.9,109.7,67.9z   M109.6,68.3c0.2,0.1,0.4,0.1,0.6,0.2c0.1-0.2,0.2-0.4,0.3-0.6c0,0,0,0-0.1,0c-0.2,0-0.4,0.1-0.7,0.1  C109.7,68.2,109.7,68.3,109.6,68.3z M110.7,67.8c0-0.1,0.1-0.1,0.1-0.2c0.2-0.4,0.4-0.8,0.6-1.3c-0.4,0.5-0.9,1-1.3,1.5  C110.2,67.8,110.4,67.8,110.7,67.8z M111.2,67.9c0,0.2,0,0.3,0,0.5c0.2-0.1,0.3-0.3,0.3-0.5C111.4,67.9,111.3,67.9,111.2,67.9  C111.2,67.9,111.2,67.9,111.2,67.9z M110.7,68.7c0,0,0.1,0,0.1,0.1c0.7,0.4,1.3,0.7,2.2,0.8c0.3,0,1.2,0.1,0.9-0.4  c-0.1-0.1-0.1-0.3-0.1-0.4c0-0.4,0.2-0.7,0.3-1.1c-0.3,0-0.5,0-0.8,0.1c-0.2,0.1-0.4,0.2-0.6,0.2c-0.1,0-0.1,0-0.1-0.1c0,0,0,0,0,0  c-0.1,0-0.3,0-0.4,0c-0.1,0.1-0.2,0.2-0.3,0.2c-0.1,0-0.1,0-0.1-0.1c0,0,0,0,0-0.1c0,0,0,0,0,0c-0.1,0.3-0.3,0.6-0.6,0.8  c-0.1,0-0.1,0-0.2-0.1c0-0.1,0-0.1,0-0.2c-0.1,0.1-0.1,0.2-0.2,0.2C110.7,68.7,110.7,68.7,110.7,68.7z M112.6,67.6  c0-0.2,0.1-0.3,0.2-0.5c-0.2,0.1-0.3,0.3-0.4,0.5C112.4,67.6,112.5,67.6,112.6,67.6z M114.1,67.4c0-0.2-0.1-0.1-0.2,0  c0,0-0.1,0-0.1,0.1C113.8,67.4,113.9,67.4,114.1,67.4z M128.7,75.9h7.2v-3.6h-7.2V75.9z M125.6,66h-14c-0.1,0.2-0.2,0.4-0.3,0.6  c0,0,0-0.1,0.1-0.1c0.1-0.1,0.2,0,0.2,0.1c-0.1,0.3-0.2,0.7-0.4,1c0,0,0,0,0,0.1c0.1,0,0.2,0,0.3,0c0.1-0.2,0.1-0.5,0.2-0.6  c0.1-0.1,0.2,0,0.2,0.1c0,0.2,0,0.4,0,0.5c0,0,0.1,0,0.1,0c0.1-0.1,0.2-0.3,0.3-0.4c0.1-0.2,0.3-0.3,0.5-0.4c0.1,0,0.2,0,0.2,0.1  c0,0.3-0.2,0.5-0.2,0.7c0.1,0,0.3,0,0.4,0c0.3-0.1,0.5-0.3,0.8-0.4c0,0,0.1,0,0.1,0c0.1,0.1,0.1,0.2,0.1,0.3c0.4,0,0.8-0.1,1.2-0.1  c0.7,0,1.5-0.1,2.2-0.1c0.6,0,1.3-0.1,2,0c0.1,0,0.1,0.2-0.1,0.2c-0.8-0.1-1.7,0-2.5,0c-0.7,0-1.5,0-2.2,0.1c-0.2,0-0.4,0-0.6,0  c0,0.1,0,0.2-0.1,0.3c-0.1,0.2-0.1,0.5-0.2,0.7c0,0.2,0.1,0.4,0.2,0.6c0.1,0.3,0,0.5-0.3,0.6h11.8V66z M103.1,69.8h9.5  c-0.1,0-0.1,0-0.2,0c-0.6-0.1-1.2-0.5-1.7-0.7c0,0-0.1,0-0.1-0.1c-0.1,0.2-0.3,0.3-0.4,0.4c-0.1,0-0.1,0-0.1-0.1  c0-0.1,0.1-0.3,0.1-0.4c-0.2-0.1-0.5-0.2-0.7-0.2c-0.3,0.4-0.8,1-1.3,0.9c0,0-0.1-0.1-0.1-0.1c0-0.4,0.2-0.7,0.4-1c0,0-0.1,0-0.1,0  c-0.7,0.1-1.4,0.1-2.2,0.1c-0.6,0-1.1,0-1.7,0c-0.2,0-0.5,0-0.7-0.2c0,0,0-0.1,0-0.1c0.4-0.2,0.9-0.2,1.4-0.2c0.7,0,1.3,0,2,0.1  c0.4,0,0.7,0.1,1.1,0.1c0.1,0,0.2,0,0.3,0c0,0,0.1-0.1,0.1-0.1c0.2-0.3,0.5-0.7,0.7-1c0.1-0.1,0.6-0.8,0.2-0.7  c-0.1,0-0.2-0.1-0.1-0.2h-6.3V69.8z M104.9,68.1c-0.1,0-0.3,0-0.4,0c0,0-0.4,0.1-0.4,0.1c0.2,0,0.3,0,0.5,0c0.7,0.1,1.4,0,2.1,0  c0.2,0,0.3,0,0.5,0C106.4,68.1,105.7,68.1,104.9,68.1z M135.5,55h-32.3c-1.4,0-2.5,1.1-2.5,2.5v1.9H138v-1.9  C138,56.1,136.9,55,135.5,55z"></path>
<path class="st10" d="M119,53.9c-11.8-6.5-3.3-14.5,0-9.1C122.3,39.4,130.8,47.4,119,53.9z"></path>
<g>
	<g>
		<path class="st0" d="M178.6,77.1c0.9,0.9,1,2.4,0.1,3.2c-0.9,0.9-2.3,0.8-3.2-0.1l-9.6-10.5c-0.7,0-1.4-0.2-2.2-0.5l3.5-3.5    l2.3,2.3L178.6,77.1z M158.4,65.5l4.3-4.3l-4.4-4.4c-3.5-3.5-6.9-6.9-9-9c-0.3-0.3-0.7-0.4-1.1-0.4c-0.3,0-0.7,0.3-0.8,1    c-0.3,2.9,1.8,8,9.5,15.6C157.5,64.6,158,65.1,158.4,65.5z M166.4,53.5L167,53c0,0,0,0,0,0L166.4,53.5z M182.5,52.5    c-0.5-0.5-1.2-0.6-1.5-0.3l-6.8,6.8c-0.3,0.3-1,0.3-1.4-0.2c-0.4-0.4-0.5-1.1-0.2-1.4l6.8-6.8c0.3-0.3,0.2-1-0.3-1.5    c-0.5-0.5-1.2-0.6-1.5-0.3l-6.8,6.8c-0.3,0.3-1,0.3-1.4-0.2c-0.4-0.4-0.5-1.1-0.2-1.4l6.8-6.8c0.3-0.3,0.2-1-0.3-1.5    c-0.5-0.5-1.2-0.6-1.5-0.3L167,53c-2.4,2.4-1.6,4.1-0.3,5.6l-19,19c-0.9,0.9-1,2.4-0.1,3.2c0.9,0.9,2.3,0.8,3.2-0.1l19-19    c1.5,1.4,3.2,2.1,5.6-0.3l7.4-7.4C183.1,53.7,183,53,182.5,52.5z"></path>
	</g>
</g>
<polygon class="st2" points="165.8,52 163.4,50.7 161,52 161.5,49.3 159.5,47.5 162.2,47.1 163.4,44.7 164.6,47.1 167.2,47.5   165.3,49.3 "></polygon>
<rect x="-190.3" y="93.6" style="fill:none;" width="28.3" height="3.8"></rect>
<text transform="matrix(1 0 0 1 -190.334 96.417)" style="font-family:'MyriadPro-Regular'; font-size:4px;">Hoteles. </text>
<g>
	<path class="st0" d="M-161.6,115.6h-5.2v-2.6c0-1.1-0.9-2.1-2.1-2.1c-1.1,0-2.1,0.9-2.1,2.1v2.6h-9.4v-2.6c0-1.1-0.9-2.1-2.1-2.1   c-1.1,0-2.1,0.9-2.1,2.1v2.6h-5.2c-0.9,0-1.6,0.7-1.6,1.6v22.6c0,0.9,0.7,1.6,1.6,1.6h28.1c0.9,0,1.6-0.7,1.6-1.6v-22.6   C-160,116.3-160.7,115.6-161.6,115.6z M-176.7,122.6v4.2h-4.9v-4.2H-176.7z M-174.6,122.6h4.9v4.2h-4.9V122.6z M-183.7,122.6v4.2   h-4.4v-4.2H-183.7z M-183.7,128.9v3.1h-4.4v-3.1H-183.7z M-181.6,128.9h4.9v3.1h-4.9V128.9z M-176.7,134.1v4.2h-4.9v-4.2H-176.7z    M-174.6,134.1h4.9v4.2h-4.9V134.1z M-174.6,132v-3.1h4.9v3.1H-174.6z M-167.5,128.9h4.4v3.1h-4.4V128.9z M-167.5,126.8v-4.2h4.4   v4.2H-167.5z M-188.1,134.1h4.4v4.2h-4.4V134.1z M-167.5,138.3v-4.2h4.4v4.2H-167.5z"></path>
	<polygon class="st11" points="-171.1,126.4 -172,125.9 -173,126.4 -172.8,125.4 -173.5,124.6 -172.5,124.5 -172,123.6    -171.6,124.5 -170.5,124.6 -171.3,125.4  "></polygon>
	<polygon class="st11" points="-178,131.5 -178.9,131.1 -179.8,131.6 -179.7,130.5 -180.4,129.8 -179.4,129.6 -178.9,128.7    -178.4,129.6 -177.4,129.8 -178.2,130.5  "></polygon>
</g>
<g>
	<g>
		<g>
			<path class="st0" d="M-112,140c0,0.6-0.5,1.1-1.1,1.1h-29.8c-0.6,0-1.1-0.5-1.1-1.1v-2c0-0.6,0.5-1.1,1.1-1.1h29.8     c0.6,0,1.1,0.5,1.1,1.1V140z"></path>
		</g>
		<g>
			<g>
				<path class="st0" d="M-125.4,116.8c0,0.1-0.1,0.2-0.2,0.2h-4.7c-0.1,0-0.2-0.1-0.2-0.2v-3.3c0-0.1,0.1-0.2,0.2-0.2h4.7      c0.1,0,0.2,0.1,0.2,0.2V116.8z"></path>
			</g>
			<g>
				<path class="st0" d="M-125.4,121.9c0,0.1-0.1,0.2-0.2,0.2h-4.7c-0.1,0-0.2-0.1-0.2-0.2v-3.3c0-0.1,0.1-0.2,0.2-0.2h4.7      c0.1,0,0.2,0.1,0.2,0.2V121.9z"></path>
			</g>
			<g>
				<path class="st0" d="M-125.4,126.9c0,0.1-0.1,0.2-0.2,0.2h-4.7c-0.1,0-0.2-0.1-0.2-0.2v-3.3c0-0.1,0.1-0.2,0.2-0.2h4.7      c0.1,0,0.2,0.1,0.2,0.2V126.9z"></path>
			</g>
			<g>
				<path class="st0" d="M-117.3,116.8c0,0.1-0.1,0.2-0.2,0.2h-4.7c-0.1,0-0.2-0.1-0.2-0.2v-3.3c0-0.1,0.1-0.2,0.2-0.2h4.7      c0.1,0,0.2,0.1,0.2,0.2V116.8z"></path>
			</g>
			<g>
				<path class="st0" d="M-117.3,121.9c0,0.1-0.1,0.2-0.2,0.2h-4.7c-0.1,0-0.2-0.1-0.2-0.2v-3.3c0-0.1,0.1-0.2,0.2-0.2h4.7      c0.1,0,0.2,0.1,0.2,0.2V121.9z"></path>
			</g>
			<g>
				<path class="st0" d="M-117.3,126.9c0,0.1-0.1,0.2-0.2,0.2h-4.7c-0.1,0-0.2-0.1-0.2-0.2v-3.3c0-0.1,0.1-0.2,0.2-0.2h4.7      c0.1,0,0.2,0.1,0.2,0.2V126.9z"></path>
			</g>
			<g>
				<path class="st0" d="M-133.5,116.8c0,0.1-0.1,0.2-0.2,0.2h-4.7c-0.1,0-0.2-0.1-0.2-0.2v-3.3c0-0.1,0.1-0.2,0.2-0.2h4.7      c0.1,0,0.2,0.1,0.2,0.2V116.8z"></path>
			</g>
			<g>
				<path class="st0" d="M-133.5,121.9c0,0.1-0.1,0.2-0.2,0.2h-4.7c-0.1,0-0.2-0.1-0.2-0.2v-3.3c0-0.1,0.1-0.2,0.2-0.2h4.7      c0.1,0,0.2,0.1,0.2,0.2V121.9z"></path>
			</g>
			<g>
				<path class="st0" d="M-133.5,126.9c0,0.1-0.1,0.2-0.2,0.2h-4.7c-0.1,0-0.2-0.1-0.2-0.2v-3.3c0-0.1,0.1-0.2,0.2-0.2h4.7      c0.1,0,0.2,0.1,0.2,0.2V126.9z"></path>
			</g>
		</g>
		<g>
			<path class="st0" d="M-128.1,102.2c0-0.1,0.1-0.1,0.1,0c0.2,0.4,0.5,0.9,0.7,1.3c0,0.1,0.1,0.1,0.2,0.2c0.5,0.1,1,0.2,1.5,0.2     c0.1,0,0.1,0.1,0,0.1c-0.4,0.3-0.7,0.6-1.1,1c-0.1,0.1-0.1,0.2-0.1,0.3c0.1,0.5,0.2,0.9,0.2,1.4c0,0.1,0,0.1-0.1,0.1     c-0.4-0.2-0.9-0.5-1.3-0.7c-0.1,0-0.2,0-0.3,0c-0.4,0.2-0.9,0.4-1.3,0.7c-0.1,0-0.1,0-0.1-0.1c0.1-0.5,0.1-0.9,0.2-1.4     c0-0.1,0-0.2-0.1-0.3c-0.4-0.3-0.7-0.6-1.1-1c-0.1-0.1,0-0.1,0-0.1c0.5-0.1,1-0.2,1.5-0.2c0.1,0,0.2-0.1,0.2-0.2     C-128.5,103-128.3,102.6-128.1,102.2"></path>
		</g>
		<g>
			<path class="st0" d="M-122.9,103.7c0-0.1,0.1-0.1,0.1,0c0.2,0.4,0.3,0.7,0.5,1.1c0,0.1,0.1,0.1,0.2,0.1c0.4,0.1,0.8,0.2,1.2,0.3     c0.1,0,0.1,0.1,0,0.1c-0.3,0.3-0.6,0.5-1,0.8c-0.1,0-0.1,0.1-0.1,0.2c0,0.4,0.1,0.8,0.1,1.2c0,0.1,0,0.1-0.1,0.1     c-0.3-0.2-0.7-0.4-1-0.6c-0.1,0-0.2,0-0.2,0c-0.4,0.2-0.7,0.3-1.1,0.5c-0.1,0-0.1,0-0.1-0.1c0.1-0.4,0.2-0.8,0.3-1.2     c0-0.1,0-0.2-0.1-0.2c-0.3-0.3-0.6-0.6-0.9-0.9c-0.1-0.1,0-0.1,0-0.1c0.4,0,0.8-0.1,1.3-0.1c0.1,0,0.2-0.1,0.2-0.1     C-123.3,104.4-123.1,104-122.9,103.7"></path>
		</g>
		<g>
			<path class="st0" d="M-133.5,103.7c0-0.1,0.1-0.1,0.1,0c0.2,0.3,0.4,0.7,0.6,1c0,0.1,0.1,0.1,0.2,0.1c0.4,0,0.8,0.1,1.3,0.1     c0.1,0,0.1,0.1,0,0.1c-0.3,0.3-0.6,0.6-0.9,0.9c-0.1,0.1-0.1,0.1-0.1,0.2c0.1,0.4,0.2,0.8,0.3,1.2c0,0.1,0,0.1-0.1,0.1     c-0.4-0.2-0.7-0.3-1.1-0.5c-0.1,0-0.2,0-0.2,0c-0.4,0.2-0.7,0.4-1.1,0.6c-0.1,0-0.1,0-0.1-0.1c0-0.4,0.1-0.8,0.1-1.2     c0-0.1,0-0.2-0.1-0.2c-0.3-0.3-0.6-0.5-1-0.8c-0.1,0,0-0.1,0-0.1c0.4-0.1,0.8-0.2,1.2-0.3c0.1,0,0.2-0.1,0.2-0.1     C-133.9,104.4-133.7,104-133.5,103.7"></path>
		</g>
		<g>
			<path class="st0" d="M-118.6,106.9C-118.5,106.8-118.5,106.8-118.6,106.9c0.2,0.3,0.3,0.5,0.4,0.8c0,0,0.1,0.1,0.1,0.1     c0.3,0.1,0.6,0.2,0.8,0.2c0,0,0.1,0,0,0.1c-0.2,0.2-0.5,0.3-0.7,0.5c0,0-0.1,0.1-0.1,0.1c0,0.3,0,0.6,0,0.8c0,0,0,0.1-0.1,0     c-0.2-0.2-0.5-0.3-0.7-0.5c0,0-0.1,0-0.2,0c-0.3,0.1-0.5,0.2-0.8,0.3c0,0-0.1,0-0.1-0.1c0.1-0.3,0.2-0.5,0.2-0.8c0,0,0-0.1,0-0.2     c-0.2-0.2-0.4-0.4-0.6-0.6c0,0,0-0.1,0-0.1c0.3,0,0.6,0,0.9,0c0.1,0,0.1,0,0.1-0.1C-118.9,107.3-118.7,107.1-118.6,106.9"></path>
		</g>
		<g>
			<path class="st0" d="M-137.5,106.9C-137.5,106.9-137.4,106.9-137.5,106.9c0.2,0.2,0.4,0.5,0.6,0.7c0,0,0.1,0.1,0.1,0.1     c0.3,0,0.6,0,0.9,0c0.1,0,0.1,0,0,0.1c-0.2,0.2-0.4,0.4-0.6,0.6c0,0,0,0.1,0,0.2c0.1,0.3,0.2,0.5,0.2,0.8c0,0,0,0.1-0.1,0.1     c-0.3-0.1-0.5-0.2-0.8-0.3c0,0-0.1,0-0.2,0c-0.2,0.2-0.5,0.3-0.7,0.5c0,0-0.1,0-0.1,0c0-0.3,0-0.6,0-0.8c0,0,0-0.1-0.1-0.1     c-0.2-0.2-0.5-0.3-0.7-0.5c0,0,0-0.1,0-0.1c0.3-0.1,0.6-0.2,0.8-0.2c0,0,0.1-0.1,0.1-0.1C-137.7,107.5-137.6,107.2-137.5,106.9"></path>
		</g>
		<g>
			<g>
				<path class="st3" d="M-135.2,108.5c0,0-0.1,0.1,0,0.2c0.1,0.2,0.1,0.4,0.2,0.7h14.1c0.1-0.2,0.1-0.5,0.2-0.7c0-0.1,0-0.2,0-0.2      c0,0-0.1-0.1-0.1-0.1H-135C-135.1,108.4-135.1,108.5-135.2,108.5z"></path>
			</g>
			<g>
				<g>
					<path class="st3" d="M-139.9,139.3h23.8c1.1,0,2-0.9,2-2h-1c0,0.5-0.4,0.9-0.9,0.9h-23.8c-0.5,0-0.9-0.4-0.9-0.9h-1       C-141.8,138.4-141,139.3-139.9,139.3z"></path>
				</g>
				<g>
					<path class="st3" d="M-140.8,135.7v-25.4c0-0.5,0.4-0.9,0.9-0.9h0.6c0-0.1,0-0.3,0-0.4c0-0.1,0-0.1-0.1-0.2       c-0.2-0.1-0.4-0.3-0.6-0.4l0,0c-1.1,0-1.9,0.9-1.9,2v25.4H-140.8z"></path>
				</g>
				<g>
					<path class="st3" d="M-116.1,109.4c0.5,0,0.9,0.4,0.9,0.9v25.4h1v-25.4c0-1.1-0.9-2-1.9-2l0,0c-0.2,0.1-0.3,0.2-0.5,0.4       c-0.1,0-0.1,0.1-0.1,0.2c0,0.2,0,0.3,0,0.5H-116.1z"></path>
				</g>
			</g>
		</g>
		<g>
			<path class="st0" d="M-122.8,136v-6.8c0-0.3-0.2-0.5-0.5-0.5h-9.4c-0.3,0-0.5,0.2-0.5,0.5v6.8H-122.8z"></path>
		</g>
	</g>
</g>
<path class="st0" d="M-175.7,103c-2.4,0-4.3,1.9-4.3,4.3c0,0.9,0.3,1.8,0.8,2.5l0.1,0.2l3.1,4.3c0.1,0.1,0.2,0.1,0.3,0.1  s0.2-0.1,0.3-0.1l3-4.3l0.2-0.2c0.5-0.7,0.8-1.6,0.8-2.5C-171.4,104.9-173.3,103-175.7,103z M-175.7,108.7c-0.8,0-1.4-0.6-1.4-1.4  c0-0.8,0.6-1.4,1.4-1.4c0.8,0,1.4,0.6,1.4,1.4C-174.3,108.1-174.9,108.7-175.7,108.7z"></path>
<g>
	<g>
		<g>
			<g>
				<path class="st0" d="M-177.4,160.3c-6.3,0-11.5,5.1-11.5,11.5s5.1,11.5,11.5,11.5c6.3,0,11.5-5.1,11.5-11.5      S-171,160.3-177.4,160.3z M-169,169.7c0,0.1,0.1,0.2,0.1,0.4c0,0.2,0.1,0.4,0.1,0.5c0,0.1,0,0.2,0,0.3c0,0.3,0,0.6,0,0.9      c0,0.3,0,0.6,0,0.9c0,0.1,0,0.2,0,0.3c0,0.2,0,0.4-0.1,0.5c0,0.1-0.1,0.2-0.1,0.4c0,0.2-0.1,0.3-0.1,0.5c0,0.1-0.1,0.3-0.1,0.4      c0,0.1-0.1,0.3-0.1,0.4c-0.1,0.1-0.1,0.3-0.2,0.4c-0.1,0.1-0.1,0.2-0.2,0.4c-0.1,0.1-0.2,0.3-0.2,0.4c-0.1,0.1-0.1,0.2-0.2,0.3      c-0.1,0.1-0.2,0.3-0.3,0.4c-0.1,0.1-0.1,0.2-0.2,0.3c-0.1,0.1-0.2,0.3-0.4,0.4c-0.1,0.1-0.1,0.1-0.2,0.2      c-0.1,0.1-0.3,0.3-0.4,0.4c-0.1,0.1-0.1,0.1-0.2,0.2c-0.1,0.1-0.3,0.2-0.5,0.4c-0.1,0-0.1,0.1-0.2,0.1c-0.2,0.1-0.3,0.2-0.5,0.3      c-0.1,0-0.1,0.1-0.2,0.1c-0.2,0.1-0.4,0.2-0.5,0.3c-0.1,0-0.1,0.1-0.2,0.1c-0.2,0.1-0.4,0.1-0.6,0.2c-0.1,0-0.1,0.1-0.2,0.1      c-0.2,0.1-0.4,0.1-0.6,0.2c-0.1,0-0.2,0-0.2,0.1c-0.2,0-0.4,0.1-0.6,0.1c-0.1,0-0.2,0-0.3,0c-0.2,0-0.4,0-0.6,0      c-0.1,0-0.2,0-0.3,0v0c0,0,0,0-0.1,0c-4.8,0-8.6-3.9-8.6-8.6c0-4.8,3.9-8.6,8.6-8.6c0,0,0,0,0.1,0v0c0.1,0,0.2,0,0.2,0      c0.2,0,0.4,0,0.6,0c0.1,0,0.1,0,0.2,0c0.2,0,0.4,0.1,0.6,0.1c0.1,0,0.1,0,0.2,0.1c0.2,0,0.4,0.1,0.6,0.2c0.1,0,0.1,0,0.2,0.1      c0.2,0.1,0.4,0.1,0.6,0.2c0.1,0,0.1,0.1,0.2,0.1c0.2,0.1,0.4,0.2,0.6,0.3c0.1,0,0.1,0.1,0.2,0.1c0.2,0.1,0.4,0.2,0.5,0.3      c0.1,0,0.1,0.1,0.2,0.1c0.2,0.1,0.3,0.2,0.5,0.4c0.1,0.1,0.1,0.1,0.2,0.2c0.1,0.1,0.3,0.3,0.4,0.4c0.1,0.1,0.1,0.1,0.2,0.2      c0.1,0.1,0.3,0.3,0.4,0.4c0.1,0.1,0.1,0.2,0.2,0.2c0.1,0.1,0.2,0.3,0.3,0.4c0.1,0.1,0.1,0.2,0.2,0.3c0.1,0.1,0.2,0.3,0.3,0.4      c0.1,0.1,0.1,0.2,0.2,0.4c0.1,0.1,0.1,0.3,0.2,0.4c0.1,0.1,0.1,0.3,0.1,0.4c0,0.1,0.1,0.3,0.1,0.4      C-169.1,169.4-169.1,169.6-169,169.7z M-169.3,171.8c0,4.5-3.6,8.1-8.1,8.1c-4.5,0-8.1-3.6-8.1-8.1c0-4.5,3.6-8.1,8.1-8.1      C-172.9,163.7-169.3,167.4-169.3,171.8z M-190.3,162.4c0.2,1.5,0.5,4.4,0.5,5.9c0,1.8-0.4,1.8-1.5,2.2l0.4,11.4      c0,0.6-0.5,1.1-1,1.1c0,0-0.1,0-0.1,0v0c-0.5-0.1-0.9-0.5-0.9-1.1l0.4-11.4c-1.1-0.4-1.5-0.4-1.5-2.2c0-1.5,0.2-4.4,0.5-5.9h0.3      l0.1,6.5h0.5l0.1-6.5h0.2l0.1,6.5h0.1h0.1h0.3l0.1-6.5h0.3l0.1,6.5h0.5l0-6.5H-190.3z"></path>
			</g>
		</g>
	</g>
</g>
<g>
	<g>
		<path class="st0" d="M-161.4,172.4c0-0.7,2.2-1.3,3.1-2.3c0.7-0.8,1.3-1.5,1.3-3.2c-0.1-2-1.3-7.9-1.3-7.9h-6.8    c0,0-1.2,5.9-1.3,7.9c-0.1,1.6,0.5,2.4,1.3,3.2c0.9,0.9,3.1,1.5,3.1,2.3c0,0.7,0,2.6,0,2.6h0v7.4h-3.1v0.4h6.8v-0.4h-3.1V175    C-161.4,175-161.4,173.1-161.4,172.4z"></path>
		<path class="st0" d="M-164.1,164.6c-0.2,2.3,0,4.9,1.5,6c-1.6-0.7-2.8-1.2-2.4-6h-0.5l0.7-5.2h6.1l0.7,5.2H-164.1z"></path>
	</g>
</g>
<g>
	<g>
		<path class="st0" d="M-134.6,167.7c0.1-0.1,0.2-0.3,0.2-0.4l-0.3-2c0-0.1,0-0.3,0.1-0.4l1.4-1.4c0.1-0.1,0.2-0.3,0.1-0.4    c-0.1-0.2-0.2-0.3-0.3-0.3l-2-0.3c-0.1,0-0.3-0.1-0.3-0.2l-0.9-1.8c-0.1-0.1-0.2-0.2-0.4-0.2c-0.2,0-0.3,0.1-0.4,0.2l-0.9,1.8    c-0.1,0.1-0.2,0.2-0.3,0.2l-2,0.3c-0.2,0-0.3,0.1-0.3,0.3c-0.1,0.2,0,0.3,0.1,0.4l1.4,1.4c0.1,0.1,0.1,0.2,0.1,0.4l-0.3,2    c0,0.2,0,0.3,0.2,0.4c0.1,0.1,0.3,0.1,0.5,0l1.8-0.9c0.1-0.1,0.3-0.1,0.4,0l1.8,0.9C-134.9,167.8-134.8,167.7-134.6,167.7z"></path>
		<path class="st0" d="M-125.3,167.7c0.1-0.1,0.2-0.3,0.2-0.4l-0.3-2c0-0.1,0-0.3,0.1-0.4l1.4-1.4c0.1-0.1,0.2-0.3,0.1-0.4    c-0.1-0.2-0.2-0.3-0.3-0.3l-2-0.3c-0.1,0-0.3-0.1-0.3-0.2l-0.9-1.8c-0.1-0.1-0.2-0.2-0.4-0.2c-0.2,0-0.3,0.1-0.4,0.2l-0.9,1.8    c-0.1,0.1-0.2,0.2-0.3,0.2l-2,0.3c-0.2,0-0.3,0.1-0.3,0.3c-0.1,0.2,0,0.3,0.1,0.4l1.4,1.4c0.1,0.1,0.1,0.2,0.1,0.4l-0.3,2    c0,0.2,0,0.3,0.2,0.4c0.1,0.1,0.3,0.1,0.5,0l1.8-0.9c0.1-0.1,0.3-0.1,0.4,0l1.8,0.9C-125.6,167.8-125.4,167.7-125.3,167.7z"></path>
		<path class="st0" d="M-128.8,172.1l-2-0.3c-0.1,0-0.3-0.1-0.3-0.2l-0.9-1.8c-0.1-0.1-0.2-0.2-0.4-0.2c-0.2,0-0.3,0.1-0.4,0.2    l-0.9,1.8c-0.1,0.1-0.2,0.2-0.3,0.2l-2,0.3c-0.2,0-0.3,0.1-0.3,0.3c-0.1,0.2,0,0.3,0.1,0.4l1.4,1.4c0.1,0.1,0.1,0.2,0.1,0.4    l-0.3,2c0,0.2,0,0.3,0.2,0.4c0.1,0.1,0.3,0.1,0.5,0l1.8-0.9c0.1-0.1,0.3-0.1,0.4,0l1.8,0.9c0.1,0.1,0.3,0.1,0.5,0    c0.1-0.1,0.2-0.3,0.2-0.4l-0.3-2c0-0.1,0-0.3,0.1-0.4l1.4-1.4c0.1-0.1,0.2-0.3,0.1-0.4C-128.5,172.2-128.7,172.1-128.8,172.1z"></path>
		<path class="st0" d="M-119.5,172.1l-2-0.3c-0.1,0-0.3-0.1-0.3-0.2l-0.9-1.8c-0.1-0.1-0.2-0.2-0.4-0.2c-0.2,0-0.3,0.1-0.4,0.2    l-0.9,1.8c-0.1,0.1-0.2,0.2-0.3,0.2l-2,0.3c-0.2,0-0.3,0.1-0.3,0.3c-0.1,0.2,0,0.3,0.1,0.4l1.4,1.4c0.1,0.1,0.1,0.2,0.1,0.4    l-0.3,2c0,0.2,0,0.3,0.2,0.4c0.1,0.1,0.3,0.1,0.5,0l1.8-0.9c0.1-0.1,0.3-0.1,0.4,0l1.8,0.9c0.1,0.1,0.3,0.1,0.5,0    c0.1-0.1,0.2-0.3,0.2-0.4l-0.3-2c0-0.1,0-0.3,0.1-0.4l1.4-1.4c0.1-0.1,0.2-0.3,0.1-0.4C-119.2,172.2-119.3,172.1-119.5,172.1z"></path>
		<path class="st0" d="M-114.8,162.8l-2-0.3c-0.1,0-0.3-0.1-0.3-0.2l-0.9-1.8c-0.1-0.1-0.2-0.2-0.4-0.2c-0.2,0-0.3,0.1-0.4,0.2    l-0.9,1.8c-0.1,0.1-0.2,0.2-0.3,0.2l-2,0.3c-0.2,0-0.3,0.1-0.3,0.3c0,0.2,0,0.3,0.1,0.4l1.4,1.4c0.1,0.1,0.1,0.2,0.1,0.4l-0.3,2    c0,0.2,0,0.3,0.2,0.4c0.1,0.1,0.3,0.1,0.5,0l1.8-0.9c0.1-0.1,0.3-0.1,0.4,0l1.8,0.9c0.1,0.1,0.3,0.1,0.5,0    c0.1-0.1,0.2-0.3,0.2-0.4l-0.3-2c0-0.1,0-0.3,0.1-0.4l1.4-1.4c0.1-0.1,0.2-0.3,0.1-0.4C-114.5,162.9-114.6,162.8-114.8,162.8z"></path>
		<path class="st0" d="M-112.6,154.3h-30.1c-2,0-3.6,1.6-3.6,3.6v21.4c0,2,1.6,3.7,3.6,3.7h30.1c2,0,3.6-1.7,3.6-3.7V158    C-109,155.9-110.6,154.3-112.6,154.3z M-112.2,179.3c0,0.3-0.2,0.5-0.5,0.5h-30.2c-0.3,0-0.5-0.2-0.5-0.5v-21.4    c0-0.3,0.2-0.5,0.5-0.5h30.2c0.3,0,0.5,0.2,0.5,0.5V179.3z"></path>
	</g>
</g>
</svg>