<svg xmlns="http://www.w3.org/2000/svg" xmlns:xlink="http://www.w3.org/1999/xlink" id="Capa_1" x="0px" y="0px" viewBox="0 0 40 40" style="enable-background:new 0 0 40 40;" xml:space="preserve">
<style type="text/css">
	.st0{fill:#7BAA39;}
	.st1{fill:#7BAA39;stroke:#7BAA39;stroke-width:0.5898;stroke-miterlimit:10;}
	.st2{fill:#7BAA39;stroke:#7BAA39;stroke-width:0.5;stroke-miterlimit:10;}
	.st3{fill:#7BAA39;stroke:#7BAA39;stroke-miterlimit:10;}
	.st4{fill:#FFFFFF;}
	.st5{fill:#7BAA39;stroke:#7BAA39;stroke-width:0.9877;stroke-miterlimit:10;}
	.st6{fill:#698E21;}
	.st7{fill:#7BAA39;stroke:#7BAA39;stroke-width:1.9097;stroke-miterlimit:10;}
	.st8{fill:#7BAA39;stroke:#7BAA39;stroke-width:0.6979;stroke-miterlimit:10;}
	.st9{fill:#7BAA39;stroke:#7BAA39;stroke-width:0.5544;stroke-miterlimit:10;}
	.st10{fill:#7BAA39;stroke:#7BAA39;stroke-width:0.7505;stroke-miterlimit:10;}
	.st11{fill:#7BAA39;stroke:#7BAA39;stroke-width:0.1953;stroke-miterlimit:10;}
</style>
<path class="st0" d="M-175.9-41c-10.2,0-18.5,8.3-18.5,18.5S-186.1-4-175.9-4c10.2,0,18.5-8.3,18.5-18.5S-165.7-41-175.9-41z   M-175.9-8.6c-7.7,0-13.9-6.2-13.9-13.9s6.2-13.9,13.9-13.9c7.7,0,13.9,6.2,13.9,13.9S-168.2-8.6-175.9-8.6z M-165.9-20.9  c0,1.3-1,2.3-2.3,2.3h-9.3c-1.3,0-2.3-1-2.3-2.3v-9.3c0-1.3,1-2.3,2.3-2.3c1.3,0,2.3,1,2.3,2.3v6.9h6.9  C-167-23.2-165.9-22.2-165.9-20.9z"></path>
<rect x="-162" y="-110" class="st0" width="40" height="40"></rect>
<g>
	<g>
		<path class="st0" d="M-140.4,23.5c-1.1,0-2.1-0.2-3-0.6c-0.8-0.4-1.5-1-2.1-1.6c-0.5-0.7-0.9-1.5-1.2-2.3    c-0.3-0.9-0.4-1.8-0.4-2.7c0-0.9,0.1-1.9,0.4-2.7c0.3-0.9,0.7-1.7,1.2-2.3c0.5-0.7,1.2-1.2,2.1-1.6c0.8-0.4,1.8-0.6,3-0.6    c1.1,0,2.1,0.2,2.9,0.6c0.8,0.4,1.5,1,2.1,1.6s1,1.5,1.2,2.3c0.3,0.9,0.4,1.8,0.4,2.7c0,0.9-0.1,1.8-0.4,2.7    c-0.3,0.9-0.7,1.6-1.2,2.3c-0.6,0.7-1.2,1.2-2.1,1.6C-138.3,23.3-139.3,23.5-140.4,23.5z M-140.4,20.2c0.8,0,1.4-0.4,1.8-1.1    c0.4-0.7,0.6-1.7,0.6-2.9c0-1.2-0.2-2.2-0.6-2.9c-0.4-0.7-1-1.1-1.8-1.1c-0.8,0-1.4,0.4-1.8,1.1c-0.4,0.7-0.6,1.7-0.6,2.9    c0,1.2,0.2,2.2,0.6,2.9C-141.8,19.9-141.2,20.2-140.4,20.2z M-124.6,9.2c0.8-0.1,1.6-0.2,2.4-0.2c0.7,0,1.5,0.1,2.4,0.2    l-16.7,24.3c-0.8,0.1-1.6,0.2-2.3,0.2c-0.8,0-1.6-0.1-2.4-0.2L-124.6,9.2z M-120.6,34c-1.1,0-2.1-0.2-3-0.6    c-0.8-0.4-1.5-1-2.1-1.6c-0.5-0.7-0.9-1.5-1.2-2.3c-0.3-0.9-0.4-1.8-0.4-2.7c0-0.9,0.1-1.9,0.4-2.7c0.3-0.9,0.7-1.7,1.2-2.3    c0.5-0.7,1.2-1.2,2.1-1.6c0.8-0.4,1.8-0.6,3-0.6c1.1,0,2.1,0.2,2.9,0.6c0.8,0.4,1.5,1,2.1,1.6s1,1.5,1.2,2.3    c0.3,0.9,0.4,1.8,0.4,2.7c0,0.9-0.1,1.8-0.4,2.7c-0.3,0.9-0.7,1.6-1.2,2.3c-0.6,0.7-1.2,1.2-2.1,1.6    C-118.5,33.8-119.5,34-120.6,34z M-120.6,30.8c0.8,0,1.4-0.4,1.8-1.1c0.4-0.7,0.6-1.7,0.6-2.9c0-1.2-0.2-2.2-0.6-2.9    c-0.4-0.7-1-1.1-1.8-1.1s-1.4,0.4-1.8,1.1c-0.4,0.7-0.6,1.7-0.6,2.9c0,1.2,0.2,2.2,0.6,2.9C-122.1,30.4-121.5,30.8-120.6,30.8z"></path>
	</g>
</g>
<path class="st0" d="M-159.8,7.2h-6.1v-3c0-1.3-1.1-2.4-2.4-2.4c-1.3,0-2.4,1.1-2.4,2.4v3h-10.9v-3c0-1.3-1.1-2.4-2.4-2.4  c-1.3,0-2.4,1.1-2.4,2.4v3h-6.1c-1,0-1.8,0.8-1.8,1.8v26.3c0,1,0.8,1.8,1.8,1.8h32.7c1,0,1.8-0.8,1.8-1.8V9  C-158,8-158.8,7.2-159.8,7.2z M-177.4,15.3v4.8h-5.8v-4.8H-177.4z M-175,15.3h5.8v4.8h-5.8V15.3z M-185.6,15.3v4.8h-5.1v-4.8H-185.6  z M-185.6,22.6v3.6h-5.1v-3.6H-185.6z M-183.1,22.6h5.8v3.6h-5.8V22.6z M-177.4,28.6v4.9h-5.8v-4.9H-177.4z M-175,28.6h5.8v4.9h-5.8  V28.6z M-175,26.2v-3.6h5.8v3.6H-175z M-166.8,22.6h5.1v3.6h-5.1V22.6z M-166.8,20.1v-4.8h5.1v4.8H-166.8z M-190.7,28.6h5.1v4.9  h-5.1V28.6z M-166.8,33.5v-4.9h5.1v4.9H-166.8z"></path>
<g>
	<path class="st1" d="M-153.1,21.8v-1.9h4.4v1.9H-153.1z"></path>
</g>
<path class="st2" d="M-92.1-10.3h-2.1c-0.6,0-1.1-0.5-1.1-1.1c0-0.6,0.5-1.1,1.1-1.1h2.1c0.6,0,1.1,0.5,1.1,1.1  C-91-10.8-91.5-10.3-92.1-10.3z M-61-33.8v25.7c0,2.4-1.9,4.3-4.3,4.3h-23.6c-2.4,0-4.3-1.9-4.3-4.3h1.1c1.8,0,3.2-1.4,3.2-3.2  c0-1.8-1.4-3.2-3.2-3.2h-1.1v-12.9h1.1c1.8,0,3.2-1.4,3.2-3.2c0-1.8-1.4-3.2-3.2-3.2h-1.1c0-2.4,1.9-4.3,4.3-4.3h23.6  C-62.9-38.1-61-36.2-61-33.8z M-63.1-33.8c0-1.2-1-2.1-2.1-2.1h-19.3v30h19.3c1.2,0,2.1-1,2.1-2.1V-33.8z M-94.2-29.6h2.1  c0.6,0,1.1-0.5,1.1-1.1c0-0.6-0.5-1.1-1.1-1.1h-2.1c-0.6,0-1.1,0.5-1.1,1.1C-95.3-30-94.8-29.6-94.2-29.6z M-66.4-33.8h-15  c-0.6,0-1.1,0.5-1.1,1.1c0,0.6,0.5,1.1,1.1,1.1h15c0.6,0,1.1-0.5,1.1-1.1C-65.3-33.4-65.8-33.8-66.4-33.8z M-66.4-29.6h-15  c-0.6,0-1.1,0.5-1.1,1.1c0,0.6,0.5,1.1,1.1,1.1h15c0.6,0,1.1-0.5,1.1-1.1C-65.3-29.1-65.8-29.6-66.4-29.6z M-66.4-25.3h-15  c-0.6,0-1.1,0.5-1.1,1.1c0,0.6,0.5,1.1,1.1,1.1h15c0.6,0,1.1-0.5,1.1-1.1C-65.3-24.8-65.8-25.3-66.4-25.3z M-66.4-21h-15  c-0.6,0-1.1,0.5-1.1,1.1c0,0.6,0.5,1.1,1.1,1.1h15c0.6,0,1.1-0.5,1.1-1.1C-65.3-20.5-65.8-21-66.4-21z M-66.4-16.7h-15  c-0.6,0-1.1,0.5-1.1,1.1c0,0.6,0.5,1.1,1.1,1.1h15c0.6,0,1.1-0.5,1.1-1.1C-65.3-16.2-65.8-16.7-66.4-16.7z M-72.8-12.4h-8.6  c-0.6,0-1.1,0.5-1.1,1.1c0,0.6,0.5,1.1,1.1,1.1h8.6c0.6,0,1.1-0.5,1.1-1.1C-71.7-11.9-72.2-12.4-72.8-12.4z"></path>
<g>
	<path class="st3" d="M-34.6-19.2c0-1.2,3.5-2.1,4.8-3.5c1.1-1.2,2.1-2.4,1.9-4.9c-0.2-3.1-2.1-12.3-2.1-12.3h-10.6   c0,0-1.9,9.2-2.1,12.3c-0.1,2.6,0.8,3.8,1.9,4.9c1.4,1.4,4.8,2.4,4.8,3.5c0,1.2,0.1,4.1,0.1,4.1h0v11.5h-4.8V-3h10.6v-0.6h-4.8   v-11.5C-34.6-15.1-34.6-18.1-34.6-19.2z"></path>
	<g>
		<path class="st4" d="M-38.8-31.3c-0.3,3.6,0,7.5,2.4,9.4c-2.6-1.2-4.3-1.9-3.8-9.4H-41l1.1-8h9.5l1.1,8H-38.8z"></path>
	</g>
</g>
<g>
	<path class="st0" d="M-94.1,30.5c-1.4,0-2.7,1.4-2.7,3c0,1.7,1.3,3.1,2.7,3.1c1.4,0,2.6-1.5,2.6-3.1   C-91.5,31.9-92.7,30.5-94.1,30.5z"></path>
	<path class="st0" d="M-84.4,6.4h22.9c1.4,0,2.5-1.2,2.5-2.8c0-1.6-1.1-2.9-2.5-2.9h-22.9c-1.4,0-2.5,1.3-2.5,2.9   C-86.9,5.2-85.8,6.4-84.4,6.4z"></path>
	<path class="st0" d="M-94.1,0.5c-1.4,0-2.7,1.5-2.7,3.1c0,1.7,1.3,3,2.7,3c1.4,0,2.6-1.4,2.6-3C-91.5,1.9-92.7,0.5-94.1,0.5z"></path>
	<path class="st0" d="M-61.5,15.7h-22.9c-1.4,0-2.5,1.3-2.5,2.9c0,1.6,1.1,2.9,2.5,2.9h22.9c1.4,0,2.5-1.3,2.5-2.9   C-59,17-60.1,15.7-61.5,15.7z"></path>
	<path class="st0" d="M-61.5,30.7h-22.9c-1.4,0-2.5,1.3-2.5,2.9c0,1.6,1.1,2.9,2.5,2.9h22.9c1.4,0,2.5-1.3,2.5-2.9   C-59,32-60.1,30.7-61.5,30.7z"></path>
</g>
<path class="st5" d="M-114.5-13.7c0,0.8-0.7,1.5-1.6,1.5h-35.8c-0.9,0-1.6-0.7-1.6-1.5c0-0.8,0.7-1.5,1.6-1.5h35.8  C-115.2-15.2-114.5-14.5-114.5-13.7z M-131.9-33.4c-0.1-1-0.9-1.8-1.9-1.8c-1,0-1.8,0.8-1.9,1.8c0.6-0.1,1.2-0.1,1.9-0.1  C-133.1-33.6-132.5-33.5-131.9-33.4z M-117.1-17.5h-33.3c0.7-8.6,7.9-15.4,16.7-15.4C-125-32.9-117.8-26.1-117.1-17.5z M-135.7-31.4  c0,0-9.3,2-12.1,12.4c2.5,0,3.5,0,3.5,0S-142.3-27.7-135.7-31.4z"></path>
<polygon class="st6" points="-91.2,22 -93.6,20.7 -96,22 -95.5,19.3 -97.5,17.5 -94.8,17.1 -93.6,14.7 -92.4,17.1 -89.8,17.5   -91.7,19.3 "></polygon>
<g>
	<path class="st0" d="M-34.3,3.7c-7.4,0-13.5,6-13.5,13.5s6,13.5,13.5,13.5c7.4,0,13.5-6,13.5-13.5S-26.8,3.7-34.3,3.7z M-24.4,14.7   c0,0.1,0.1,0.3,0.1,0.4c0,0.2,0.1,0.4,0.1,0.6c0,0.1,0,0.2,0.1,0.4c0,0.3,0.1,0.7,0.1,1c0,0.3,0,0.7-0.1,1c0,0.1,0,0.2-0.1,0.4   c0,0.2-0.1,0.4-0.1,0.6c0,0.1-0.1,0.3-0.1,0.4c0,0.2-0.1,0.4-0.1,0.5c0,0.2-0.1,0.3-0.2,0.5c-0.1,0.2-0.1,0.3-0.2,0.5   c-0.1,0.2-0.1,0.3-0.2,0.5c-0.1,0.1-0.1,0.3-0.2,0.4c-0.1,0.2-0.2,0.3-0.3,0.5c-0.1,0.1-0.1,0.2-0.2,0.4c-0.1,0.2-0.2,0.3-0.4,0.5   c-0.1,0.1-0.1,0.2-0.2,0.3c-0.1,0.2-0.3,0.3-0.4,0.5c-0.1,0.1-0.1,0.2-0.2,0.2c-0.2,0.2-0.3,0.3-0.5,0.4c-0.1,0.1-0.1,0.1-0.2,0.2   c-0.2,0.1-0.4,0.3-0.5,0.4c-0.1,0.1-0.1,0.1-0.2,0.2c-0.2,0.1-0.4,0.2-0.6,0.4c-0.1,0-0.2,0.1-0.2,0.1c-0.2,0.1-0.4,0.2-0.6,0.3   c-0.1,0-0.2,0.1-0.2,0.1c-0.2,0.1-0.4,0.2-0.7,0.2c-0.1,0-0.2,0.1-0.3,0.1c-0.2,0.1-0.5,0.1-0.7,0.2c-0.1,0-0.2,0.1-0.3,0.1   c-0.2,0-0.5,0.1-0.7,0.1c-0.1,0-0.2,0-0.3,0c-0.2,0-0.4,0-0.7,0c-0.1,0-0.2,0-0.3,0v0c0,0,0,0-0.1,0c-5.6,0-10.1-4.5-10.1-10.1   c0-5.6,4.5-10.1,10.1-10.1c0,0,0,0,0.1,0v0c0.1,0,0.2,0,0.3,0c0.2,0,0.5,0,0.7,0c0.1,0,0.2,0,0.3,0c0.2,0,0.5,0.1,0.7,0.1   c0.1,0,0.2,0,0.2,0.1c0.2,0.1,0.5,0.1,0.7,0.2c0.1,0,0.1,0.1,0.2,0.1c0.2,0.1,0.5,0.2,0.7,0.3c0.1,0,0.1,0.1,0.2,0.1   c0.2,0.1,0.5,0.2,0.7,0.3c0.1,0,0.1,0.1,0.2,0.1c0.2,0.1,0.4,0.2,0.6,0.4c0.1,0,0.1,0.1,0.2,0.2c0.2,0.1,0.4,0.3,0.6,0.4   c0.1,0.1,0.1,0.1,0.2,0.2c0.2,0.2,0.3,0.3,0.5,0.5c0.1,0.1,0.1,0.2,0.2,0.2c0.1,0.2,0.3,0.3,0.4,0.5c0.1,0.1,0.1,0.2,0.2,0.3   c0.1,0.2,0.3,0.3,0.4,0.5c0.1,0.1,0.1,0.2,0.2,0.3c0.1,0.2,0.2,0.3,0.3,0.5c0.1,0.1,0.1,0.3,0.2,0.4c0.1,0.2,0.2,0.3,0.2,0.5   c0.1,0.2,0.1,0.3,0.2,0.5c0.1,0.2,0.1,0.3,0.2,0.5C-24.5,14.3-24.5,14.5-24.4,14.7z M-24.7,17.1c0,5.3-4.3,9.5-9.5,9.5   c-5.3,0-9.5-4.3-9.5-9.5c0-5.3,4.3-9.5,9.5-9.5C-29,7.6-24.7,11.9-24.7,17.1z M-16,6.6v22.3c0,0.6-0.4,1.1-0.9,1.2v0   c-0.1,0-0.2,0-0.3,0c-0.7,0-1.3-0.6-1.2-1.3c0.2-2.1,1.5-6.7,0.8-8.5c-0.4-1-1.7-2.9-1.7-6c0-5.8,1.4-7.9,2.3-8.4c0,0,0,0,0,0   C-16.5,5.8-16,6.1-16,6.6z M-49.4,6c0.3,1.8,0.5,5.2,0.5,6.9c0,2.1-0.4,2.1-1.7,2.6l0.5,13.4c0,0.7-0.5,1.3-1.2,1.3   c-0.1,0-0.1,0-0.2,0v0c-0.6-0.1-1-0.6-1-1.3l0.5-13.4c-1.3-0.5-1.7-0.5-1.7-2.6c0-1.7,0.3-5.2,0.5-6.9h0.3l0.1,7.6h0.6L-52,6h0.3   l0.1,7.6h0.1h0.1h0.4l0.1-7.6h0.3l0.1,7.6h0.6l0.1-7.6H-49.4z"></path>
</g>
<g>
	<path d="M-94.7-44.8c0-0.4,0-0.9,0-1.2h0c-0.1,0.3-0.2,0.7-0.4,1.1l-0.5,1.4h-0.3l-0.5-1.3c-0.1-0.4-0.2-0.8-0.3-1.1h0   c0,0.3,0,0.8-0.1,1.2l-0.1,1.2h-0.3l0.2-2.8h0.5L-96-45c0.1,0.3,0.2,0.7,0.3,0.9h0c0.1-0.3,0.2-0.6,0.3-0.9l0.5-1.4h0.5l0.2,2.8   h-0.4L-94.7-44.8z"></path>
	<path d="M-91.9-44.6c0,0.7-0.5,1.1-1,1.1c-0.5,0-1-0.4-1-1c0-0.7,0.4-1.1,1-1.1C-92.3-45.6-91.9-45.2-91.9-44.6z M-93.5-44.5   c0,0.4,0.3,0.8,0.6,0.8c0.3,0,0.6-0.3,0.6-0.8c0-0.3-0.2-0.8-0.6-0.8C-93.3-45.3-93.5-44.9-93.5-44.5z"></path>
	<path d="M-91.4-45c0-0.2,0-0.4,0-0.5h0.3l0,0.3h0c0.1-0.2,0.3-0.4,0.6-0.4c0.3,0,0.5,0.2,0.6,0.4h0c0.1-0.1,0.1-0.2,0.2-0.3   c0.1-0.1,0.3-0.1,0.4-0.1c0.3,0,0.7,0.2,0.7,0.9v1.2h-0.4v-1.1c0-0.4-0.1-0.6-0.4-0.6c-0.2,0-0.4,0.2-0.4,0.3c0,0.1,0,0.1,0,0.2   v1.2h-0.4v-1.2c0-0.3-0.1-0.6-0.4-0.6c-0.2,0-0.4,0.2-0.5,0.4c0,0.1,0,0.1,0,0.2v1.2h-0.4V-45z"></path>
	<path d="M-87.7-44.5c0,0.5,0.3,0.7,0.7,0.7c0.3,0,0.4,0,0.6-0.1l0.1,0.3c-0.1,0.1-0.3,0.1-0.7,0.1c-0.6,0-1-0.4-1-1   c0-0.6,0.4-1.1,0.9-1.1c0.7,0,0.8,0.6,0.8,0.9c0,0.1,0,0.1,0,0.2H-87.7z M-86.7-44.7c0-0.2-0.1-0.6-0.5-0.6c-0.4,0-0.5,0.3-0.6,0.6   H-86.7z"></path>
	<path d="M-85.8-45c0-0.2,0-0.4,0-0.5h0.3l0,0.3h0c0.1-0.2,0.3-0.4,0.7-0.4c0.3,0,0.7,0.2,0.7,0.9v1.2h-0.4v-1.2   c0-0.3-0.1-0.6-0.5-0.6c-0.2,0-0.4,0.2-0.5,0.4c0,0,0,0.1,0,0.2v1.2h-0.4V-45z"></path>
	<path d="M-83.1-46.1v0.6h0.5v0.3h-0.5v1.1c0,0.2,0.1,0.4,0.3,0.4c0.1,0,0.2,0,0.2,0l0,0.3c-0.1,0-0.2,0.1-0.3,0.1   c-0.2,0-0.3-0.1-0.4-0.2c-0.1-0.1-0.1-0.3-0.1-0.5v-1.1h-0.3v-0.3h0.3V-46L-83.1-46.1z"></path>
	<path d="M-80.4-44.6c0,0.7-0.5,1.1-1,1.1c-0.5,0-1-0.4-1-1c0-0.7,0.4-1.1,1-1.1C-80.8-45.6-80.4-45.2-80.4-44.6z M-82-44.5   c0,0.4,0.3,0.8,0.6,0.8c0.4,0,0.6-0.3,0.6-0.8c0-0.3-0.2-0.8-0.6-0.8C-81.8-45.3-82-44.9-82-44.5z"></path>
	<path d="M-80-43.9c0.1,0.1,0.3,0.1,0.5,0.1c0.3,0,0.4-0.1,0.4-0.3c0-0.2-0.1-0.3-0.4-0.4c-0.4-0.1-0.5-0.3-0.5-0.6   c0-0.3,0.3-0.6,0.7-0.6c0.2,0,0.4,0.1,0.5,0.1l-0.1,0.3c-0.1,0-0.2-0.1-0.4-0.1c-0.2,0-0.3,0.1-0.3,0.3c0,0.2,0.1,0.2,0.4,0.3   c0.3,0.1,0.5,0.3,0.5,0.6c0,0.4-0.3,0.6-0.8,0.6c-0.2,0-0.4-0.1-0.6-0.1L-80-43.9z"></path>
	<path d="M-77.4-43.5c0-0.1,0-0.3,0-0.5v-2.4h0.4v1.3h0c0.1-0.2,0.4-0.4,0.7-0.4c0.5,0,0.9,0.4,0.8,1c0,0.7-0.5,1.1-0.9,1.1   c-0.3,0-0.5-0.1-0.7-0.4h0l0,0.3H-77.4z M-77-44.3c0,0,0,0.1,0,0.1c0.1,0.3,0.3,0.4,0.5,0.4c0.4,0,0.6-0.3,0.6-0.8   c0-0.4-0.2-0.7-0.6-0.7c-0.2,0-0.5,0.2-0.6,0.4c0,0,0,0.1,0,0.1V-44.3z"></path>
	<path d="M-73.2-44.6c0,0.7-0.5,1.1-1,1.1c-0.5,0-1-0.4-1-1c0-0.7,0.4-1.1,1-1.1C-73.6-45.6-73.2-45.2-73.2-44.6z M-74.8-44.5   c0,0.4,0.3,0.8,0.6,0.8c0.4,0,0.6-0.3,0.6-0.8c0-0.3-0.2-0.8-0.6-0.8C-74.6-45.3-74.8-44.9-74.8-44.5z"></path>
	<path d="M-71-46.5v2.4c0,0.2,0,0.4,0,0.5h-0.3l0-0.3h0c-0.1,0.2-0.4,0.4-0.7,0.4c-0.5,0-0.9-0.4-0.9-1c0-0.7,0.4-1.1,0.9-1.1   c0.3,0,0.5,0.1,0.6,0.3h0v-1.2H-71z M-71.3-44.7c0,0,0-0.1,0-0.2c-0.1-0.2-0.3-0.4-0.5-0.4c-0.4,0-0.6,0.3-0.6,0.8   c0,0.4,0.2,0.7,0.6,0.7c0.2,0,0.5-0.2,0.5-0.4c0-0.1,0-0.1,0-0.2V-44.7z"></path>
	<path d="M-70.5-43.8c0-0.2,0.1-0.3,0.2-0.3c0.1,0,0.2,0.1,0.2,0.3c0,0.1-0.1,0.3-0.2,0.3C-70.4-43.5-70.5-43.6-70.5-43.8z"></path>
</g>
<rect x="-0.3" y="-47.8" style="fill:none;" width="36.3" height="2.8"></rect>
<text transform="matrix(1 0 0 1 -0.333 -45.7036)" style="font-family:'MyriadPro-Regular'; font-size:3px;">Regalate gastronomía. </text>
<g>
	<rect x="10.1" y="-27.7" class="st7" width="20.9" height="0.9"></rect>
	<rect x="10.1" y="-22.7" class="st7" width="20.9" height="0.9"></rect>
	<path class="st7" d="M31.5-40.1H9c-2.8,0-5.2,1.9-5.2,4.2v18.1c0,2.3,2.3,4.2,5.2,4.2h1.7l6.2,9.6L17-3.8l6.3-9.7h8.2   c2.8,0,5.1-1.9,5.1-4.2v-18.1C36.6-38.2,34.3-40.1,31.5-40.1z M31.5-14.4h-8.7l-5.8,9l-5.7-8.9l0-0.1H9c-2.3,0-4.2-1.5-4.2-3.3   v-18.1c0-1.8,1.9-3.3,4.2-3.3h22.4c2.3,0,4.2,1.5,4.2,3.3v18.1C35.7-15.9,33.8-14.4,31.5-14.4z"></path>
</g>
<polygon class="st2" points="22.8,-30 20.4,-31.3 18,-30 18.5,-32.7 16.5,-34.5 19.2,-34.9 20.4,-37.3 21.6,-34.9 24.2,-34.5   22.3,-32.7 "></polygon>
<g>
	<path class="st0" d="M57.7-21v9c-0.6,0.1-1.8,0.3-3.3,0.3c-1.5,0-2.8-0.2-3.3-0.2v-9c0-0.1,0.1-2.8,3.3-2.8   C57.7-23.8,57.7-21.1,57.7-21z M52.4-35.6c0,0,0,0.5,0,1.2h0.5v-4.2h0.8v4.2h2.7c0-0.7,0-1.2,0-1.2h0V-39h0.2v-1.6h-0.2v-0.6h-2.7   v0.6h-0.2v1.6h-0.8v-1.6h0.2v-0.6h-0.5v0.6h-0.2v1.6h0.2V-35.6z M58.9-29.3c0.8,1,1,2,1,4.1v21.8c0,0.8-2.5,1.4-5.5,1.4   c-3,0-5.5-0.6-5.5-1.4v-21.8c0-2.1,0.2-3.1,1-4.1c1-1.3,2.4-1.9,2.4-2.9c0-0.3,0-0.8,0-1.3h0.6v1.2c0,0,0,1.4-1,2.3l-0.1,0.1   c-1.2,1.1-2.2,2-2.2,4.6v21.9L50.4-3v-22.2c0-2.3,0.7-2.9,1.9-4.1l0.1-0.1c1.2-1.2,1.3-2.8,1.3-2.9v-1.2h2.7c0,0.5,0,1,0,1.3   C56.5-31.2,57.9-30.6,58.9-29.3z M58.2-21.1c0,0,0-3.3-3.8-3.3c-3.8,0-3.8,3.3-3.8,3.3v9.6c0,0,1.6,0.3,3.8,0.3   c2.2,0,3.8-0.3,3.8-0.3V-21.1z"></path>
</g>
<g>
	<path class="st8" d="M70.9-13.6c0-0.8,2.4-1.5,3.4-2.5c0.8-0.8,1.5-1.7,1.4-3.4c-0.1-2.1-1.4-8.6-1.4-8.6h-7.4c0,0-1.3,6.4-1.4,8.6   c-0.1,1.8,0.6,2.6,1.4,3.4c0.9,1,3.4,1.6,3.4,2.5c0,0.8,0,2.9,0,2.9h0v8.1h-3.3v0.4h7.4v-0.4h-3.4v-8.1   C70.9-10.8,70.9-12.8,70.9-13.6z"></path>
	<g>
		<path class="st4" d="M67.9-22.1c-0.2,2.5,0,5.3,1.7,6.5c-1.8-0.8-3-1.3-2.6-6.5h-0.5l0.8-5.6h6.6l0.7,5.6H67.9z"></path>
	</g>
</g>
<path class="st9" d="M2.6,18L4,17.7v6.2L2.6,18z M6.5,10.6h7.9l20-4.9L34,4c-0.3-1.2-1.5-2-2.7-1.7l-28.5,7c-1.2,0.3-2,1.5-1.7,2.7  l0.4,1.7l2.7-0.7v-0.2C4.3,11.7,5.3,10.6,6.5,10.6z M4.8,19.6h33.9v10.2c0,1.2-1,2.3-2.3,2.3H7.1c-1.2,0-2.3-1-2.3-2.3V19.6z   M12.7,23.3c0,0,0.1-0.1,0.1-0.1c-0.1,0-0.3,0-0.4,0.1C12.5,23.2,12.6,23.2,12.7,23.3z M12.2,23.3c0,0-0.1,0-0.1,0  c0,0.1-0.1,0.2-0.1,0.3c0,0-0.4,0.7,0,0.5c0.2-0.1,0.3-0.2,0.4-0.3c0.1-0.1,0.2-0.2,0.3-0.3C12.5,23.4,12.3,23.4,12.2,23.3z   M13,22.9c0.5-0.6,1-1.1,1.5-1.7h-1.3c0.1,0.1,0.1,0.2,0,0.4c-0.3,0.5-0.6,0.9-0.9,1.4C12.5,23,12.8,23,13,22.9z M12.9,23.3  c0.2,0.1,0.4,0.1,0.6,0.2c0.1-0.2,0.2-0.3,0.3-0.5c0,0,0,0-0.1,0c-0.2,0-0.4,0.1-0.6,0.1C13.1,23.2,13,23.2,12.9,23.3z M13.9,22.8  c0-0.1,0.1-0.1,0.1-0.2c0.2-0.4,0.3-0.8,0.5-1.1c-0.4,0.5-0.8,0.9-1.2,1.4C13.5,22.9,13.7,22.8,13.9,22.8z M14.3,23  c0,0.1,0,0.3,0,0.4c0.1-0.1,0.2-0.3,0.3-0.5C14.5,22.9,14.4,22.9,14.3,23C14.3,23,14.3,23,14.3,23z M13.9,23.7c0,0,0.1,0,0.1,0.1  c0.6,0.3,1.2,0.7,2,0.7c0.3,0,1.1,0.1,0.8-0.4c-0.1-0.1-0.1-0.3-0.1-0.4c0-0.3,0.2-0.7,0.2-1c-0.2,0-0.5,0-0.7,0.1  c-0.2,0.1-0.3,0.1-0.5,0.2c-0.1,0-0.1,0-0.1-0.1c0,0,0,0,0,0c-0.1,0-0.2,0-0.4,0C15.2,22.9,15.1,23,15,23c-0.1,0-0.1,0-0.1-0.1  c0,0,0,0,0-0.1c0,0,0,0,0,0c-0.1,0.3-0.2,0.6-0.5,0.7c-0.1,0-0.1,0-0.1-0.1c0-0.1,0-0.1,0-0.2c0,0.1-0.1,0.1-0.2,0.2  C14,23.6,13.9,23.7,13.9,23.7z M15.6,22.6c0-0.2,0.1-0.3,0.2-0.5c-0.1,0.1-0.3,0.3-0.4,0.5C15.5,22.6,15.6,22.6,15.6,22.6z M17,22.5  c0-0.2-0.1-0.1-0.2,0c0,0-0.1,0-0.1,0C16.8,22.5,16.9,22.5,17,22.5z M30.2,30.2h6.5V27h-6.5V30.2z M27.5,21.2H14.8  c-0.1,0.2-0.2,0.4-0.2,0.6c0,0,0,0,0.1-0.1c0.1-0.1,0.2,0,0.2,0.1c-0.1,0.3-0.2,0.6-0.3,0.9c0,0,0,0,0,0.1c0.1,0,0.2,0,0.3,0  c0.1-0.2,0.1-0.4,0.2-0.6c0-0.1,0.2,0,0.2,0c0,0.2,0,0.3,0,0.5c0,0,0.1,0,0.1,0c0.1-0.1,0.2-0.3,0.3-0.4c0.1-0.2,0.3-0.3,0.5-0.4  c0.1,0,0.1,0,0.1,0.1c0,0.2-0.2,0.4-0.2,0.7c0.1,0,0.2,0,0.4,0c0.3-0.1,0.5-0.3,0.7-0.4c0,0,0.1,0,0.1,0c0.1,0.1,0.1,0.2,0.1,0.3  c0.4,0,0.7,0,1.1-0.1c0.7,0,1.3-0.1,2-0.1c0.6,0,1.2-0.1,1.8,0c0.1,0,0.1,0.2,0,0.2c-0.7-0.1-1.5,0-2.3,0c-0.7,0-1.3,0-2,0.1  c-0.2,0-0.4,0-0.6,0c0,0.1,0,0.2-0.1,0.3c-0.1,0.2-0.1,0.4-0.2,0.6c0,0.2,0.1,0.4,0.1,0.6c0.1,0.3,0,0.4-0.2,0.5h10.7V21.2z M7,24.6  h8.7c-0.1,0-0.1,0-0.2,0c-0.6-0.1-1.1-0.4-1.6-0.7c0,0-0.1,0-0.1-0.1c-0.1,0.2-0.2,0.3-0.4,0.3c-0.1,0-0.1,0-0.1-0.1  c0-0.1,0.1-0.3,0.1-0.4c-0.2-0.1-0.4-0.2-0.6-0.2c-0.3,0.4-0.7,0.9-1.2,0.8c0,0-0.1-0.1-0.1-0.1c0-0.3,0.2-0.7,0.3-0.9  c0,0-0.1,0-0.1,0c-0.7,0.1-1.3,0.1-2,0.1c-0.5,0-1,0-1.6,0c-0.2,0-0.5,0-0.6-0.2c0,0,0-0.1,0-0.1c0.4-0.2,0.8-0.2,1.3-0.2  c0.6,0,1.2,0,1.8,0.1c0.3,0,0.7,0.1,1,0.1c0.1,0,0.2,0,0.3,0c0,0,0-0.1,0.1-0.1c0.2-0.3,0.4-0.6,0.6-0.9c0.1-0.1,0.5-0.8,0.1-0.6  c-0.1,0-0.2-0.1-0.1-0.2H7V24.6z M8.7,23.1c-0.1,0-0.3,0-0.4,0c0,0-0.3,0.1-0.4,0.1c0.2,0,0.3,0,0.5,0c0.6,0,1.3,0,1.9,0  c0.1,0,0.3,0,0.4,0C10.1,23.1,9.4,23.1,8.7,23.1z M36.5,11.2H7.1c-1.2,0-2.3,1-2.3,2.3v1.8h33.9v-1.8C38.7,12.2,37.7,11.2,36.5,11.2  z M35.5,10.8l-0.2-0.9l-3.9,1L35.5,10.8z"></path>
<g>
	<g>
		<path class="st0" d="M76.6,34.1c0.9,0.9,1,2.4,0.1,3.2c-0.9,0.9-2.3,0.8-3.2-0.1l-9.6-10.5c-0.7,0-1.4-0.2-2.2-0.5l3.5-3.5    l2.3,2.3L76.6,34.1z M56.4,22.5l4.3-4.3l-4.4-4.4c-3.5-3.5-6.9-6.9-9-9c-0.3-0.3-0.7-0.4-1.1-0.4c-0.3,0-0.7,0.3-0.8,1    c-0.3,2.9,1.8,8,9.5,15.6C55.5,21.6,56,22.1,56.4,22.5z M64.4,10.5L65,9.9c0,0,0,0,0,0L64.4,10.5z M80.5,9.5    C80.1,9,79.4,8.9,79,9.3l-6.8,6.8c-0.3,0.3-1,0.3-1.4-0.2c-0.4-0.4-0.5-1.1-0.2-1.4l6.8-6.8c0.3-0.3,0.2-1-0.3-1.5    c-0.5-0.5-1.2-0.6-1.5-0.3l-6.8,6.8c-0.3,0.3-1,0.3-1.4-0.2c-0.4-0.4-0.5-1.1-0.2-1.4l6.8-6.8c0.3-0.3,0.2-1-0.3-1.5    c-0.5-0.5-1.2-0.6-1.5-0.3L65,9.9c-2.4,2.4-1.6,4.1-0.3,5.6l-19,19c-0.9,0.9-1,2.4-0.1,3.2c0.9,0.9,2.3,0.8,3.2-0.1l19-19    c1.5,1.4,3.2,2.1,5.6-0.3l7.4-7.4C81.1,10.7,81,10,80.5,9.5z"></path>
	</g>
</g>
<rect x="98.7" y="-45.8" style="fill:none;" width="29.3" height="2.8"></rect>
<text transform="matrix(1 0 0 1 98.667 -43.7036)" style="font-family:'MyriadPro-Regular'; font-size:3px;">Ofertas gastronómicos. </text>
<path class="st10" d="M137.1-23l-18.4-16.4c-0.7-0.6-2-1.1-2.9-1.1l-13.3,0.3c-0.9,0-1.7,0.8-1.7,1.7l-0.3,13.3  c0,0.9,0.5,2.2,1.1,2.9L118-3.9c0.6,0.7,1.6,0.7,2.3,0.1l17-17C137.8-21.4,137.8-22.4,137.1-23z M109.5-31.5c-1,1-2.5,1-3.5,0  c-1-1-1-2.5,0-3.5c1-1,2.5-1,3.5,0C110.5-34,110.5-32.4,109.5-31.5z M127.3-20.6h-15.2v-2.8h15.2L127.3-20.6L127.3-20.6z"></path>
<path class="st0" d="M179.1-24.8l0.7,20.7c0,1.1-0.8,2-1.8,2c0,0-0.1,0-0.1,0c0,0-0.1,0-0.1,0v0c-0.9-0.1-1.6-1-1.6-2l0.7-20.7  c-2-0.8-4.1-2.2-4.1-5.5c0-4.1,2.7-9.2,4.9-9.6v0c0,0,0.1,0,0.1,0c0,0,0,0,0,0c0,0,0.1,0,0.1,0c2.2,0,5.2,5.4,5.2,9.6  C183.2-27,181.1-25.6,179.1-24.8z M147.6-39.6C147.6-39.6,147.6-39.5,147.6-39.6c-1.5,0.8-3.6,4-3.6,12.9c0,4.8,2,7.7,2.6,9.3  c1,2.8-0.9,9.8-1.3,13.1c-0.1,1.1,0.8,2,1.8,2c0.2,0,0.3,0,0.5-0.1v0c0.8-0.2,1.4-1,1.4-1.9v-34.3C149-39.3,148.3-39.8,147.6-39.6z   M164.5-39.5l-0.1,11.7h-1l-0.2-11.7h-0.5l-0.2,11.7h-0.6h-0.2h-0.2l-0.2-11.7h-0.5l-0.2,11.7h-1l-0.1-11.7h-0.5  c-0.4,2.7-0.8,8-0.8,10.7c0,3.3,0.7,3.3,2.6,4.1l-0.7,20.7c0,1,0.7,1.8,1.5,1.9v0c0.1,0,0.2,0,0.3,0c1,0,1.8-0.9,1.8-2l-0.7-20.7  c2-0.8,2.6-0.7,2.6-4.1c0-2.7-0.4-7.9-0.8-10.7H164.5z"></path>
<path class="st0" d="M100.7,22.2H138v11.2c0,1.4-1.1,2.5-2.5,2.5h-32.3c-1.4,0-2.5-1.1-2.5-2.5V22.2z M109.4,26.3  c0,0,0.1-0.1,0.1-0.1c-0.2,0-0.3,0-0.5,0.1C109.2,26.2,109.3,26.2,109.4,26.3z M108.7,26.3c0,0-0.1,0-0.1,0  c-0.1,0.1-0.1,0.2-0.2,0.3c0,0-0.4,0.8,0,0.6c0.2-0.1,0.3-0.2,0.5-0.4c0.1-0.1,0.2-0.2,0.3-0.4C109.1,26.4,108.9,26.4,108.7,26.3z   M109.7,25.9c0.5-0.6,1.1-1.3,1.6-1.9h-1.4c0.1,0.1,0.1,0.2,0,0.4c-0.3,0.5-0.7,1-1,1.5C109.1,26,109.4,25.9,109.7,25.9z   M109.6,26.3c0.2,0.1,0.4,0.1,0.6,0.2c0.1-0.2,0.2-0.4,0.3-0.6c0,0,0,0-0.1,0c-0.2,0-0.4,0.1-0.7,0.1  C109.7,26.2,109.7,26.3,109.6,26.3z M110.7,25.8c0-0.1,0.1-0.1,0.1-0.2c0.2-0.4,0.4-0.8,0.6-1.3c-0.4,0.5-0.9,1-1.3,1.5  C110.2,25.8,110.4,25.8,110.7,25.8z M111.2,25.9c0,0.2,0,0.3,0,0.5c0.2-0.1,0.3-0.3,0.3-0.5C111.4,25.9,111.3,25.9,111.2,25.9  C111.2,25.9,111.2,25.9,111.2,25.9z M110.7,26.7c0,0,0.1,0,0.1,0.1c0.7,0.4,1.3,0.7,2.2,0.8c0.3,0,1.2,0.1,0.9-0.4  c-0.1-0.1-0.1-0.3-0.1-0.4c0-0.4,0.2-0.7,0.3-1.1c-0.3,0-0.5,0-0.8,0.1c-0.2,0.1-0.4,0.2-0.6,0.2c-0.1,0-0.1,0-0.1-0.1c0,0,0,0,0,0  c-0.1,0-0.3,0-0.4,0c-0.1,0.1-0.2,0.2-0.3,0.2c-0.1,0-0.1,0-0.1-0.1c0,0,0,0,0-0.1c0,0,0,0,0,0c-0.1,0.3-0.3,0.6-0.6,0.8  c-0.1,0-0.1,0-0.2-0.1c0-0.1,0-0.1,0-0.2c-0.1,0.1-0.1,0.2-0.2,0.2C110.7,26.7,110.7,26.7,110.7,26.7z M112.6,25.6  c0-0.2,0.1-0.3,0.2-0.5c-0.2,0.1-0.3,0.3-0.4,0.5C112.4,25.6,112.5,25.6,112.6,25.6z M114.1,25.4c0-0.2-0.1-0.1-0.2,0  c0,0-0.1,0-0.1,0.1C113.8,25.4,113.9,25.4,114.1,25.4z M128.7,33.9h7.2v-3.6h-7.2V33.9z M125.6,24h-14c-0.1,0.2-0.2,0.4-0.3,0.6  c0,0,0-0.1,0.1-0.1c0.1-0.1,0.2,0,0.2,0.1c-0.1,0.3-0.2,0.7-0.4,1c0,0,0,0,0,0.1c0.1,0,0.2,0,0.3,0c0.1-0.2,0.1-0.5,0.2-0.6  c0.1-0.1,0.2,0,0.2,0.1c0,0.2,0,0.4,0,0.5c0,0,0.1,0,0.1,0c0.1-0.1,0.2-0.3,0.3-0.4c0.1-0.2,0.3-0.3,0.5-0.4c0.1,0,0.2,0,0.2,0.1  c0,0.3-0.2,0.5-0.2,0.7c0.1,0,0.3,0,0.4,0c0.3-0.1,0.5-0.3,0.8-0.4c0,0,0.1,0,0.1,0c0.1,0.1,0.1,0.2,0.1,0.3c0.4,0,0.8-0.1,1.2-0.1  c0.7,0,1.5-0.1,2.2-0.1c0.6,0,1.3-0.1,2,0c0.1,0,0.1,0.2-0.1,0.2c-0.8-0.1-1.7,0-2.5,0c-0.7,0-1.5,0-2.2,0.1c-0.2,0-0.4,0-0.6,0  c0,0.1,0,0.2-0.1,0.3c-0.1,0.2-0.1,0.5-0.2,0.7c0,0.2,0.1,0.4,0.2,0.6c0.1,0.3,0,0.5-0.3,0.6h11.8V24z M103.1,27.8h9.5  c-0.1,0-0.1,0-0.2,0c-0.6-0.1-1.2-0.5-1.7-0.7c0,0-0.1,0-0.1-0.1c-0.1,0.2-0.3,0.3-0.4,0.4c-0.1,0-0.1,0-0.1-0.1  c0-0.1,0.1-0.3,0.1-0.4c-0.2-0.1-0.5-0.2-0.7-0.2c-0.3,0.4-0.8,1-1.3,0.9c0,0-0.1-0.1-0.1-0.1c0-0.4,0.2-0.7,0.4-1c0,0-0.1,0-0.1,0  c-0.7,0.1-1.4,0.1-2.2,0.1c-0.6,0-1.1,0-1.7,0c-0.2,0-0.5,0-0.7-0.2c0,0,0-0.1,0-0.1c0.4-0.2,0.9-0.2,1.4-0.2c0.7,0,1.3,0,2,0.1  c0.4,0,0.7,0.1,1.1,0.1c0.1,0,0.2,0,0.3,0c0,0,0.1-0.1,0.1-0.1c0.2-0.3,0.5-0.7,0.7-1c0.1-0.1,0.6-0.8,0.2-0.7  c-0.1,0-0.2-0.1-0.1-0.2h-6.3V27.8z M104.9,26.1c-0.1,0-0.3,0-0.4,0c0,0-0.4,0.1-0.4,0.1c0.2,0,0.3,0,0.5,0c0.7,0.1,1.4,0,2.1,0  c0.2,0,0.3,0,0.5,0C106.4,26.1,105.7,26.1,104.9,26.1z M135.5,13h-32.3c-1.4,0-2.5,1.1-2.5,2.5v1.9H138v-1.9  C138,14.1,136.9,13,135.5,13z"></path>
<path class="st10" d="M119,11.9c-11.8-6.5-3.3-14.5,0-9.1C122.3-2.6,130.8,5.4,119,11.9z"></path>
<g>
	<g>
		<path class="st0" d="M178.6,35.1c0.9,0.9,1,2.4,0.1,3.2c-0.9,0.9-2.3,0.8-3.2-0.1l-9.6-10.5c-0.7,0-1.4-0.2-2.2-0.5l3.5-3.5    l2.3,2.3L178.6,35.1z M158.4,23.5l4.3-4.3l-4.4-4.4c-3.5-3.5-6.9-6.9-9-9c-0.3-0.3-0.7-0.4-1.1-0.4c-0.3,0-0.7,0.3-0.8,1    c-0.3,2.9,1.8,8,9.5,15.6C157.5,22.6,158,23.1,158.4,23.5z M166.4,11.5L167,11c0,0,0,0,0,0L166.4,11.5z M182.5,10.5    c-0.5-0.5-1.2-0.6-1.5-0.3l-6.8,6.8c-0.3,0.3-1,0.3-1.4-0.2c-0.4-0.4-0.5-1.1-0.2-1.4l6.8-6.8c0.3-0.3,0.2-1-0.3-1.5    c-0.5-0.5-1.2-0.6-1.5-0.3l-6.8,6.8c-0.3,0.3-1,0.3-1.4-0.2c-0.4-0.4-0.5-1.1-0.2-1.4l6.8-6.8c0.3-0.3,0.2-1-0.3-1.5    c-0.5-0.5-1.2-0.6-1.5-0.3L167,11c-2.4,2.4-1.6,4.1-0.3,5.6l-19,19c-0.9,0.9-1,2.4-0.1,3.2c0.9,0.9,2.3,0.8,3.2-0.1l19-19    c1.5,1.4,3.2,2.1,5.6-0.3l7.4-7.4C183.1,11.7,183,11,182.5,10.5z"></path>
	</g>
</g>
<polygon class="st2" points="165.8,10 163.4,8.7 161,10 161.5,7.3 159.5,5.5 162.2,5.1 163.4,2.7 164.6,5.1 167.2,5.5 165.3,7.3 "></polygon>
<rect x="-190.3" y="51.6" style="fill:none;" width="28.3" height="3.8"></rect>
<text transform="matrix(1 0 0 1 -190.334 54.417)" style="font-family:'MyriadPro-Regular'; font-size:4px;">Hoteles. </text>
<g>
	<path class="st0" d="M-161.6,73.6h-5.2v-2.6c0-1.1-0.9-2.1-2.1-2.1c-1.1,0-2.1,0.9-2.1,2.1v2.6h-9.4v-2.6c0-1.1-0.9-2.1-2.1-2.1   c-1.1,0-2.1,0.9-2.1,2.1v2.6h-5.2c-0.9,0-1.6,0.7-1.6,1.6v22.6c0,0.9,0.7,1.6,1.6,1.6h28.1c0.9,0,1.6-0.7,1.6-1.6V75.2   C-160,74.3-160.7,73.6-161.6,73.6z M-176.7,80.6v4.2h-4.9v-4.2H-176.7z M-174.6,80.6h4.9v4.2h-4.9V80.6z M-183.7,80.6v4.2h-4.4   v-4.2H-183.7z M-183.7,86.9V90h-4.4v-3.1H-183.7z M-181.6,86.9h4.9V90h-4.9V86.9z M-176.7,92.1v4.2h-4.9v-4.2H-176.7z M-174.6,92.1   h4.9v4.2h-4.9V92.1z M-174.6,90v-3.1h4.9V90H-174.6z M-167.5,86.9h4.4V90h-4.4V86.9z M-167.5,84.8v-4.2h4.4v4.2H-167.5z    M-188.1,92.1h4.4v4.2h-4.4V92.1z M-167.5,96.3v-4.2h4.4v4.2H-167.5z"></path>
	<polygon class="st11" points="-171.1,84.4 -172,83.9 -173,84.4 -172.8,83.4 -173.5,82.6 -172.5,82.5 -172,81.6 -171.6,82.5    -170.5,82.6 -171.3,83.4  "></polygon>
	<polygon class="st11" points="-178,89.5 -178.9,89.1 -179.8,89.6 -179.7,88.5 -180.4,87.8 -179.4,87.6 -178.9,86.7 -178.4,87.6    -177.4,87.8 -178.2,88.5  "></polygon>
</g>
<g>
	<g>
		<g>
			<path class="st0" d="M-112,98c0,0.6-0.5,1.1-1.1,1.1h-29.8c-0.6,0-1.1-0.5-1.1-1.1v-2c0-0.6,0.5-1.1,1.1-1.1h29.8     c0.6,0,1.1,0.5,1.1,1.1V98z"></path>
		</g>
		<g>
			<g>
				<path class="st0" d="M-125.4,74.8c0,0.1-0.1,0.2-0.2,0.2h-4.7c-0.1,0-0.2-0.1-0.2-0.2v-3.3c0-0.1,0.1-0.2,0.2-0.2h4.7      c0.1,0,0.2,0.1,0.2,0.2V74.8z"></path>
			</g>
			<g>
				<path class="st0" d="M-125.4,79.9c0,0.1-0.1,0.2-0.2,0.2h-4.7c-0.1,0-0.2-0.1-0.2-0.2v-3.3c0-0.1,0.1-0.2,0.2-0.2h4.7      c0.1,0,0.2,0.1,0.2,0.2V79.9z"></path>
			</g>
			<g>
				<path class="st0" d="M-125.4,84.9c0,0.1-0.1,0.2-0.2,0.2h-4.7c-0.1,0-0.2-0.1-0.2-0.2v-3.3c0-0.1,0.1-0.2,0.2-0.2h4.7      c0.1,0,0.2,0.1,0.2,0.2V84.9z"></path>
			</g>
			<g>
				<path class="st0" d="M-117.3,74.8c0,0.1-0.1,0.2-0.2,0.2h-4.7c-0.1,0-0.2-0.1-0.2-0.2v-3.3c0-0.1,0.1-0.2,0.2-0.2h4.7      c0.1,0,0.2,0.1,0.2,0.2V74.8z"></path>
			</g>
			<g>
				<path class="st0" d="M-117.3,79.9c0,0.1-0.1,0.2-0.2,0.2h-4.7c-0.1,0-0.2-0.1-0.2-0.2v-3.3c0-0.1,0.1-0.2,0.2-0.2h4.7      c0.1,0,0.2,0.1,0.2,0.2V79.9z"></path>
			</g>
			<g>
				<path class="st0" d="M-117.3,84.9c0,0.1-0.1,0.2-0.2,0.2h-4.7c-0.1,0-0.2-0.1-0.2-0.2v-3.3c0-0.1,0.1-0.2,0.2-0.2h4.7      c0.1,0,0.2,0.1,0.2,0.2V84.9z"></path>
			</g>
			<g>
				<path class="st0" d="M-133.5,74.8c0,0.1-0.1,0.2-0.2,0.2h-4.7c-0.1,0-0.2-0.1-0.2-0.2v-3.3c0-0.1,0.1-0.2,0.2-0.2h4.7      c0.1,0,0.2,0.1,0.2,0.2V74.8z"></path>
			</g>
			<g>
				<path class="st0" d="M-133.5,79.9c0,0.1-0.1,0.2-0.2,0.2h-4.7c-0.1,0-0.2-0.1-0.2-0.2v-3.3c0-0.1,0.1-0.2,0.2-0.2h4.7      c0.1,0,0.2,0.1,0.2,0.2V79.9z"></path>
			</g>
			<g>
				<path class="st0" d="M-133.5,84.9c0,0.1-0.1,0.2-0.2,0.2h-4.7c-0.1,0-0.2-0.1-0.2-0.2v-3.3c0-0.1,0.1-0.2,0.2-0.2h4.7      c0.1,0,0.2,0.1,0.2,0.2V84.9z"></path>
			</g>
		</g>
		<g>
			<path class="st0" d="M-128.1,60.2c0-0.1,0.1-0.1,0.1,0c0.2,0.4,0.5,0.8,0.7,1.3c0,0.1,0.1,0.1,0.2,0.2c0.5,0.1,1,0.2,1.5,0.2     c0.1,0,0.1,0.1,0,0.1c-0.4,0.3-0.7,0.6-1.1,1c-0.1,0.1-0.1,0.2-0.1,0.3c0.1,0.5,0.2,0.9,0.2,1.4c0,0.1,0,0.1-0.1,0.1     c-0.4-0.2-0.9-0.5-1.3-0.7c-0.1,0-0.2,0-0.3,0c-0.4,0.2-0.9,0.4-1.3,0.7c-0.1,0-0.1,0-0.1-0.1c0.1-0.5,0.1-0.9,0.2-1.4     c0-0.1,0-0.2-0.1-0.3c-0.4-0.3-0.7-0.6-1.1-1c-0.1-0.1,0-0.1,0-0.1c0.5-0.1,1-0.2,1.5-0.2c0.1,0,0.2-0.1,0.2-0.2     C-128.5,61-128.3,60.6-128.1,60.2"></path>
		</g>
		<g>
			<path class="st0" d="M-122.9,61.7c0-0.1,0.1-0.1,0.1,0c0.2,0.4,0.3,0.7,0.5,1.1c0,0.1,0.1,0.1,0.2,0.1c0.4,0.1,0.8,0.2,1.2,0.3     c0.1,0,0.1,0.1,0,0.1c-0.3,0.3-0.6,0.5-1,0.8c-0.1,0-0.1,0.1-0.1,0.2c0,0.4,0.1,0.8,0.1,1.2c0,0.1,0,0.1-0.1,0.1     c-0.3-0.2-0.7-0.4-1-0.6c-0.1,0-0.2,0-0.2,0c-0.4,0.2-0.7,0.3-1.1,0.5c-0.1,0-0.1,0-0.1-0.1c0.1-0.4,0.2-0.8,0.3-1.2     c0-0.1,0-0.2-0.1-0.2c-0.3-0.3-0.6-0.6-0.9-0.9c-0.1-0.1,0-0.1,0-0.1c0.4,0,0.8-0.1,1.3-0.1c0.1,0,0.2-0.1,0.2-0.1     C-123.3,62.4-123.1,62-122.9,61.7"></path>
		</g>
		<g>
			<path class="st0" d="M-133.5,61.7c0-0.1,0.1-0.1,0.1,0c0.2,0.3,0.4,0.7,0.6,1c0,0.1,0.1,0.1,0.2,0.1c0.4,0,0.8,0.1,1.3,0.1     c0.1,0,0.1,0.1,0,0.1c-0.3,0.3-0.6,0.6-0.9,0.9c-0.1,0.1-0.1,0.1-0.1,0.2c0.1,0.4,0.2,0.8,0.3,1.2c0,0.1,0,0.1-0.1,0.1     c-0.4-0.2-0.7-0.3-1.1-0.5c-0.1,0-0.2,0-0.2,0c-0.4,0.2-0.7,0.4-1.1,0.6c-0.1,0-0.1,0-0.1-0.1c0-0.4,0.1-0.8,0.1-1.2     c0-0.1,0-0.2-0.1-0.2c-0.3-0.3-0.6-0.5-1-0.8c-0.1,0,0-0.1,0-0.1c0.4-0.1,0.8-0.2,1.2-0.3c0.1,0,0.2-0.1,0.2-0.1     C-133.9,62.4-133.7,62-133.5,61.7"></path>
		</g>
		<g>
			<path class="st0" d="M-118.6,64.9C-118.5,64.8-118.5,64.8-118.6,64.9c0.2,0.3,0.3,0.5,0.4,0.8c0,0,0.1,0.1,0.1,0.1     c0.3,0.1,0.6,0.2,0.8,0.2c0,0,0.1,0,0,0.1c-0.2,0.2-0.5,0.3-0.7,0.5c0,0-0.1,0.1-0.1,0.1c0,0.3,0,0.6,0,0.8c0,0,0,0.1-0.1,0     c-0.2-0.2-0.5-0.3-0.7-0.5c0,0-0.1,0-0.2,0c-0.3,0.1-0.5,0.2-0.8,0.3c0,0-0.1,0-0.1-0.1c0.1-0.3,0.2-0.5,0.2-0.8c0,0,0-0.1,0-0.2     c-0.2-0.2-0.4-0.4-0.6-0.6c0,0,0-0.1,0-0.1c0.3,0,0.6,0,0.9,0c0.1,0,0.1,0,0.1-0.1C-118.9,65.3-118.7,65.1-118.6,64.9"></path>
		</g>
		<g>
			<path class="st0" d="M-137.5,64.9C-137.5,64.9-137.4,64.9-137.5,64.9c0.2,0.2,0.4,0.5,0.6,0.7c0,0,0.1,0.1,0.1,0.1     c0.3,0,0.6,0,0.9,0c0.1,0,0.1,0,0,0.1c-0.2,0.2-0.4,0.4-0.6,0.6c0,0,0,0.1,0,0.2c0.1,0.3,0.2,0.5,0.2,0.8c0,0,0,0.1-0.1,0.1     c-0.3-0.1-0.5-0.2-0.8-0.3c0,0-0.1,0-0.2,0c-0.2,0.2-0.5,0.3-0.7,0.5c0,0-0.1,0-0.1,0c0-0.3,0-0.6,0-0.8c0,0,0-0.1-0.1-0.1     c-0.2-0.2-0.5-0.3-0.7-0.5c0,0,0-0.1,0-0.1c0.3-0.1,0.6-0.2,0.8-0.2c0,0,0.1-0.1,0.1-0.1C-137.7,65.5-137.6,65.2-137.5,64.9"></path>
		</g>
		<g>
			<g>
				<path class="st3" d="M-135.2,66.5c0,0-0.1,0.1,0,0.2c0.1,0.2,0.1,0.4,0.2,0.7h14.1c0.1-0.2,0.1-0.5,0.2-0.7c0-0.1,0-0.2,0-0.2      c0,0-0.1-0.1-0.1-0.1H-135C-135.1,66.4-135.1,66.5-135.2,66.5z"></path>
			</g>
			<g>
				<g>
					<path class="st3" d="M-139.9,97.3h23.8c1.1,0,2-0.9,2-2h-1c0,0.5-0.4,0.9-0.9,0.9h-23.8c-0.5,0-0.9-0.4-0.9-0.9h-1       C-141.8,96.4-141,97.3-139.9,97.3z"></path>
				</g>
				<g>
					<path class="st3" d="M-140.8,93.7V68.3c0-0.5,0.4-0.9,0.9-0.9h0.6c0-0.1,0-0.3,0-0.4c0-0.1,0-0.1-0.1-0.2       c-0.2-0.1-0.4-0.3-0.6-0.4l0,0c-1.1,0-1.9,0.9-1.9,2v25.4H-140.8z"></path>
				</g>
				<g>
					<path class="st3" d="M-116.1,67.4c0.5,0,0.9,0.4,0.9,0.9v25.4h1V68.3c0-1.1-0.9-2-1.9-2l0,0c-0.2,0.1-0.3,0.2-0.5,0.4       c-0.1,0-0.1,0.1-0.1,0.2c0,0.2,0,0.3,0,0.5H-116.1z"></path>
				</g>
			</g>
		</g>
		<g>
			<path class="st0" d="M-122.8,94v-6.8c0-0.3-0.2-0.5-0.5-0.5h-9.4c-0.3,0-0.5,0.2-0.5,0.5V94H-122.8z"></path>
		</g>
	</g>
</g>
<path class="st0" d="M-175.7,61c-2.4,0-4.3,1.9-4.3,4.3c0,0.9,0.3,1.8,0.8,2.5l0.1,0.2l3.1,4.3c0.1,0.1,0.2,0.1,0.3,0.1  s0.2-0.1,0.3-0.1l3-4.3l0.2-0.2c0.5-0.7,0.8-1.6,0.8-2.5C-171.4,62.9-173.3,61-175.7,61z M-175.7,66.7c-0.8,0-1.4-0.6-1.4-1.4  c0-0.8,0.6-1.4,1.4-1.4c0.8,0,1.4,0.6,1.4,1.4C-174.3,66.1-174.9,66.7-175.7,66.7z"></path>
<g>
	<g>
		<g>
			<g>
				<path class="st0" d="M-177.4,118.3c-6.3,0-11.5,5.1-11.5,11.5s5.1,11.5,11.5,11.5c6.3,0,11.5-5.1,11.5-11.5      S-171,118.3-177.4,118.3z M-169,127.7c0,0.1,0.1,0.2,0.1,0.4c0,0.2,0.1,0.4,0.1,0.5c0,0.1,0,0.2,0,0.3c0,0.3,0,0.6,0,0.9      c0,0.3,0,0.6,0,0.9c0,0.1,0,0.2,0,0.3c0,0.2,0,0.4-0.1,0.5c0,0.1-0.1,0.2-0.1,0.4c0,0.2-0.1,0.3-0.1,0.5c0,0.1-0.1,0.3-0.1,0.4      c0,0.1-0.1,0.3-0.1,0.4c-0.1,0.1-0.1,0.3-0.2,0.4c-0.1,0.1-0.1,0.2-0.2,0.4c-0.1,0.1-0.2,0.3-0.2,0.4c-0.1,0.1-0.1,0.2-0.2,0.3      c-0.1,0.1-0.2,0.3-0.3,0.4c-0.1,0.1-0.1,0.2-0.2,0.3c-0.1,0.1-0.2,0.3-0.4,0.4c-0.1,0.1-0.1,0.1-0.2,0.2      c-0.1,0.1-0.3,0.3-0.4,0.4c-0.1,0.1-0.1,0.1-0.2,0.2c-0.1,0.1-0.3,0.2-0.5,0.4c-0.1,0-0.1,0.1-0.2,0.1c-0.2,0.1-0.3,0.2-0.5,0.3      c-0.1,0-0.1,0.1-0.2,0.1c-0.2,0.1-0.4,0.2-0.5,0.3c-0.1,0-0.1,0.1-0.2,0.1c-0.2,0.1-0.4,0.1-0.6,0.2c-0.1,0-0.1,0.1-0.2,0.1      c-0.2,0.1-0.4,0.1-0.6,0.2c-0.1,0-0.2,0-0.2,0.1c-0.2,0-0.4,0.1-0.6,0.1c-0.1,0-0.2,0-0.3,0c-0.2,0-0.4,0-0.6,0      c-0.1,0-0.2,0-0.3,0v0c0,0,0,0-0.1,0c-4.8,0-8.6-3.9-8.6-8.6c0-4.8,3.9-8.6,8.6-8.6c0,0,0,0,0.1,0v0c0.1,0,0.2,0,0.2,0      c0.2,0,0.4,0,0.6,0c0.1,0,0.1,0,0.2,0c0.2,0,0.4,0.1,0.6,0.1c0.1,0,0.1,0,0.2,0.1c0.2,0,0.4,0.1,0.6,0.2c0.1,0,0.1,0,0.2,0.1      c0.2,0.1,0.4,0.1,0.6,0.2c0.1,0,0.1,0.1,0.2,0.1c0.2,0.1,0.4,0.2,0.6,0.3c0.1,0,0.1,0.1,0.2,0.1c0.2,0.1,0.4,0.2,0.5,0.3      c0.1,0,0.1,0.1,0.2,0.1c0.2,0.1,0.3,0.2,0.5,0.4c0.1,0.1,0.1,0.1,0.2,0.2c0.1,0.1,0.3,0.3,0.4,0.4c0.1,0.1,0.1,0.1,0.2,0.2      c0.1,0.1,0.3,0.3,0.4,0.4c0.1,0.1,0.1,0.2,0.2,0.2c0.1,0.1,0.2,0.3,0.3,0.4c0.1,0.1,0.1,0.2,0.2,0.3c0.1,0.1,0.2,0.3,0.3,0.4      c0.1,0.1,0.1,0.2,0.2,0.4c0.1,0.1,0.1,0.3,0.2,0.4c0.1,0.1,0.1,0.3,0.1,0.4c0,0.1,0.1,0.3,0.1,0.4      C-169.1,127.4-169.1,127.6-169,127.7z M-169.3,129.8c0,4.5-3.6,8.1-8.1,8.1c-4.5,0-8.1-3.6-8.1-8.1c0-4.5,3.6-8.1,8.1-8.1      C-172.9,121.7-169.3,125.4-169.3,129.8z M-190.3,120.4c0.2,1.5,0.5,4.4,0.5,5.9c0,1.8-0.4,1.8-1.5,2.2l0.4,11.4      c0,0.6-0.5,1.1-1,1.1c0,0-0.1,0-0.1,0v0c-0.5-0.1-0.9-0.5-0.9-1.1l0.4-11.4c-1.1-0.4-1.5-0.4-1.5-2.2c0-1.5,0.2-4.4,0.5-5.9h0.3      l0.1,6.5h0.5l0.1-6.5h0.2l0.1,6.5h0.1h0.1h0.3l0.1-6.5h0.3l0.1,6.5h0.5l0-6.5H-190.3z"></path>
			</g>
		</g>
	</g>
</g>
<g>
	<g>
		<path class="st0" d="M-161.4,130.4c0-0.7,2.2-1.3,3.1-2.3c0.7-0.8,1.3-1.5,1.3-3.2c-0.1-2-1.3-7.9-1.3-7.9h-6.8    c0,0-1.2,5.9-1.3,7.9c-0.1,1.6,0.5,2.4,1.3,3.2c0.9,0.9,3.1,1.5,3.1,2.3c0,0.7,0,2.6,0,2.6h0v7.4h-3.1v0.4h6.8v-0.4h-3.1V133    C-161.4,133-161.4,131.1-161.4,130.4z"></path>
		<path class="st0" d="M-164.1,122.6c-0.2,2.3,0,4.9,1.5,6c-1.6-0.7-2.8-1.2-2.4-6h-0.5l0.7-5.2h6.1l0.7,5.2H-164.1z"></path>
	</g>
</g>
<g>
	<g>
		<path class="st0" d="M-134.6,125.7c0.1-0.1,0.2-0.3,0.2-0.4l-0.3-2c0-0.1,0-0.3,0.1-0.4l1.4-1.4c0.1-0.1,0.2-0.3,0.1-0.4    c-0.1-0.2-0.2-0.3-0.3-0.3l-2-0.3c-0.1,0-0.3-0.1-0.3-0.2l-0.9-1.8c-0.1-0.1-0.2-0.2-0.4-0.2c-0.2,0-0.3,0.1-0.4,0.2l-0.9,1.8    c-0.1,0.1-0.2,0.2-0.3,0.2l-2,0.3c-0.2,0-0.3,0.1-0.3,0.3c-0.1,0.2,0,0.3,0.1,0.4l1.4,1.4c0.1,0.1,0.1,0.2,0.1,0.4l-0.3,2    c0,0.2,0,0.3,0.2,0.4c0.1,0.1,0.3,0.1,0.5,0l1.8-0.9c0.1-0.1,0.3-0.1,0.4,0l1.8,0.9C-134.9,125.8-134.8,125.7-134.6,125.7z"></path>
		<path class="st0" d="M-125.3,125.7c0.1-0.1,0.2-0.3,0.2-0.4l-0.3-2c0-0.1,0-0.3,0.1-0.4l1.4-1.4c0.1-0.1,0.2-0.3,0.1-0.4    c-0.1-0.2-0.2-0.3-0.3-0.3l-2-0.3c-0.1,0-0.3-0.1-0.3-0.2l-0.9-1.8c-0.1-0.1-0.2-0.2-0.4-0.2c-0.2,0-0.3,0.1-0.4,0.2l-0.9,1.8    c-0.1,0.1-0.2,0.2-0.3,0.2l-2,0.3c-0.2,0-0.3,0.1-0.3,0.3c-0.1,0.2,0,0.3,0.1,0.4l1.4,1.4c0.1,0.1,0.1,0.2,0.1,0.4l-0.3,2    c0,0.2,0,0.3,0.2,0.4c0.1,0.1,0.3,0.1,0.5,0l1.8-0.9c0.1-0.1,0.3-0.1,0.4,0l1.8,0.9C-125.6,125.8-125.4,125.7-125.3,125.7z"></path>
		<path class="st0" d="M-128.8,130.1l-2-0.3c-0.1,0-0.3-0.1-0.3-0.2l-0.9-1.8c-0.1-0.1-0.2-0.2-0.4-0.2c-0.2,0-0.3,0.1-0.4,0.2    l-0.9,1.8c-0.1,0.1-0.2,0.2-0.3,0.2l-2,0.3c-0.2,0-0.3,0.1-0.3,0.3c-0.1,0.2,0,0.3,0.1,0.4l1.4,1.4c0.1,0.1,0.1,0.2,0.1,0.4    l-0.3,2c0,0.2,0,0.3,0.2,0.4c0.1,0.1,0.3,0.1,0.5,0l1.8-0.9c0.1-0.1,0.3-0.1,0.4,0l1.8,0.9c0.1,0.1,0.3,0.1,0.5,0    c0.1-0.1,0.2-0.3,0.2-0.4l-0.3-2c0-0.1,0-0.3,0.1-0.4l1.4-1.4c0.1-0.1,0.2-0.3,0.1-0.4C-128.5,130.2-128.7,130.1-128.8,130.1z"></path>
		<path class="st0" d="M-119.5,130.1l-2-0.3c-0.1,0-0.3-0.1-0.3-0.2l-0.9-1.8c-0.1-0.1-0.2-0.2-0.4-0.2c-0.2,0-0.3,0.1-0.4,0.2    l-0.9,1.8c-0.1,0.1-0.2,0.2-0.3,0.2l-2,0.3c-0.2,0-0.3,0.1-0.3,0.3c-0.1,0.2,0,0.3,0.1,0.4l1.4,1.4c0.1,0.1,0.1,0.2,0.1,0.4    l-0.3,2c0,0.2,0,0.3,0.2,0.4c0.1,0.1,0.3,0.1,0.5,0l1.8-0.9c0.1-0.1,0.3-0.1,0.4,0l1.8,0.9c0.1,0.1,0.3,0.1,0.5,0    c0.1-0.1,0.2-0.3,0.2-0.4l-0.3-2c0-0.1,0-0.3,0.1-0.4l1.4-1.4c0.1-0.1,0.2-0.3,0.1-0.4C-119.2,130.2-119.3,130.1-119.5,130.1z"></path>
		<path class="st0" d="M-114.8,120.8l-2-0.3c-0.1,0-0.3-0.1-0.3-0.2l-0.9-1.8c-0.1-0.1-0.2-0.2-0.4-0.2c-0.2,0-0.3,0.1-0.4,0.2    l-0.9,1.8c-0.1,0.1-0.2,0.2-0.3,0.2l-2,0.3c-0.2,0-0.3,0.1-0.3,0.3c0,0.2,0,0.3,0.1,0.4l1.4,1.4c0.1,0.1,0.1,0.2,0.1,0.4l-0.3,2    c0,0.2,0,0.3,0.2,0.4c0.1,0.1,0.3,0.1,0.5,0l1.8-0.9c0.1-0.1,0.3-0.1,0.4,0l1.8,0.9c0.1,0.1,0.3,0.1,0.5,0    c0.1-0.1,0.2-0.3,0.2-0.4l-0.3-2c0-0.1,0-0.3,0.1-0.4l1.4-1.4c0.1-0.1,0.2-0.3,0.1-0.4C-114.5,120.9-114.6,120.8-114.8,120.8z"></path>
		<path class="st0" d="M-112.6,112.3h-30.1c-2,0-3.6,1.6-3.6,3.6v21.4c0,2,1.6,3.7,3.6,3.7h30.1c2,0,3.6-1.7,3.6-3.7V116    C-109,113.9-110.6,112.3-112.6,112.3z M-112.2,137.3c0,0.3-0.2,0.5-0.5,0.5h-30.2c-0.3,0-0.5-0.2-0.5-0.5v-21.4    c0-0.3,0.2-0.5,0.5-0.5h30.2c0.3,0,0.5,0.2,0.5,0.5V137.3z"></path>
	</g>
</g>
</svg>